<svg width="24" height="24" viewBox="0 0 24 24" xmlns="http://www.w3.org/2000/svg"><title>alarm</title><path d="M17.028 5.777a1 1 0 0 1 1.258-1.554A9.98 9.98 0 0 1 22 12a9.98 9.98 0 0 1-3.714 7.777 1 1 0 0 1-1.258-1.554A7.981 7.981 0 0 0 20 12a7.981 7.981 0 0 0-2.972-6.223zM6.972 18.223a1 1 0 0 1-1.258 1.554A9.98 9.98 0 0 1 2 12a9.98 9.98 0 0 1 3.714-7.777 1 1 0 1 1 1.258 1.554A7.981 7.981 0 0 0 4 12a7.981 7.981 0 0 0 2.972 6.223zm7.012-8.473a1 1 0 1 1 1.324-1.5A4.99 4.99 0 0 1 17 12a4.99 4.99 0 0 1-1.692 3.75 1 1 0 0 1-1.324-1.5A2.99 2.99 0 0 0 15 12a2.99 2.99 0 0 0-1.016-2.25zm-3.968 4.5a1 1 0 0 1-1.324 1.5A4.99 4.99 0 0 1 7 12a4.99 4.99 0 0 1 1.692-3.75 1 1 0 0 1 1.324 1.5A2.99 2.99 0 0 0 9 12a2.99 2.99 0 0 0 1.016 2.25z" fill="#000" fill-rule="nonzero"/></svg>