<svg width="24" height="24" viewBox="0 0 24 24" xmlns="http://www.w3.org/2000/svg"><title>android</title><path d="M15.874 8a4.002 4.002 0 0 0-7.748 0h7.748zM9.411 3.586A5.976 5.976 0 0 1 12 3c.927 0 1.805.21 2.59.586l.516-1.033a1 1 0 0 1 1.788.894l-.654 1.308A5.981 5.981 0 0 1 18 9v9a1 1 0 0 1-1 1h-1v2a1 1 0 0 1-2 0v-3a1 1 0 0 1 1-1h1v-7H8v7h3.5a1 1 0 0 1 0 2H10v2a1 1 0 0 1-2 0v-2H7a1 1 0 0 1-1-1V9c0-1.658.672-3.159 1.76-4.245l-.654-1.308a1 1 0 0 1 1.788-.894l.517 1.033zM3 9a1 1 0 1 1 2 0v5a1 1 0 0 1-2 0V9zm16 0a1 1 0 0 1 2 0v5a1 1 0 0 1-2 0V9z" fill="#000" fill-rule="nonzero"/></svg>