<svg width="24" height="24" viewBox="0 0 24 24" xmlns="http://www.w3.org/2000/svg"><title>apple</title><path d="M11.678 8.406c.34.132.269.105.355.136.259.094.428.133.588.133.124 0 .23-.023.396-.085.08-.03.424-.173.442-.18.683-.275 1.299-.41 2.168-.41 1.46 0 2.709.638 3.677 1.856a1 1 0 0 1-.201 1.436c-.865.619-1.271 1.399-1.271 2.432 0 .94.513 1.833 1.447 2.105a1 1 0 0 1 .629 1.38c-.671 1.452-1.293 2.517-1.896 3.264-.855 1.057-1.721 1.529-2.696 1.529-.468 0-.84-.103-1.292-.307-.067-.03-.144-.067-.27-.126-.39-.182-.616-.245-.989-.245-.362 0-.534.05-.961.247-.672.31-1.087.43-1.77.43-1.308 0-2.903-1.546-3.925-3.606A10.533 10.533 0 0 1 5 13.725C5 9.894 7.498 8 9.839 8c.645 0 1.113.122 1.839.406zM15.628 10c-.596 0-.963.08-1.422.265a25.31 25.31 0 0 1-.488.198c-.374.14-.708.212-1.097.212-.431 0-.813-.086-1.272-.253l-.207-.078-.192-.075c-.512-.2-.775-.269-1.111-.269-.346 0-1.022.21-1.557.616-.805.61-1.282 1.59-1.282 3.108 0 1.325.325 2.624.9 3.782.72 1.449 1.799 2.496 2.133 2.496.338 0 .5-.048.913-.238.687-.317 1.112-.44 1.819-.44.71 0 1.203.138 1.835.433.137.064.198.093.25.116.214.097.328.129.466.129.328 0 .644-.173 1.14-.787.367-.453.767-1.096 1.202-1.95-1.203-.783-1.826-2.153-1.826-3.54 0-1.28.417-2.388 1.227-3.281A2.408 2.408 0 0 0 15.627 10zm1.37-6.941c-.134 2.28-1.516 3.664-3.88 3.935a1 1 0 0 1-1.113-.95c-.096-2.182 1.296-3.576 3.818-4.028a1 1 0 0 1 1.175 1.043z" fill="#000" fill-rule="nonzero"/></svg>