<svg width="24" height="24" viewBox="0 0 24 24" xmlns="http://www.w3.org/2000/svg"><title>backspace</title><path d="M14 10.586l2.293-2.293a1 1 0 0 1 1.414 1.414l-6 6a1 1 0 0 1-1.414-1.414L12.586 12l-2.293-2.293a1 1 0 0 1 1.414-1.414L14 10.586zM20 6h-8.5a1 1 0 0 1 0-2H21a1 1 0 0 1 1 1v14a1 1 0 0 1-1 1H8a1 1 0 0 1-.814-.419l-5-7a1 1 0 0 1 0-1.162l5-7A1 1 0 1 1 8.814 5.58L4.229 12l4.286 6H20V6zm-4.707 8.707a1 1 0 0 1 1.414-1.414l1 1a1 1 0 0 1-1.414 1.414l-1-1z" fill="#000" fill-rule="nonzero"/></svg>