<svg width="24" height="24" viewBox="0 0 24 24" xmlns="http://www.w3.org/2000/svg"><title>battery</title><path d="M18 8h-4a1 1 0 0 1 0-2h5a1 1 0 0 1 1 1v1h1a1 1 0 0 1 1 1v6a1 1 0 0 1-1 1h-1v1a1 1 0 0 1-1 1h-3a1 1 0 0 1 0-2h2v-1a1 1 0 0 1 1-1h1v-4h-1a1 1 0 0 1-1-1V8zM4 16h4a1 1 0 0 1 0 2H3a1 1 0 0 1-1-1V7a1 1 0 0 1 1-1h3.5a1 1 0 1 1 0 2H4v8zm4-3a1 1 0 0 1-.92-1.394l3-7a1 1 0 1 1 1.84.788L9.516 11H14a1 1 0 0 1 .92 1.394l-3 7a1 1 0 1 1-1.84-.788L12.484 13H8z" fill="#000" fill-rule="nonzero"/></svg>