<svg width="24" height="24" viewBox="0 0 24 24" xmlns="http://www.w3.org/2000/svg"><title>behance</title><path d="M4 7v3h2.5a1.5 1.5 0 0 0 0-3H4zm11 7c0 2.249 2.035 3.61 4.108 2.726a1 1 0 1 1 .784 1.84C16.494 20.014 13 17.677 13 14c0-2.734 1.983-5 4.5-5s4.5 2.266 4.5 5a1 1 0 0 1-1 1h-4a1 1 0 0 1 0-2h2.858c-.348-1.177-1.291-2-2.358-2-1.349 0-2.5 1.316-2.5 3zm-5.58-3.57A4.5 4.5 0 0 1 7.5 19H3a1 1 0 0 1-1-1V6a1 1 0 0 1 1-1h3.5a3.5 3.5 0 0 1 2.92 5.43zM4 12v5h3.5a2.5 2.5 0 1 0 0-5H4zm12-4a1 1 0 0 1 0-2h3a1 1 0 0 1 0 2h-3z" fill="#000" fill-rule="nonzero"/></svg>