<svg width="24" height="24" viewBox="0 0 24 24" xmlns="http://www.w3.org/2000/svg"><title>camera</title><path d="M11 16.874A4.002 4.002 0 0 1 12 9a4 4 0 0 1 1 7.874V19a1 1 0 0 1-1 1H3a1 1 0 0 1-1-1V7.897a1 1 0 0 1 .977-1l3.23-.074L7.79 4.445A1 1 0 0 1 8.623 4h6.754a1 1 0 0 1 .832.445l1.584 2.378 3.23.074a1 1 0 0 1 .977 1V19a1 1 0 0 1-1 1h-5a1 1 0 0 1 0-2h4V8.874l-2.773-.064a1 1 0 0 1-.81-.445L14.843 6H9.158L7.582 8.365a1 1 0 0 1-.809.445L4 8.874V18h7v-1.126zM12 15a2 2 0 1 0 0-4 2 2 0 0 0 0 4z" fill="#000" fill-rule="nonzero"/></svg>