<svg width="24" height="24" viewBox="0 0 24 24" xmlns="http://www.w3.org/2000/svg"><title>car</title><path d="M5 15.382l1.447.724A1 1 0 0 1 7 17v3a1 1 0 0 1-2 0v-2.382l-1.447-.724A1 1 0 0 1 3 16v-4a1 1 0 0 1 .293-.707l1-1A1 1 0 0 1 5 10h14a1 1 0 0 1 .707.293l1 1A1 1 0 0 1 21 12v4a1 1 0 0 1-.553.894L19 17.618V20a1 1 0 0 1-2 0v-3a1 1 0 0 1 .553-.894L19 15.382v-2.968L18.586 12H5.414L5 12.414v2.968zM7 15a1 1 0 1 1 0-2 1 1 0 0 1 0 2zm10 0a1 1 0 1 1 0-2 1 1 0 0 1 0 2zM7.78 5l-.81 3.243A1 1 0 0 1 6 9H4a1 1 0 1 1 0-2h1.22l.81-3.243A1 1 0 0 1 7 3h10a1 1 0 0 1 .97.757L18.78 7H20a1 1 0 0 1 0 2h-2a1 1 0 0 1-.97-.757L16.22 5H7.78zM9 18a1 1 0 0 1 0-2h6a1 1 0 0 1 0 2H9z" fill="#000" fill-rule="nonzero"/></svg>