<svg width="24" height="24" viewBox="0 0 24 24" xmlns="http://www.w3.org/2000/svg"><title>cards-2</title><path d="M16.984 7l-5.48-3.132a1 1 0 1 1 .992-1.736l7 4a1 1 0 0 1 0 1.736l-7 4a1 1 0 0 1-.992 0l-7-4a1 1 0 0 1 0-1.736l3.865-2.209A1 1 0 1 1 9.36 5.66L7.016 7 12 9.848 16.984 7zm1.52 4.132a1 1 0 1 1 .992 1.736l-7 4a1 1 0 0 1-.992 0l-7-4a1 1 0 1 1 .992-1.736L12 14.848l6.504-3.716zm0 5a1 1 0 1 1 .992 1.736l-7 4a1 1 0 0 1-.992 0l-7-4a1 1 0 1 1 .992-1.736L12 19.848l6.504-3.716z" fill="#000" fill-rule="nonzero"/></svg>