<svg width="24" height="24" viewBox="0 0 24 24" xmlns="http://www.w3.org/2000/svg"><title>dashboard</title><path d="M11 14.414l-3.707-3.707a1 1 0 0 1 1.414-1.414l4 4A1 1 0 0 1 13 14v5a1 1 0 0 1-1 1H4.516a1 1 0 0 1-.831-.444A9.957 9.957 0 0 1 2 14C2 8.477 6.477 4 12 4s10 4.477 10 10a9.957 9.957 0 0 1-1.685 5.556 1 1 0 0 1-.83.444H16a1 1 0 0 1 0-2h2.93a8 8 0 1 0-13.86 0H11v-3.586zm4.707-2.707a1 1 0 0 1-1.414-1.414l1-1a1 1 0 0 1 1.414 1.414l-1 1zM6.5 15a1 1 0 0 1 0-2h1a1 1 0 0 1 0 2h-1zm10 0a1 1 0 0 1 0-2h1a1 1 0 0 1 0 2h-1zM11 8a1 1 0 0 1 2 0v1a1 1 0 0 1-2 0V8z" fill="#000" fill-rule="nonzero"/></svg>