<svg width="24" height="24" viewBox="0 0 24 24" xmlns="http://www.w3.org/2000/svg"><title>delivery</title><path d="M14.17 16a3.001 3.001 0 0 1 5.66 0H20v-3.586L17.586 10H15v2a1 1 0 0 1-2 0V9a1 1 0 0 1 1-1h4a1 1 0 0 1 .707.293l3 3A1 1 0 0 1 22 12v5a1 1 0 0 1-1 1h-1.17a3.001 3.001 0 0 1-5.66 0H9.83a3.001 3.001 0 0 1-5.66 0H3a1 1 0 0 1-1-1V5a1 1 0 0 1 1-1h11a1 1 0 0 1 0 2H4v10h.17a3.001 3.001 0 0 1 5.66 0h4.34zM7 18a1 1 0 1 0 0-2 1 1 0 0 0 0 2zm10 0a1 1 0 1 0 0-2 1 1 0 0 0 0 2z" fill="#000" fill-rule="nonzero"/></svg>