<svg width="24" height="24" viewBox="0 0 24 24" xmlns="http://www.w3.org/2000/svg"><title>dribbble</title><path d="M5.73 16.969c1.909-2.516 4.18-4.209 6.79-5.072a31.732 31.732 0 0 0-.345-.81c-2.434.87-5.162 1.212-8.174 1.028a7.965 7.965 0 0 0 1.729 4.854zm1.442 1.41A7.965 7.965 0 0 0 12 20a1 1 0 0 1 0 2C6.477 22 2 17.523 2 12S6.477 2 12 2s10 4.477 10 10a10 10 0 0 1-5.663 9.013 1 1 0 0 1-1.408-.669 1 1 0 0 1-.09-.27c-.417-2.273-.956-4.373-1.617-6.302-2.334.753-4.342 2.286-6.05 4.607zm12.814-6.862a7.96 7.96 0 0 0-1.635-4.382 16.484 16.484 0 0 1-4.337 3.166c.16.365.317.736.468 1.114 1.71-.283 3.546-.25 5.504.102zm-.132 2.01c-1.67-.322-3.225-.387-4.67-.196a44.813 44.813 0 0 1 1.397 5.229 8 8 0 0 0 3.273-5.034zM4.221 10.123c2.622.151 4.978-.132 7.079-.85a24.194 24.194 0 0 0-2.943-4.398 8.016 8.016 0 0 0-4.136 5.248zm12.725-4.413A7.966 7.966 0 0 0 12 4c-.561 0-1.109.058-1.637.168a26.665 26.665 0 0 1 2.787 4.328 14.513 14.513 0 0 0 3.796-2.785z" fill="#000" fill-rule="nonzero"/></svg>