<svg width="24" height="24" viewBox="0 0 24 24" xmlns="http://www.w3.org/2000/svg"><title>enlarge</title><path d="M5 5v4a1 1 0 1 1-2 0V4a1 1 0 0 1 1-1h5a1 1 0 1 1 0 2H5zm14 0h-4a1 1 0 0 1 0-2h5a1 1 0 0 1 1 1v5a1 1 0 0 1-2 0V5zM5 19h4a1 1 0 0 1 0 2H4a1 1 0 0 1-1-1v-5a1 1 0 0 1 2 0v4zm14 0v-4a1 1 0 0 1 2 0v5a1 1 0 0 1-1 1h-5a1 1 0 0 1 0-2h4zM6.293 7.707a1 1 0 0 1 1.414-1.414l2 2a1 1 0 1 1-1.414 1.414l-2-2zm8 8a1 1 0 0 1 1.414-1.414l2 2a1 1 0 0 1-1.414 1.414l-2-2zm1.414-6a1 1 0 1 1-1.414-1.414l2-2a1 1 0 0 1 1.414 1.414l-2 2zm-8 8a1 1 0 1 1-1.414-1.414l2-2a1 1 0 1 1 1.414 1.414l-2 2z" fill="#000" fill-rule="nonzero"/></svg>