<svg width="24" height="24" viewBox="0 0 24 24" xmlns="http://www.w3.org/2000/svg"><title>error-1</title><path d="M12 10.586l2.293-2.293a1 1 0 0 1 1.414 1.414l-6 6a1 1 0 1 1-1.414-1.414L10.586 12 8.293 9.707a1 1 0 0 1 1.414-1.414L12 10.586zm-8 4.64l1.77 2.136a1 1 0 0 1-1.54 1.276l-2-2.414a1 1 0 0 1-.23-.638V8.414a1 1 0 0 1 .293-.707l5.414-5.414A1 1 0 0 1 8.414 2h7.646a1 1 0 0 1 .737.324l4.94 5.39a1 1 0 0 1 .263.675v7.222a1 1 0 0 1-.263.676l-4.94 5.389a1 1 0 0 1-.737.324H8.414a1 1 0 0 1 0-2h7.206L20 15.222V8.778L15.62 4H8.828L4 8.828v6.397zm9.293-.519a1 1 0 0 1 1.414-1.414l1 1a1 1 0 0 1-1.414 1.414l-1-1z" fill="#000" fill-rule="nonzero"/></svg>