<svg width="24" height="24" viewBox="0 0 24 24" xmlns="http://www.w3.org/2000/svg"><title>eye</title><path d="M2.143 11.485C4.168 8.115 7.896 6 12 6c4.104 0 7.832 2.115 9.857 5.485a1 1 0 0 1 0 1.03C19.832 15.885 16.104 18 12 18c-4.104 0-7.832-2.115-9.857-5.485a1 1 0 0 1 0-1.03zM12 16c3.185 0 6.086-1.531 7.809-4C18.086 9.531 15.185 8 12 8c-3.185 0-6.086 1.531-7.809 4 1.723 2.469 4.624 4 7.809 4zm-3-4a1 1 0 0 1 2 0 1 1 0 1 0 1-1 1 1 0 0 1 0-2 3 3 0 1 1-3 3z" fill="#000" fill-rule="nonzero"/></svg>