<svg width="24" height="24" viewBox="0 0 24 24" xmlns="http://www.w3.org/2000/svg"><title>face-id</title><path d="M19 5h-3a1 1 0 0 1 0-2h4a1 1 0 0 1 1 1v4a1 1 0 0 1-2 0V5zM5 5v3a1 1 0 1 1-2 0V4a1 1 0 0 1 1-1h4a1 1 0 1 1 0 2H5zm14 14v-3a1 1 0 0 1 2 0v4a1 1 0 0 1-1 1h-4a1 1 0 0 1 0-2h3zM5 19h3a1 1 0 0 1 0 2H4a1 1 0 0 1-1-1v-4a1 1 0 0 1 2 0v3zm8-8a1 1 0 0 1 0 2h-1a1 1 0 0 1-1-1V9a1 1 0 0 1 2 0v2zm1.828 2.828a1 1 0 0 1 1.415 1.415 6 6 0 0 1-8.486 0 1 1 0 0 1 1.415-1.415 4 4 0 0 0 5.656 0zM15 9a1 1 0 0 1 2 0v1a1 1 0 0 1-2 0V9zM7 9a1 1 0 1 1 2 0v1a1 1 0 0 1-2 0V9z" fill="#000" fill-rule="nonzero"/></svg>