<svg width="24" height="24" viewBox="0 0 24 24" xmlns="http://www.w3.org/2000/svg"><title>fb-messenger</title><path d="M8 19.196l1.871-1.17a1 1 0 0 1 .688-.14c.472.076.953.114 1.441.114 4.443 0 8-3.162 8-7s-3.557-7-8-7-8 3.162-8 7c0 1.503.543 2.935 1.54 4.127a1 1 0 1 1-1.534 1.283C2.714 14.865 2 12.982 2 11c0-4.999 4.502-9 10-9s10 4.001 10 9-4.502 9-10 9c-.464 0-.924-.028-1.378-.085L7.53 21.848A1 1 0 0 1 6 21v-3.347a1 1 0 0 1 2 0v1.543zm.555-6.364a1 1 0 1 1-1.11-1.664l3-2a1 1 0 0 1 1.262.125l1.42 1.42 2.318-1.545a1 1 0 0 1 1.11 1.664l-3 2a1 1 0 0 1-1.262-.125l-1.42-1.42-2.318 1.545z" fill="#000" fill-rule="nonzero"/></svg>