<svg width="24" height="24" viewBox="0 0 24 24" xmlns="http://www.w3.org/2000/svg"><title>fingerprint</title><path d="M4 15a1 1 0 0 1-2 0v-3c0-2.454.889-4.773 2.472-6.583a1 1 0 1 1 1.505 1.317A7.964 7.964 0 0 0 4 12v3zM9.085 4.548a1 1 0 0 1-.73-1.863A9.977 9.977 0 0 1 12 2c5.523 0 10 4.477 10 10 0 2.426-.367 4.263-1.15 5.527a1 1 0 1 1-1.7-1.054c.55-.889.85-2.385.85-4.473A8 8 0 0 0 9.085 4.548zm-2.28 15.044a1 1 0 1 1-1.61-1.184c.225-.307.398-.655.524-1.044C5.945 16.673 6 16.057 6 15a1 1 0 0 1 2 0c0 1.256-.07 2.035-.38 2.984a5.645 5.645 0 0 1-.814 1.608zM8 12a1 1 0 0 1-2 0 6 6 0 0 1 9.992-4.48 1 1 0 0 1-1.331 1.493A4 4 0 0 0 8 12zm8 0a1 1 0 0 1 2 0c0 3.897-.72 6.776-2.223 8.63a1 1 0 0 1-1.554-1.26C15.386 17.936 16 15.481 16 12zm-4.997-.926a1 1 0 0 1 1.994-.148c.285 3.868-.42 7.392-2.116 10.548a1 1 0 1 1-1.762-.948c1.513-2.813 2.142-5.956 1.884-9.452z" fill="#000" fill-rule="nonzero"/></svg>