<svg width="24" height="24" viewBox="0 0 24 24" xmlns="http://www.w3.org/2000/svg"><title>flight</title><path d="M6.34 5.983L8.215 7.11a1 1 0 0 1-1.029 1.715L4.213 7.039a1 1 0 0 1-.193-1.564l2.182-2.182a1 1 0 0 1 1.023-.242l7.05 2.35 2.109-2.108A1 1 0 0 1 17.09 3H20a1 1 0 0 1 1 1v2.91a1 1 0 0 1-.293.706L18.6 9.725l2.35 7.05a1 1 0 0 1-.242 1.023l-2.182 2.182a1 1 0 0 1-1.564-.193l-3.16-5.265-1.2 1.2.38 1.9a1 1 0 0 1-.274.903l-2.182 2.182a1 1 0 0 1-1.564-.193l-2.054-3.421-3.421-2.054a1 1 0 0 1-.193-1.564l2.182-2.182a1 1 0 0 1 .903-.274l1.9.38 2.106-2.106a1 1 0 0 1 1.414 1.414l-2.485 2.485a1 1 0 0 1-.903.273l-1.9-.38-.897.898 2.538 1.523a1 1 0 0 1 .343.343l1.523 2.538.897-.897-.38-1.9a1 1 0 0 1 .274-.903l2.485-2.485a1 1 0 0 1 1.564.193l3.16 5.265.839-.84-2.35-7.05a1 1 0 0 1 .241-1.023L19 6.495V5h-1.495l-2.252 2.253a1 1 0 0 1-1.024.241l-7.05-2.35-.839.84z" fill="#000" fill-rule="nonzero"/></svg>