<svg width="24" height="24" viewBox="0 0 24 24" xmlns="http://www.w3.org/2000/svg"><title>game-controller</title><path d="M9 9h1a1 1 0 0 1 0 2H9v1a1 1 0 0 1-2 0v-1H6a1 1 0 0 1 0-2h1V8a1 1 0 1 1 2 0v1zm-5 9h4a1 1 0 0 1 0 2H3a1 1 0 0 1-1-1V7a1 1 0 0 1 .293-.707l2-2A1 1 0 0 1 5 4h14a1 1 0 0 1 .707.293l2 2A1 1 0 0 1 22 7v12a1 1 0 0 1-1 1h-5a1 1 0 0 1-.894-.553L13.382 16h-2.764l-.263.526a1 1 0 1 1-1.789-.894l.54-1.08A1 1 0 0 1 10 14h4a1 1 0 0 1 .894.553L16.618 18H20V7.414L18.586 6H5.414L4 7.414V18zm12-9a1 1 0 1 1 0-2 1 1 0 0 1 0 2zm0 4a1 1 0 1 1 0-2 1 1 0 0 1 0 2zm2-2a1 1 0 1 1 0-2 1 1 0 0 1 0 2zm-4 0a1 1 0 1 1 0-2 1 1 0 0 1 0 2z" fill="#000" fill-rule="nonzero"/></svg>