<svg width="24" height="24" viewBox="0 0 24 24" xmlns="http://www.w3.org/2000/svg"><title>ghost</title><path d="M6 20a1 1 0 0 1-2 0V10a8 8 0 1 1 16 0v10a1 1 0 0 1-2 0V10a6 6 0 1 0-12 0v10zm3.5-10a1.5 1.5 0 1 1 0-3 1.5 1.5 0 0 1 0 3zm5 0a1.5 1.5 0 1 1 0-3 1.5 1.5 0 0 1 0 3zm-6.055 3.832a1 1 0 0 1 1.11-1.664c.843.562 1.653.832 2.445.832.792 0 1.602-.27 2.445-.832a1 1 0 1 1 1.11 1.664C14.398 14.603 13.208 15 12 15c-1.208 0-2.398-.397-3.555-1.168zM9.5 21a1 1 0 0 1-2 0v-2a1 1 0 0 1 2 0v2zm3.5-1a1 1 0 0 1-2 0v-2a1 1 0 0 1 2 0v2zm3.5 1a1 1 0 0 1-2 0v-2a1 1 0 0 1 2 0v2z" fill="#000" fill-rule="nonzero"/></svg>