<svg width="24" height="24" viewBox="0 0 24 24" xmlns="http://www.w3.org/2000/svg"><title>goblet</title><path d="M13 16h-3a1 1 0 0 1-.555-.168l-3-2A1 1 0 0 1 6 13v-1.465L3.445 9.832A1 1 0 0 1 3 9V5a1 1 0 0 1 1-1h2a1 1 0 0 1 1-1h10a1 1 0 0 1 1 1h2a1 1 0 0 1 1 1v4a1 1 0 0 1-.445.832L18 11.535V13a1 1 0 0 1-.445.832L15 15.535v.847l1.447.724A1 1 0 0 1 17 18v2a1 1 0 0 1-1 1H8a1 1 0 0 1-1-1v-2a1 1 0 0 1 2 0v1h6v-.382l-1.447-.724A1 1 0 0 1 13 17v-1zm3-11H8v2a1 1 0 1 1-2 0V6H5v2.465l2.542 1.694A1 1 0 0 1 8 11v1.465L10.303 14h3.394L16 12.465V5zm3 1h-1v3.131l1-.666V6z" fill="#000" fill-rule="nonzero"/></svg>