<svg width="24" height="24" viewBox="0 0 24 24" xmlns="http://www.w3.org/2000/svg"><title>google</title><path d="M14 13h2.584a1 1 0 1 1 0 2H13a1 1 0 0 1-1-1v-3a1 1 0 0 1 1-1h7.945a1 1 0 0 1 .994.89c.04.367.061.737.061 1.11 0 5.523-4.477 10-10 10S2 17.523 2 12 6.477 2 12 2c2.139 0 4.179.674 5.873 1.906a1 1 0 0 1 .12 1.516l-2.894 2.893a1 1 0 0 1-1.186.17A4 4 0 1 0 12 16a1 1 0 0 1 0 2.001 6 6 0 1 1 2.178-11.592l1.51-1.51A7.965 7.965 0 0 0 12 4a8 8 0 1 0 8 8h-6v1z" fill="#000" fill-rule="nonzero"/></svg>