<svg width="24" height="24" viewBox="0 0 24 24" xmlns="http://www.w3.org/2000/svg"><title>hand-like</title><path d="M6 13.17a3.001 3.001 0 1 1-2 0V11a1 1 0 0 1 .684-.949l2.674-.891 3.81-5.715A1 1 0 0 1 12 3h2.875a1 1 0 0 1 .987 1.164L15.056 9H20a1 1 0 0 1 1 1v5a1 1 0 0 1-.072.371l-2 5A1 1 0 0 1 18 21H9a1 1 0 0 1 0-2h8.323L19 14.807V11h-5.125a1 1 0 0 1-.986-1.164L13.695 5h-1.16l-3.703 5.555a1 1 0 0 1-.516.394L6 11.72v1.45zM5 17a1 1 0 1 0 0-2 1 1 0 0 0 0 2z" fill="#000" fill-rule="nonzero"/></svg>