<svg width="24" height="24" viewBox="0 0 24 24" xmlns="http://www.w3.org/2000/svg"><title>headphone</title><path d="M14.83 18h1.756l1.707-1.707a1 1 0 0 1 1.414 1.414l-2 2A1 1 0 0 1 17 20h-2.17a3.001 3.001 0 1 1 0-2zM4.182 8C5.085 4.519 8.273 2 12 2c3.727 0 6.915 2.519 7.817 6H21a1 1 0 0 1 1 1v5a1 1 0 0 1-1 1h-3a1 1 0 0 1-1-1V9a1 1 0 0 1 .739-.966C16.911 5.671 14.637 4 12 4S7.089 5.67 6.261 8.034A1 1 0 0 1 7 9v5a1 1 0 0 1-1 1H3a1 1 0 0 1-1-1V9a1 1 0 0 1 1-1h1.183zM19 10v3h1v-3h-1zM4 10v3h1v-3H4zm8 10a1 1 0 1 0 0-2 1 1 0 0 0 0 2z" fill="#000" fill-rule="nonzero"/></svg>