<svg width="24" height="24" viewBox="0 0 24 24" xmlns="http://www.w3.org/2000/svg"><title>hot</title><path d="M12.95 5.164c-.763.75-1.271 1.475-1.412 2.057a1.268 1.268 0 0 0-.038.287 1 1 0 1 1-2-.016 3.26 3.26 0 0 1 .094-.74c.248-1.027.948-2.025 1.955-3.015a14.878 14.878 0 0 1 1.891-1.566 1 1 0 0 1 1.556.916c-.152 1.751.69 3.478 2.66 5.256a8 8 0 1 1-11.313 0 1 1 0 0 1 1.624.309c1.061 2.442 2.493 3.873 4.305 4.386a1 1 0 1 1-.544 1.924c-2.015-.57-3.64-1.94-4.867-4.062a6 6 0 0 0 9.382 7.342c2.343-2.343 2.343-6.141.037-8.449-1.688-1.521-2.744-3.132-3.133-4.818l-.196.189z" fill="#000" fill-rule="nonzero"/></svg>