<svg width="24" height="24" viewBox="0 0 24 24" xmlns="http://www.w3.org/2000/svg"><title>hourglass</title><path d="M17 19.211a3 3 0 0 0-.504-1.664l-3.328-4.992a1 1 0 0 1 0-1.11l3.328-4.992A3 3 0 0 0 17 4.789V3a1 1 0 0 1 2 0v1.789a5 5 0 0 1-.84 2.773L15.202 12l2.958 4.438A5 5 0 0 1 19 19.21V21a1 1 0 0 1-1 1H6a1 1 0 0 1-1-1v-1.789a5 5 0 0 1 .84-2.773L8.798 12 5.84 7.562A5 5 0 0 1 5 4.79V3a1 1 0 0 1 1-1h8a1 1 0 0 1 0 2H7v.789a3 3 0 0 0 .504 1.664l3.328 4.992a1 1 0 0 1 0 1.11l-3.328 4.992A3 3 0 0 0 7 19.211V20h10v-.789zM10 19a1 1 0 0 1 0-2h4a1 1 0 0 1 0 2h-4z" fill="#000" fill-rule="nonzero"/></svg>