<svg width="24" height="24" viewBox="0 0 24 24" xmlns="http://www.w3.org/2000/svg"><title>incognito</title><path d="M10.348 15.465C10.878 15.16 11.43 15 12 15c.961 0 1.867.453 2.707 1.293a1 1 0 0 1 .261.957c.021.08.032.164.032.25a1.5 1.5 0 1 0 1.5-1.5 1 1 0 0 1 0-2 3.5 3.5 0 1 1-3.498 3.442C12.629 17.136 12.297 17 12 17c-.297 0-.628.136-1 .44v.06a3.5 3.5 0 1 1-.652-2.035zM20 12H10a1 1 0 0 1 0-2h5.847l-.714-5H8.867l-.875 6.127a.994.994 0 0 1-.075.273 1.002 1.002 0 0 1-.932.6H4a1 1 0 0 1 0-2h2.133l.877-6.141A1 1 0 0 1 8 3h8a1 1 0 0 1 .99.859L17.867 10H20a1 1 0 0 1 0 2zM7.5 19a1.5 1.5 0 1 0 0-3 1.5 1.5 0 0 0 0 3z" fill="#000" fill-rule="nonzero"/></svg>