<svg width="24" height="24" viewBox="0 0 24 24" xmlns="http://www.w3.org/2000/svg"><title>info-2</title><path d="M20 12a8 8 0 1 0-12.758 6.432 1 1 0 1 1-1.19 1.607A9.985 9.985 0 0 1 2 12C2 6.477 6.477 2 12 2s10 4.477 10 10-4.477 10-10 10a1 1 0 0 1-1-1v-2a1 1 0 0 1 2 0v.938A8.001 8.001 0 0 0 20 12zm-10-2a1 1 0 0 1-2 0 4 4 0 1 1 6.89 2.766c-.31.323-.73.58-1.262.793a1 1 0 0 0-.628.928V15.5a1 1 0 1 1-2 0v-1.013a3 3 0 0 1 1.883-2.784c.289-.116.475-.23.562-.32A2 2 0 1 0 10 10z" fill="#000" fill-rule="nonzero"/></svg>