<svg width="24" height="24" viewBox="0 0 24 24" xmlns="http://www.w3.org/2000/svg"><title>link</title><path d="M15.414 4l-3.707 3.707a1 1 0 0 1-1.414-1.414l4-4A1 1 0 0 1 15 2h4a1 1 0 0 1 .707.293l2 2A1 1 0 0 1 22 5v4a1 1 0 0 1-.293.707l-4 4a1 1 0 0 1-1.414-1.414L20 8.586V5.414L18.586 4h-3.172zm-3.121 12.293a1 1 0 0 1 1.414 1.414l-4 4A1 1 0 0 1 9 22H5a1 1 0 0 1-.707-.293l-2-2A1 1 0 0 1 2 19v-4a1 1 0 0 1 .293-.707l4-4a1 1 0 0 1 1.414 1.414L4 15.414v3.172L5.414 20h3.172l3.707-3.707zm3-9a1 1 0 0 1 1.414 1.414l-8 8a1 1 0 1 1-1.414-1.414l8-8z" fill="#000" fill-rule="nonzero"/></svg>