<svg width="24" height="24" viewBox="0 0 24 24" xmlns="http://www.w3.org/2000/svg"><title>map-pin</title><path d="M13 8.17a3.001 3.001 0 1 1-2 0V4a1 1 0 0 1 .999-1c2.1-.002 4.12.783 5.643 2.243 3.144 3.014 3.144 7.92-.016 10.948l-4.95 4.546a1 1 0 0 1-1.352 0l-4.966-4.56c-3.144-3.014-3.144-7.92 0-10.934a1 1 0 0 1 1.384 1.444c-2.323 2.227-2.323 5.819-.015 8.031L12 18.643l4.258-3.91c2.323-2.227 2.323-5.819 0-8.046A6.068 6.068 0 0 0 13 5.077v3.094zM12 12a1 1 0 1 0 0-2 1 1 0 0 0 0 2z" fill="#000" fill-rule="nonzero"/></svg>