<svg width="24" height="24" viewBox="0 0 24 24" xmlns="http://www.w3.org/2000/svg"><title>map</title><path d="M14.535 19.885L9 17.118l-5.553 2.776A1 1 0 0 1 2 19V8a1 1 0 0 1 .553-.894l5.982-2.991a.996.996 0 0 1 .93 0L15 6.882l5.553-2.776A1 1 0 0 1 22 5v11a1 1 0 0 1-.553.894l-5.982 2.991a.996.996 0 0 1-.93 0zM14 17.382V11a1 1 0 0 1 2 0v6.382l4-2V6.618l-4.553 2.276a1 1 0 0 1-.894 0L10 6.618V13a1 1 0 0 1-2 0V6.618l-4 2v8.764l4.553-2.276a1 1 0 0 1 .894 0L14 17.382z" fill="#000" fill-rule="nonzero"/></svg>