<svg width="24" height="24" viewBox="0 0 24 24" xmlns="http://www.w3.org/2000/svg"><title>notification-1</title><path d="M14.981 3.665A7.002 7.002 0 0 1 19 10v4.586l1.707 1.707a1 1 0 0 1 .293.705l.006 3a1 1 0 0 1-1 1.002H3.994a1 1 0 0 1-1-1.002l.006-3a1 1 0 0 1 .293-.705l2-2A1 1 0 0 1 6 14h8a1 1 0 0 1 0 2H6.414L5 17.415 4.996 19H19.004l-.003-1.585-1.708-1.708A1 1 0 0 1 17 15v-5c0-1.824-.985-3.46-2.504-4.335A2.997 2.997 0 0 1 12 7c-1.04 0-1.958-.53-2.496-1.335A5.002 5.002 0 0 0 7 10v1a1 1 0 0 1-2 0v-1c0-2.75 1.6-5.197 4.019-6.335a3 3 0 0 1 5.962 0zM12 5a1 1 0 1 0 0-2 1 1 0 0 0 0 2z" fill="#000" fill-rule="nonzero"/></svg>