<svg width="24" height="24" viewBox="0 0 24 24" xmlns="http://www.w3.org/2000/svg"><title>pen</title><path d="M8.292 14.293a3 3 0 1 1 1.414 1.414l-2.792 2.794 8.298-1.383 1.826-6.393a1 1 0 0 1 .255-.432L18.586 9 15 5.414l-1.293 1.293a1 1 0 0 1-.432.255L6.852 8.797 5.478 15.21a1 1 0 1 1-1.956-.42l1.5-7a1 1 0 0 1 .703-.752l6.751-1.928 1.817-1.817a1 1 0 0 1 1.414 0l5 5a1 1 0 0 1 0 1.414l-1.817 1.817-1.928 6.75a1 1 0 0 1-.798.712l-12 2c-.96.16-1.559-1.005-.871-1.693l5-5zM11 14a1 1 0 1 0 0-2 1 1 0 0 0 0 2z" fill="#000" fill-rule="nonzero"/></svg>