<svg width="24" height="24" viewBox="0 0 24 24" xmlns="http://www.w3.org/2000/svg"><title>phone-1</title><path d="M15.938 14.743l-1.379 1.378a.998.998 0 1 1-1.412-1.412l1.757-1.756a.998.998 0 0 1 .902-.273l4.391.878a.998.998 0 0 1 .803.98v5.267a.998.998 0 0 1-.767.971c-3.387.806-8.222-.523-12.355-4.655-4.134-4.131-5.46-8.966-4.654-12.354A.998.998 0 0 1 4.196 3h5.27c.475 0 .885.336.979.803l.878 4.39a.998.998 0 0 1-.273.901l-1.233 1.232a10.469 10.469 0 0 0 2.195 2.68.998.998 0 1 1-1.31 1.507 12.16 12.16 0 0 1-.63-.588 12.654 12.654 0 0 1-2.379-3.337.998.998 0 0 1 .188-1.15L9.26 8.06l-.613-3.063H5.036c-.292 2.69.942 6.403 4.253 9.712 3.312 3.31 7.025 4.546 9.714 4.255v-3.608l-3.065-.613z" fill="#000" fill-rule="nonzero"/></svg>