<svg width="24" height="24" viewBox="0 0 24 24" xmlns="http://www.w3.org/2000/svg"><title>phone-2</title><path d="M15.937 14.742l-1.38 1.378a.998.998 0 0 1-1.41-1.412l1.756-1.756a.998.998 0 0 1 .901-.273l4.391.878a.998.998 0 0 1 .803.98v5.266a.998.998 0 0 1-.767.971c-3.386.805-8.22-.523-12.354-4.654-4.133-4.131-5.46-8.965-4.653-12.353A.998.998 0 0 1 4.196 3h5.269c.476 0 .885.336.979.802l.878 4.39a.998.998 0 0 1-.273.902l-1.233 1.232a10.468 10.468 0 0 0 2.195 2.678.998.998 0 1 1-1.31 1.508 12.158 12.158 0 0 1-.63-.588 12.653 12.653 0 0 1-2.378-3.336.998.998 0 0 1 .188-1.151l1.378-1.378-.612-3.062H5.036c-.293 2.69.942 6.402 4.253 9.71 3.31 3.31 7.023 4.547 9.712 4.256v-3.608l-3.064-.613zM19 6.409l-3.287 3.287a.998.998 0 1 1-1.412-1.412l3.287-3.287h-2.581a.998.998 0 1 1 0-1.997H20a.999.999 0 0 1 .998 1.068V8.99a.998.998 0 0 1-1.997 0V6.409z" fill="#000" fill-rule="nonzero"/></svg>