<svg width="24" height="24" viewBox="0 0 24 24" xmlns="http://www.w3.org/2000/svg"><title>pinterest</title><path d="M10.961 12.615c.01.033.018.067.024.102C11.268 14.327 12.01 15 13.43 15 15.694 15 18 12.19 18 9.26 18 6.207 15.541 4 11.556 4 8.103 4 6 6.55 6 9.26c0 1.333.274 2.195.752 2.637a1 1 0 1 1-1.359 1.468C4.441 12.483 4 11.098 4 9.26 4 5.52 6.904 2 11.556 2 16.6 2 20 5.051 20 9.26c0 3.956-3.104 7.74-6.57 7.74-1.348 0-2.424-.433-3.191-1.255l-1.265 5.48a1 1 0 1 1-1.948-.45l3-13a1 1 0 0 1 1.948.45l-1.013 4.39z" fill="#000" fill-rule="nonzero"/></svg>