<svg width="24" height="24" viewBox="0 0 24 24" xmlns="http://www.w3.org/2000/svg"><title>reddit</title><path d="M12.022 10h-.044C8.06 10.008 5 12.116 5 14.5c0 2.388 3.072 4.5 7 4.5a1 1 0 0 1 0 2c-4.908 0-9-2.813-9-6.5 0-.527.084-1.036.241-1.522a1.5 1.5 0 1 1 1.49-2.336c1.525-1.499 3.918-2.486 6.611-2.625.595-1.128 1.618-2.03 2.883-2.686a1 1 0 1 1 .92 1.776 5.58 5.58 0 0 0-1.411 1.012c2.25.314 4.217 1.227 5.535 2.523a1.5 1.5 0 1 1 1.49 2.335c.157.487.241.996.241 1.523 0 2.818-2.418 5.192-5.884 6.105a1 1 0 0 1-.51-1.934C17.28 17.967 19 16.278 19 14.5c0-2.384-3.06-4.492-6.978-4.5zm-3.577 6.832a1 1 0 0 1 1.11-1.664c.843.562 1.653.832 2.445.832.792 0 1.602-.27 2.445-.832a1 1 0 1 1 1.11 1.664C14.398 17.603 13.208 18 12 18c-1.208 0-2.398-.397-3.555-1.168zM9 14a1 1 0 1 1 0-2 1 1 0 0 1 0 2zm6 0a1 1 0 1 1 0-2 1 1 0 0 1 0 2zm3.5-6a2.5 2.5 0 1 1 0-5 2.5 2.5 0 0 1 0 5zm0-2a.5.5 0 1 0 0-1 .5.5 0 0 0 0 1z" fill="#000" fill-rule="nonzero"/></svg>