<svg width="24" height="24" viewBox="0 0 24 24" xmlns="http://www.w3.org/2000/svg"><title>rocket</title><path d="M12 4.16C10.018 5.474 9 8.043 9 12a1 1 0 0 1-.293.707L7.464 13.95A5 5 0 0 0 6 17.485V21a1 1 0 0 1-2 0v-3.515a7 7 0 0 1 2.05-4.95l.954-.953c.082-4.7 1.571-7.906 4.53-9.466a1 1 0 0 1 .933 0c2.958 1.56 4.447 4.765 4.53 9.466l.953.954a7 7 0 0 1 2.05 4.95V21c0 .943-1.186 1.362-1.778.628-1.13-1.4-2.243-2.427-3.33-3.09-.196.333-.404.669-.627 1.009a1 1 0 0 1-.837.453h-2.856a1 1 0 0 1-.837-.453c-.223-.34-.431-.676-.626-1.008a8.9 8.9 0 0 0-.597.398 1 1 0 0 1-1.175-1.619 9.888 9.888 0 0 1 1.76-1.031 1 1 0 0 1 1.294.446c.217.413.46.835.73 1.267h1.759c.269-.432.512-.854.73-1.267a1 1 0 0 1 1.292-.446c1.048.47 2.08 1.186 3.098 2.146v-.948a5 5 0 0 0-1.464-3.535l-1.243-1.243A1 1 0 0 1 15 12c0-3.958-1.018-6.527-3-7.84zM12 9a1 1 0 1 1 0-2 1 1 0 0 1 0 2zm0 3a1 1 0 1 1 0-2 1 1 0 0 1 0 2z" fill="#000" fill-rule="nonzero"/></svg>