<svg width="24" height="24" viewBox="0 0 24 24" xmlns="http://www.w3.org/2000/svg"><title>rss</title><path d="M6 21a3 3 0 1 1 0-6 3 3 0 0 1 0 6zm0-2a1 1 0 1 0 0-2 1 1 0 0 0 0 2zM4.142 5.132a1 1 0 0 1-.284-1.98C4.564 3.05 5.278 3 6 3c8.284 0 15 6.716 15 15 0 .721-.051 1.436-.152 2.142a1 1 0 1 1-1.98-.284c.088-.611.132-1.232.132-1.858 0-7.18-5.82-13-13-13-.626 0-1.247.044-1.858.132zm.957 3.912a1 1 0 0 1-.198-1.99C5.265 7.018 5.631 7 6 7c6.075 0 11 4.925 11 11 0 .369-.018.735-.054 1.099a1 1 0 1 1-1.99-.198 9 9 0 0 0-9.857-9.857zM6 13a1 1 0 0 1 0-2 7 7 0 0 1 7 7 1 1 0 0 1-2 0 5 5 0 0 0-5-5z" fill="#000" fill-rule="nonzero"/></svg>