<svg width="24" height="24" viewBox="0 0 24 24" xmlns="http://www.w3.org/2000/svg"><title>sale-1</title><path d="M4.414 12l1.93 1.929a1 1 0 0 1 .292.707v3.728a1 1 0 1 1-2 0V15.05l-2.343-2.343a1 1 0 0 1 0-1.414L4.636 8.95V5.636a1 1 0 0 1 1-1H8.95l2.343-2.343a1 1 0 0 1 1.414 0l2.343 2.343h3.314a1 1 0 0 1 1 1V8.95l2.343 2.343a1 1 0 0 1 0 1.414l-2.343 2.343v3.314a1 1 0 0 1-1 1H15.05l-2.343 2.343a1 1 0 0 1-1.414 0l-2.636-2.636a1 1 0 0 1 1.414-1.414L12 19.586l1.929-1.93a1 1 0 0 1 .707-.292h2.728v-2.728a1 1 0 0 1 .293-.707L19.586 12l-1.93-1.929a1 1 0 0 1-.292-.707V6.636h-2.728a1 1 0 0 1-.707-.293L12 4.414l-1.929 1.93a1 1 0 0 1-.707.292H6.636v2.728a1 1 0 0 1-.293.707L4.414 12zm6.293 2.707a1 1 0 1 1-1.414-1.414l4-4a1 1 0 0 1 1.414 1.414l-4 4zM9.5 10.5a1 1 0 1 1 0-2 1 1 0 0 1 0 2zm5 5a1 1 0 1 1 0-2 1 1 0 0 1 0 2z" fill="#000" fill-rule="nonzero"/></svg>