<svg width="24" height="24" viewBox="0 0 24 24" xmlns="http://www.w3.org/2000/svg"><title>scissors</title><path d="M13.414 12l2.42 2.42a3.5 3.5 0 1 1-1.414 1.414L4.294 5.708a1 1 0 0 1 1.414-1.414L12 10.586l2.793-2.793c.04-.04.081-.075.125-.107a1 1 0 0 1 1.52-.126 1.5 1.5 0 1 0 .001-2.12 1 1 0 1 1-1.414-1.415 3.5 3.5 0 1 1 .81 5.554L13.415 12zm4.086 7a1.5 1.5 0 1 0 0-3 1.5 1.5 0 0 0 0 3zm-11.793.707a1 1 0 1 1-1.414-1.414l4.5-4.5a1 1 0 1 1 1.414 1.414l-4.5 4.5z" fill="#000" fill-rule="nonzero"/></svg>