<svg width="24" height="24" viewBox="0 0 24 24" xmlns="http://www.w3.org/2000/svg"><title>screenshot</title><path d="M9.662 17.75a1 1 0 0 1-1.324-1.5l8.355-7.378a1 1 0 0 1 1.33.006l2.646 2.378a1 1 0 1 1-1.338 1.488L17.35 10.96 9.662 17.75zM19 5h-3a1 1 0 0 1 0-2h4a1 1 0 0 1 1 1v4a1 1 0 0 1-2 0V5zM5 5v3a1 1 0 1 1-2 0V4a1 1 0 0 1 1-1h4a1 1 0 1 1 0 2H5zm14 14v-3a1 1 0 0 1 2 0v4a1 1 0 0 1-1 1h-4a1 1 0 0 1 0-2h3zM5 19h3a1 1 0 0 1 0 2H4a1 1 0 0 1-1-1v-4a1 1 0 0 1 2 0v3zm4-7a3 3 0 1 1 0-6 3 3 0 0 1 0 6zm0-2a1 1 0 1 0 0-2 1 1 0 0 0 0 2z" fill="#000" fill-rule="nonzero"/></svg>