<svg width="24" height="24" viewBox="0 0 24 24" xmlns="http://www.w3.org/2000/svg"><title>shield</title><path d="M18 9.414l-5.293 5.293a1 1 0 0 1-1.414 0l-3-3a1 1 0 0 1 1.414-1.414L12 12.586l6.293-6.293C18.923 5.663 20 6.109 20 7v7.679a5 5 0 0 1-2.52 4.34l-4.984 2.85a1 1 0 0 1-.992 0l-4.985-2.85A5 5 0 0 1 4 14.68V4a1 1 0 0 1 .725-.962A26.374 26.374 0 0 1 12 2c2.427 0 4.853.347 7.275 1.038a1 1 0 0 1-.55 1.924A24.376 24.376 0 0 0 12 4c-1.998 0-3.998.255-6 .765v9.914a3 3 0 0 0 1.512 2.604L12 19.848l4.488-2.565A3 3 0 0 0 18 14.68V9.414z" fill="#000" fill-rule="nonzero"/></svg>