<svg width="24" height="24" viewBox="0 0 24 24" xmlns="http://www.w3.org/2000/svg"><title>shop-cart-1</title><path d="M6.247 16.27l.693-1.386L4.22 4H3a1 1 0 1 1 0-2h2a1 1 0 0 1 .97.757L7.03 7H21a1 1 0 0 1 .98 1.196l-1 5a1 1 0 0 1-.737.774l-8 2a1 1 0 0 1-.486-1.94l7.387-1.847L19.78 9H7.53l1.44 5.757a1 1 0 0 1-.076.69l-1 2a.999.999 0 0 1-.186.26 3 3 0 1 1-1.461-1.436zM5 20a1 1 0 1 0 0-2 1 1 0 0 0 0 2zm14 2a3 3 0 1 1 0-6 3 3 0 0 1 0 6zm0-2a1 1 0 1 0 0-2 1 1 0 0 0 0 2z" fill="#000" fill-rule="nonzero"/></svg>