<svg width="24" height="24" viewBox="0 0 24 24" xmlns="http://www.w3.org/2000/svg"><title>shuffle</title><path d="M17.586 16l-1.293-1.293a1 1 0 0 1 1.414-1.414l3 3a1 1 0 0 1 0 1.414l-3 3a1 1 0 0 1-1.414-1.414L17.586 18H15a1 1 0 0 1-.78-.375L11 13.6l-3.22 4.024A1 1 0 0 1 7 18H4a1 1 0 0 1 0-2h2.52l3.686-4.608a.994.994 0 0 1 .026-.032l3.987-4.985A1 1 0 0 1 15 6h2.586l-1.293-1.293a1 1 0 1 1 1.414-1.414l3 3a1 1 0 0 1 0 1.414l-3 3a1 1 0 0 1-1.414-1.414L17.586 8H15.48l-3.2 4 3.2 4h2.105zM6.519 8H4a1 1 0 1 1 0-2h3a1 1 0 0 1 .78.375L9.209 8.16a1 1 0 1 1-1.561 1.25L6.519 8z" fill="#000" fill-rule="nonzero"/></svg>