<svg width="24" height="24" viewBox="0 0 24 24" xmlns="http://www.w3.org/2000/svg"><title>skype</title><path d="M12.179 11.016c1.96.15 3.58 1.338 3.58 2.984 0 1.763-1.856 3-4 3-1.527 0-2.93-.628-3.6-1.672a1 1 0 1 1 1.682-1.082c.267.416 1.022.754 1.918.754 1.17 0 2-.553 2-1 0-.447-.83-1-2-1-.061 0-.121-.005-.18-.016C9.62 12.834 8 11.646 8 10c0-1.763 1.856-3 4-3 1.527 0 2.929.628 3.6 1.672a1 1 0 1 1-1.682 1.082C13.65 9.338 12.896 9 12 9c-1.17 0-2 .553-2 1 0 .447.83 1 2 1 .061 0 .12.005.179.016zm8.738 2.207a5.5 5.5 0 0 1-8.078 7.382 1 1 0 1 1 1.332-1.492 3.5 3.5 0 0 0 4.942-4.942 1 1 0 0 1-.237-.853 7 7 0 0 0-8.194-8.194 1 1 0 0 1-.853-.237A3.5 3.5 0 0 0 4.887 9.83a1 1 0 0 1 .237.853 7.003 7.003 0 0 0 5.464 8.176 1 1 0 0 1-.402 1.959 9.003 9.003 0 0 1-7.103-10.04 5.5 5.5 0 0 1 7.695-7.695 9 9 0 0 1 10.14 10.14z" fill="#000" fill-rule="nonzero"/></svg>