<svg width="24" height="24" viewBox="0 0 24 24" xmlns="http://www.w3.org/2000/svg"><title>slack</title><path d="M17.215 13.135l3.487-1.09a1 1 0 0 1 .596 1.91l-3.487 1.09 1.143 3.657a1 1 0 0 1-1.908.596L13.732 8.694l-5.038 1.574 1.574 5.038 2.747-.858a1 1 0 1 1 .597 1.908l-2.747.859 1.09 3.487a1 1 0 0 1-1.91.596l-1.09-3.487-3.657 1.143a1 1 0 0 1-.596-1.908l3.657-1.143-1.574-5.038-3.487 1.09a1 1 0 0 1-.596-1.91l3.487-1.09-1.143-3.657a1 1 0 1 1 1.908-.596l1.143 3.657 5.038-1.574-1.09-3.487a1 1 0 0 1 1.91-.596l1.09 3.487 3.657-1.143a1 1 0 0 1 .596 1.908l-3.657 1.143 1.574 5.038z" fill="#000" fill-rule="nonzero"/></svg>