<svg width="24" height="24" viewBox="0 0 24 24" xmlns="http://www.w3.org/2000/svg"><title>snapchat</title><path d="M18 11.618v1.045c.944 1.2 2.04 1.986 3.3 2.383a1 1 0 0 1 .422 1.646l-2.85 2.975a1 1 0 0 1-.722.308c-1.143 0-1.598.181-2.514.829C14.406 21.674 13.591 22 12 22c-1.591 0-2.407-.327-3.624-1.187-.928-.657-1.383-.838-2.526-.838a1 1 0 0 1-.722-.308l-2.85-2.975a1 1 0 0 1 .422-1.646c1.26-.397 2.356-1.183 3.3-2.383v-1.045l-1.447-.724a1 1 0 0 1 .894-1.788L6 9.382V8a6 6 0 1 1 12 0 1 1 0 0 1-2 0 4 4 0 1 0-8 0v5a1 1 0 0 1-.194.592c-.886 1.206-1.916 2.13-3.083 2.76l1.563 1.632c1.34.058 2.123.402 3.233 1.187.92.651 1.364.829 2.481.829 1.117 0 1.56-.178 2.469-.82 1.122-.794 1.906-1.138 3.245-1.196l1.563-1.631c-1.167-.63-2.197-1.555-3.083-2.761A1 1 0 0 1 16 13v-1.978a1 1 0 0 1 .553-.916l2-1a1 1 0 0 1 .894 1.788L18 11.618z" fill="#000" fill-rule="nonzero"/></svg>