<svg width="24" height="24" viewBox="0 0 24 24" xmlns="http://www.w3.org/2000/svg"><title>spotify</title><path d="M16.373 20.995a1 1 0 0 1-.876-1.798A8 8 0 1 0 12 20a1 1 0 0 1 0 2C6.477 22 2 17.523 2 12S6.477 2 12 2s10 4.477 10 10a10 10 0 0 1-5.627 8.995zm-9.14-10.608a1 1 0 0 1-.467-1.945c3.556-.855 7.118-.469 10.65 1.149a1 1 0 1 1-.832 1.818c-3.133-1.434-6.238-1.77-9.35-1.022zm1.02 2.94a1 1 0 1 1-.505-1.935c2.906-.758 5.819-.415 8.696 1.012a1 1 0 1 1-.888 1.792c-2.455-1.217-4.875-1.502-7.304-.869zm.505 2.915a1 1 0 1 1-.516-1.932c2.244-.6 4.497-.328 6.711.799a1 1 0 1 1-.906 1.782c-1.785-.907-3.532-1.118-5.289-.649z" fill="#000" fill-rule="nonzero"/></svg>