<svg width="24" height="24" viewBox="0 0 24 24" xmlns="http://www.w3.org/2000/svg"><title>target-2</title><path d="M14 8.586V6a1 1 0 0 1 .293-.707l3-3a1 1 0 0 1 1.601.26l.851 1.702 1.702.85a1 1 0 0 1 .26 1.602l-3 3A1 1 0 0 1 18 10h-2.586l-2.707 2.707a1 1 0 0 1-1.414-1.414L14 8.586zM12 3a1 1 0 0 1 0 2 7 7 0 1 0 7 7 1 1 0 0 1 2 0 9 9 0 1 1-9-9zm0 4a1 1 0 0 1 0 2 3 3 0 1 0 3 3 1 1 0 0 1 2 0 5 5 0 1 1-5-5zm4-.586V8h1.586l1.726-1.726-.76-.38a1 1 0 0 1-.446-.447l-.38-.759L16 6.414z" fill="#000" fill-rule="nonzero"/></svg>