<svg width="24" height="24" viewBox="0 0 24 24" xmlns="http://www.w3.org/2000/svg"><title>target-1</title><path d="M17.917 11A6.005 6.005 0 0 0 13 6.083V7a1 1 0 0 1-2 0v-.917A6.005 6.005 0 0 0 6.083 11H7a1 1 0 0 1 0 2h-.917A6.005 6.005 0 0 0 11 17.917V17a1 1 0 0 1 2 0v4a1 1 0 0 1-2 0v-1.062A8.004 8.004 0 0 1 4.062 13H3a1 1 0 0 1 0-2h1.062A8.004 8.004 0 0 1 11 4.062V3a1 1 0 0 1 2 0v1.062A8.004 8.004 0 0 1 19.938 11H21a1 1 0 0 1 0 2h-1.062a7.998 7.998 0 0 1-3.913 5.915 1 1 0 0 1-1.007-1.728A5.999 5.999 0 0 0 17.917 13H17a1 1 0 0 1 0-2h.917z" fill="#000" fill-rule="nonzero"/></svg>