<svg width="24" height="24" viewBox="0 0 24 24" xmlns="http://www.w3.org/2000/svg"><title>timer-2</title><path d="M19.938 13H19a1 1 0 0 1 0-2h.938A8.004 8.004 0 0 0 13 4.062V5a1 1 0 0 1-2 0v-.938A8.004 8.004 0 0 0 4.062 11H5a1 1 0 0 1 0 2H3a.997.997 0 0 1-1-1C2 6.477 6.477 2 12 2s10 4.477 10 10-4.477 10-10 10a9.997 9.997 0 0 1-8.807-5.26 1 1 0 0 1 1.76-.95A8.001 8.001 0 0 0 19.938 13zm-3.98-3.715c-.886 2.985-1.391 4.39-1.837 4.836A3 3 0 1 1 9.88 9.88c.445-.446 1.85-.95 4.836-1.838a1 1 0 0 1 1.244 1.244zm-4.665 2.008a1 1 0 0 0 1.414 1.414c.054-.054.354-.862.781-2.195-1.333.427-2.141.727-2.195.78z" fill="#000" fill-rule="nonzero"/></svg>