<svg width="24" height="24" viewBox="0 0 24 24" xmlns="http://www.w3.org/2000/svg"><title>tumblr</title><path d="M12.239 17.585a.995.995 0 0 1-.19-.585v-6.5c0-.552.45-1 1.006-1 .557 0 1.007.448 1.007 1v6.133c.629.593 1.678.483 3.416-.544.671-.397 1.522.083 1.522.86v2.592c0 .29-.127.567-.35.757C17.319 21.44 15.536 22 13.347 22c-3.862 0-6.113-1.69-6.332-5v-5.5H6.007A1.003 1.003 0 0 1 5 10.5v-3c0-.49.358-.909.846-.987 1.627-.262 2.679-1.436 3.207-3.735.104-.455.512-.778.982-.778h3.02c.557 0 1.007.448 1.007 1v3.5h3.021c.556 0 1.007.448 1.007 1v3c0 .552-.45 1-1.007 1a1.003 1.003 0 0 1-1.007-1v-2h-3.02a1.003 1.003 0 0 1-1.008-1V4H10.81c-.685 2.24-1.96 3.704-3.795 4.287V9.5H8.02c.556 0 1.007.448 1.007 1l-.003 6.434c.14 2.09 1.44 3.066 4.321 3.066 1.53 0 2.734-.321 3.64-.948v-.49c-2.018.788-3.664.514-4.747-.977z" fill="#000" fill-rule="nonzero"/></svg>