<svg width="24" height="24" viewBox="0 0 24 24" xmlns="http://www.w3.org/2000/svg"><title>ufo</title><path d="M16.9 8a5.002 5.002 0 0 0-9.8 0h9.8zm-1.912 6a1.006 1.006 0 0 1 .819.41L18.8 18.4a1 1 0 0 1-1.6 1.2L14.5 16H13v5a1 1 0 0 1-2 0v-5H9.5l-2.7 3.6a1 1 0 0 1-1.6-1.2L7 16H6a4 4 0 0 1-.944-7.888 7.001 7.001 0 0 1 13.888 0 4.002 4.002 0 0 1 .546 7.601 1 1 0 1 1-.745-1.856A2 2 0 0 0 18 10H6a2 2 0 1 0 0 4h8.988zM7 13a1 1 0 1 1 0-2 1 1 0 0 1 0 2zm5 0a1 1 0 1 1 0-2 1 1 0 0 1 0 2zm5 0a1 1 0 1 1 0-2 1 1 0 0 1 0 2z" fill="#000" fill-rule="nonzero"/></svg>