<svg width="24" height="24" viewBox="0 0 24 24" xmlns="http://www.w3.org/2000/svg"><title>vector</title><path d="M9 17h3.5a1 1 0 0 1 0 2H9v1a1 1 0 0 1-1 1H4a1 1 0 0 1-1-1v-4a1 1 0 0 1 1-1h1V9H4a1 1 0 0 1-1-1V4a1 1 0 0 1 1-1h4a1 1 0 0 1 1 1v1h6V4a1 1 0 0 1 1-1h4a1 1 0 0 1 1 1v4a1 1 0 0 1-1 1h-1v6h1a1 1 0 0 1 1 1v4a1 1 0 0 1-1 1h-4a1 1 0 0 1-1-1v-4a1 1 0 0 1 1-1h1V9h-1a1 1 0 0 1-1-1V7H9v1a1 1 0 0 1-1 1H7v6h1a1 1 0 0 1 1 1v1zM5 5v2h2V5H5zm12 0v2h2V5h-2zm0 12v2h2v-2h-2zM5 17v2h2v-2H5z" fill="#000" fill-rule="nonzero"/></svg>