<svg width="24" height="24" viewBox="0 0 24 24" xmlns="http://www.w3.org/2000/svg"><title>vkontakte</title><path d="M10.878 8l.12 4.677A1 1 0 0 1 9 12.728l-.147-5.703a1 1 0 0 1 1-1.025h3.637a1 1 0 1 1 0 2h-2.611zm3.449 9.8a1 1 0 0 1-.78.975c-3.05.692-5.032-.194-7.286-2.909-1.34-1.614-2.727-4.445-4.202-8.527A1 1 0 0 1 3 6h3.598a1 1 0 0 1 .958.712l.432 1.44a1 1 0 1 1-1.915.574L5.854 8H4.44c1.212 3.159 2.342 5.363 3.36 6.59 1.606 1.934 2.778 2.595 4.582 2.367.277-2.034 1.603-2.895 3.549-1.96a1 1 0 0 1 .335.262l1.284 1.543h1.939c-.286-.598-.546-1.03-.772-1.287a7.622 7.622 0 0 0-.183-.2l-.216-.227c-1.234-1.302-1.637-2.32-.673-3.643.974-1.335 1.65-2.489 2.032-3.445h-1.934c-1.47 3.413-2.681 5.247-3.946 5.655a1 1 0 0 1-1.307-.952v-2.204a1 1 0 0 1 1.952-.308c.496-.857 1.081-2.055 1.716-3.575A1 1 0 0 1 17.08 6H21a1 1 0 0 1 .988 1.156c-.237 1.499-1.151 3.305-2.727 5.466-.191.262-.13.417.507 1.09l.22.232c.09.095.163.174.231.252.563.64 1.12 1.711 1.714 3.243A1 1 0 0 1 21 18.8h-3.92a1 1 0 0 1-.769-.36l-1.44-1.731c-.511-.225-.544-.077-.544 1.091z" fill="#000" fill-rule="nonzero"/></svg>