<?xml version="1.0" encoding="utf-8"?>
<!-- Generator: Adobe Illustrator 16.0.0, SVG Export Plug-In . SVG Version: 6.00 Build 0)  -->
<!DOCTYPE svg PUBLIC "-//W3C//DTD SVG 1.1//EN" "http://www.w3.org/Graphics/SVG/1.1/DTD/svg11.dtd">
<svg version="1.1" id="Capa_1" xmlns="http://www.w3.org/2000/svg" xmlns:xlink="http://www.w3.org/1999/xlink" x="0px" y="0px"
	 width="64px" height="64px" viewBox="0 0 64 64" enable-background="new 0 0 64 64" xml:space="preserve">
<g>
	<polygon fill="#68B4E8" points="22.178,58.569 3.784,32 22.178,5.431 23.822,6.569 6.216,32 23.822,57.431 	"/>
</g>
<path fill="#212256" d="M52.707,25.293l-1.414,1.414L55.586,31h-11.61C43.453,5.32,23.207,5,23,5h-1v11h2V7.057
	c1.899,0.181,6.121,0.943,10,4.08V31H6v2h28v19.835c-3.878,3.142-8.1,3.917-10,4.104V50h-2v9h1c0.207,0,20.453-0.319,20.976-26
	h11.61l-4.293,4.293l1.414,1.414L59.414,32L52.707,25.293z M36,13.017c3.214,3.524,5.796,9.123,5.979,17.983H36V13.017z M36,50.953
	V33h5.979C41.796,41.835,39.214,47.427,36,50.953z"/>
</svg>
