<?xml version="1.0" encoding="utf-8"?>
<!-- Generator: Adobe Illustrator 16.0.0, SVG Export Plug-In . SVG Version: 6.00 Build 0)  -->
<!DOCTYPE svg PUBLIC "-//W3C//DTD SVG 1.1//EN" "http://www.w3.org/Graphics/SVG/1.1/DTD/svg11.dtd">
<svg version="1.1" id="Capa_1" xmlns="http://www.w3.org/2000/svg" xmlns:xlink="http://www.w3.org/1999/xlink" x="0px" y="0px"
	 width="64px" height="64px" viewBox="0 0 64 64" enable-background="new 0 0 64 64" xml:space="preserve">
<g>
	<path fill="#68B4E8" d="M36,55c-0.795,0-1.546-0.313-2.116-0.882c-0.57-0.563-0.887-1.316-0.887-2.118s0.316-1.555,0.89-2.122
		c3.037-3.035,2.588-7.164,1.993-7.764c-1.637-1.629-4.003-2.496-5.245-2.863c-1.511,1.742-3.029,3.378-4.518,4.866
		c-4.459,4.47-14.904,8.632-15.009,8.673C10.73,52.932,10.363,53,10,53c-1.223,0-2.316-0.738-2.785-1.88
		c-0.301-0.749-0.291-1.563,0.025-2.301c0.317-0.74,0.903-1.312,1.65-1.608c4.446-1.826,10.486-4.828,12.994-7.329
		c4.382-4.392,8.71-9.919,11.732-14.027c-2.506-2.425-4.896-3.654-7.111-3.654c-2.151,0-3.672,1.2-4.388,1.916
		c-0.562,0.57-1.316,0.886-2.117,0.886s-1.555-0.316-2.122-0.89c-0.565-0.558-0.881-1.312-0.881-2.113s0.316-1.555,0.89-2.122
		c0.853-0.858,4.02-3.682,8.697-3.682c3.119,0,6.239,1.241,9.306,3.692C35.309,18.68,35,17.354,35,16c0-4.962,4.037-9,9-9
		s9,4.038,9,9s-4.037,9-9,9c-0.751,0-1.493-0.094-2.215-0.279c-0.169,0.247-0.365,0.532-0.587,0.853
		c1.247,2.112,2.855,3.738,3.469,3.738c3.489-1.749,7.18-5.403,7.217-5.44C52.455,23.308,53.205,23,54,23
		c0.803,0,1.557,0.315,2.122,0.887c0.564,0.558,0.881,1.312,0.881,2.113s-0.316,1.555-0.89,2.122
		c-0.016,0.017-4.273,4.316-8.777,6.563c-0.869,0.44-1.781,0.665-2.706,0.665c-2.96,0-5.436-2.285-7.178-4.584
		c-0.918,1.23-1.841,2.427-2.758,3.579c1.71,0.729,3.74,1.857,5.423,3.539c1.396,1.391,2.197,3.663,2.198,6.231
		c0.001,3.64-1.568,7.379-4.199,10.004C37.546,54.687,36.795,55,36,55"/>
	<path fill="#212256" d="M44,8c4.41,0,8,3.59,8,8s-3.59,8-8,8c-0.92,0-1.81-0.16-2.63-0.45c-0.28,0.42-0.74,1.09-1.351,1.97
		c1.049,1.943,3.183,4.792,4.646,4.792c0.157,0,0.305-0.033,0.444-0.102c3.649-1.83,7.439-5.59,7.479-5.63
		C52.98,24.195,53.49,24,54,24s1.02,0.195,1.41,0.59c0.79,0.78,0.79,2.04,0,2.82c-0.17,0.18-4.271,4.26-8.521,6.38
		c-0.77,0.39-1.529,0.56-2.26,0.56c-3.1,0-5.68-3.06-7.16-5.29c-1.26,1.72-2.75,3.68-4.41,5.72c1.87,0.66,4.37,1.83,6.351,3.81
		c2.91,2.9,2.67,10.16-2,14.82C37.02,53.8,36.51,54,36,54s-1.02-0.2-1.41-0.59c-0.79-0.78-0.79-2.04,0-2.82
		c3.36-3.359,3.03-8.14,2-9.18c-2.04-2.03-5.01-2.97-6.3-3.29c-1.56,1.82-3.21,3.62-4.88,5.29c-4.24,4.25-14.24,8.28-14.67,8.45
		C10.5,51.95,10.25,52,10,52c-0.79,0-1.54-0.48-1.86-1.26c-0.41-1.021,0.09-2.19,1.12-2.601c0.09-0.04,9.66-3.89,13.33-7.55
		c4.75-4.76,9.38-10.77,12.38-14.89c-0.14-0.07-0.26-0.17-0.38-0.29c-3.201-3.197-5.923-4.209-8.085-4.209
		c-2.463-0.001-4.2,1.314-5.095,2.209c-0.39,0.395-0.9,0.593-1.41,0.593s-1.02-0.198-1.41-0.593c-0.79-0.78-0.79-2.04,0-2.82
		c0.818-0.823,3.731-3.394,7.995-3.394c2.985,0,6.632,1.261,10.685,5.264c0.33-0.48,0.591-0.87,0.771-1.13
		C36.78,19.91,36,18.04,36,16C36,11.59,39.59,8,44,8 M44,6c-5.514,0-10,4.486-10,10c0,0.479,0.035,0.954,0.103,1.423
		c-2.477-1.48-4.992-2.227-7.518-2.227c-5.065,0-8.486,3.05-9.414,3.985c-0.752,0.742-1.174,1.748-1.174,2.819
		c0.001,1.071,0.422,2.077,1.188,2.833c0.738,0.748,1.744,1.17,2.815,1.17s2.077-0.422,2.833-1.188
		c0.732-0.732,1.972-1.615,3.672-1.614c1.766,0,3.706,0.934,5.777,2.778c-2.964,3.988-7.015,9.097-11.108,13.198
		c-2.398,2.393-8.301,5.317-12.627,7.095L8.52,46.282c-0.995,0.396-1.777,1.157-2.199,2.143c-0.422,0.984-0.435,2.071-0.037,3.062
		C6.913,53.018,8.369,54,10,54c0.484,0,0.969-0.09,1.442-0.267c0.47-0.187,10.777-4.292,15.384-8.91
		c1.361-1.362,2.748-2.846,4.132-4.421c1.183,0.401,2.891,1.143,4.143,2.349c0.371,0.768,0.482,4.017-1.925,6.425
		c-0.757,0.747-1.179,1.753-1.179,2.824c0.001,1.071,0.422,2.077,1.188,2.833C33.934,55.582,34.937,56,36,56
		s2.066-0.418,2.824-1.176c2.854-2.849,4.492-6.753,4.491-10.71c-0.001-2.874-0.887-5.339-2.493-6.941
		c-1.411-1.41-3.045-2.451-4.558-3.205c0.405-0.518,0.811-1.044,1.216-1.577c2.248,2.601,4.688,3.959,7.149,3.959
		c1.083,0,2.147-0.261,3.164-0.775c4.38-2.186,8.525-6.246,9.021-6.741c0.766-0.756,1.187-1.762,1.188-2.833
		c0-1.071-0.422-2.077-1.188-2.833C56.079,22.421,55.073,22,54,22c-1.06,0-2.059,0.411-2.815,1.157
		c-0.041,0.04-3.347,3.309-6.563,5.052c-0.471-0.326-1.265-1.178-2.033-2.309C43.054,25.966,43.525,26,44,26c5.514,0,10-4.486,10-10
		S49.514,6,44,6"/>
</g>
</svg>
