<?xml version="1.0" encoding="utf-8"?>
<!-- Generator: Adobe Illustrator 16.0.0, SVG Export Plug-In . SVG Version: 6.00 Build 0)  -->
<!DOCTYPE svg PUBLIC "-//W3C//DTD SVG 1.1//EN" "http://www.w3.org/Graphics/SVG/1.1/DTD/svg11.dtd">
<svg version="1.1" id="Capa_1" xmlns="http://www.w3.org/2000/svg" xmlns:xlink="http://www.w3.org/1999/xlink" x="0px" y="0px"
	 width="64px" height="64px" viewBox="0 0 64 64" enable-background="new 0 0 64 64" xml:space="preserve">
<path fill="#FFFFFF" d="M7.864,13.981l0.507-0.427c0.949-0.798,3.493-2.655,6.624-2.655c2.744,0,5.046,0.965,6.174,1.54l0.695,0.355
	l-1.582,6.862l-1.291-1.741c-0.936-1.262-2.43-2.016-3.996-2.016c-1.661,0-3.213,0.83-4.152,2.22l-1.168,1.731L7.864,13.981z"/>
<path fill="#68B4E8" d="M14.995,25.9c-2.757,0-5-2.243-5-5c0-2.757,2.243-5,5-5c2.757,0,5,2.243,5,5
	C19.995,23.657,17.752,25.9,14.995,25.9"/>
<path fill="#68B4E8" d="M54.092,31.707c7.071-7.071,8.929-19.355,4.243-24.042c-4.688-4.686-16.971-2.828-24.042,4.243
	c-7.071,7.071-4.686,15.113,0,19.799C38.979,36.394,47.021,38.778,54.092,31.707"/>
<path fill="#FFFFFF" d="M33.571,30.933c-1.316-1.487-2.303-3.127-2.932-4.874l-0.211-0.585l3.192-3.313l5.382,4.841l-4.726,4.727
	L33.571,30.933z"/>
<path fill="#FFFFFF" d="M56.414,19.876l4.638-4.862L60.693,18c-0.129,1.072-0.345,2.149-0.641,3.202l-0.435,1.544L56.414,19.876z"/>
<path fill="#FFFFFF" d="M44.695,32.124l5.851-6.125l4.818,4.327l-0.672,0.744c-0.191,0.213-0.394,0.425-0.605,0.638
	c-1.454,1.454-3.01,2.57-4.626,3.32c-0.148,0.075-0.338,0.151-0.515,0.214l-0.562,0.201L44.695,32.124z"/>
<polygon fill="#FFFFFF" points="39.476,16.033 45.338,9.908 51.003,15.001 44.997,21.009 "/>
<polygon fill="#68B4E8" points="5.247,55.091 13.255,48.092 17.909,52.744 10.91,60.754 "/>
<path fill="#212256" d="M59.04,6.96c-1.85-1.86-4.85-2.88-8.43-2.88c-6.021,0-12.7,2.8-17.021,7.12c-3.43,3.43-5.06,7.44-4.7,11.59
	c0.27,3.17,1.68,6.3,4.02,8.89L15.58,49.01l-2.28-2.29l-9.51,8.32l7.17,7.17l8.32-9.51l-2.29-2.28l17.33-17.33
	c2.89,2.601,6.5,4.07,10.01,4.07c3.75,0,7.36-1.641,10.47-4.75C62.15,25.06,64.3,12.21,59.04,6.96 M10.86,59.29l-4.15-4.15l6.5-5.68
	l3.33,3.33L10.86,59.29z M59.86,14.83l-3.5,3.65l-3.91-3.52l5.819-5.82C59.25,10.55,59.78,12.55,59.86,14.83 M43.55,21.04
	l-4.58,4.58l-3.92-3.52l4.48-4.68L43.55,21.04z M40.91,15.98l4.479-4.68l4.16,3.74l-4.59,4.59L40.91,15.98z M45.04,22.37l4.08,3.68
	l-4.47,4.68l-4.2-3.77L45.04,22.37z M46.45,20.96l4.58-4.58l3.95,3.55l-4.48,4.68L46.45,20.96z M50.61,6.08
	c2.569,0,4.75,0.58,6.25,1.65l-5.891,5.89l-4.2-3.77l3.601-3.76C50.45,6.08,50.53,6.08,50.61,6.08 M47.35,6.36l-2.06,2.16
	l-1.41-1.28C45.02,6.85,46.19,6.56,47.35,6.36 M41.78,8.06l2.12,1.9l-4.471,4.68l-3.35-3.01C37.75,10.19,39.7,8.97,41.78,8.06
	 M34.63,13.01l3.42,3.07l-4.479,4.68l-2.311-2.08C31.83,16.69,32.96,14.77,34.63,13.01 M30.88,22.62c-0.05-0.53-0.05-1.06-0.01-1.59
	l1.31,1.18l-1.189,1.25C30.94,23.18,30.9,22.9,30.88,22.62 M31.58,25.72l2.09-2.17l3.88,3.49l-3.229,3.23
	C33.09,28.88,32.16,27.33,31.58,25.72 M35.73,31.68l3.3-3.3l4.229,3.8l-2.34,2.45C39.08,34.07,37.3,33.06,35.73,31.68 M44.33,35.16
	c-0.37,0-0.73-0.021-1.1-0.061l1.51-1.59l1.62,1.46C45.69,35.1,45.02,35.16,44.33,35.16 M53.38,31c-1.38,1.38-2.83,2.42-4.34,3.12
	c-0.14,0.07-0.29,0.13-0.43,0.18l-2.48-2.229l4.47-4.68l3.351,3.01C53.77,30.6,53.58,30.8,53.38,31 M55.23,28.86l-3.25-2.92
	l4.479-4.68l1.96,1.77C57.66,25.06,56.6,27.06,55.23,28.86 M59.09,20.93l-1.24-1.11l1.851-1.94C59.58,18.88,59.38,19.9,59.09,20.93"
	/>
<path fill="#212256" d="M22.03,7.67l-0.85,3.65c-1.17-0.54-2.99-1.22-5.18-1.38V7h-2v2.95c-2.45,0.27-4.44,1.46-5.61,2.32L6.96,7.61
	L5.04,8.19l3.97,12.89C9.1,24.3,11.75,26.9,15,26.9c3.26,0,5.9-2.61,5.99-5.85l2.97-12.92L22.03,7.67z M10.02,17.56l-1-3.24
	c0.72-0.61,2.6-2.02,4.98-2.34v3.01C12.35,15.26,10.92,16.22,10.02,17.56 M15,24.9c-2.21,0-4-1.79-4-4s1.79-4,4-4s4,1.79,4,4
	S17.21,24.9,15,24.9 M19.8,17.32c-0.9-1.21-2.25-2.07-3.8-2.33v-3.04c2.09,0.18,3.79,0.91,4.71,1.38L19.8,17.32z"/>
</svg>
