<?xml version="1.0" encoding="utf-8"?>
<!-- Generator: Adobe Illustrator 16.0.0, SVG Export Plug-In . SVG Version: 6.00 Build 0)  -->
<!DOCTYPE svg PUBLIC "-//W3C//DTD SVG 1.1//EN" "http://www.w3.org/Graphics/SVG/1.1/DTD/svg11.dtd">
<svg version="1.1" id="Capa_1" xmlns="http://www.w3.org/2000/svg" xmlns:xlink="http://www.w3.org/1999/xlink" x="0px" y="0px"
	 width="64px" height="64px" viewBox="0 0 64 64" enable-background="new 0 0 64 64" xml:space="preserve">
<path fill="#68B4E8" d="M51.799,12.201c10.933,10.932,10.933,28.666,0,39.598c-10.932,10.933-28.666,10.933-39.598,0
	c-0.24-0.24-0.467-0.48-0.686-0.728l39.556-39.556C51.318,11.734,51.559,11.961,51.799,12.201"/>
<path fill="#F3F4F9" d="M51.07,11.515L11.515,51.071C1.276,40.096,1.51,22.892,12.201,12.201
	C22.893,1.509,40.097,1.276,51.07,11.515"/>
<path fill="#212256" d="M52.506,11.494C46.843,5.831,39.422,3,32,3s-14.843,2.831-20.506,8.494
	c-11.325,11.325-11.325,29.687,0,41.012C17.157,58.169,24.578,61,32,61s14.843-2.831,20.506-8.494
	C63.831,41.181,63.831,22.819,52.506,11.494z M58.889,29.586H58.87c-9.839,0-16.235-4.418-18.335-6.121l10.557-10.557
	C55.619,17.434,58.334,23.285,58.889,29.586z M24.929,39.071l6.364-6.364l19.074,19.074c-4.942,4.598-11.318,7.146-18.094,7.212
	C32.063,46.377,25.225,39.367,24.929,39.071z M23.398,37.773c-2.721-2.074-9.006-5.89-18.391-6.047
	c0.067-6.775,2.614-13.152,7.211-18.094l17.661,17.661L23.398,37.773z M21.957,39.216L11.551,49.621
	c-3.859-4.465-6.12-9.995-6.491-15.893C13.533,33.897,19.353,37.303,21.957,39.216z M13.632,12.218
	c4.776-4.443,10.891-6.969,17.412-7.195c0.375,10.046,4.913,16.389,6.652,18.452l-6.403,6.403L13.632,12.218z M39.121,22.051
	c-1.625-2.003-5.706-7.936-6.076-17.025c6.152,0.233,11.938,2.518,16.576,6.526L39.121,22.051z M23.515,40.485L23.515,40.485
	c0.072,0.071,6.524,6.692,6.757,18.454c-6.561-0.412-12.674-3.158-17.363-7.848L23.515,40.485z M51.781,50.367L32.707,31.293
	l6.403-6.403c2.153,1.814,8.946,6.696,19.76,6.696h0.12C58.992,31.724,59,31.861,59,32C59,38.877,56.441,45.358,51.781,50.367z"/>
</svg>
