<?xml version="1.0" encoding="utf-8"?>
<!-- Generator: Adobe Illustrator 16.0.0, SVG Export Plug-In . SVG Version: 6.00 Build 0)  -->
<!DOCTYPE svg PUBLIC "-//W3C//DTD SVG 1.1//EN" "http://www.w3.org/Graphics/SVG/1.1/DTD/svg11.dtd">
<svg version="1.1" id="Capa_1" xmlns="http://www.w3.org/2000/svg" xmlns:xlink="http://www.w3.org/1999/xlink" x="0px" y="0px"
	 width="64px" height="64px" viewBox="0 0 64 64" enable-background="new 0 0 64 64" xml:space="preserve">
<g>
	<path fill="#68B4E8" d="M15,51C9.486,51,5,46.514,5,41s4.486-10,10-10s10,4.486,10,10S20.514,51,15,51"/>
</g>
<g>
	<path fill="#F3F4F9" d="M50,51c-5.514,0-10-4.486-10-10s4.486-10,10-10s10,4.486,10,10S55.514,51,50,51"/>
</g>
<path fill="#212256" d="M50,30c-0.992,0-1.949,0.144-2.863,0.39l-6.199-16.737C40.792,13.26,40.418,13,40,13h-7
	c-0.553,0-1,0.448-1,1s0.447,1,1,1h6.304l3.333,9H22.009l-2.182-3H24c0.552,0,1-0.448,1-1s-0.448-1-1-1H14c-0.552,0-1,0.448-1,1
	s0.448,1,1,1h3.355l2.69,3.7l-2.022,5.731C17.062,30.156,16.05,30,15,30C8.925,30,4,34.925,4,41s4.925,11,11,11
	c5.391,0,9.868-3.881,10.81-9H33c0.339,0,0.655-0.172,0.84-0.457l9.963-15.396l1.459,3.938C41.562,32.856,39,36.624,39,41
	c0,6.075,4.925,11,11,11s11-4.925,11-11S56.075,30,50,30z M15,50c-4.963,0-9-4.037-9-9s4.037-9,9-9c0.816,0,1.603,0.119,2.355,0.323
	l-3.298,9.344c-0.108,0.307-0.061,0.646,0.126,0.91C14.371,42.843,14.675,43,15,43h8.768C22.855,47.002,19.275,50,15,50z
	 M19.218,33.055C22.06,34.569,24,37.561,24,41h-7.586L19.218,33.055z M19.888,31.156l1.586-4.493L31.9,41H26
	C26,36.683,23.507,32.957,19.888,31.156z M33.358,39.605L23.464,26h18.698L33.358,39.605z M50,50c-4.963,0-9-4.037-9-9
	c0-3.509,2.022-6.547,4.959-8.031l3.104,8.379C49.212,41.751,49.594,42,50,42c0.115,0,0.232-0.02,0.348-0.063
	c0.518-0.191,0.782-0.767,0.59-1.285l-3.104-8.378C48.529,32.102,49.252,32,50,32c4.963,0,9,4.037,9,9S54.963,50,50,50z"/>
</svg>
