<?xml version="1.0" encoding="utf-8"?>
<!-- Generator: Adobe Illustrator 16.0.0, SVG Export Plug-In . SVG Version: 6.00 Build 0)  -->
<!DOCTYPE svg PUBLIC "-//W3C//DTD SVG 1.1//EN" "http://www.w3.org/Graphics/SVG/1.1/DTD/svg11.dtd">
<svg version="1.1" id="Capa_1" xmlns="http://www.w3.org/2000/svg" xmlns:xlink="http://www.w3.org/1999/xlink" x="0px" y="0px"
	 width="64px" height="64px" viewBox="0 0 64 64" enable-background="new 0 0 64 64" xml:space="preserve">
<path fill="#68B4E8" d="M6.54,57.46c-0.536,0-1.056-0.223-1.425-0.61c-0.761-0.763-0.76-2.029,0.018-2.807l8.479-8.49
	c0.379-0.378,0.882-0.585,1.418-0.585c0.536,0,1.039,0.207,1.417,0.584c0.781,0.783,0.781,2.055,0,2.835l-8.49,8.48
	C7.607,57.237,7.083,57.46,6.54,57.46"/>
<path fill="#212256" d="M17.15,44.85c-0.57-0.569-1.32-0.88-2.12-0.88c-0.8,0-1.56,0.311-2.12,0.88l-8.49,8.48
	c-1.17,1.17-1.17,3.08,0,4.25c0.57,0.56,1.32,0.88,2.12,0.88c0.81,0,1.56-0.32,2.13-0.88l8.48-8.49c0.57-0.56,0.88-1.32,0.88-2.12
	S17.72,45.42,17.15,44.85 M15.74,47.68l-8.49,8.48c-0.19,0.2-0.45,0.3-0.71,0.3c-0.25,0-0.51-0.1-0.7-0.3
	c-0.39-0.391-0.39-1.021,0-1.41l8.48-8.49c0.39-0.39,1.03-0.39,1.42,0C16.13,46.65,16.13,47.29,15.74,47.68"/>
<path fill="#F3F4F9" d="M26.56,51.15c-0.37,0.67-0.63,1.06-0.63,1.06s-2.83,2.83-5.66,0S9.79,41.73,9.79,41.73s-2.83-2.83,0-5.66
	c0,0,0.37-0.25,1.02-0.62L26.56,51.15z"/>
<path fill="#68B4E8" d="M26.56,51.15l-15.75-15.7c3.02-1.7,8.13-4.03,13.95,1.79C30.56,43.04,28.29,48.08,26.56,51.15"/>
<path fill="#212256" d="M58.163,3.837c-0.391-0.391-1.023-0.391-1.414,0l-32.021,32.02c-2.326-2.047-4.947-3.093-7.81-3.093
	c-4.326,0-7.593,2.403-7.73,2.506L9.08,35.364c-2.796,2.796-1.223,5.848,0,7.071L19.565,52.92c1.028,1.028,2.183,1.551,3.431,1.551
	c2.066,0,3.577-1.487,3.64-1.551l0.094-0.108c0.062-0.083,5.936-8.141-0.581-15.546L58.163,5.251
	C58.554,4.861,58.554,4.228,58.163,3.837z M25.175,51.549c-0.21,0.188-1.103,0.922-2.179,0.922c-0.708,0-1.368-0.315-2.017-0.965
	l-10.481-10.48c-0.348-0.355-1.969-2.216-0.06-4.19c0.042-0.029,0.124-0.084,0.213-0.142L25.31,51.351
	C25.253,51.436,25.207,51.503,25.175,51.549z M26.292,49.506L12.507,35.722c1.156-0.493,2.694-0.957,4.411-0.957
	c2.619,0,5.019,1.072,7.132,3.186C28.373,42.272,27.416,46.896,26.292,49.506z"/>
</svg>
