<?xml version="1.0" encoding="utf-8"?>
<!-- Generator: Adobe Illustrator 16.0.0, SVG Export Plug-In . SVG Version: 6.00 Build 0)  -->
<!DOCTYPE svg PUBLIC "-//W3C//DTD SVG 1.1//EN" "http://www.w3.org/Graphics/SVG/1.1/DTD/svg11.dtd">
<svg version="1.1" id="Capa_1" xmlns="http://www.w3.org/2000/svg" xmlns:xlink="http://www.w3.org/1999/xlink" x="0px" y="0px"
	 width="64px" height="64px" viewBox="0 0 64 64" enable-background="new 0 0 64 64" xml:space="preserve">
<path fill="#F3F4F9" d="M32,60C16.561,60,4,47.439,4,32C4,16.561,16.561,4,32,4c15.439,0,28,12.561,28,28C60,47.439,47.439,60,32,60
	"/>
<path fill="#68B4E8" d="M44.004,48.998l11.712-1.95l-1.542,2.011c-3.342,4.356-7.829,7.599-12.978,9.377l-2.318,0.801L44.004,48.998
	z"/>
<path fill="#68B4E8" d="M22.803,58.436c-5.148-1.778-9.636-5.021-12.977-9.377l-1.542-2.011l11.712,1.949l5.126,10.239
	L22.803,58.436z"/>
<path fill="#68B4E8" d="M21.625,5.85l2.821-0.802C26.893,4.353,29.434,4,32.001,4c2.565,0,5.107,0.353,7.553,1.048l2.822,0.802
	L32.001,9.997L21.625,5.85z"/>
<path fill="#68B4E8" d="M51.998,26.002l0.98-12.712l1.597,2.167c3.462,4.701,5.334,10.268,5.415,16.099l0.034,2.458L51.998,26.002z"
	/>
<polygon fill="#68B4E8" points="26.003,41 21,28.997 32,19.998 43,28.997 37.997,41 "/>
<path fill="#68B4E8" d="M4.01,31.556c0.081-5.83,1.953-11.397,5.415-16.099l1.595-2.167l0.983,12.712l-8.027,8.012L4.01,31.556z"/>
<path fill="#212256" d="M32,3C15.98,3,3,15.98,3,32c0,16.02,12.98,29,29,29c16.02,0,29-12.98,29-29C61,15.98,48.02,3,32,3
	 M53.77,16.05c3.211,4.36,5.141,9.73,5.221,15.52l-5.96-5.95L53.77,16.05z M51.93,13.82l-0.87,11.44L43.2,27.88L33,19.53v-8.85
	l0.06-0.02L42.18,7C45.93,8.52,49.26,10.87,51.93,13.82 M41.79,29.3L37.33,40H26.67l-4.46-10.7L32,21.29L41.79,29.3z M32,5
	c2.52,0,4.96,0.35,7.28,1.01L32,8.92l-7.28-2.91C27.04,5.35,29.48,5,32,5 M21.82,7L31,10.68v8.85l-10.2,8.35l-7.86-2.62l-0.87-11.44
	C14.74,10.87,18.07,8.52,21.82,7 M10.23,16.05l0.74,9.57l-5.96,5.95C5.09,25.78,7.02,20.41,10.23,16.05 M5.11,34.31l7.16-7.16
	l7.98,2.66l4.61,11.05l-5.3,7.06L9.02,46.15C6.85,42.65,5.47,38.62,5.11,34.31 M10.62,48.45l8.71,1.45l3.8,7.59
	C18.12,55.76,13.78,52.57,10.62,48.45 M32,59c-2.15,0-4.25-0.25-6.25-0.74l-4.58-9.16L26.5,42h11l5.33,7.1l-4.58,9.16
	C36.25,58.75,34.15,59,32,59 M40.87,57.49l3.8-7.59l8.71-1.45C50.22,52.57,45.88,55.76,40.87,57.49 M54.98,46.15l-10.54,1.77
	l-5.301-7.06l4.61-11.05l7.98-2.66l7.159,7.16C58.53,38.62,57.15,42.65,54.98,46.15"/>
</svg>
