<?xml version="1.0" encoding="utf-8"?>
<!-- Generator: Adobe Illustrator 16.0.0, SVG Export Plug-In . SVG Version: 6.00 Build 0)  -->
<!DOCTYPE svg PUBLIC "-//W3C//DTD SVG 1.1//EN" "http://www.w3.org/Graphics/SVG/1.1/DTD/svg11.dtd">
<svg version="1.1" id="Capa_1" xmlns="http://www.w3.org/2000/svg" xmlns:xlink="http://www.w3.org/1999/xlink" x="0px" y="0px"
	 width="64px" height="64px" viewBox="0 0 64 64" enable-background="new 0 0 64 64" xml:space="preserve">
<g>
	<path fill="#68B4E8" d="M28,59c-1.654,0-3-1.346-3-3V46c0-0.403,0-0.752,5.485-7.652c-1.817-3.242-2.938-6.239-3.664-8.453
		c-2.69,0.574-5.213,0.865-7.513,0.865c-3.732,0-6.762-0.764-9.006-2.269c-0.66-0.438-1.111-1.111-1.266-1.892
		c-0.158-0.79,0.006-1.596,0.459-2.268c0.552-0.832,1.485-1.332,2.493-1.332c0.598,0,1.176,0.177,1.673,0.512
		c1.263,0.84,3.168,1.268,5.658,1.268c1.278,0,2.555-0.112,3.732-0.275C19.532,23.28,17,19.93,17,16c0-4.962,4.037-9,9-9
		c4.962,0,9,4.038,9,9c0,2.562-1.078,4.955-2.942,6.648c2.586-0.718,6.861-2.911,9.094-9.595c0.41-1.23,1.555-2.056,2.847-2.056
		c0.321,0,0.641,0.052,0.948,0.154c1.571,0.525,2.425,2.227,1.903,3.795c-3.295,9.873-10.202,12.808-13.988,13.679
		c0.871,2.475,2.021,4.941,3.425,7.354c0.858,0.007,2.564,0.017,3.719,0.021c1.52,0,5.017-2.865,7.203-5.437
		c0.51-0.603,1.238-0.935,2.05-0.935c0.762,0,1.556,0.302,2.178,0.828c1.261,1.081,1.429,3.214,0.358,4.479l-0.098,0.116
		C47.267,40.326,43.331,43,40,43h-4.579L31,47.078V56C31,57.654,29.654,59,28,59"/>
	<path fill="#212256" d="M26,8c4.41,0,8,3.59,8,8c0,2.83-1.47,5.31-3.7,6.74c0.06,0.37,0.14,0.78,0.23,1.22
		c1.93-0.2,8.56-1.58,11.57-10.59c0.28-0.84,1.061-1.373,1.898-1.373c0.21,0,0.422,0.033,0.632,0.103c1.05,0.35,1.62,1.48,1.27,2.53
		C42.42,25.06,34.83,27.35,31.55,27.86c0.84,2.63,2.15,5.75,4.16,9.11C35.72,36.98,40,37,40,37c2.109,0,5.93-3.39,7.97-5.79
		c0.342-0.403,0.805-0.582,1.287-0.582c0.535,0,1.092,0.219,1.533,0.592c0.84,0.72,0.95,2.23,0.24,3.07C50.01,35.5,44.689,42,40,42
		h-4.97L30,46.64V56c0,1.1-0.9,2-2,2c-1.1,0-2-0.9-2-2V46c0-0.42,5.69-7.56,5.69-7.56c-2.09-3.591-3.315-6.911-4.195-9.72
		c-2.14,0.5-5.097,1.04-8.187,1.04c-3.02,0-6.079-0.51-8.449-2.1c-0.92-0.61-1.154-1.85-0.534-2.77
		c0.383-0.578,1.017-0.891,1.664-0.891c0.383,0,0.771,0.11,1.113,0.341c1.598,1.063,3.857,1.439,6.217,1.439
		c2.544,0,5.207-0.437,7.287-0.919c-0.06-0.3-0.108-0.59-0.168-0.87C26.288,24,26.149,24,25.999,24C21.589,24,18,20.41,18,16
		S21.59,8,26,8 M26,6c-5.514,0-10,4.486-10,10c0,3.137,1.451,5.94,3.718,7.775c-0.135,0.003-0.268,0.004-0.399,0.004
		c-2.257,0-4.023-0.382-5.108-1.104c-0.653-0.44-1.425-0.676-2.222-0.676c-1.345,0-2.59,0.668-3.331,1.786
		c-0.595,0.882-0.812,1.956-0.603,3.009c0.208,1.045,0.811,1.944,1.699,2.533c2.403,1.612,5.621,2.433,9.554,2.433
		c2.118,0,4.414-0.238,6.847-0.709c0.69,2.003,1.678,4.503,3.134,7.196C24.001,44.91,24,45.224,24,46v10c0,2.206,1.795,4,4,4
		c2.206,0,4-1.794,4-4v-8.484L35.812,44H40c3.642,0,7.836-2.795,12.464-8.308l0.095-0.113c1.431-1.691,1.212-4.438-0.467-5.878
		c-0.823-0.695-1.825-1.073-2.834-1.073c-1.111,0.001-2.11,0.458-2.814,1.289C43.947,32.855,40.86,34.993,40,35
		c-0.922-0.004-2.22-0.011-3.133-0.018c-1.057-1.867-1.955-3.765-2.688-5.67c4.117-1.213,10.465-4.6,13.617-14.049
		c0.698-2.092-0.439-4.362-2.534-5.06c-0.41-0.137-0.835-0.206-1.265-0.206c-1.724,0-3.249,1.101-3.795,2.74
		c-1.266,3.786-3.21,6.026-5.074,7.35C35.695,18.822,36,17.435,36,16C36,10.486,31.514,6,26,6"/>
</g>
</svg>
