<?xml version="1.0" encoding="utf-8"?>
<!-- Generator: Adobe Illustrator 16.0.0, SVG Export Plug-In . SVG Version: 6.00 Build 0)  -->
<!DOCTYPE svg PUBLIC "-//W3C//DTD SVG 1.1//EN" "http://www.w3.org/Graphics/SVG/1.1/DTD/svg11.dtd">
<svg version="1.1" id="Capa_1" xmlns="http://www.w3.org/2000/svg" xmlns:xlink="http://www.w3.org/1999/xlink" x="0px" y="0px"
	 width="64px" height="64px" viewBox="0 0 64 64" enable-background="new 0 0 64 64" xml:space="preserve">
<g>
	<rect x="47" y="9" fill="#F3F4F9" width="2" height="29"/>
</g>
<g>
	<rect x="15" y="9" fill="#F3F4F9" width="2" height="30"/>
</g>
<g>
	<path fill="#212256" d="M58,13h-7V9h7c0.55,0,1-0.45,1-1s-0.45-1-1-1H6C5.45,7,5,7.45,5,8s0.45,1,1,1h7v4H6c-0.55,0-1,0.45-1,1
		s0.45,1,1,1h7v25h2V15h2v25h2V15h26v25h2V15h2v25h2V15h7c0.55,0,1-0.45,1-1S58.55,13,58,13z M17,13h-2V9h2V13z M45,13H19V9h26V13z
		 M49,13h-2V9h2V13z"/>
</g>
<g>
	<path fill="#212256" d="M16,59C9.935,59,5,54.065,5,48s4.935-11,11-11s11,4.935,11,11S22.065,59,16,59 M16,43c-2.757,0-5,2.243-5,5
		s2.243,5,5,5s5-2.243,5-5S18.757,43,16,43"/>
</g>
<g>
	<path fill="#68B4E8" d="M16,57c-4.962,0-9-4.037-9-9s4.038-9,9-9s9,4.037,9,9S20.962,57,16,57 M16,41c-3.86,0-7,3.141-7,7
		s3.14,7,7,7s7-3.141,7-7S19.86,41,16,41"/>
</g>
<g>
	<path fill="#212256" d="M48,59c-6.065,0-11-4.935-11-11s4.935-11,11-11s11,4.935,11,11S54.065,59,48,59 M48,43
		c-2.757,0-5,2.243-5,5s2.243,5,5,5s5-2.243,5-5S50.757,43,48,43"/>
</g>
<g>
	<path fill="#68B4E8" d="M48,57c-4.962,0-9-4.037-9-9s4.038-9,9-9s9,4.037,9,9S52.962,57,48,57 M48,41c-3.86,0-7,3.141-7,7
		s3.14,7,7,7s7-3.141,7-7S51.86,41,48,41"/>
</g>
</svg>
