<?xml version="1.0" encoding="utf-8"?>
<!-- Generator: Adobe Illustrator 16.0.0, SVG Export Plug-In . SVG Version: 6.00 Build 0)  -->
<!DOCTYPE svg PUBLIC "-//W3C//DTD SVG 1.1//EN" "http://www.w3.org/Graphics/SVG/1.1/DTD/svg11.dtd">
<svg version="1.1" id="Capa_1" xmlns="http://www.w3.org/2000/svg" xmlns:xlink="http://www.w3.org/1999/xlink" x="0px" y="0px"
	 width="64px" height="64px" viewBox="0 0 64 64" enable-background="new 0 0 64 64" xml:space="preserve">
<rect x="11" y="3" fill="#579BC1" width="42" height="8"/>
<path fill="#212256" d="M52,10H12V4h40V10z M54,2h-2H12h-2v2v6v2h2h40h2v-2V4V2z"/>
<path fill="#68B4E8" d="M27.57,31.67c-0.33,0.1-0.65,0.21-0.97,0.34c-1.96,0.76-3.72,1.92-5.19,3.38
	c-0.25,0.24-0.48,0.49-0.71,0.761L3.08,7.25l7.25-4.65L27.57,31.67z"/>
<path fill="#212256" d="M11.72,2.98L11.14,2H9.42l-0.5,0.32L3.36,5.88L1.71,6.93L2.73,8.6l17.3,28.37
	c0.21-0.279,0.44-0.56,0.67-0.819c0.23-0.271,0.46-0.521,0.71-0.761L4.44,7.56L10,4l16.6,28.01c0.32-0.13,0.64-0.24,0.97-0.34
	c0.33-0.1,0.66-0.19,0.99-0.27L11.72,2.98z"/>
<path fill="#68B4E8" d="M60.92,7.25L43.3,36.15c-0.229-0.271-0.46-0.521-0.71-0.761c-1.47-1.46-3.229-2.62-5.189-3.38
	c-0.32-0.13-0.641-0.24-0.971-0.34L53.67,2.6L60.92,7.25z"/>
<path fill="#212256" d="M60.64,5.88l-5.56-3.56L54.58,2h-1.72l-0.58,0.98L35.44,31.4c0.329,0.08,0.659,0.17,0.989,0.27
	s0.65,0.21,0.971,0.34L54,4l5.56,3.56L42.59,35.39c0.25,0.24,0.48,0.49,0.71,0.761c0.23,0.26,0.46,0.54,0.67,0.819L61.27,8.6
	l1.021-1.67L60.64,5.88z"/>
<g>
	<path fill="#F3F4F9" d="M32,61c-8.271,0-15-6.729-15-15s6.729-15,15-15c8.271,0,15,6.729,15,15S40.271,61,32,61"/>
	<path fill="#212256" d="M32,32c7.732,0,14,6.268,14,14s-6.268,14-14,14c-7.732,0-14-6.268-14-14S24.268,32,32,32 M32,30
		c-8.822,0-16,7.178-16,16s7.178,16,16,16c8.822,0,16-7.178,16-16S40.822,30,32,30"/>
	<line fill="none" stroke="#68B4E8" stroke-width="2" stroke-miterlimit="10" x1="22.901" y1="49.96" x2="35" y2="36"/>
	<line fill="none" stroke="#68B4E8" stroke-width="2" stroke-miterlimit="10" x1="26" y1="54" x2="39" y2="39"/>
	<path fill="#212256" d="M32,37c4.962,0,9,4.038,9,9s-4.038,9-9,9c-4.963,0-9-4.038-9-9S27.037,37,32,37 M32,35
		c-6.065,0-11,4.935-11,11s4.935,11,11,11c6.065,0,11-4.935,11-11S38.065,35,32,35"/>
</g>
</svg>
