<?xml version="1.0" encoding="utf-8"?>
<!-- Generator: Adobe Illustrator 16.0.0, SVG Export Plug-In . SVG Version: 6.00 Build 0)  -->
<!DOCTYPE svg PUBLIC "-//W3C//DTD SVG 1.1//EN" "http://www.w3.org/Graphics/SVG/1.1/DTD/svg11.dtd">
<svg version="1.1" id="Capa_1" xmlns="http://www.w3.org/2000/svg" xmlns:xlink="http://www.w3.org/1999/xlink" x="0px" y="0px"
	 width="64px" height="64px" viewBox="0 0 64 64" enable-background="new 0 0 64 64" xml:space="preserve">
<path fill="#212256" d="M52,19c-4.314,0-7.916,3.038-8.793,7.09C42.812,26.037,42.41,26,42,26s-0.812,0.037-1.207,0.09
	C39.916,22.038,36.314,19,32,19c-4.315,0-7.917,3.038-8.792,7.09C22.812,26.037,22.411,26,22,26s-0.812,0.037-1.208,0.09
	C19.917,22.038,16.315,19,12,19c-4.971,0-9,4.029-9,9c0,4.971,4.029,9,9,9c0.411,0,0.812-0.037,1.208-0.09
	C14.084,40.962,17.685,44,22,44s7.916-3.038,8.792-7.09C31.188,36.963,31.589,37,32,37c0.41,0,0.812-0.037,1.207-0.09
	C34.084,40.962,37.686,44,42,44s7.916-3.038,8.793-7.09C51.188,36.963,51.59,37,52,37c4.971,0,9-4.029,9-9
	C61,23.029,56.971,19,52,19z M5,28c0-3.86,3.14-7,7-7c3.372,0,6.194,2.397,6.854,5.576c-3.393,1.268-5.815,4.516-5.85,8.344
	C12.675,34.967,12.342,35,12,35C8.14,35,5,31.86,5,28z M18.964,28.702c-0.247,2.47-1.788,4.56-3.929,5.596
	C15.283,31.828,16.823,29.739,18.964,28.702z M22,42c-3.372,0-6.194-2.396-6.854-5.576c3.393-1.269,5.816-4.516,5.85-8.343
	C21.325,28.033,21.658,28,22,28s0.675,0.033,1.004,0.081c0.034,3.827,2.457,7.075,5.85,8.343C28.194,39.604,25.372,42,22,42z
	 M25.036,28.702c2.141,1.037,3.682,3.125,3.929,5.596C26.823,33.262,25.283,31.172,25.036,28.702z M30.996,34.92
	c-0.034-3.828-2.457-7.076-5.85-8.344C25.806,23.397,28.628,21,32,21c3.373,0,6.194,2.397,6.854,5.577
	c-3.393,1.268-5.815,4.516-5.85,8.343C32.676,34.967,32.342,35,32,35S31.325,34.967,30.996,34.92z M38.965,28.702
	c-0.247,2.47-1.788,4.56-3.93,5.596C35.282,31.828,36.823,29.738,38.965,28.702z M42,42c-3.373,0-6.194-2.396-6.854-5.576
	c3.393-1.269,5.815-4.517,5.85-8.343C41.324,28.033,41.658,28,42,28s0.676,0.033,1.004,0.081c0.034,3.827,2.457,7.075,5.85,8.343
	C48.194,39.604,45.373,42,42,42z M45.035,28.702c2.142,1.036,3.683,3.125,3.93,5.596C46.823,33.262,45.282,31.172,45.035,28.702z
	 M52,35c-0.342,0-0.676-0.033-1.004-0.08c-0.034-3.828-2.457-7.076-5.85-8.343C45.806,23.397,48.627,21,52,21c3.86,0,7,3.14,7,7
	S55.86,35,52,35z"/>
</svg>
