<?xml version="1.0" encoding="utf-8"?>
<!-- Generator: Adobe Illustrator 16.0.0, SVG Export Plug-In . SVG Version: 6.00 Build 0)  -->
<!DOCTYPE svg PUBLIC "-//W3C//DTD SVG 1.1//EN" "http://www.w3.org/Graphics/SVG/1.1/DTD/svg11.dtd">
<svg version="1.1" id="Capa_1" xmlns="http://www.w3.org/2000/svg" xmlns:xlink="http://www.w3.org/1999/xlink" x="0px" y="0px"
	 width="64px" height="64px" viewBox="0 0 64 64" enable-background="new 0 0 64 64" xml:space="preserve">
<path fill="#FFFFFF" d="M13.21,44l-2.229-5.017c-3.956-5.976-5.007-12.915-2.884-19.052c1.493-4.315,4.379-7.638,7.532-8.671
	l1.636-0.537l-0.345,1.687c-0.61,2.984-0.314,5.238,0.879,6.701c0.906,1.11,2.168,1.568,3.086,1.757
	C19.967,10.983,30.954,3.478,31.442,3.15l0.56-0.376l0.559,0.377c0.485,0.329,11.403,7.837,10.475,17.723
	c0.924-0.183,2.186-0.632,3.081-1.729c1.184-1.45,1.474-3.695,0.864-6.675l-0.346-1.688l1.637,0.537
	c3.148,1.032,6.026,4.338,7.511,8.628c2.115,6.115,1.057,13.044-2.902,19.024L50.65,44H13.21z"/>
<path fill="#212256" d="M56.73,19.64c-1.591-4.58-4.54-8.08-8.15-9.25L45.31,9.31L46,12.69c0.38,1.83,0.57,4.34-0.66,5.85
	c-0.359,0.44-0.8,0.75-1.25,0.97C43.94,9.8,33.6,2.73,33.12,2.4L32,1.65l-1.12,0.76C30.4,2.73,20.02,9.86,19.83,19.56
	c-0.44-0.22-0.88-0.54-1.25-0.98c-1-1.23-1.23-3.22-0.68-5.91l0.69-3.37l-3.27,1.07c-3.6,1.36-6.58,4.69-8.17,9.29
	c-2.21,6.38-1.14,13.59,2.95,19.8l1.93,4.35L12.56,45H51.3l0.53-1.19l1.93-4.35C57.85,33.24,58.94,26.02,56.73,19.64z M52,38.49
	L50,43H13.86l-2-4.5c-8-12-1.96-24.31,4.08-26.29C13.95,21.94,21.67,22,22.05,22h0.01C20.06,12,32,3.98,32,3.98S43.86,12,41.86,22
	h0.05c0.66,0,8-0.2,6.05-9.73C54,14.25,60,26.49,52,38.49z"/>
<path fill="#68B4E8" d="M13,31c0,0-1-5,4-8c0,0,2.514,5.446,7,2c3.906-3,6-7,4-11c0,0,10,2,10,13c0,0,7,0,7-4c0,0,5,2,5,8H13z"/>
<path fill="#68B4E8" d="M59.86,35H32v25c0,0-28,0-28-24c0,0,0-4,4-4h48C58.7,32,59.57,33.82,59.86,35"/>
<path fill="#FFFFFF" d="M60,36c0,24-28,24-28,24V35h27.86C60,35.57,60,36,60,36"/>
<path fill="#212256" d="M56,30H8c-4.402,0-6,3.588-6,6c0,10.676,5.26,18.573,15.212,22.838C24.506,61.964,31.697,62,32,62
	c0.303,0,7.494-0.036,14.788-3.162C56.74,54.573,62,46.676,62,36C62,33.588,60.402,30,56,30z M8,32h48c2.696,0,3.572,1.815,3.859,3
	H4.141C4.427,33.815,5.304,32,8,32z M32,60c0,0-27.184-0.018-27.963-23h55.926C59.184,59.982,32,60,32,60z"/>
</svg>
