<?xml version="1.0" encoding="utf-8"?>
<!-- Generator: Adobe Illustrator 16.0.0, SVG Export Plug-In . SVG Version: 6.00 Build 0)  -->
<!DOCTYPE svg PUBLIC "-//W3C//DTD SVG 1.1//EN" "http://www.w3.org/Graphics/SVG/1.1/DTD/svg11.dtd">
<svg version="1.1" id="Capa_1" xmlns="http://www.w3.org/2000/svg" xmlns:xlink="http://www.w3.org/1999/xlink" x="0px" y="0px"
	 width="64px" height="64px" viewBox="0 0 64 64" enable-background="new 0 0 64 64" xml:space="preserve">
<g>
	<path fill="#F3F4F9" d="M17.135,60.888c-2.067,0-3.579-1.487-3.642-1.551l-2.83-2.83c-0.089-0.09-0.886-0.91-1.302-2.159
		c-0.583-1.747-0.12-3.492,1.302-4.915c1.634-1.633,7.503-5.78,12.475-9.196c-4.461-5.955-5.31-11.997-2.375-17.104L21.414,22
		l26.587,26.587l-1.133,0.65c-1.991,1.145-4.135,1.725-6.369,1.725c-3.451,0-7.145-1.414-10.735-4.101
		c-3.418,4.975-7.567,10.846-9.197,12.476C19.538,60.367,18.384,60.888,17.135,60.888"/>
	<path fill="#68B4E8" d="M20.384,23.798l0.377-0.663c0.675-1.187,1.561-2.331,2.632-3.402c6.99-6.984,14.136-10.676,20.664-10.676
		c4.471,0,8.572,1.738,11.86,5.026c8.409,8.409,6.298,20.568-5.65,32.524c-1.071,1.071-2.216,1.957-3.402,2.632l-0.662,0.377
		L20.384,23.798z"/>
	<path fill="#68B4E8" d="M12,21c-3.86,0-7-3.14-7-7s3.14-7,7-7s7,3.14,7,7S15.86,21,12,21"/>
	<path fill="#212256" d="M56.624,13.347C53.145,9.868,48.799,8,44.058,8h-0.001c-6.8,0-14.189,3.822-21.371,10.997
		c-5.877,5.877-6.188,13.447-0.957,20.98c-4.811,3.318-10.182,7.149-11.773,8.741c-1.704,1.704-2.253,3.816-1.545,5.941
		c0.479,1.437,1.371,2.379,1.545,2.552l2.83,2.831c0.188,0.189,1.914,1.844,4.349,1.844c1.047,0,2.616-0.318,4.139-1.843
		c1.592-1.591,5.416-6.964,8.735-11.775c3.505,2.426,7.102,3.696,10.498,3.696c3.86,0,7.381-1.564,10.467-4.65
		c6.355-6.359,9.988-12.699,10.801-18.845C62.533,22.723,60.752,17.475,56.624,13.347z M29.54,45.42
		c-3.49,5.1-8.03,11.561-9.68,13.21c-0.943,0.943-1.887,1.258-2.725,1.258c-1.677,0-2.935-1.258-2.935-1.258l-2.83-2.83
		c0,0-2.83-2.83,0-5.66c1.65-1.649,8.11-6.189,13.21-9.68c-4.099-5.073-5.848-10.711-3.426-15.892l24.282,24.282
		c-1.609,0.753-3.263,1.114-4.93,1.114C36.806,49.965,33.039,48.247,29.54,45.42z M49.56,45.9c-0.756,0.756-1.531,1.391-2.32,1.925
		L22.171,22.757c0.535-0.788,1.173-1.562,1.929-2.317c7.288-7.282,14.125-10.382,19.957-10.383c4.354,0,8.148,1.728,11.153,4.733
		C62.24,21.82,62.28,33.17,49.56,45.9z"/>
	<path fill="#212256" d="M12,8c3.314,0,6,2.686,6,6s-2.686,6-6,6s-6-2.686-6-6S8.686,8,12,8 M12,6c-4.411,0-8,3.589-8,8s3.589,8,8,8
		s8-3.589,8-8S16.411,6,12,6"/>
</g>
</svg>
