<?xml version="1.0" encoding="utf-8"?>
<!-- Generator: Adobe Illustrator 16.0.0, SVG Export Plug-In . SVG Version: 6.00 Build 0)  -->
<!DOCTYPE svg PUBLIC "-//W3C//DTD SVG 1.1//EN" "http://www.w3.org/Graphics/SVG/1.1/DTD/svg11.dtd">
<svg version="1.1" id="Capa_1" xmlns="http://www.w3.org/2000/svg" xmlns:xlink="http://www.w3.org/1999/xlink" x="0px" y="0px"
	 width="64px" height="64px" viewBox="0 0 64 64" enable-background="new 0 0 64 64" xml:space="preserve">
<g>
	<rect x="3" y="27" fill="#68B4E8" width="19" height="25"/>
</g>
<g>
	<rect x="22" y="15" fill="#F3F4F9" width="19" height="37"/>
</g>
<g>
	<rect x="41" y="31" fill="#68B4E8" width="19" height="21"/>
</g>
<g>
	<rect x="3" y="28" fill="#F3F4F9" width="19" height="4"/>
</g>
<g>
	<rect x="22" y="16" fill="#68B4E8" width="19" height="4"/>
</g>
<g>
	<rect x="41" y="32" fill="#F3F4F9" width="19" height="4"/>
</g>
<g>
	<path fill="#212256" d="M23,53H2V26h21V53z M4,51h17V28H4V51z"/>
</g>
<g>
	<path fill="#212256" d="M42,53H21V14h21V53z M23,51h17V16H23V51z"/>
</g>
<g>
	<path fill="#212256" d="M61,53H40V30h21V53z M42,51h17V32H42V51z"/>
</g>
<g>
	<rect x="31" y="27" fill="#212256" width="2" height="10"/>
</g>
<g>
	<rect x="29" y="35" fill="#212256" width="6" height="2"/>
</g>
<g>
	<polygon fill="#212256" points="15,45 9,45 9,39 13,39 13,37 9,37 9,35 15,35 15,41 11,41 11,43 15,43 	"/>
</g>
<g>
	<polygon fill="#212256" points="54,48 48,48 48,46 52,46 52,40 48,40 48,38 54,38 	"/>
</g>
<g>
	<rect x="48" y="42" fill="#212256" width="5" height="2"/>
</g>
</svg>
