<?xml version="1.0" encoding="utf-8"?>
<!-- Generator: Adobe Illustrator 16.0.0, SVG Export Plug-In . SVG Version: 6.00 Build 0)  -->
<!DOCTYPE svg PUBLIC "-//W3C//DTD SVG 1.1//EN" "http://www.w3.org/Graphics/SVG/1.1/DTD/svg11.dtd">
<svg version="1.1" id="Capa_1" xmlns="http://www.w3.org/2000/svg" xmlns:xlink="http://www.w3.org/1999/xlink" x="0px" y="0px"
	 width="64px" height="64px" viewBox="0 0 64 64" enable-background="new 0 0 64 64" xml:space="preserve">
<path fill="#68B4E8" d="M44.728,44.728c0,0-18.385,18.386-32.527,7.071c-11.314-14.142,7.071-32.527,7.071-32.527
	s18.385-18.385,32.527-7.071C63.113,26.343,44.728,44.728,44.728,44.728"/>
<path fill="#F3F4F9" d="M14.837,53.541c-0.915-0.491-1.771-1.052-2.548-1.668L12.196,51.8l-0.072-0.093
	c-0.625-0.795-1.169-1.631-1.665-2.555l-0.246-0.457l0.573-1.143c0.635-1.232,6.297-11.949,15.557-21.21
	c9.261-9.26,19.978-14.922,21.17-15.536l1.197-0.592l0.453,0.244c0.914,0.491,1.771,1.052,2.548,1.667l0.093,0.074l0.072,0.092
	c0.624,0.796,1.169,1.631,1.665,2.555l0.245,0.456l-0.571,1.144c-0.641,1.24-6.32,11.973-15.558,21.21s-19.97,14.917-21.165,15.534
	l-1.203,0.594L14.837,53.541z"/>
<path fill="#212256" d="M52.58,11.58c-0.05-0.06-0.1-0.11-0.16-0.16c-3.229-2.59-6.939-3.9-11.01-3.9
	c-11.67,0-22.39,10.59-22.85,11.04c-0.19,0.19-18.88,19.19-7.14,33.86c0.05,0.061,0.1,0.11,0.16,0.16c3.23,2.59,6.94,3.9,11.01,3.9
	c11.67,0,22.391-10.591,22.84-11.051C45.62,45.24,64.32,26.25,52.58,11.58 M19.98,19.98c0.1-0.11,10.58-10.46,21.43-10.46
	c1.71,0,3.35,0.27,4.899,0.79C43.55,11.8,34.03,17.24,25.64,25.64c-8.38,8.37-13.81,17.85-15.32,20.65
	C6.27,33.93,19.82,20.14,19.98,19.98 M15.31,52.66c-0.82-0.44-1.833-1.012-2.4-1.57s-1.13-1.59-1.57-2.41L11.68,48
	c0.06-0.11,5.71-11.29,15.37-20.95C36.71,17.39,47.89,11.74,48,11.68l0.69-0.34c0.819,0.44,1.708,0.934,2.399,1.57
	s1.13,1.59,1.57,2.41L52.32,16c-0.061,0.11-5.71,11.29-15.37,20.95S16.11,52.26,16,52.32L15.31,52.66z M44.02,44.02
	c-0.1,0.101-10.6,10.461-21.43,10.461c-1.71,0-3.35-0.271-4.9-0.79c2.76-1.49,12.28-6.931,20.67-15.33
	c8.38-8.37,13.81-17.851,15.319-20.65C57.73,30.07,44.18,43.86,44.02,44.02"/>
</svg>
