<?xml version="1.0" encoding="utf-8"?>
<!-- Generator: Adobe Illustrator 16.0.0, SVG Export Plug-In . SVG Version: 6.00 Build 0)  -->
<!DOCTYPE svg PUBLIC "-//W3C//DTD SVG 1.1//EN" "http://www.w3.org/Graphics/SVG/1.1/DTD/svg11.dtd">
<svg version="1.1" id="Capa_1" xmlns="http://www.w3.org/2000/svg" xmlns:xlink="http://www.w3.org/1999/xlink" x="0px" y="0px"
	 width="64px" height="64px" viewBox="0 0 64 64" enable-background="new 0 0 64 64" xml:space="preserve">
<g>
	<path fill="#F3F4F9" d="M61,32v10c0-0.55-0.45-1-1-1c-2.67,0-4.48-1.36-6.4-2.8C51.5,36.63,49.33,35,46,35s-5.5,1.63-7.6,3.2
		C36.48,39.64,34.67,41,32,41s-4.48-1.36-6.4-2.8C23.5,36.63,21.33,35,18,35s-5.5,1.63-7.6,3.2C8.48,39.64,6.67,41,4,41
		c-0.55,0-1,0.45-1,1V32c0,0.55,0.45,1,1,1c3.33,0,5.5-1.63,7.6-3.2c1.92-1.44,3.73-2.8,6.4-2.8s4.48,1.36,6.4,2.8
		c2.1,1.57,4.27,3.2,7.6,3.2s5.5-1.63,7.6-3.2c1.92-1.44,3.73-2.8,6.4-2.8s4.48,1.36,6.4,2.8c2.1,1.57,4.27,3.2,7.6,3.2
		C60.55,33,61,32.55,61,32"/>
	<path fill="#68B4E8" d="M61,42v10c0-0.55-0.45-1-1-1c-2.67,0-4.48-1.36-6.4-2.8C51.5,46.63,49.33,45,46,45s-5.5,1.63-7.6,3.2
		C36.48,49.64,34.67,51,32,51s-4.48-1.36-6.4-2.8C23.5,46.63,21.33,45,18,45s-5.5,1.63-7.6,3.2C8.48,49.64,6.67,51,4,51
		c-0.55,0-1,0.45-1,1V42c0,0.55,0.45,1,1,1c3.33,0,5.5-1.63,7.6-3.2C13.52,38.36,15.33,37,18,37s4.48,1.36,6.4,2.8
		c2.1,1.57,4.27,3.2,7.6,3.2s5.5-1.63,7.6-3.2C41.52,38.36,43.33,37,46,37s4.48,1.36,6.4,2.8c2.1,1.57,4.27,3.2,7.6,3.2
		C60.55,43,61,42.55,61,42"/>
	<path fill="#68B4E8" d="M61,22v10c0-0.55-0.45-1-1-1c-2.67,0-4.48-1.36-6.4-2.8C51.5,26.63,49.33,25,46,25s-5.5,1.63-7.6,3.2
		C36.48,29.64,34.67,31,32,31s-4.48-1.36-6.4-2.8C23.5,26.63,21.33,25,18,25s-5.5,1.63-7.6,3.2C8.48,29.64,6.67,31,4,31
		c-0.55,0-1,0.45-1,1V22c0,0.55,0.45,1,1,1c2.47,0,4.3-0.9,5.93-2c0.58-0.39,1.13-0.8,1.67-1.2c1.92-1.44,3.73-2.8,6.4-2.8
		s4.48,1.36,6.4,2.8c0.54,0.4,1.09,0.81,1.67,1.2c1.63,1.1,3.46,2,5.93,2c2.47,0,4.3-0.9,5.93-2c0.58-0.39,1.13-0.8,1.67-1.2
		c1.92-1.44,3.73-2.8,6.4-2.8s4.48,1.36,6.4,2.8c0.54,0.4,1.09,0.81,1.67,1.2c1.63,1.1,3.46,2,5.93,2C60.55,23,61,22.55,61,22"/>
	<path fill="#212256" d="M61,22c0,0.55-0.45,1-1,1c-2.47,0-4.3-0.9-5.93-2c-0.58-0.39-1.13-0.8-1.67-1.2C50.48,18.36,48.67,17,46,17
		s-4.48,1.36-6.4,2.8c-0.54,0.4-1.09,0.81-1.67,1.2c-1.63,1.1-3.46,2-5.93,2c-2.47,0-4.3-0.9-5.93-2c-0.58-0.39-1.13-0.8-1.67-1.2
		C22.48,18.36,20.67,17,18,17s-4.48,1.36-6.4,2.8c-0.54,0.4-1.09,0.81-1.67,1.2C8.3,22.1,6.47,23,4,23c-0.55,0-1-0.45-1-1
		s0.45-1,1-1c2.67,0,4.48-1.36,6.4-2.8c2.1-1.57,4.27-3.2,7.6-3.2s5.5,1.63,7.6,3.2c1.92,1.44,3.73,2.8,6.4,2.8s4.48-1.36,6.4-2.8
		c2.1-1.57,4.27-3.2,7.6-3.2s5.5,1.63,7.6,3.2c1.92,1.44,3.73,2.8,6.4,2.8C60.55,21,61,21.45,61,22"/>
	<path fill="#212256" d="M61,32c0,0.55-0.45,1-1,1c-3.33,0-5.5-1.63-7.6-3.2C50.48,28.36,48.67,27,46,27s-4.48,1.36-6.4,2.8
		C37.5,31.37,35.33,33,32,33s-5.5-1.63-7.6-3.2C22.48,28.36,20.67,27,18,27s-4.48,1.36-6.4,2.8C9.5,31.37,7.33,33,4,33
		c-0.55,0-1-0.45-1-1s0.45-1,1-1c2.67,0,4.48-1.36,6.4-2.8c2.1-1.57,4.27-3.2,7.6-3.2s5.5,1.63,7.6,3.2c1.92,1.44,3.73,2.8,6.4,2.8
		s4.48-1.36,6.4-2.8c2.1-1.57,4.27-3.2,7.6-3.2s5.5,1.63,7.6,3.2c1.92,1.44,3.73,2.8,6.4,2.8C60.55,31,61,31.45,61,32"/>
	<path fill="#212256" d="M61,42c0,0.55-0.45,1-1,1c-3.33,0-5.5-1.63-7.6-3.2C50.48,38.36,48.67,37,46,37s-4.48,1.36-6.4,2.8
		C37.5,41.37,35.33,43,32,43s-5.5-1.63-7.6-3.2C22.48,38.36,20.67,37,18,37s-4.48,1.36-6.4,2.8C9.5,41.37,7.33,43,4,43
		c-0.55,0-1-0.45-1-1s0.45-1,1-1c2.67,0,4.48-1.36,6.4-2.8c2.1-1.57,4.27-3.2,7.6-3.2s5.5,1.63,7.6,3.2C27.52,39.64,29.33,41,32,41
		s4.48-1.36,6.4-2.8c2.1-1.57,4.27-3.2,7.6-3.2s5.5,1.63,7.6,3.2C55.52,39.64,57.33,41,60,41C60.55,41,61,41.45,61,42"/>
	<path fill="#212256" d="M61,52c0,0.55-0.45,1-1,1c-3.33,0-5.5-1.63-7.6-3.2C50.48,48.36,48.67,47,46,47s-4.48,1.36-6.4,2.8
		C37.5,51.37,35.33,53,32,53s-5.5-1.63-7.6-3.2C22.48,48.36,20.67,47,18,47s-4.48,1.36-6.4,2.8C9.5,51.37,7.33,53,4,53
		c-0.55,0-1-0.45-1-1s0.45-1,1-1c2.67,0,4.48-1.36,6.4-2.8c2.1-1.57,4.27-3.2,7.6-3.2s5.5,1.63,7.6,3.2C27.52,49.64,29.33,51,32,51
		s4.48-1.36,6.4-2.8c2.1-1.57,4.27-3.2,7.6-3.2s5.5,1.63,7.6,3.2C55.52,49.64,57.33,51,60,51C60.55,51,61,51.45,61,52"/>
</g>
</svg>
