<?xml version="1.0" encoding="utf-8"?>
<!-- Generator: Adobe Illustrator 16.0.0, SVG Export Plug-In . SVG Version: 6.00 Build 0)  -->
<!DOCTYPE svg PUBLIC "-//W3C//DTD SVG 1.1//EN" "http://www.w3.org/Graphics/SVG/1.1/DTD/svg11.dtd">
<svg version="1.1" id="Capa_1" xmlns="http://www.w3.org/2000/svg" xmlns:xlink="http://www.w3.org/1999/xlink" x="0px" y="0px"
	 width="64px" height="64px" viewBox="0 0 64 64" enable-background="new 0 0 64 64" xml:space="preserve">
<path fill="#F3F4F9" d="M33.465,44.622l-2.41,0.681c-2.3,0.649-4.55,1.77-6.32,3.149l-0.69,0.54l-0.03-0.029l-2.8-2.801l-0.03-0.029
	l0.54-0.7c1.39-1.771,2.51-4.01,3.15-6.311l0.67-2.42l1.17,2.221c0.53,0.989,1.17,1.87,1.92,2.609c0.75,0.761,1.63,1.4,2.62,1.931
	L33.465,44.622z"/>
<path fill="#68B4E8" d="M56.71,13.29l-28.2,28.2c-1.77-1.8-3.15-4.8-3.36-7.33c-0.82-6.31,2.08-14.24,7.07-19.24
	C35.99,11.15,41,8.98,45.96,8.98c4.16,0,7.97,1.53,10.74,4.29C56.71,13.28,56.71,13.28,56.71,13.29z"/>
<path fill="#FFFFFF" d="M55.05,37.8c-4.38,4.38-11.04,7.21-16.97,7.21c-0.76,0-1.51-0.05-2.23-0.14c-3.229-0.32-5.91-1.95-7.33-3.37
	l-0.01-0.01l28.2-28.2C62.98,19.6,62.23,30.59,55.05,37.8z"/>
<path fill="#68B4E8" d="M11.652,60.878c-0.849-0.462-2.086-1.721-2.546-2.59l-0.357-0.677l12.346-11.511l2.797,2.796l-11.56,12.352
	L11.652,60.878z"/>
<path fill="#F3F4F9" d="M13.99,27c-4.962,0-9-4.038-9-9s4.038-9,9-9s9,4.038,9,9S18.952,27,13.99,27"/>
<path fill="#212256" d="M13.99,8c-5.52,0-10,4.48-10,10s4.48,10,10,10c5.52,0,10-4.48,10-10S19.51,8,13.99,8 M21.7,15.97
	c-3.08-0.15-5.53-2.6-5.68-5.68C18.8,11.02,20.97,13.19,21.7,15.97 M6.28,20.03c3.08,0.15,5.53,2.6,5.68,5.68
	C9.19,24.98,7.02,22.81,6.28,20.03 M13.99,26c0-4.42-3.58-8-8-8c0-4.42,3.58-8,8-8c0,4.42,3.58,8,8,8C21.99,22.42,18.41,26,13.99,26
	"/>
<path fill="#212256" d="M57.41,12.58C50.7,5.86,39.08,6.59,31.47,14.2c-5.53,5.53-8.48,14.25-7.12,21.18
	c-0.2,3.96-2.1,8.12-4.49,10.51L8.46,56.28c-0.93,0.92-0.53,2.42,1.05,4.01c1.59,1.59,3.08,1.979,4.01,1.05l10.58-11.2
	c2.4-2.399,6.56-4.3,10.51-4.5c6.939,1.37,15.649-1.59,21.18-7.12C63.4,30.91,64.13,19.29,57.41,12.58z M12.13,60
	c-0.68-0.37-1.77-1.48-2.14-2.18l11.08-10.33l1.43,1.43L12.13,60z M24,47.6l-1.61-1.609c1.49-1.9,2.65-4.25,3.32-6.66
	c0.55,1.04,1.25,2.01,2.1,2.85c0.84,0.851,1.81,1.551,2.85,2.101C28.25,44.96,25.91,46.11,24,47.6z M54.34,37.09
	c-4.78,4.79-12.26,7.57-18.359,6.79c-2.801-0.28-5.3-1.64-6.75-3.09c-1.47-1.48-2.88-4.23-3.08-6.71
	c-0.8-6.12,1.99-13.65,6.78-18.45C39.75,8.8,50.07,8.06,55.99,13.98C61.9,19.91,61.16,30.25,54.34,37.09z"/>
</svg>
