<?xml version="1.0" encoding="utf-8"?>
<!-- Generator: Adobe Illustrator 16.0.0, SVG Export Plug-In . SVG Version: 6.00 Build 0)  -->
<!DOCTYPE svg PUBLIC "-//W3C//DTD SVG 1.1//EN" "http://www.w3.org/Graphics/SVG/1.1/DTD/svg11.dtd">
<svg version="1.1" id="Capa_1" xmlns="http://www.w3.org/2000/svg" xmlns:xlink="http://www.w3.org/1999/xlink" x="0px" y="0px"
	 width="64px" height="64px" viewBox="0 0 64 64" enable-background="new 0 0 64 64" xml:space="preserve">
<path fill="#68B4E8" d="M32,39v23.25c0,0-2,0.37-2-1.63L28,39H32z"/>
<path fill="#F3F4F9" d="M36,39l-2,21.5c0,2-2,1.75-2,1.75V39H36z"/>
<path fill="#F3F4F9" d="M42,16.5c0,4-2,7.5-2,7.5H24c0,0-2-3.5-2-7.5c0-6,4-8.25,4-8.25c-1,4.75,2,5.875,2,5.875
	C27,8,32,3.062,32,3.062S37,8,36,14.031c0,0,3-2.031,2-5.765C38,8.266,42,10.5,42,16.5"/>
<g>
	<path fill="#212256" d="M40,25H24c-0.359,0-0.69-0.192-0.868-0.504C23.045,24.344,21,20.717,21,16.5c0-6.51,4.326-9.018,4.51-9.122
		c0.342-0.192,0.765-0.167,1.082,0.065c0.317,0.232,0.468,0.628,0.387,1.012c-0.253,1.204-0.218,2.116-0.048,2.802
		c0.53-5.056,4.183-8.726,4.367-8.907c0.39-0.385,1.015-0.385,1.406,0c0.18,0.178,3.697,3.71,4.333,8.564
		c0.193-0.661,0.247-1.46-0.002-2.39c-0.104-0.388,0.034-0.801,0.352-1.048s0.75-0.28,1.102-0.084C38.672,7.496,43,9.988,43,16.5
		c0,4.217-2.045,7.844-2.132,7.996C40.69,24.808,40.358,25,40,25z M24.61,23H39.39c0.513-1.064,1.61-3.671,1.61-6.5
		c0-2.826-0.955-4.709-1.866-5.864c-0.313,2.116-1.67,3.612-2.573,4.223c-0.33,0.225-0.764,0.229-1.101,0.014
		c-0.336-0.216-0.512-0.611-0.446-1.005c0.683-4.117-1.754-7.741-3.012-9.292c-1.256,1.56-3.696,5.215-3.015,9.389
		c0.058,0.352-0.077,0.708-0.353,0.935s-0.653,0.288-0.985,0.163c-1.021-0.383-2.6-1.734-2.821-4.385
		C23.928,11.839,23,13.713,23,16.5C23,19.329,24.098,21.936,24.61,23z"/>
</g>
<path fill="#68B4E8" d="M35,21v2h-6v-2c0,0,0-5,3-8C35,16,35,21,35,21"/>
<g>
	<path fill="#212256" d="M32.016,63h-0.044c-0.854-0.008-2.599-0.473-2.951-2.173l-0.016-0.11L26.903,38h10.194l-2.119,22.707
		C34.595,62.518,32.936,63,32.016,63z M30.989,60.463c0.146,0.502,0.999,0.536,1.027,0.537c0.197,0,0.834-0.05,0.994-0.66L34.902,40
		h-5.806L30.989,60.463z"/>
</g>
<path fill="#68B4E8" d="M42,23.5C42,43,32,42,32,42s-10,1-10-18.375c0,0,0-1.625,2-1.625h8h8C42,22,42,23.5,42,23.5"/>
<g>
	<path fill="#212256" d="M40,21H24c-2.2,0-3,1.57-3,2.62c0,7.69,1.54,13.22,4.57,16.47c2.47,2.63,5.15,2.92,6.18,2.92
		c0.11,0,0.19,0,0.25-0.01c0.06,0.01,0.14,0.01,0.24,0.01C34.04,43.01,43,42.07,43,23.5C43,22.5,42.2,21,40,21z M23,23.62
		c0-0.14,0.07-0.62,1-0.62h16c0.62,0,0.97,0.19,1,0.5c0,0.51-0.01,1.01-0.02,1.5H23.02C23.01,24.55,23,24.09,23,23.62z M32.24,41.01
		c-0.08,0-0.13,0-0.141-0.01H31.91c-0.14,0.02-2.61,0.14-4.88-2.28c-2.2-2.35-3.53-6.359-3.91-11.72h17.76
		C39.93,40.28,33.6,41.01,32.24,41.01z"/>
</g>
</svg>
