<?xml version="1.0" encoding="utf-8"?>
<!-- Generator: Adobe Illustrator 16.0.0, SVG Export Plug-In . SVG Version: 6.00 Build 0)  -->
<!DOCTYPE svg PUBLIC "-//W3C//DTD SVG 1.1//EN" "http://www.w3.org/Graphics/SVG/1.1/DTD/svg11.dtd">
<svg version="1.1" id="Capa_1" xmlns="http://www.w3.org/2000/svg" xmlns:xlink="http://www.w3.org/1999/xlink" x="0px" y="0px"
	 width="64px" height="64px" viewBox="0 0 64 64" enable-background="new 0 0 64 64" xml:space="preserve">
<g>
	<path fill="#68B4E8" d="M32,60C16.561,60,4,47.439,4,32C4,16.561,16.561,4,32,4c15.439,0,28,12.561,28,28
		C60,47.439,47.439,60,32,60"/>
	<path fill="#F3F4F9" d="M32,51.036l1.08,0.087c0.808,0.065,1.586,0.097,2.38,0.097c4.514,0,13.115-1.03,20.013-7.927l1.602,1.153
		c-4.59,9.201-13.801,15.149-24.038,15.522L32,60.007V51.036z"/>
	<path fill="#F3F4F9" d="M32,31.996l24.187-14.109l0.492,0.907c1.07,1.976,1.905,4.122,2.48,6.379l0.117,0.458l-0.28,0.381
		c-9.231,12.571-22.166,14.602-25.91,14.925L32,41.03V31.996z"/>
	<path fill="#F3F4F9" d="M20.188,57.376c-3-1.396-5.708-3.301-8.048-5.662l-0.222-0.224l-0.053-0.311
		c-3.085-17.901,1.282-25.678,2.694-27.635l0.515-0.713l9.052,4.906l-0.507,0.888c-1.379,2.415-5.6,11.544-2.033,27.627l0.439,1.979
		L20.188,57.376z"/>
	<path fill="#F3F4F9" d="M7.37,18.665l0.529-0.894c1.637-2.766,3.716-5.211,6.179-7.268l0.421-0.352l0.523,0.166
		c13.811,4.381,22.176,13.345,24.411,15.988l0.771,0.91l-8.205,4.783L7.37,18.665z"/>
	<path fill="#F3F4F9" d="M48.536,21.301c-1.488-2.082-7.377-9.323-20.676-15.114l-3.204-1.396l3.458-0.511
		C29.375,4.094,30.682,4,32,4c9.611,0,18.446,4.864,23.634,13.012l0.559,0.878l-7.127,4.152L48.536,21.301z"/>
	<path fill="#212256" d="M32,3C15.98,3,3,15.98,3,32c0,16.02,12.98,29,29,29c16.02,0,29-12.98,29-29C61,15.98,48.02,3,32,3
		 M58.19,25.42C49.18,37.69,36.6,39.63,33,39.94v-7.37l22.8-13.3C56.84,21.19,57.64,23.26,58.19,25.42 M32,5
		c9.57,0,17.99,5.01,22.79,12.55l-5.44,3.17c-1.68-2.35-7.68-9.61-21.09-15.45C29.48,5.09,30.73,5,32,5 M24.78,5.99
		C39.23,11.64,45.8,19.31,47.6,21.74l-7.17,4.19c-1.79-2.2-9.82-11.32-23.78-16.13C19.1,8.11,21.84,6.81,24.78,5.99 M10.38,48.16
		C7,43.65,5,38.06,5,32c0-4.3,1.01-8.36,2.81-11.97l5.78,3.14C11.98,25.48,8.32,32.66,10.38,48.16 M12.85,51.01
		c-3.04-17.64,1.25-25.12,2.52-26.88l7.38,4c-1.45,2.54-5.78,11.93-2.14,28.34C17.71,55.12,15.08,53.26,12.85,51.01 M31,58.97
		c-2.84-0.1-5.56-0.64-8.11-1.56c-4.05-16.58,0.38-26.1,1.62-28.33L31,32.6V58.97z M31.98,30.85L8.76,18.28
		c1.58-2.67,3.6-5.04,5.96-7.01c13.62,4.32,21.87,13.22,23.95,15.68L31.98,30.85z M33,58.97v-6.85c0.62,0.05,1.45,0.1,2.46,0.1
		c4.85,0,13.64-1.14,20.72-8.22C51.89,52.6,43.15,58.6,33,58.97 M58.17,38.45C49.89,50.86,36.44,50.45,33,50.12v-8.16
		c3.61-0.25,16.11-1.979,25.71-13.94C58.9,29.32,59,30.65,59,32c0,2.23-0.28,4.4-0.79,6.47L58.17,38.45z"/>
</g>
</svg>
