<?xml version="1.0" encoding="utf-8"?>
<!-- Generator: Adobe Illustrator 16.0.0, SVG Export Plug-In . SVG Version: 6.00 Build 0)  -->
<!DOCTYPE svg PUBLIC "-//W3C//DTD SVG 1.1//EN" "http://www.w3.org/Graphics/SVG/1.1/DTD/svg11.dtd">
<svg version="1.1" id="Capa_1" xmlns="http://www.w3.org/2000/svg" xmlns:xlink="http://www.w3.org/1999/xlink" x="0px" y="0px"
	 width="64px" height="64px" viewBox="0 0 64 64" enable-background="new 0 0 64 64" xml:space="preserve">
<path fill="#68B4E8" d="M4,32c0-0.552,0.448-1,1-1h54c0.552,0,1,0.448,1,1s-0.448,1-1,1H5C4.448,33,4,32.552,4,32"/>
<path fill="#212256" d="M59,31c0.552,0,1,0.448,1,1s-0.448,1-1,1H5c-0.552,0-1-0.448-1-1s0.448-1,1-1H59 M59,29H5
	c-1.654,0-3,1.346-3,3c0,1.654,1.346,3,3,3h54c1.654,0,3-1.346,3-3C62,30.346,60.654,29,59,29"/>
<path fill="#68B4E8" d="M14,23c0-1.657-1.343-3-3-3s-3,1.343-3,3v18c0,1.657,1.343,3,3,3s3-1.343,3-3V23z"/>
<path fill="#F3F4F9" d="M22,23c0-1.657-1.343-3-3-3s-3,1.343-3,3v18c0,1.657,1.343,3,3,3s3-1.343,3-3V23z"/>
<path fill="#F3F4F9" d="M48,23c0-1.657-1.343-3-3-3s-3,1.343-3,3v18c0,1.657,1.343,3,3,3s3-1.343,3-3V23z"/>
<path fill="#68B4E8" d="M56,23c0-1.657-1.343-3-3-3s-3,1.343-3,3v18c0,1.657,1.343,3,3,3s3-1.343,3-3V23z"/>
<path fill="#212256" d="M11,20c1.657,0,3,1.343,3,3v18c0,1.657-1.343,3-3,3s-3-1.343-3-3V23C8,21.343,9.343,20,11,20 M11,18
	c-2.757,0-5,2.243-5,5v18c0,2.757,2.243,5,5,5s5-2.243,5-5V23C16,20.243,13.757,18,11,18"/>
<path fill="#212256" d="M19,20c1.657,0,3,1.343,3,3v18c0,1.657-1.343,3-3,3s-3-1.343-3-3V23C16,21.343,17.343,20,19,20 M19,18
	c-2.757,0-5,2.243-5,5v18c0,2.757,2.243,5,5,5s5-2.243,5-5V23C24,20.243,21.757,18,19,18"/>
<path fill="#212256" d="M45,20c1.657,0,3,1.343,3,3v18c0,1.657-1.343,3-3,3s-3-1.343-3-3V23C42,21.343,43.343,20,45,20 M45,18
	c-2.757,0-5,2.243-5,5v18c0,2.757,2.243,5,5,5s5-2.243,5-5V23C50,20.243,47.757,18,45,18"/>
<path fill="#212256" d="M53,20c1.657,0,3,1.343,3,3v18c0,1.657-1.343,3-3,3s-3-1.343-3-3V23C50,21.343,51.343,20,53,20 M53,18
	c-2.757,0-5,2.243-5,5v18c0,2.757,2.243,5,5,5s5-2.243,5-5V23C58,20.243,55.757,18,53,18"/>
</svg>
