<?xml version="1.0" encoding="UTF-8" standalone="no"?>
<svg width="60px" height="60px" viewBox="0 0 60 60" version="1.1" xmlns="http://www.w3.org/2000/svg" xmlns:xlink="http://www.w3.org/1999/xlink" xmlns:sketch="http://www.bohemiancoding.com/sketch/ns">
    <!-- Generator: Sketch 3.2.2 (9983) - http://www.bohemiancoding.com/sketch -->
    <title>ATM</title>
    <desc>Created with Sketch.</desc>
    <defs></defs>
    <g id="colored" stroke="none" stroke-width="1" fill="none" fill-rule="evenodd" sketch:type="MSPage">
        <g id="Marketing_sliced" sketch:type="MSLayerGroup" transform="translate(-480.000000, -720.000000)"></g>
        <g id="Marketing" sketch:type="MSLayerGroup" transform="translate(-478.000000, -710.000000)" stroke="#314E55" stroke-width="2" stroke-linejoin="round">
            <g id="ATM" transform="translate(483.000000, 717.000000)" sketch:type="MSShapeGroup">
                <path d="M8,6 L44,6 L46,51 L6,51 L8,6 Z" id="Rectangle-1516" stroke-linecap="round" fill="#E4AD40"></path>
                <rect id="Rectangle-1517" stroke-linecap="round" fill="#E4AD40" x="0" y="0" width="51" height="8" rx="13"></rect>
                <rect id="Rectangle-1518" stroke-linecap="round" fill="#73C9C9" x="12" y="12" width="17" height="13"></rect>
                <path d="M33,24 L39,24" id="Line" stroke-linecap="square"></path>
                <path d="M33,18 L39,18" id="Line" stroke-linecap="square"></path>
                <path d="M33,45 L39,45" id="Line" stroke-linecap="square"></path>
                <path d="M12,45 L27,45" id="Line" stroke-linecap="square"></path>
                <rect id="Rectangle-1519" stroke-linecap="round" x="13" y="30" width="2" height="2"></rect>
                <rect id="Rectangle-1520" stroke-linecap="round" x="19" y="30" width="2" height="2"></rect>
                <rect id="Rectangle-1521" stroke-linecap="round" x="25" y="30" width="2" height="2"></rect>
                <rect id="Rectangle-1524" stroke-linecap="round" x="13" y="34" width="2" height="2"></rect>
                <rect id="Rectangle-1522" stroke-linecap="round" x="19" y="34" width="2" height="2"></rect>
                <rect id="Rectangle-1523" stroke-linecap="round" x="25" y="34" width="2" height="2"></rect>
                <rect id="Rectangle-1527" stroke-linecap="round" x="13" y="38" width="2" height="2"></rect>
                <rect id="Rectangle-1525" stroke-linecap="round" x="19" y="38" width="2" height="2"></rect>
                <rect id="Rectangle-1526" stroke-linecap="round" x="25" y="38" width="2" height="2"></rect>
            </g>
        </g>
    </g>
</svg>