<?xml version="1.0" encoding="UTF-8" standalone="no"?>
<svg width="60px" height="60px" viewBox="0 0 60 60" version="1.1" xmlns="http://www.w3.org/2000/svg" xmlns:xlink="http://www.w3.org/1999/xlink" xmlns:sketch="http://www.bohemiancoding.com/sketch/ns">
    <!-- Generator: Sketch 3.2.2 (9983) - http://www.bohemiancoding.com/sketch -->
    <title>Calendar</title>
    <desc>Created with Sketch.</desc>
    <defs></defs>
    <g id="colored" stroke="none" stroke-width="1" fill="none" fill-rule="evenodd" sketch:type="MSPage">
        <g id="Marketing_sliced" sketch:type="MSLayerGroup" transform="translate(-240.000000, -1320.000000)"></g>
        <g id="Marketing" sketch:type="MSLayerGroup" transform="translate(-238.000000, -1310.000000)" stroke="#314E55" stroke-width="2" stroke-linecap="round" stroke-linejoin="round">
            <g id="Calendar" transform="translate(245.000000, 1317.000000)" sketch:type="MSShapeGroup">
                <rect id="Rectangle-1636" fill="#E9E7D1" x="0" y="8" width="48" height="39"></rect>
                <rect id="Rectangle-1637" fill="#E4AD40" x="0" y="0" width="48" height="10"></rect>
                <rect id="Rectangle-1638" fill="#D8D8D8" x="13" y="1" width="5" height="5"></rect>
                <rect id="Rectangle-1639" fill="#D8D8D8" x="30" y="1" width="5" height="5"></rect>
                <rect id="Rectangle-1640" fill="#73C9C9" x="7" y="14" width="7" height="7"></rect>
                <rect id="Rectangle-1640" fill="#73C9C9" x="16" y="14" width="7" height="7"></rect>
                <rect id="Rectangle-1640" fill="#73C9C9" x="25" y="14" width="7" height="7"></rect>
                <rect id="Rectangle-1640" fill="#73C9C9" x="34" y="14" width="7" height="7"></rect>
                <rect id="Rectangle-1644" fill="#73C9C9" x="7" y="24" width="7" height="7"></rect>
                <rect id="Rectangle-1641" fill="#73C9C9" x="16" y="24" width="7" height="7"></rect>
                <rect id="Rectangle-1642" fill="#73C9C9" x="25" y="24" width="7" height="7"></rect>
                <rect id="Rectangle-1643" fill="#73C9C9" x="34" y="24" width="7" height="7"></rect>
                <rect id="Rectangle-1648" fill="#73C9C9" x="7" y="34" width="7" height="7"></rect>
                <rect id="Rectangle-1645" fill="#73C9C9" x="16" y="34" width="7" height="7"></rect>
                <rect id="Rectangle-1646" fill="#73C9C9" x="25" y="34" width="7" height="7"></rect>
                <rect id="Rectangle-1647" fill="#73C9C9" x="34" y="34" width="7" height="7"></rect>
            </g>
        </g>
    </g>
</svg>