<?xml version="1.0" encoding="UTF-8" standalone="no"?>
<svg width="60px" height="60px" viewBox="0 0 60 60" version="1.1" xmlns="http://www.w3.org/2000/svg" xmlns:xlink="http://www.w3.org/1999/xlink" xmlns:sketch="http://www.bohemiancoding.com/sketch/ns">
    <!-- Generator: Sketch 3.2.2 (9983) - http://www.bohemiancoding.com/sketch -->
    <title>Cart</title>
    <desc>Created with Sketch.</desc>
    <defs></defs>
    <g id="colored" stroke="none" stroke-width="1" fill="none" fill-rule="evenodd" sketch:type="MSPage">
        <g id="Marketing_sliced" sketch:type="MSLayerGroup"></g>
        <g id="Marketing" sketch:type="MSLayerGroup" transform="translate(2.000000, 10.000000)" stroke="#314E55" stroke-width="2" stroke-linecap="round" stroke-linejoin="round">
            <g id="Cart" transform="translate(5.000000, 7.000000)" sketch:type="MSShapeGroup">
                <circle id="Oval-1329" fill="#F28544" cx="9" cy="35" r="3"></circle>
                <circle id="Oval-1329" fill="#F28544" cx="34" cy="35" r="3"></circle>
                <path d="M0,4 L43,4 L41,26 L2,22 L0,4 Z M19,9.99961498 C19,8.89525812 19.8877296,8 21,8 C22.1045695,8 23,8.88743329 23,9.99961498 L23,16.000385 C23,17.1047419 22.1122704,18 21,18 C19.8954305,18 19,17.1125667 19,16.000385 L19,9.99961498 Z M31,9.99961498 C31,8.89525812 31.8877296,8 33,8 C34.1045695,8 35,8.88743329 35,9.99961498 L35,16.000385 C35,17.1047419 34.1122704,18 33,18 C31.8954305,18 31,17.1125667 31,16.000385 L31,9.99961498 Z M7,9.99961498 C7,8.89525812 7.88772964,8 9,8 C10.1045695,8 11,8.88743329 11,9.99961498 L11,16.000385 C11,17.1047419 10.1122704,18 9,18 C7.8954305,18 7,17.1125667 7,16.000385 L7,9.99961498 Z" id="Rectangle-1449" fill="#5ECB66"></path>
                <path d="M41,25.4939416 L41,29.0643462 L3.2736947,29.0643462" id="Path-3188"></path>
                <path d="M42.9263446,5.94713879 L43.594948,0 L50.6128767,0" id="Path-3189"></path>
            </g>
        </g>
    </g>
</svg>