<?xml version="1.0" encoding="UTF-8" standalone="no"?>
<svg width="60px" height="60px" viewBox="0 0 60 60" version="1.1" xmlns="http://www.w3.org/2000/svg" xmlns:xlink="http://www.w3.org/1999/xlink" xmlns:sketch="http://www.bohemiancoding.com/sketch/ns">
    <!-- Generator: Sketch 3.2.2 (9983) - http://www.bohemiancoding.com/sketch -->
    <title>Dollarstats</title>
    <desc>Created with Sketch.</desc>
    <defs></defs>
    <g id="colored" stroke="none" stroke-width="1" fill="none" fill-rule="evenodd" sketch:type="MSPage">
        <g id="Marketing_sliced" sketch:type="MSLayerGroup" transform="translate(-240.000000, -840.000000)"></g>
        <g id="Marketing" sketch:type="MSLayerGroup" transform="translate(-238.000000, -830.000000)" stroke="#314E55" stroke-width="2" stroke-linecap="round" stroke-linejoin="round">
            <g id="Moneystats" transform="translate(243.000000, 837.000000)" sketch:type="MSShapeGroup">
                <path d="M19,5 C19,3.34314575 17.6568542,2 16,2 C14.3431458,2 13,3.34314575 13,5 C13,6.65685425 14.3431458,8 16,8" id="Oval-1388"></path>
                <path d="M16,15 L16,16" id="Line-327"></path>
                <path d="M16,0 L16,2" id="Line-328"></path>
                <path d="M12.625,11.125 C12.625,12.8508898 14.0241102,14.25 15.75,14.25 C17.4758898,14.25 18.875,12.8508898 18.875,11.125 C18.875,9.39911016 17.4758898,8 15.75,8" id="Oval-1387"></path>
                <circle id="Oval-1394" fill="#EA86A5" cx="4" cy="41" r="4"></circle>
                <circle id="Oval-1394" fill="#5ECB66" cx="16" cy="26" r="4"></circle>
                <circle id="Oval-1394" fill="#EA86A5" cx="32" cy="46" r="4"></circle>
                <circle id="Oval-1394" fill="#5ECB66" cx="48" cy="14" r="4"></circle>
                <path d="M6.28441672,37.755895 L13,30" id="Path-3480"></path>
                <path d="M18.8548009,29.265464 L28.9999997,43.0000002" id="Path-3481"></path>
                <path d="M34.3450363,42.815664 L46.4473293,17.7542294" id="Path-3482"></path>
            </g>
        </g>
    </g>
</svg>