<?xml version="1.0" encoding="UTF-8" standalone="no"?>
<svg width="60px" height="60px" viewBox="0 0 60 60" version="1.1" xmlns="http://www.w3.org/2000/svg" xmlns:xlink="http://www.w3.org/1999/xlink" xmlns:sketch="http://www.bohemiancoding.com/sketch/ns">
    <!-- Generator: Sketch 3.2.2 (9983) - http://www.bohemiancoding.com/sketch -->
    <title>Feather</title>
    <desc>Created with Sketch.</desc>
    <defs></defs>
    <g id="colored" stroke="none" stroke-width="1" fill="none" fill-rule="evenodd" sketch:type="MSPage">
        <g id="Marketing_sliced" sketch:type="MSLayerGroup" transform="translate(-120.000000, -1440.000000)"></g>
        <g id="Marketing" sketch:type="MSLayerGroup" transform="translate(-118.000000, -1430.000000)" stroke="#314E55" stroke-width="2" stroke-linecap="round" stroke-linejoin="round">
            <g id="Feather" transform="translate(148.646447, 1461.146447) rotate(-315.000000) translate(-148.646447, -1461.146447) translate(137.146447, 1428.646447)" sketch:type="MSShapeGroup">
                <path d="M12,60 C18.0751322,60 23,46.5685425 23,30 C23,13.4314575 12,-2.27373675e-13 12,-2.27373675e-13 C12,-2.27373675e-13 1,13.4314575 1,30 C1,46.5685425 5.92486775,60 12,60 Z" id="Oval-1448" fill="#E9E7D1" transform="translate(12.000000, 30.000000) rotate(-180.000000) translate(-12.000000, -30.000000) "></path>
                <path d="M12,59 L12,65" id="Line"></path>
                <path d="M17.3033009,18.004311 L13.0606602,22.2469516" id="Line"></path>
                <path d="M18.0104074,25.7824856 L13.767767,30.0251265" id="Line"></path>
                <path d="M17.3033009,34.9748737 L13.0606602,39.2175145" id="Line"></path>
            </g>
        </g>
    </g>
</svg>