<?xml version="1.0" encoding="UTF-8" standalone="no"?>
<svg width="60px" height="60px" viewBox="0 0 60 60" version="1.1" xmlns="http://www.w3.org/2000/svg" xmlns:xlink="http://www.w3.org/1999/xlink" xmlns:sketch="http://www.bohemiancoding.com/sketch/ns">
    <!-- Generator: Sketch 3.2.2 (9983) - http://www.bohemiancoding.com/sketch -->
    <title>Influence</title>
    <desc>Created with Sketch.</desc>
    <defs></defs>
    <g id="colored" stroke="none" stroke-width="1" fill="none" fill-rule="evenodd" sketch:type="MSPage">
        <g id="Marketing_sliced" sketch:type="MSLayerGroup" transform="translate(-840.000000, -840.000000)"></g>
        <g id="Marketing" sketch:type="MSLayerGroup" transform="translate(-838.000000, -830.000000)" stroke="#314E55" stroke-width="2" stroke-linecap="round" stroke-linejoin="round">
            <g id="Influence" transform="translate(844.000000, 835.000000)" sketch:type="MSShapeGroup">
                <path d="M15.4581272,22.9511894 C16.7327101,27.6162482 20.5227387,31 25,31 C29.4772613,31 33.2672899,27.6162482 34.5418728,22.9511894 L34.5418728,22.9511894 C35.9400728,22.6961217 37,21.4718405 37,20 C37,18.6138405 36.059885,17.4472565 34.7824737,17.1030668 C33.8236354,11.9022841 29.8080904,8 25,8 C20.1919096,8 16.1763646,11.9022841 15.2175263,17.1030668 C13.940115,17.4472565 13,18.6138405 13,20 C13,21.4718405 14.0599272,22.6961217 15.4581272,22.9511894 Z" id="Oval-1398" fill="#E9E7D1"></path>
                <path d="M36,42 C36,35.9248678 31.0751322,31 25,31 C18.9248678,31 14,35.9248678 14,42 L36,42 Z" id="Oval-1399" fill="#E9E7D1"></path>
                <circle id="Oval-1401" fill="#EA86A5" cx="46" cy="3" r="3"></circle>
                <circle id="Oval-1401" fill="#5ECB66" cx="5" cy="4" r="3"></circle>
                <circle id="Oval-1401" fill="#EA86A5" cx="3" cy="34" r="3"></circle>
                <circle id="Oval-1401" fill="#5ECB66" cx="45" cy="49" r="3"></circle>
                <path d="M6.25388316,33.050991 L13.3183039,28.9433997" id="Path-3511"></path>
                <path d="M7.65915294,5.6533153 L13.0755305,9.38227388" id="Path-3512"></path>
                <path d="M44.4196438,5.85123695 L37.7534133,12.0373967" id="Path-3513"></path>
                <path d="M43.8060607,46.1701453 L35.6724979,30.0665203" id="Path-3514"></path>
            </g>
        </g>
    </g>
</svg>