<?xml version="1.0" encoding="UTF-8" standalone="no"?>
<svg width="60px" height="60px" viewBox="0 0 60 60" version="1.1" xmlns="http://www.w3.org/2000/svg" xmlns:xlink="http://www.w3.org/1999/xlink" xmlns:sketch="http://www.bohemiancoding.com/sketch/ns">
    <!-- Generator: Sketch 3.2.2 (9983) - http://www.bohemiancoding.com/sketch -->
    <title>Investigate</title>
    <desc>Created with Sketch.</desc>
    <defs></defs>
    <g id="colored" stroke="none" stroke-width="1" fill="none" fill-rule="evenodd" sketch:type="MSPage">
        <g id="Marketing_sliced" sketch:type="MSLayerGroup" transform="translate(-480.000000, -1440.000000)"></g>
        <g id="Marketing" sketch:type="MSLayerGroup" transform="translate(-478.000000, -1430.000000)" stroke="#314E55" stroke-width="2" stroke-linejoin="round">
            <g id="Investigate" transform="translate(481.000000, 1437.000000)" sketch:type="MSShapeGroup">
                <path d="M30,36.8342262 L30,45 L0,45 L0,0 L30,0 L30,11.2340354" id="Rectangle-1672" stroke-linecap="round" fill="#E4AD40"></path>
                <circle id="Oval-1451" stroke-linecap="round" fill="#73C9C9" cx="27" cy="24" r="13"></circle>
                <g id="Group" transform="translate(23.088259, 14.994024)" stroke-linecap="round">
                    <path d="M4,17 L4,18" id="Line-364"></path>
                    <path d="M4,0 L4,2" id="Line-363"></path>
                    <path d="M0.625,12.5 C0.625,14.4329966 2.19200338,16 4.125,16 C6.05799662,16 7.625,14.4329966 7.625,12.5 C7.625,10.5670034 6.05799662,9 4.125,9" id="Oval-1410"></path>
                    <path d="M0.625,5.5 C0.625,7.43299662 2.19200338,9 4.125,9 C6.05799662,9 7.625,7.43299662 7.625,5.5 C7.625,3.56700338 6.05799662,2 4.125,2" id="Oval-1411" transform="translate(4.125000, 5.500000) scale(-1, -1) translate(-4.125000, -5.500000) "></path>
                </g>
                <path d="M37,33.4472222 L53.5680408,50.015263" id="Line" stroke-linecap="square"></path>
                <path d="M7,7 L23,7" id="Line" stroke-linecap="square"></path>
                <path d="M7,14 L18.0453606,14" id="Line" stroke-linecap="square"></path>
                <path d="M7,36 L21,36" id="Line" stroke-linecap="square"></path>
                <path d="M7,21 L14,21" id="Line" stroke-linecap="square"></path>
                <path d="M7,29 L14,29" id="Line" stroke-linecap="square"></path>
            </g>
        </g>
    </g>
</svg>