<?xml version="1.0" encoding="UTF-8" standalone="no"?>
<svg width="60px" height="60px" viewBox="0 0 60 60" version="1.1" xmlns="http://www.w3.org/2000/svg" xmlns:xlink="http://www.w3.org/1999/xlink" xmlns:sketch="http://www.bohemiancoding.com/sketch/ns">
    <!-- Generator: Sketch 3.2.2 (9983) - http://www.bohemiancoding.com/sketch -->
    <title>Invoicesmall</title>
    <desc>Created with Sketch.</desc>
    <defs></defs>
    <g id="colored" stroke="none" stroke-width="1" fill="none" fill-rule="evenodd" sketch:type="MSPage">
        <g id="Marketing_sliced" sketch:type="MSLayerGroup" transform="translate(-720.000000, -240.000000)"></g>
        <g id="Marketing" sketch:type="MSLayerGroup" transform="translate(-718.000000, -230.000000)" stroke="#314E55" stroke-width="2" stroke-linejoin="round">
            <g id="Invoicesmall" transform="translate(722.000000, 244.000000)" sketch:type="MSShapeGroup">
                <path d="M16,5 C16,2.23857625 13.7614237,0 11,0 C8.23857625,0 6,2.23857625 6,5" id="Oval-1372" stroke-linecap="round" fill="#EAEAEA"></path>
                <path d="M36,5 C36,2.23857625 33.7614237,0 31,0 C28.2385763,0 26,2.23857625 26,5" id="Oval-1372" stroke-linecap="round" fill="#EAEAEA"></path>
                <path d="M26,5 C26,2.23857625 23.7614237,0 21,0 C18.2385763,0 16,2.23857625 16,5" id="Oval-1372" stroke-linecap="round" fill="#EAEAEA"></path>
                <path d="M46,5 C46,2.23857625 43.7614237,0 41,0 C38.2385763,0 36,2.23857625 36,5" id="Oval-1372" stroke-linecap="round" fill="#EAEAEA"></path>
                <rect id="Rectangle-1463" stroke-linecap="round" fill="#D8D8D8" x="0" y="4" width="52" height="28" rx="6"></rect>
                <path d="M7.06372748,24 L13.4482522,24" id="Line" stroke-linecap="square"></path>
                <path d="M7.06372748,20 L24.9999992,20" id="Line" stroke-linecap="square"></path>
                <path d="M7.06372748,11 L15.0000001,11" id="Line" stroke-linecap="square"></path>
                <path d="M36.0637275,11 L44.0000001,11" id="Line" stroke-linecap="square"></path>
                <rect id="Rectangle-1468" stroke-linecap="round" fill="#81A4E3" x="34" y="19" width="11" height="6"></rect>
            </g>
        </g>
    </g>
</svg>