<?xml version="1.0" encoding="UTF-8" standalone="no"?>
<svg width="60px" height="60px" viewBox="0 0 60 60" version="1.1" xmlns="http://www.w3.org/2000/svg" xmlns:xlink="http://www.w3.org/1999/xlink" xmlns:sketch="http://www.bohemiancoding.com/sketch/ns">
    <!-- Generator: Sketch 3.2.2 (9983) - http://www.bohemiancoding.com/sketch -->
    <title>Open</title>
    <desc>Created with Sketch.</desc>
    <defs></defs>
    <g id="colored" stroke="none" stroke-width="1" fill="none" fill-rule="evenodd" sketch:type="MSPage">
        <g id="Marketing_sliced" sketch:type="MSLayerGroup" transform="translate(-600.000000, -1080.000000)"></g>
        <g id="Marketing" sketch:type="MSLayerGroup" transform="translate(-598.000000, -1070.000000)" stroke="#314E55" stroke-width="2" stroke-linecap="round" stroke-linejoin="round">
            <g id="Open" transform="translate(602.000000, 1078.000000)" sketch:type="MSShapeGroup">
                <rect id="Rectangle-1578" fill="#5ECB66" x="0" y="24" width="52" height="22" rx="2"></rect>
                <circle id="Oval-1433" fill="#D8D8D8" cx="26" cy="3" r="3"></circle>
                <path d="M24.3020774,5.39648028 L15.809733,23.9361053" id="Path-3599"></path>
                <path d="M36.4923444,5.39648028 L28,23.9361053" id="Path-3599" transform="translate(32.246172, 14.666293) scale(-1, 1) translate(-32.246172, -14.666293) "></path>
                <rect id="Rectangle-1579" x="6" y="29" width="7" height="12"></rect>
                <path d="M46,29 L46,41 M39,41 L39,29" id="Rectangle-1579"></path>
                <path d="M35,41 L28,41 L28,29 L35,29" id="Rectangle-1579"></path>
                <path d="M28,35 L35,35" id="Line"></path>
                <path d="M17,41 L17,29 L24,29 L24,35" id="Rectangle-1579"></path>
                <path d="M24,35 L18,35" id="Line"></path>
                <path d="M39.0979343,28.9047071 L46.0473166,41.0783617" id="Path-3607"></path>
            </g>
        </g>
    </g>
</svg>