<?xml version="1.0" encoding="UTF-8" standalone="no"?>
<svg width="60px" height="60px" viewBox="0 0 60 60" version="1.1" xmlns="http://www.w3.org/2000/svg" xmlns:xlink="http://www.w3.org/1999/xlink" xmlns:sketch="http://www.bohemiancoding.com/sketch/ns">
    <!-- Generator: Sketch 3.2.2 (9983) - http://www.bohemiancoding.com/sketch -->
    <title>Statspanel</title>
    <desc>Created with Sketch.</desc>
    <defs></defs>
    <g id="colored" stroke="none" stroke-width="1" fill="none" fill-rule="evenodd" sketch:type="MSPage">
        <g id="Marketing_sliced" sketch:type="MSLayerGroup" transform="translate(-360.000000, -840.000000)"></g>
        <g id="Marketing" sketch:type="MSLayerGroup" transform="translate(-358.000000, -830.000000)" stroke="#314E55" stroke-width="2" stroke-linejoin="round">
            <g id="Statspanel" transform="translate(359.000000, 836.000000)" sketch:type="MSShapeGroup">
                <rect id="Rectangle-1552" stroke-linecap="round" fill="#EAEAEA" x="5" y="4" width="49" height="32"></rect>
                <path d="M27.7664983,35.0001516 L21.9144234,49 L18.4776357,49" id="Path-3483" stroke-linecap="round"></path>
                <path d="M39.1444313,35.0001516 L33.2923564,49 L29.8555687,49" id="Path-3483" stroke-linecap="round" transform="translate(34.500000, 42.000076) scale(-1, 1) translate(-34.500000, -42.000076) "></path>
                <rect id="Rectangle-1553" stroke-linecap="round" fill="#E4AD40" x="0" y="0" width="58" height="6" rx="20"></rect>
                <path d="M12,30 L12,14.8672541" id="Line" stroke-linecap="square"></path>
                <path d="M22,30 L22,12" id="Line" stroke-linecap="square"></path>
                <path d="M32,30 L32,20.9446149" id="Line" stroke-linecap="square"></path>
                <path d="M42,30 L42,13" id="Line" stroke-linecap="square"></path>
                <path d="M17,30 L17,20" id="Line" stroke-linecap="square"></path>
                <path d="M27,30 L27,25" id="Line" stroke-linecap="square"></path>
                <path d="M37,30 L37,14.8672541" id="Line" stroke-linecap="square"></path>
                <path d="M47,30 L47,18.954639" id="Line" stroke-linecap="square"></path>
            </g>
        </g>
    </g>
</svg>