<?xml version="1.0" encoding="UTF-8" standalone="no"?>
<svg width="60px" height="60px" viewBox="0 0 60 60" version="1.1" xmlns="http://www.w3.org/2000/svg" xmlns:xlink="http://www.w3.org/1999/xlink" xmlns:sketch="http://www.bohemiancoding.com/sketch/ns">
    <!-- Generator: Sketch 3.2.2 (9983) - http://www.bohemiancoding.com/sketch -->
    <title>Timelapsefinished</title>
    <desc>Created with Sketch.</desc>
    <defs></defs>
    <g id="colored" stroke="none" stroke-width="1" fill="none" fill-rule="evenodd" sketch:type="MSPage">
        <g id="Marketing_sliced" sketch:type="MSLayerGroup" transform="translate(-840.000000, -1320.000000)"></g>
        <g id="Marketing" sketch:type="MSLayerGroup" transform="translate(-838.000000, -1310.000000)" stroke="#314E55" stroke-width="2" stroke-linecap="round" stroke-linejoin="round">
            <g id="Timelapsefinish" transform="translate(851.000000, 1314.000000)" sketch:type="MSShapeGroup">
                <path d="M3,5 C3,17.1502645 9.2680135,27 17,27 C24.7319865,27 31,17.1502645 31,5 L3,5 Z" id="Oval-1448" fill="#D8D8D8"></path>
                <path d="M3,27 C3,39.1502645 9.2680135,49 17,49 C24.7319865,49 31,39.1502645 31,27 L3,27 Z" id="Oval-1448" fill="#D8D8D8" transform="translate(17.000000, 38.000000) scale(1, -1) translate(-17.000000, -38.000000) "></path>
                <path d="M19.104622,33.7883197 L17,30 L14.6317628,34.262827 L6.17272173,35.1602122 C4.1900503,38.9563575 3,43.8138148 3,49.1080524 L31,49.1080524 C31,42.7471173 29.2820901,37.0167012 26.5355767,33 L19.104622,33.7883197 Z" id="Triangle-51" fill="#C59981"></path>
                <rect id="Rectangle-1662" fill="#5ECB66" x="0" y="0" width="34" height="6" rx="6"></rect>
                <rect id="Rectangle-1662" fill="#5ECB66" x="0" y="48" width="34" height="6" rx="6"></rect>
            </g>
        </g>
    </g>
</svg>