<?xml version="1.0" encoding="UTF-8" standalone="no"?>
<svg width="60px" height="60px" viewBox="0 0 60 60" version="1.1" xmlns="http://www.w3.org/2000/svg" xmlns:xlink="http://www.w3.org/1999/xlink" xmlns:sketch="http://www.bohemiancoding.com/sketch/ns">
    <!-- Generator: Sketch 3.2.2 (9983) - http://www.bohemiancoding.com/sketch -->
    <title>Alarmclock</title>
    <desc>Created with Sketch.</desc>
    <defs></defs>
    <g id="stroked" stroke="none" stroke-width="1" fill="none" fill-rule="evenodd" sketch:type="MSPage">
        <g id="Marketing" sketch:type="MSLayerGroup" transform="translate(-358.000000, -1310.000000)" stroke="#535353" stroke-width="2" stroke-linejoin="round">
            <g id="Alarmclock" transform="translate(361.000000, 1313.000000)" sketch:type="MSShapeGroup">
                <circle id="Oval-1445" stroke-linecap="round" cx="28" cy="31" r="20"></circle>
                <path d="M18,49 L14,53" id="Line" stroke-linecap="round"></path>
                <path d="M41,49 L37,53" id="Line-358" stroke-linecap="round" transform="translate(39.000000, 51.000000) scale(-1, 1) translate(-39.000000, -51.000000) "></path>
                <path d="M13.994634,31.0637521 L28.1427243,33.0637521 L37.5951642,20.0637521" id="Path-3673" stroke-linecap="round"></path>
                <path d="M20,13 C20,8.02943725 15.9705627,4 11,4 C6.02943725,4 2,8.02943725 2,13 L20,13 Z" id="Oval-1446" stroke-linecap="round" transform="translate(11.000000, 8.500000) rotate(-30.000000) translate(-11.000000, -8.500000) "></path>
                <path d="M54,13 C54,8.02943725 49.9705627,4 45,4 C40.0294373,4 36,8.02943725 36,13 L54,13 Z" id="Oval-1447" stroke-linecap="round" transform="translate(45.000000, 8.500000) scale(-1, 1) rotate(-30.000000) translate(-45.000000, -8.500000) "></path>
                <path d="M28,15 L28,17" id="Line" stroke-linecap="square"></path>
                <path d="M28,45 L28,47" id="Line-359" stroke-linecap="square"></path>
            </g>
        </g>
    </g>
</svg>