<?xml version="1.0" encoding="UTF-8" standalone="no"?>
<svg width="60px" height="60px" viewBox="0 0 60 60" version="1.1" xmlns="http://www.w3.org/2000/svg" xmlns:xlink="http://www.w3.org/1999/xlink" xmlns:sketch="http://www.bohemiancoding.com/sketch/ns">
    <!-- Generator: Sketch 3.2.2 (9983) - http://www.bohemiancoding.com/sketch -->
    <title>Balance</title>
    <desc>Created with Sketch.</desc>
    <defs></defs>
    <g id="stroked" stroke="none" stroke-width="1" fill="none" fill-rule="evenodd" sketch:type="MSPage">
        <g id="Marketing" sketch:type="MSLayerGroup" transform="translate(-838.000000, -710.000000)" stroke="#535353" stroke-width="2" stroke-linecap="round" stroke-linejoin="round">
            <g id="Balance" transform="translate(846.000000, 714.000000)" sketch:type="MSShapeGroup">
                <path d="M4,14 L42,14" id="Line"></path>
                <path d="M23,6 L23,48.0108681" id="Line"></path>
                <circle id="Oval-1393" cx="23" cy="3" r="3"></circle>
                <path d="M28,53 C28,50.2385763 25.7614237,48 23,48 C20.2385763,48 18,50.2385763 18,53 L28,53 Z" id="Oval-1394"></path>
                <path d="M47,36 C47,32.1340068 43.8659932,29 40,29 C36.1340068,29 33,32.1340068 33,36 L47,36 Z" id="Oval-1395" transform="translate(40.000000, 32.500000) scale(1, -1) translate(-40.000000, -32.500000) "></path>
                <path d="M39.7379171,14.1023729 L35.0976801,28.7587196" id="Path-3452"></path>
                <path d="M44.9638188,14.1121879 L40.2739208,28.8070428" id="Path-3452" transform="translate(42.618870, 21.459615) scale(-1, 1) translate(-42.618870, -21.459615) "></path>
                <path d="M14,36 C14,32.1340068 10.8659932,29 7,29 C3.13400675,29 0,32.1340068 0,36 L14,36 Z" id="Oval-1396" transform="translate(7.000000, 32.500000) scale(1, -1) translate(-7.000000, -32.500000) "></path>
                <path d="M6.73791706,14.1023729 L2.09768009,28.7587196" id="Path-3453"></path>
                <path d="M11.9638188,14.1121879 L7.27392083,28.8070428" id="Path-3454" transform="translate(9.618870, 21.459615) scale(-1, 1) translate(-9.618870, -21.459615) "></path>
            </g>
        </g>
    </g>
</svg>