<?xml version="1.0" encoding="UTF-8" standalone="no"?>
<svg width="60px" height="60px" viewBox="0 0 60 60" version="1.1" xmlns="http://www.w3.org/2000/svg" xmlns:xlink="http://www.w3.org/1999/xlink" xmlns:sketch="http://www.bohemiancoding.com/sketch/ns">
    <!-- Generator: Sketch 3.2.2 (9983) - http://www.bohemiancoding.com/sketch -->
    <title>Bitcoin</title>
    <desc>Created with Sketch.</desc>
    <defs></defs>
    <g id="stroked" stroke="none" stroke-width="1" fill="none" fill-rule="evenodd" sketch:type="MSPage">
        <g id="Marketing" sketch:type="MSLayerGroup" transform="translate(-238.000000, -230.000000)" stroke="#535353" stroke-width="2" stroke-linejoin="round">
            <g id="Bitcoin" transform="translate(241.000000, 233.000000)" sketch:type="MSShapeGroup">
                <circle id="Oval-1362" stroke-linecap="round" cx="27" cy="27" r="27"></circle>
                <circle id="Oval-1363" stroke-linecap="round" cx="27" cy="27" r="23"></circle>
                <path d="M45,6.99999999 L42.5447798,9.52253441" id="Path-3255" stroke-linecap="round"></path>
                <path d="M15,47.126168 L12.5447798,49.6487025" id="Path-3255" stroke-linecap="round"></path>
                <path d="M35,36.001155 C35,39.3142256 32.8587709,42 30.1994724,42 L23.8005276,42 C21.1492694,42 19,39.3112985 19,36.001155 L19,17.998845 C19,14.6857744 21.1412291,12 23.8005276,12 L30.1994724,12 C32.8507306,12 35,14.6887015 35,17.998845" id="Rectangle-1463" stroke-linecap="round"></path>
                <path d="M30.0033142,27 C32.7629076,27 35,29.2456516 35,31.9947828 L35,37.0052172" id="Rectangle-1463" stroke-linecap="round"></path>
                <path d="M23.9966858,17 L30.0033142,17 C32.7629076,17 35,19.2456516 35,21.9947828 L35,27.0052172" id="Rectangle-1463" stroke-linecap="round" transform="translate(29.498343, 22.002609) scale(1, -1) translate(-29.498343, -22.002609) "></path>
                <path d="M25,12 L25,9" id="Line" stroke-linecap="square"></path>
                <path d="M29,12 L29,9" id="Line" stroke-linecap="square"></path>
                <path d="M25,45 L25,42" id="Line-321" stroke-linecap="square"></path>
                <path d="M29,45 L29,42" id="Line-320" stroke-linecap="square"></path>
            </g>
        </g>
    </g>
</svg>