<?xml version="1.0" encoding="UTF-8" standalone="no"?>
<svg width="60px" height="60px" viewBox="0 0 60 60" version="1.1" xmlns="http://www.w3.org/2000/svg" xmlns:xlink="http://www.w3.org/1999/xlink" xmlns:sketch="http://www.bohemiancoding.com/sketch/ns">
    <!-- Generator: Sketch 3.2.2 (9983) - http://www.bohemiancoding.com/sketch -->
    <title>Book</title>
    <desc>Created with Sketch.</desc>
    <defs></defs>
    <g id="stroked" stroke="none" stroke-width="1" fill="none" fill-rule="evenodd" sketch:type="MSPage">
        <g id="Marketing" sketch:type="MSLayerGroup" transform="translate(-358.000000, -1430.000000)" stroke="#535353" stroke-width="2" stroke-linejoin="round">
            <g id="Book" transform="translate(360.000000, 1445.000000)" sketch:type="MSShapeGroup">
                <path d="M5,1.39130435 C5,1.39130435 12.6666667,0 16.5,0 C20.3333333,0 28,1.39130435 28,1.39130435 L28,32 C28,32 20.3333333,30.6086957 16.5,30.6086957 C12.6666667,30.6086957 5,32 5,32 L5,1.39130435 Z" id="Rectangle-1670" stroke-linecap="round"></path>
                <path d="M28,1.39130435 C28,1.39130435 35.6666667,0 39.5,0 C43.3333333,0 51,1.39130435 51,1.39130435 L51,32 C51,32 43.3333333,30.6086957 39.5,30.6086957 C35.6666667,30.6086957 28,32 28,32 L28,1.39130435 Z" id="Rectangle-1670" stroke-linecap="round"></path>
                <path d="M1,24 L1,36" id="Line" stroke-linecap="square"></path>
                <path d="M55,24 L55,36" id="Line" stroke-linecap="square"></path>
                <path d="M1,36 L22,36" id="Line" stroke-linecap="square"></path>
                <path d="M34,36 L55,36" id="Line" stroke-linecap="square"></path>
                <path d="M22,39 L34,39" id="Line" stroke-linecap="square"></path>
                <path d="M22,36 L22,39" id="Line" stroke-linecap="square"></path>
                <path d="M34,36 L34,39" id="Line" stroke-linecap="square"></path>
            </g>
        </g>
    </g>
</svg>