<?xml version="1.0" encoding="UTF-8" standalone="no"?>
<svg width="60px" height="60px" viewBox="0 0 60 60" version="1.1" xmlns="http://www.w3.org/2000/svg" xmlns:xlink="http://www.w3.org/1999/xlink" xmlns:sketch="http://www.bohemiancoding.com/sketch/ns">
    <!-- Generator: Sketch 3.2.2 (9983) - http://www.bohemiancoding.com/sketch -->
    <title>Cashregister</title>
    <desc>Created with Sketch.</desc>
    <defs></defs>
    <g id="stroked" stroke="none" stroke-width="1" fill="none" fill-rule="evenodd" sketch:type="MSPage">
        <g id="Marketing" sketch:type="MSLayerGroup" transform="translate(-838.000000, -230.000000)" stroke="#535353" stroke-width="2" stroke-linejoin="round">
            <g id="Cashregister" transform="translate(847.000000, 244.000000)" sketch:type="MSShapeGroup">
                <rect id="Rectangle-1469" stroke-linecap="round" x="0" y="33" width="44" height="8" rx="15"></rect>
                <path d="M9,15 L35,15 L37,34 L7,34 L9,15 Z" id="Rectangle-1470" stroke-linecap="round"></path>
                <path d="M13,20 L15,20" id="Line" stroke-linecap="square"></path>
                <path d="M13,24 L15,24" id="Line" stroke-linecap="square"></path>
                <path d="M13,28 L15,28" id="Line" stroke-linecap="square"></path>
                <path d="M19,24 L21,24" id="Line" stroke-linecap="square"></path>
                <path d="M19,28 L21,28" id="Line" stroke-linecap="square"></path>
                <path d="M25,24 L27,24" id="Line" stroke-linecap="square"></path>
                <path d="M25,28 L27,28" id="Line" stroke-linecap="square"></path>
                <path d="M19,20 L21,20" id="Line" stroke-linecap="square"></path>
                <path d="M25,20 L27,20" id="Line" stroke-linecap="square"></path>
                <path d="M31,24 L31,28" id="Line" stroke-linecap="square"></path>
                <rect id="Rectangle-1471" stroke-linecap="round" x="0" y="0" width="44" height="12"></rect>
                <path d="M31,15 L31,11.8377224" id="Line" stroke-linecap="square"></path>
                <path d="M13,15 L13,11.8377224" id="Line" stroke-linecap="square"></path>
                <path d="M6,8 L9,8" id="Line" stroke-linecap="square"></path>
                <path d="M12,8 L15,8" id="Line" stroke-linecap="square"></path>
                <path d="M18,8 L21,8" id="Line" stroke-linecap="square"></path>
            </g>
        </g>
    </g>
</svg>