<?xml version="1.0" encoding="UTF-8" standalone="no"?>
<svg width="60px" height="60px" viewBox="0 0 60 60" version="1.1" xmlns="http://www.w3.org/2000/svg" xmlns:xlink="http://www.w3.org/1999/xlink" xmlns:sketch="http://www.bohemiancoding.com/sketch/ns">
    <!-- Generator: Sketch 3.2.2 (9983) - http://www.bohemiancoding.com/sketch -->
    <title>Coinincrease</title>
    <desc>Created with Sketch.</desc>
    <defs></defs>
    <g id="stroked" stroke="none" stroke-width="1" fill="none" fill-rule="evenodd" sketch:type="MSPage">
        <g id="Marketing" sketch:type="MSLayerGroup" transform="translate(-478.000000, -950.000000)" stroke="#535353" stroke-width="2" stroke-linejoin="round">
            <g id="Profit" transform="translate(485.000000, 958.000000)" sketch:type="MSShapeGroup">
                <path d="M1,42 C1,43.1045695 3.46243388,44 6.5,44 C9.53756612,44 12,43.1045695 12,42 L12,12.084193" id="Oval-1412" stroke-linecap="round"></path>
                <path d="M35,42 C35,43.1045695 37.4624339,44 40.5,44 C43.5375661,44 46,43.1045695 46,42 L46,2.28648831" id="Oval-1412" stroke-linecap="round"></path>
                <path d="M1,40.051279 C1,41.1558485 3.46243388,42.051279 6.5,42.051279 C9.53756612,42.051279 12,41.1558485 12,40.051279 L12,10" id="Oval-1417" stroke-linecap="round" transform="translate(6.500000, 26.025640) rotate(-180.000000) translate(-6.500000, -26.025640) "></path>
                <path d="M35,39.9697675 C35,41.074337 37.4624339,41.9697675 40.5,41.9697675 C43.5375661,41.9697675 46,41.074337 46,39.9697675 L46,0" id="Oval-1417" stroke-linecap="round" transform="translate(40.500000, 20.984884) rotate(-180.000000) translate(-40.500000, -20.984884) "></path>
                <path d="M1,37 C1,38.1045695 3.46243388,39 6.5,39 C9.53756612,39 12,38.1045695 12,37" id="Oval-1412" stroke-linecap="round"></path>
                <path d="M35,37 C35,38.1045695 37.4624339,39 40.5,39 C43.5375661,39 46,38.1045695 46,37" id="Oval-1412" stroke-linecap="round"></path>
                <path d="M1,32 C1,33.1045695 3.46243388,34 6.5,34 C9.53756612,34 12,33.1045695 12,32" id="Oval-1412" stroke-linecap="round"></path>
                <path d="M35,32 C35,33.1045695 37.4624339,34 40.5,34 C43.5375661,34 46,33.1045695 46,32" id="Oval-1412" stroke-linecap="round"></path>
                <path d="M1,32 C1,33.1045695 3.46243388,34 6.5,34 C9.53756612,34 12,33.1045695 12,32" id="Oval-1415" stroke-linecap="round"></path>
                <path d="M35,32 C35,33.1045695 37.4624339,34 40.5,34 C43.5375661,34 46,33.1045695 46,32" id="Oval-1415" stroke-linecap="round"></path>
                <path d="M1,27 C1,28.1045695 3.46243388,29 6.5,29 C9.53756612,29 12,28.1045695 12,27" id="Oval-1413" stroke-linecap="round"></path>
                <path d="M35,27 C35,28.1045695 37.4624339,29 40.5,29 C43.5375661,29 46,28.1045695 46,27" id="Oval-1413" stroke-linecap="round"></path>
                <path d="M1,22 C1,23.1045695 3.46243388,24 6.5,24 C9.53756612,24 12,23.1045695 12,22" id="Oval-1414" stroke-linecap="round"></path>
                <path d="M35,22 C35,23.1045695 37.4624339,24 40.5,24 C43.5375661,24 46,23.1045695 46,22" id="Oval-1414" stroke-linecap="round"></path>
                <path d="M1,22 C1,23.1045695 3.46243388,24 6.5,24 C9.53756612,24 12,23.1045695 12,22" id="Oval-1418" stroke-linecap="round"></path>
                <path d="M35,22 C35,23.1045695 37.4624339,24 40.5,24 C43.5375661,24 46,23.1045695 46,22" id="Oval-1418" stroke-linecap="round"></path>
                <path d="M1,17 C1,18.1045695 3.46243388,19 6.5,19 C9.53756612,19 12,18.1045695 12,17" id="Oval-1416" stroke-linecap="round"></path>
                <path d="M35,17 C35,18.1045695 37.4624339,19 40.5,19 C43.5375661,19 46,18.1045695 46,17" id="Oval-1416" stroke-linecap="round"></path>
                <path d="M35,12 C35,13.1045695 37.4624339,14 40.5,14 C43.5375661,14 46,13.1045695 46,12" id="Oval-1420" stroke-linecap="round"></path>
                <path d="M35,7 C35,8.1045695 37.4624339,9 40.5,9 C43.5375661,9 46,8.1045695 46,7" id="Oval-1419" stroke-linecap="round"></path>
                <path d="M1,12 C1,13.1045695 3.46243388,14 6.5,14 C9.53756612,14 12,13.1045695 12,12" id="Oval-1417" stroke-linecap="round"></path>
                <path d="M35,2 C35,3.1045695 37.4624339,4 40.5,4 C43.5375661,4 46,3.1045695 46,2" id="Oval-1417" stroke-linecap="round"></path>
                <path d="M18,24 L29,24" id="Line" stroke-linecap="square"></path>
                <path d="M23,21 L29,21 L29,27" id="Rectangle-1567" stroke-linecap="round" transform="translate(26.000000, 24.000000) rotate(-315.000000) translate(-26.000000, -24.000000) "></path>
            </g>
        </g>
    </g>
</svg>