<?xml version="1.0" encoding="UTF-8" standalone="no"?>
<svg width="60px" height="60px" viewBox="0 0 60 60" version="1.1" xmlns="http://www.w3.org/2000/svg" xmlns:xlink="http://www.w3.org/1999/xlink" xmlns:sketch="http://www.bohemiancoding.com/sketch/ns">
    <!-- Generator: Sketch 3.2.2 (9983) - http://www.bohemiancoding.com/sketch -->
    <title>Dollarcoin</title>
    <desc>Created with Sketch.</desc>
    <defs></defs>
    <g id="stroked" stroke="none" stroke-width="1" fill="none" fill-rule="evenodd" sketch:type="MSPage">
        <g id="Marketing" sketch:type="MSLayerGroup" transform="translate(2.000000, -230.000000)" stroke="#535353" stroke-width="2" stroke-linejoin="round">
            <g id="Dollarcoin" transform="translate(1.000000, 233.000000)" sketch:type="MSShapeGroup">
                <circle id="Oval-1362" stroke-linecap="round" cx="27" cy="27" r="27"></circle>
                <circle id="Oval-1363" stroke-linecap="round" cx="27" cy="27" r="23"></circle>
                <path d="M45,6.99999999 L42.5447798,9.52253441" id="Path-3255" stroke-linecap="round"></path>
                <path d="M15,47.126168 L12.5447798,49.6487025" id="Path-3255" stroke-linecap="round"></path>
                <path d="M34.0234379,19.9765621 C34.0234379,16.0976245 30.8789376,12.9531243 27,12.9531243 C23.1210624,12.9531243 19.9765621,16.0976245 19.9765621,19.9765621 C19.9765621,23.8554998 23.1210624,27 27,27" id="Oval-1364" stroke-linecap="round"></path>
                <path d="M19.9765621,34.0234379 C19.9765621,37.9023755 23.1210624,41.0468757 27,41.0468757 C30.8789376,41.0468757 34.0234379,37.9023755 34.0234379,34.0234379 C34.0234379,30.1445002 30.8789376,27 27,27" id="Oval-1364" stroke-linecap="round"></path>
                <path d="M27,10 L27,12" id="Line" stroke-linecap="square"></path>
                <path d="M27,42 L27,44" id="Line" stroke-linecap="square"></path>
                <path d="M34.0234379,19.9765621 C34.0234379,16.0976245 30.8789376,12.9531243 27,12.9531243 C23.1210624,12.9531243 19.9765621,16.0976245 19.9765621,19.9765621 C19.9765621,23.8554998 23.1210624,27 27,27" id="Oval-1366" stroke-linecap="round"></path>
                <path d="M19.9765621,34.0234379 C19.9765621,37.9023755 23.1210624,41.0468757 27,41.0468757 C30.8789376,41.0468757 34.0234379,37.9023755 34.0234379,34.0234379 C34.0234379,30.1445002 30.8789376,27 27,27" id="Oval-1365" stroke-linecap="round"></path>
                <path d="M27,10 L27,12" id="Line-318" stroke-linecap="square"></path>
                <path d="M27,42 L27,44" id="Line-319" stroke-linecap="square"></path>
            </g>
        </g>
    </g>
</svg>