<?xml version="1.0" encoding="UTF-8" standalone="no"?>
<svg width="60px" height="60px" viewBox="0 0 60 60" version="1.1" xmlns="http://www.w3.org/2000/svg" xmlns:xlink="http://www.w3.org/1999/xlink" xmlns:sketch="http://www.bohemiancoding.com/sketch/ns">
    <!-- Generator: Sketch 3.2.2 (9983) - http://www.bohemiancoding.com/sketch -->
    <title>Economies</title>
    <desc>Created with Sketch.</desc>
    <defs></defs>
    <g id="stroked" stroke="none" stroke-width="1" fill="none" fill-rule="evenodd" sketch:type="MSPage">
        <g id="Marketing" sketch:type="MSLayerGroup" transform="translate(-718.000000, -1070.000000)" stroke="#535353" stroke-width="2" stroke-linecap="round" stroke-linejoin="round">
            <g id="Economies" transform="translate(721.000000, 1079.000000)" sketch:type="MSShapeGroup">
                <path d="M11.3859174,16.1928697 C9.388733,18.153057 8.00682958,20.4741898 7.45192486,23 L0.180194847,23 L0.180194847,23 C0.180194847,30.7454932 6.83898024,37.3483592 16.1801948,39.8871934 L16.1801948,47 L22.1801948,47 L22.1801948,40.9074394 L22.1801948,40.9074394 C23.0022008,40.9686469 23.8362142,41 24.6801948,41 C25.2922552,41 25.8990735,40.9835106 26.4998717,40.9511035 C27.0541995,40.9834955 27.6145859,41 28.1801948,41 C30.2651127,41 32.2790666,40.7757426 34.1801948,40.3581258 L34.1801948,47 L40.1801948,47 L40.1801948,38.2217595 C45.6206471,35.4208073 49.1801948,30.7672213 49.1801948,25.5 C49.1801948,25.094659 49.1591147,24.6929521 49.1177196,24.2954438 C49.159134,23.8675896 49.1801948,23.4356018 49.1801948,23 L48.9084648,23 L48.9084648,23 C47.2889444,15.6282816 38.625075,10 28.1801948,10 C24.1805305,10 20.4420263,10.8253079 17.2602256,12.2577843 L7.94336266,12.492268 L11.3859174,16.1928697 Z" id="Rectangle-1580"></path>
                <path d="M39,11.5 C39,5.14872538 33.8512746,0 27.5,0 C21.1487254,0 16,5.14872538 16,11.5" id="Oval-1438"></path>
                <path d="M49.1621656,23.300457 C49.1621656,23.300457 56.5516754,21.7335682 55.491776,16.7406225 C54.4318766,11.7476768 47.9378204,13.2432025 49.1621656,15.691893 C50.3865108,18.1405834 52.0818535,17.3102875 52.0818535,17.3102875" id="Path-3609"></path>
                <circle id="Oval-1437" cx="14" cy="22" r="1"></circle>
            </g>
        </g>
    </g>
</svg>