<?xml version="1.0" encoding="UTF-8" standalone="no"?>
<svg width="60px" height="60px" viewBox="0 0 60 60" version="1.1" xmlns="http://www.w3.org/2000/svg" xmlns:xlink="http://www.w3.org/1999/xlink" xmlns:sketch="http://www.bohemiancoding.com/sketch/ns">
    <!-- Generator: Sketch 3.2.2 (9983) - http://www.bohemiancoding.com/sketch -->
    <title>Eurocoin</title>
    <desc>Created with Sketch.</desc>
    <defs></defs>
    <g id="stroked" stroke="none" stroke-width="1" fill="none" fill-rule="evenodd" sketch:type="MSPage">
        <g id="Marketing" sketch:type="MSLayerGroup" transform="translate(-118.000000, -230.000000)" stroke="#535353" stroke-width="2" stroke-linejoin="round">
            <g id="Eurocoin" transform="translate(121.000000, 233.000000)" sketch:type="MSShapeGroup">
                <circle id="Oval-1362" stroke-linecap="round" cx="27" cy="27" r="27"></circle>
                <circle id="Oval-1363" stroke-linecap="round" cx="27" cy="27" r="23"></circle>
                <path d="M45,6.99999999 L42.5447798,9.52253441" id="Path-3255" stroke-linecap="round"></path>
                <path d="M15,47.126168 L12.5447798,49.6487025" id="Path-3255" stroke-linecap="round"></path>
                <path d="M35,36.001155 C35,39.3142256 32.8587709,42 30.1994724,42 L23.8005276,42 C21.1492694,42 19,39.3112985 19,36.001155 L19,17.998845 C19,14.6857744 21.1412291,12 23.8005276,12 L30.1994724,12 C32.8507306,12 35,14.6887015 35,17.998845" id="Rectangle-1463" stroke-linecap="round"></path>
                <path d="M17,25 L27.0498753,25" id="Line" stroke-linecap="square"></path>
                <path d="M17,29 L27.0498753,29" id="Line" stroke-linecap="square"></path>
            </g>
        </g>
    </g>
</svg>