<?xml version="1.0" encoding="UTF-8" standalone="no"?>
<svg width="60px" height="60px" viewBox="0 0 60 60" version="1.1" xmlns="http://www.w3.org/2000/svg" xmlns:xlink="http://www.w3.org/1999/xlink" xmlns:sketch="http://www.bohemiancoding.com/sketch/ns">
    <!-- Generator: Sketch 3.2.2 (9983) - http://www.bohemiancoding.com/sketch -->
    <title>Growingmoney</title>
    <desc>Created with Sketch.</desc>
    <defs></defs>
    <g id="stroked" stroke="none" stroke-width="1" fill="none" fill-rule="evenodd" sketch:type="MSPage">
        <g id="Marketing" sketch:type="MSLayerGroup" transform="translate(-838.000000, -1430.000000)" stroke="#535353" stroke-width="2" stroke-linecap="round" stroke-linejoin="round">
            <g id="Growingmoney" transform="translate(851.000000, 1432.000000)" sketch:type="MSShapeGroup">
                <rect id="Rectangle-1676" x="0" y="26" width="37" height="9"></rect>
                <path d="M3,33 L34,33 L32,56 L5,56 L3,33 Z" id="Rectangle-1676"></path>
                <path d="M17.68629,26.567829 C17.68629,26.567829 19.3634217,17.748158 25.9308731,13.7557384" id="Path-3722"></path>
                <path d="M14,18.5379806 C16.209139,18.5379806 18,15.6278315 18,12.0379806 C18,8.44812972 14,5.53798059 14,5.53798059 C14,5.53798059 10,8.44812972 10,12.0379806 C10,15.6278315 11.790861,18.5379806 14,18.5379806 Z" id="Oval-1452" transform="translate(14.000000, 12.037981) rotate(-41.000000) translate(-14.000000, -12.037981) "></path>
                <g id="Group" transform="translate(30.502958, 0.162521)">
                    <path d="M3.5,16.8374791 L3.5,19" id="Line-362"></path>
                    <path d="M3.5,0.585786438 L3.5,2.58578644" id="Line-361"></path>
                    <path d="M0,13.0857864 C0,15.0187831 1.56700338,16.5857864 3.5,16.5857864 C5.43299662,16.5857864 7,15.0187831 7,13.0857864 C7,11.1527898 5.43299662,9.58578644 3.5,9.58578644" id="Oval-1392"></path>
                    <path d="M0,6.08578644 C0,8.01878306 1.56700338,9.58578644 3.5,9.58578644 C5.43299662,9.58578644 7,8.01878306 7,6.08578644 C7,4.15278981 5.43299662,2.58578644 3.5,2.58578644" id="Oval-1397" transform="translate(3.500000, 6.085786) scale(-1, -1) translate(-3.500000, -6.085786) "></path>
                </g>
            </g>
        </g>
    </g>
</svg>