<?xml version="1.0" encoding="UTF-8" standalone="no"?>
<svg width="60px" height="60px" viewBox="0 0 60 60" version="1.1" xmlns="http://www.w3.org/2000/svg" xmlns:xlink="http://www.w3.org/1999/xlink" xmlns:sketch="http://www.bohemiancoding.com/sketch/ns">
    <!-- Generator: Sketch 3.2.2 (9983) - http://www.bohemiancoding.com/sketch -->
    <title>Teammates</title>
    <desc>Created with Sketch.</desc>
    <defs></defs>
    <g id="stroked" stroke="none" stroke-width="1" fill="none" fill-rule="evenodd" sketch:type="MSPage">
        <g id="Marketing" sketch:type="MSLayerGroup" transform="translate(-838.000000, -950.000000)" stroke="#535353" stroke-width="2" stroke-linecap="round" stroke-linejoin="round">
            <g id="Teammates" transform="translate(841.000000, 958.000000)" sketch:type="MSShapeGroup">
                <path d="M17.4581272,28.9511894 C18.7327101,33.6162482 22.5227387,37 27,37 C31.4772613,37 35.2672899,33.6162482 36.5418728,28.9511894 L36.5418728,28.9511894 C37.9400728,28.6961217 39,27.4718405 39,26 C39,24.6138405 38.059885,23.4472565 36.7824737,23.1030668 C35.8236354,17.9022841 31.8080904,14 27,14 C22.1919096,14 18.1763646,17.9022841 17.2175263,23.1030668 C15.940115,23.4472565 15,24.6138405 15,26 C15,27.4718405 16.0599272,28.6961217 17.4581272,28.9511894 Z" id="Oval-1408"></path>
                <path d="M40.6387515,9.7507757 C41.4884734,12.7932053 44.0151591,15 47,15 C49.9848409,15 52.5115266,12.7932053 53.3612485,9.7507757 L53.3612485,9.7507757 C54.2933819,9.58442721 55,8.78598293 55,7.82608696 C55,6.92206987 54.3732567,6.16125427 53.5216491,5.93678269 C52.8824236,2.54496788 50.2053936,0 47,0 C43.7946064,0 41.1175764,2.54496788 40.4783509,5.93678269 C39.6267433,6.16125427 39,6.92206987 39,7.82608696 C39,8.78598293 39.7066181,9.58442721 40.6387515,9.7507757 Z" id="Oval-1408"></path>
                <path d="M1.63875146,9.7507757 C2.48847341,12.7932053 5.01515914,15 8,15 C10.9848409,15 13.5115266,12.7932053 14.3612485,9.7507757 L14.3612485,9.7507757 C15.2933819,9.58442721 16,8.78598293 16,7.82608696 C16,6.92206987 15.3732567,6.16125427 14.5216491,5.93678269 C13.8824236,2.54496788 11.2053936,0 8,0 C4.79460637,0 2.11757638,2.54496788 1.47835088,5.93678269 C0.626743307,6.16125427 0,6.92206987 0,7.82608696 C0,8.78598293 0.706618107,9.58442721 1.63875146,9.7507757 Z" id="Oval-1409"></path>
                <path d="M38,48 C38,41.9248678 33.0751322,37 27,37 C20.9248678,37 16,41.9248678 16,48 L38,48 Z" id="Oval-1407"></path>
            </g>
        </g>
    </g>
</svg>