<?xml version="1.0" encoding="UTF-8" standalone="no"?>
<svg width="60px" height="60px" viewBox="0 0 60 60" version="1.1" xmlns="http://www.w3.org/2000/svg" xmlns:xlink="http://www.w3.org/1999/xlink" xmlns:sketch="http://www.bohemiancoding.com/sketch/ns">
    <!-- Generator: Sketch 3.2.2 (9983) - http://www.bohemiancoding.com/sketch -->
    <title>Upstatspanel</title>
    <desc>Created with Sketch.</desc>
    <defs></defs>
    <g id="stroked" stroke="none" stroke-width="1" fill="none" fill-rule="evenodd" sketch:type="MSPage">
        <g id="Marketing" sketch:type="MSLayerGroup" transform="translate(-598.000000, -830.000000)" stroke="#535353" stroke-width="2" stroke-linejoin="round">
            <g id="Upstatspanel" transform="translate(599.000000, 837.000000)" sketch:type="MSShapeGroup">
                <rect id="Rectangle-1552" stroke-linecap="round" x="5" y="4" width="49" height="32"></rect>
                <path d="M27.7664983,35.0001516 L21.9144234,49 L18.4776357,49" id="Path-3483" stroke-linecap="round"></path>
                <path d="M39.1444313,35.0001516 L33.2923564,49 L29.8555687,49" id="Path-3483" stroke-linecap="round" transform="translate(34.500000, 42.000076) scale(-1, 1) translate(-34.500000, -42.000076) "></path>
                <rect id="Rectangle-1553" stroke-linecap="round" x="0" y="0" width="58" height="6" rx="20"></rect>
                <path d="M27.0596067,32.1928718 C30.2605464,29.4855674 32.2929728,25.4396513 32.2929728,20.9190366 C32.2929728,15.7905343 29.6771944,11.2729798 25.7070272,8.62776261" id="Oval-1398" stroke-linecap="round" transform="translate(29.000000, 20.410317) rotate(-306.000000) translate(-29.000000, -20.410317) "></path>
                <path d="M13,9 L13,32.0217285" id="Line" stroke-linecap="square"></path>
                <path d="M11,30 L47,30" id="Line" stroke-linecap="square"></path>
            </g>
        </g>
    </g>
</svg>