<?xml version="1.0" encoding="UTF-8" standalone="no"?>
<svg width="60px" height="60px" viewBox="0 0 60 60" version="1.1" xmlns="http://www.w3.org/2000/svg" xmlns:xlink="http://www.w3.org/1999/xlink" xmlns:sketch="http://www.bohemiancoding.com/sketch/ns">
    <!-- Generator: Sketch 3.2.2 (9983) - http://www.bohemiancoding.com/sketch -->
    <title>BagOK</title>
    <desc>Created with Sketch.</desc>
    <defs></defs>
    <g id="filled" stroke="none" stroke-width="1" fill="none" fill-rule="evenodd" sketch:type="MSPage">
        <g id="Marketing_sliced" sketch:type="MSLayerGroup" transform="translate(-480.000000, -120.000000)"></g>
        <g id="Marketing" sketch:type="MSLayerGroup" transform="translate(-478.000000, -110.000000)" stroke="#535353" stroke-width="2" stroke-linecap="round" stroke-linejoin="round">
            <g id="BagOK" transform="translate(487.000000, 116.000000)" sketch:type="MSShapeGroup">
                <path d="M2.15384615,6 L39.8461538,6 L42,49 L0,49 L2.15384615,6 Z M30,13 C31.1045695,13 32,12.1045695 32,11 C32,9.8954305 31.1045695,9 30,9 C28.8954305,9 28,9.8954305 28,11 C28,12.1045695 28.8954305,13 30,13 Z M12,13 C13.1045695,13 14,12.1045695 14,11 C14,9.8954305 13.1045695,9 12,9 C10.8954305,9 10,9.8954305 10,11 C10,12.1045695 10.8954305,13 12,13 Z" id="Rectangle-1454" fill="#D8D8D8"></path>
                <path d="M13.9323235,23.2101749 L20.913484,34.9497475 L27.193923,31.1199697" id="Line" transform="translate(20.563123, 29.079961) scale(-1, 1) translate(-20.563123, -29.079961) "></path>
                <path d="M32,11 C32,4.92486775 27.0751322,0 21,0 C14.9248678,0 10,4.92486775 10,11" id="Oval-1352"></path>
            </g>
        </g>
    </g>
</svg>