<?xml version="1.0" encoding="UTF-8" standalone="no"?>
<svg width="60px" height="60px" viewBox="0 0 60 60" version="1.1" xmlns="http://www.w3.org/2000/svg" xmlns:xlink="http://www.w3.org/1999/xlink" xmlns:sketch="http://www.bohemiancoding.com/sketch/ns">
    <!-- Generator: Sketch 3.2.2 (9983) - http://www.bohemiancoding.com/sketch -->
    <title>Basketfull</title>
    <desc>Created with Sketch.</desc>
    <defs></defs>
    <g id="filled" stroke="none" stroke-width="1" fill="none" fill-rule="evenodd" sketch:type="MSPage">
        <g id="Marketing_sliced" sketch:type="MSLayerGroup" transform="translate(-840.000000, -120.000000)"></g>
        <g id="Marketing" sketch:type="MSLayerGroup" transform="translate(-838.000000, -110.000000)" stroke="#535353" stroke-width="2" stroke-linejoin="round">
            <g id="Basketfull" transform="translate(847.000000, 115.000000)" sketch:type="MSShapeGroup">
                <path d="M0,19 L42,19 L39.9512195,48 L2.04878049,48 L0,19 Z" id="Rectangle-1460" stroke-linecap="round" fill="#D8D8D8"></path>
                <path d="M30,27 L30,41" id="Line" stroke-linecap="square"></path>
                <path d="M21,27 L21,41" id="Line" stroke-linecap="square"></path>
                <path d="M12,27 L12,41" id="Line" stroke-linecap="square"></path>
                <path d="M5.61865969,18.9880718 L18.0074756,18.9880717 L18.0074756,9.09373883 L5.61865969,18.9880718 Z" id="Path-3252" stroke-linecap="round"></path>
                <path d="M18.0074756,19 L18.0074756,7 L35.8515593,7.00202585 L39,18.7279705 L18.0074756,19 Z" id="Path-3253" stroke-linecap="round"></path>
                <path d="M2,18.5085586 L2,2.49144137 C2,1.1154563 3.10966206,0 4.5,0 L4.5,0 C5.88071187,0 7,1.12905121 7,2.49144137 L7,18.5085586" id="Rectangle-1463" stroke-linecap="round"></path>
            </g>
        </g>
    </g>
</svg>