<?xml version="1.0" encoding="UTF-8" standalone="no"?>
<svg width="60px" height="60px" viewBox="0 0 60 60" version="1.1" xmlns="http://www.w3.org/2000/svg" xmlns:xlink="http://www.w3.org/1999/xlink" xmlns:sketch="http://www.bohemiancoding.com/sketch/ns">
    <!-- Generator: Sketch 3.2.2 (9983) - http://www.bohemiancoding.com/sketch -->
    <title>Cartgrill</title>
    <desc>Created with Sketch.</desc>
    <defs></defs>
    <g id="filled" stroke="none" stroke-width="1" fill="none" fill-rule="evenodd" sketch:type="MSPage">
        <g id="Marketing_sliced" sketch:type="MSLayerGroup" transform="translate(-240.000000, 0.000000)"></g>
        <g id="Marketing" sketch:type="MSLayerGroup" transform="translate(-238.000000, 10.000000)" stroke="#535353" stroke-width="2" stroke-linejoin="round">
            <g id="Cartgrill" transform="translate(244.000000, 7.000000)" sketch:type="MSShapeGroup">
                <circle id="Oval-1329" stroke-linecap="round" fill="#D8D8D8" cx="9" cy="35" r="3"></circle>
                <circle id="Oval-1329" stroke-linecap="round" fill="#D8D8D8" cx="34" cy="35" r="3"></circle>
                <path d="M0,4 L43,4 L41.6395607,22 L2,22 L0,4 Z" id="Rectangle-1449" stroke-linecap="round" fill="#D8D8D8"></path>
                <path d="M41,25.4939416 L41,29.0643462 L3.2736947,29.0643462" id="Path-3188" stroke-linecap="round"></path>
                <path d="M42.9263446,5.94713879 L43.594948,0 L50.6128767,0" id="Path-3189" stroke-linecap="round"></path>
                <path d="M1,10 L42.0487518,10" id="Line" stroke-linecap="square"></path>
                <path d="M3,22 L41.0487518,22" id="Line" stroke-linecap="square"></path>
                <path d="M2,16 L41,16" id="Line-312" stroke-linecap="square"></path>
                <path d="M8,4 L8,22" id="Line" stroke-linecap="square"></path>
                <path d="M15,4 L15,22" id="Line" stroke-linecap="square"></path>
                <path d="M22,4 L22,22" id="Line" stroke-linecap="square"></path>
                <path d="M29,4 L29,22" id="Line" stroke-linecap="square"></path>
                <path d="M36,4 L36,22" id="Line" stroke-linecap="square"></path>
            </g>
        </g>
    </g>
</svg>