<?xml version="1.0" encoding="UTF-8" standalone="no"?>
<svg width="60px" height="60px" viewBox="0 0 60 60" version="1.1" xmlns="http://www.w3.org/2000/svg" xmlns:xlink="http://www.w3.org/1999/xlink" xmlns:sketch="http://www.bohemiancoding.com/sketch/ns">
    <!-- Generator: Sketch 3.2.2 (9983) - http://www.bohemiancoding.com/sketch -->
    <title>Coindecrease</title>
    <desc>Created with Sketch.</desc>
    <defs></defs>
    <g id="filled" stroke="none" stroke-width="1" fill="none" fill-rule="evenodd" sketch:type="MSPage">
        <g id="Marketing_sliced" sketch:type="MSLayerGroup" transform="translate(-600.000000, -960.000000)"></g>
        <g id="Marketing" sketch:type="MSLayerGroup" transform="translate(-598.000000, -950.000000)" stroke="#535353" stroke-width="2" stroke-linejoin="round">
            <g id="Profitloose" transform="translate(604.000000, 966.000000)" sketch:type="MSShapeGroup">
                <path d="M1,32 C1,33.1045695 3.46243388,34 6.5,34 C9.53756612,34 12,33.1045695 12,32 L12,2.08419301" id="Oval-1412" stroke-linecap="round" fill="#D8D8D8"></path>
                <path d="M35,32 C35,33.1045695 37.4624339,34 40.5,34 C43.5375661,34 46,33.1045695 46,32 L46,11.8200309" id="Oval-1412" stroke-linecap="round" fill="#D8D8D8"></path>
                <path d="M1,30.051279 C1,31.1558485 3.46243388,32.051279 6.5,32.051279 C9.53756612,32.051279 12,31.1558485 12,30.051279 L12,0" id="Oval-1417" stroke-linecap="round" fill="#D8D8D8" transform="translate(6.500000, 16.025640) rotate(-180.000000) translate(-6.500000, -16.025640) "></path>
                <path d="M35,30.4520071 C35,31.5565766 37.4624339,32.4520071 40.5,32.4520071 C43.5375661,32.4520071 46,31.5565766 46,30.4520071 L46,9.75735931" id="Oval-1417" stroke-linecap="round" fill="#D8D8D8" transform="translate(40.500000, 21.104683) rotate(-180.000000) translate(-40.500000, -21.104683) "></path>
                <path d="M1,27 C1,28.1045695 3.46243388,29 6.5,29 C9.53756612,29 12,28.1045695 12,27" id="Oval-1412" stroke-linecap="round" fill="#D8D8D8"></path>
                <path d="M35,27 C35,28.1045695 37.4624339,29 40.5,29 C43.5375661,29 46,28.1045695 46,27" id="Oval-1412" stroke-linecap="round" fill="#D8D8D8"></path>
                <path d="M1,22 C1,23.1045695 3.46243388,24 6.5,24 C9.53756612,24 12,23.1045695 12,22" id="Oval-1412" stroke-linecap="round" fill="#D8D8D8"></path>
                <path d="M35,22 C35,23.1045695 37.4624339,24 40.5,24 C43.5375661,24 46,23.1045695 46,22" id="Oval-1412" stroke-linecap="round" fill="#D8D8D8"></path>
                <path d="M1,22 C1,23.1045695 3.46243388,24 6.5,24 C9.53756612,24 12,23.1045695 12,22" id="Oval-1415" stroke-linecap="round" fill="#D8D8D8"></path>
                <path d="M35,22 C35,23.1045695 37.4624339,24 40.5,24 C43.5375661,24 46,23.1045695 46,22" id="Oval-1415" stroke-linecap="round" fill="#D8D8D8"></path>
                <path d="M1,17 C1,18.1045695 3.46243388,19 6.5,19 C9.53756612,19 12,18.1045695 12,17" id="Oval-1413" stroke-linecap="round" fill="#D8D8D8"></path>
                <path d="M35,17 C35,18.1045695 37.4624339,19 40.5,19 C43.5375661,19 46,18.1045695 46,17" id="Oval-1413" stroke-linecap="round" fill="#D8D8D8"></path>
                <path d="M1,12 C1,13.1045695 3.46243388,14 6.5,14 C9.53756612,14 12,13.1045695 12,12" id="Oval-1414" stroke-linecap="round" fill="#D8D8D8"></path>
                <path d="M1,12 C1,13.1045695 3.46243388,14 6.5,14 C9.53756612,14 12,13.1045695 12,12" id="Oval-1418" stroke-linecap="round" fill="#D8D8D8"></path>
                <path d="M1,7 C1,8.1045695 3.46243388,9 6.5,9 C9.53756612,9 12,8.1045695 12,7" id="Oval-1416" stroke-linecap="round" fill="#D8D8D8"></path>
                <path d="M1,2 C1,3.1045695 3.46243388,4 6.5,4 C9.53756612,4 12,3.1045695 12,2" id="Oval-1417" stroke-linecap="round" fill="#D8D8D8"></path>
                <path d="M35,12 C35,13.1045695 37.4624339,14 40.5,14 C43.5375661,14 46,13.1045695 46,12" id="Oval-1417" stroke-linecap="round" fill="#D8D8D8"></path>
                <path d="M18,14 L29,14" id="Line" stroke-linecap="square"></path>
                <path d="M23,11 L29,11 L29,17" id="Rectangle-1567" stroke-linecap="round" transform="translate(26.000000, 14.000000) rotate(-315.000000) translate(-26.000000, -14.000000) "></path>
            </g>
        </g>
    </g>
</svg>