<?xml version="1.0" encoding="UTF-8" standalone="no"?>
<svg width="60px" height="60px" viewBox="0 0 60 60" version="1.1" xmlns="http://www.w3.org/2000/svg" xmlns:xlink="http://www.w3.org/1999/xlink" xmlns:sketch="http://www.bohemiancoding.com/sketch/ns">
    <!-- Generator: Sketch 3.2.2 (9983) - http://www.bohemiancoding.com/sketch -->
    <title>Diamond</title>
    <desc>Created with Sketch.</desc>
    <defs></defs>
    <g id="filled" stroke="none" stroke-width="1" fill="none" fill-rule="evenodd" sketch:type="MSPage">
        <g id="Marketing_sliced" sketch:type="MSLayerGroup" transform="translate(-120.000000, -840.000000)"></g>
        <g id="Marketing" sketch:type="MSLayerGroup" transform="translate(-118.000000, -830.000000)" stroke="#535353" stroke-width="2" stroke-linecap="round" stroke-linejoin="round">
            <g id="Diamond" transform="translate(127.000000, 839.000000)" sketch:type="MSShapeGroup">
                <path d="M2.34422029,20.2298146 C1.04954318,18.4460373 1.79182266,17 3.99344981,17 L41.0065502,17 C43.2120716,17 43.9449568,18.4536151 42.6557797,20.2298146 L22.5,48 L2.34422029,20.2298146 Z" id="Triangle-45" fill="#D8D8D8"></path>
                <path d="M14,17 L31,17 L22.5,48 L14,17 Z" id="Triangle-46" fill="#D8D8D8"></path>
                <path d="M14,0 L31,0 L22.5,17 L14,0 Z" id="Triangle-46" fill="#D8D8D8" transform="translate(22.500000, 8.500000) scale(1, -1) translate(-22.500000, -8.500000) "></path>
                <path d="M8.98611501,1.72360449 C9.54606823,0.771684013 10.8897632,0 12.0035949,0 L32.9964051,0 C34.10296,0 35.4556644,0.774629474 36.013885,1.72360449 L42.9763508,13.5597963 C44.0939814,15.4597684 43.2081773,17 41.0065502,17 L3.99344981,17 C1.78792838,17 0.905070454,15.4613802 2.02364922,13.5597963 L8.98611501,1.72360449 Z" id="Rectangle-1551"></path>
            </g>
        </g>
    </g>
</svg>