<?xml version="1.0" encoding="UTF-8" standalone="no"?>
<svg width="60px" height="60px" viewBox="0 0 60 60" version="1.1" xmlns="http://www.w3.org/2000/svg" xmlns:xlink="http://www.w3.org/1999/xlink" xmlns:sketch="http://www.bohemiancoding.com/sketch/ns">
    <!-- Generator: Sketch 3.2.2 (9983) - http://www.bohemiancoding.com/sketch -->
    <title>Digitalclock</title>
    <desc>Created with Sketch.</desc>
    <defs></defs>
    <g id="filled" stroke="none" stroke-width="1" fill="none" fill-rule="evenodd" sketch:type="MSPage">
        <g id="Marketing_sliced" sketch:type="MSLayerGroup" transform="translate(-480.000000, -1320.000000)"></g>
        <g id="Marketing" sketch:type="MSLayerGroup" transform="translate(-478.000000, -1310.000000)" stroke="#535353" stroke-width="2" stroke-linecap="round" stroke-linejoin="round">
            <g id="Digitalclock" transform="translate(481.000000, 1315.000000)" sketch:type="MSShapeGroup">
                <rect id="Rectangle-1652" fill="#D8D8D8" x="0" y="28" width="55" height="20"></rect>
                <rect id="Rectangle-1658" x="26" y="35" width="2" height="2"></rect>
                <rect id="Rectangle-1659" x="26" y="39" width="2" height="2"></rect>
                <rect id="Rectangle-1653" x="10" y="46" width="7" height="5"></rect>
                <rect id="Rectangle-1654" x="38" y="46" width="7" height="5"></rect>
                <path d="M37,29.0000007 L48.619384,0.728073816" id="Path-3678"></path>
                <rect id="Rectangle-1655" x="16" y="33" width="5" height="5"></rect>
                <path d="M33,33 L38,33 L38,38 L33,38" id="Rectangle-1660"></path>
                <path d="M33,38 L38,38 L38,43 L33,43" id="Rectangle-1661"></path>
                <rect id="Rectangle-1657" x="7" y="33" width="5" height="10"></rect>
                <rect id="Rectangle-1662" x="42" y="33" width="5" height="10"></rect>
                <rect id="Rectangle-1656" x="16" y="38" width="5" height="5"></rect>
            </g>
        </g>
    </g>
</svg>