<?xml version="1.0" encoding="UTF-8" standalone="no"?>
<svg width="60px" height="60px" viewBox="0 0 60 60" version="1.1" xmlns="http://www.w3.org/2000/svg" xmlns:xlink="http://www.w3.org/1999/xlink" xmlns:sketch="http://www.bohemiancoding.com/sketch/ns">
    <!-- Generator: Sketch 3.2.2 (9983) - http://www.bohemiancoding.com/sketch -->
    <title>Diploma</title>
    <desc>Created with Sketch.</desc>
    <defs></defs>
    <g id="filled" stroke="none" stroke-width="1" fill="none" fill-rule="evenodd" sketch:type="MSPage">
        <g id="Marketing_sliced" sketch:type="MSLayerGroup" transform="translate(-240.000000, -1080.000000)"></g>
        <g id="Marketing" sketch:type="MSLayerGroup" transform="translate(-238.000000, -1070.000000)" stroke="#535353" stroke-width="2" stroke-linejoin="round">
            <g id="Diploma" transform="translate(240.000000, 1079.000000)" sketch:type="MSShapeGroup">
                <rect id="Rectangle-1568" stroke-linecap="round" x="0" y="0" width="56" height="38"></rect>
                <path d="M4,27 L4,11 C7.3137085,11 10,8.3137085 10,5 C10,4.65928779 9.9716012,4.32520847 9.91704156,4 L9.91704156,4 L46.0829584,4 L46.0829584,4 C46.0283988,4.32520847 46,4.65928779 46,5 C46,8.3137085 48.6862915,11 52,11 L52,27 L52,27 C48.6862915,27 46,29.6862915 46,33 C46,33.3407122 46.0283988,33.6747915 46.0829584,34 L9.91704156,34 C9.9716012,33.6747915 10,33.3407122 10,33 C10,29.6862915 7.3137085,27 4,27 Z" id="Rectangle-1569" stroke-linecap="round" fill="#D8D8D8"></path>
                <path d="M13,14 L42.0172367,14" id="Line" stroke-linecap="square"></path>
                <path d="M17,23 L38,23" id="Line" stroke-linecap="square"></path>
                <path d="M17,28 L38,28" id="Line" stroke-linecap="square"></path>
                <path d="M23,10 L33,10" id="Line" stroke-linecap="square"></path>
            </g>
        </g>
    </g>
</svg>