<?xml version="1.0" encoding="UTF-8" standalone="no"?>
<svg width="60px" height="60px" viewBox="0 0 60 60" version="1.1" xmlns="http://www.w3.org/2000/svg" xmlns:xlink="http://www.w3.org/1999/xlink" xmlns:sketch="http://www.bohemiancoding.com/sketch/ns">
    <!-- Generator: Sketch 3.2.2 (9983) - http://www.bohemiancoding.com/sketch -->
    <title>Discounttag</title>
    <desc>Created with Sketch.</desc>
    <defs></defs>
    <g id="filled" stroke="none" stroke-width="1" fill="none" fill-rule="evenodd" sketch:type="MSPage">
        <g id="Marketing_sliced" sketch:type="MSLayerGroup" transform="translate(-120.000000, -1080.000000)"></g>
        <g id="Marketing" sketch:type="MSLayerGroup" transform="translate(-118.000000, -1070.000000)" stroke="#535353" stroke-width="2" stroke-linecap="round" stroke-linejoin="round">
            <g id="Discounttag" transform="translate(137.000000, 1075.000000)" sketch:type="MSShapeGroup">
                <path d="M0,12.0052699 C0,10.8977899 0.688272424,9.42643965 1.53199703,8.72333581 L10.468003,1.27666419 C11.3141016,0.571582029 12.6882724,0.573560353 13.531997,1.27666419 L22.468003,8.72333581 C23.3141016,9.42841797 24,10.8944731 24,12.0052699 L24,48.9947301 C24,50.1022101 23.1029738,51 21.9950534,51 L2.00494659,51 C0.897645164,51 0,50.1055269 0,48.9947301 L0,12.0052699 Z M12,13 C13.6568542,13 15,11.6568542 15,10 C15,8.34314575 13.6568542,7 12,7 C10.3431458,7 9,8.34314575 9,10 C9,11.6568542 10.3431458,13 12,13 Z" id="Rectangle-1567" fill="#D8D8D8"></path>
                <g id="Line-+-Oval-1384-+-Oval-1385" transform="translate(3.000000, 31.000000)">
                    <path d="M17,0 L2.08356611,14.9164343" id="Line"></path>
                    <circle id="Oval-1384" cx="3.5" cy="3" r="3"></circle>
                    <circle id="Oval-1384" cx="14.5" cy="12" r="3"></circle>
                </g>
            </g>
        </g>
    </g>
</svg>