<?xml version="1.0" encoding="UTF-8" standalone="no"?>
<svg width="60px" height="60px" viewBox="0 0 60 60" version="1.1" xmlns="http://www.w3.org/2000/svg" xmlns:xlink="http://www.w3.org/1999/xlink" xmlns:sketch="http://www.bohemiancoding.com/sketch/ns">
    <!-- Generator: Sketch 3.2.2 (9983) - http://www.bohemiancoding.com/sketch -->
    <title>Doublesafebox</title>
    <desc>Created with Sketch.</desc>
    <defs></defs>
    <g id="filled" stroke="none" stroke-width="1" fill="none" fill-rule="evenodd" sketch:type="MSPage">
        <g id="Marketing_sliced" sketch:type="MSLayerGroup" transform="translate(-600.000000, -720.000000)"></g>
        <g id="Marketing" sketch:type="MSLayerGroup" transform="translate(-598.000000, -710.000000)" stroke="#535353" stroke-width="2" stroke-linejoin="round">
            <g id="Doublesafebox" transform="translate(600.000000, 714.000000)" sketch:type="MSShapeGroup">
                <path d="M0,24 L56,24 L56,48 L0,48 L0,24 Z M28,43 C31.8659932,43 35,39.8659932 35,36 C35,32.1340068 31.8659932,29 28,29 C24.1340068,29 21,32.1340068 21,36 C21,39.8659932 24.1340068,43 28,43 Z" id="Rectangle-1530" stroke-linecap="round" fill="#D8D8D8"></path>
                <path d="M0,0 L56,0 L56,24 L0,24 L0,0 Z M28,19 C31.8659932,19 35,15.8659932 35,12 C35,8.13400675 31.8659932,5 28,5 C24.1340068,5 21,8.13400675 21,12 C21,15.8659932 24.1340068,19 28,19 Z" id="Rectangle-1530" stroke-linecap="round" fill="#D8D8D8"></path>
                <path d="M35,32.6470476 L38,31" id="Line" stroke-linecap="square"></path>
                <path d="M17.7595699,15.0215589 L21,13.9204782" id="Line" stroke-linecap="square"></path>
                <rect id="Rectangle-1531" stroke-linecap="round" x="0" y="47" width="56" height="6"></rect>
            </g>
        </g>
    </g>
</svg>