<?xml version="1.0" encoding="UTF-8" standalone="no"?>
<svg width="60px" height="60px" viewBox="0 0 60 60" version="1.1" xmlns="http://www.w3.org/2000/svg" xmlns:xlink="http://www.w3.org/1999/xlink" xmlns:sketch="http://www.bohemiancoding.com/sketch/ns">
    <!-- Generator: Sketch 3.2.2 (9983) - http://www.bohemiancoding.com/sketch -->
    <title>Europaper</title>
    <desc>Created with Sketch.</desc>
    <defs></defs>
    <g id="filled" stroke="none" stroke-width="1" fill="none" fill-rule="evenodd" sketch:type="MSPage">
        <g id="Marketing_sliced" sketch:type="MSLayerGroup" transform="translate(-360.000000, -360.000000)"></g>
        <g id="Marketing" sketch:type="MSLayerGroup" transform="translate(-358.000000, -350.000000)" stroke="#535353" stroke-width="2" stroke-linejoin="round">
            <g id="Europaper" transform="translate(360.000000, 371.000000)" sketch:type="MSShapeGroup">
                <path d="M1.07692308,12.0726789 C1.07692308,8.04845257 0,0 0,0 C0,0 18.6666667,2.08 28,2.08 C37.3333333,2.08 56,0 56,0 C56,0 54.9230769,7.57894796 54.9230769,11.3684219 C54.9230769,15.5522813 56,23.92 56,23.92 C56,23.92 37.3333333,26 28,26 C18.6666667,26 0,23.92 0,23.92 C0,23.92 1.07692308,16.0217859 1.07692308,12.0726789 Z" id="Rectangle-1476" stroke-linecap="round" fill="#D8D8D8"></path>
                <path d="M47,4 L52,4" id="Line" stroke-linecap="square"></path>
                <path d="M4,4 L9,4" id="Line" stroke-linecap="square"></path>
                <path d="M47,21 L52,21" id="Line" stroke-linecap="square"></path>
                <path d="M4,21 L9,21" id="Line" stroke-linecap="square"></path>
                <path d="M30.9976305,21 L28.0023695,21 C25.7919219,21 24,19.2055487 24,16.9999798 L24,10.0000202 C24,7.79087006 25.7918218,6 28.0023695,6 L30.9976305,6" id="Rectangle-1478" stroke-linecap="round"></path>
                <path d="M22,12 L27,12" id="Line" stroke-linecap="square"></path>
                <path d="M22,15 L27,15" id="Line" stroke-linecap="square"></path>
            </g>
        </g>
    </g>
</svg>