<?xml version="1.0" encoding="UTF-8" standalone="no"?>
<svg width="60px" height="60px" viewBox="0 0 60 60" version="1.1" xmlns="http://www.w3.org/2000/svg" xmlns:xlink="http://www.w3.org/1999/xlink" xmlns:sketch="http://www.bohemiancoding.com/sketch/ns">
    <!-- Generator: Sketch 3.2.2 (9983) - http://www.bohemiancoding.com/sketch -->
    <title>Fingercoin</title>
    <desc>Created with Sketch.</desc>
    <defs></defs>
    <g id="filled" stroke="none" stroke-width="1" fill="none" fill-rule="evenodd" sketch:type="MSPage">
        <g id="Marketing_sliced" sketch:type="MSLayerGroup" transform="translate(-720.000000, -1440.000000)"></g>
        <g id="Marketing" sketch:type="MSLayerGroup" transform="translate(-718.000000, -1430.000000)" stroke="#535353" stroke-width="2" stroke-linecap="round" stroke-linejoin="round">
            <g id="Fingercoin" transform="translate(731.000000, 1435.000000)" sketch:type="MSShapeGroup">
                <path d="M25.3442055,33.1477457 C31.0704285,30.2715777 35,24.3446891 35,17.5 C35,7.83501688 27.1649831,0 17.5,0 C7.83501688,0 0,7.83501688 0,17.5 C0,24.3608911 3.94819678,30.2996315 9.69648807,33.1681188" id="Oval-1452" fill="#D8D8D8"></path>
                <rect id="Rectangle-1674" fill="#D8D8D8" x="9" y="25" width="17" height="28"></rect>
                <rect id="Rectangle-1675" fill="#D8D8D8" x="12" y="29" width="11" height="9"></rect>
                <path d="M24.3557358,2.19227698 L2,25.3387236" id="Path-3719"></path>
                <path d="M30,34 L32,37" id="Line"></path>
                <path d="M3,34 L5,37" id="Line" transform="translate(4.000000, 35.500000) scale(-1, 1) translate(-4.000000, -35.500000) "></path>
            </g>
        </g>
    </g>
</svg>