<?xml version="1.0" encoding="UTF-8" standalone="no"?>
<svg width="60px" height="60px" viewBox="0 0 60 60" version="1.1" xmlns="http://www.w3.org/2000/svg" xmlns:xlink="http://www.w3.org/1999/xlink" xmlns:sketch="http://www.bohemiancoding.com/sketch/ns">
    <!-- Generator: Sketch 3.2.2 (9983) - http://www.bohemiancoding.com/sketch -->
    <title>Gold</title>
    <desc>Created with Sketch.</desc>
    <defs></defs>
    <g id="filled" stroke="none" stroke-width="1" fill="none" fill-rule="evenodd" sketch:type="MSPage">
        <g id="Marketing_sliced" sketch:type="MSLayerGroup" transform="translate(-240.000000, -480.000000)"></g>
        <g id="Marketing" sketch:type="MSLayerGroup" transform="translate(-238.000000, -470.000000)" stroke="#535353" stroke-width="2" stroke-linecap="round" stroke-linejoin="round">
            <g id="Gold" transform="translate(239.000000, 476.000000)" sketch:type="MSShapeGroup">
                <rect id="Rectangle-1488" x="2" y="0" width="54" height="21"></rect>
                <rect id="Rectangle-1489" fill="#D8D8D8" x="7" y="5" width="44" height="11"></rect>
                <path d="M55,1 L50.4723074,5.52769279" id="Line"></path>
                <path d="M55,15 L50.4723074,19.5276928" id="Line" transform="translate(52.500000, 17.500000) scale(1, -1) translate(-52.500000, -17.500000) "></path>
                <path d="M8,1 L3.47230744,5.52769279" id="Line" transform="translate(5.500000, 3.500000) scale(-1, 1) translate(-5.500000, -3.500000) "></path>
                <path d="M8,15 L3.47230744,19.5276928" id="Line" transform="translate(5.500000, 17.500000) scale(-1, -1) translate(-5.500000, -17.500000) "></path>
                <g id="Group" transform="translate(29.000000, 37.500000) rotate(-11.000000) translate(-29.000000, -37.500000) translate(2.000000, 27.000000)">
                    <rect id="Rectangle-1488" x="1.48325796e-13" y="-6.78568313e-13" width="54" height="21"></rect>
                    <rect id="Rectangle-1489" fill="#D8D8D8" x="5" y="5" width="44" height="11"></rect>
                    <path d="M53,1 L48.4723074,5.52769279" id="Line"></path>
                    <path d="M53,15 L48.4723074,19.5276928" id="Line" transform="translate(50.500000, 17.500000) scale(1, -1) translate(-50.500000, -17.500000) "></path>
                    <path d="M6,1 L1.47230744,5.52769279" id="Line" transform="translate(3.500000, 3.500000) scale(-1, 1) translate(-3.500000, -3.500000) "></path>
                    <path d="M6,15 L1.47230744,19.5276928" id="Line" transform="translate(3.500000, 17.500000) scale(-1, -1) translate(-3.500000, -17.500000) "></path>
                </g>
            </g>
        </g>
    </g>
</svg>