<?xml version="1.0" encoding="UTF-8" standalone="no"?>
<svg width="60px" height="60px" viewBox="0 0 60 60" version="1.1" xmlns="http://www.w3.org/2000/svg" xmlns:xlink="http://www.w3.org/1999/xlink" xmlns:sketch="http://www.bohemiancoding.com/sketch/ns">
    <!-- Generator: Sketch 3.2.2 (9983) - http://www.bohemiancoding.com/sketch -->
    <title>Notifications</title>
    <desc>Created with Sketch.</desc>
    <defs></defs>
    <g id="filled" stroke="none" stroke-width="1" fill="none" fill-rule="evenodd" sketch:type="MSPage">
        <g id="Marketing_sliced" sketch:type="MSLayerGroup" transform="translate(-120.000000, -1320.000000)"></g>
        <g id="Marketing" sketch:type="MSLayerGroup" transform="translate(-118.000000, -1310.000000)" stroke="#535353" stroke-width="2" stroke-linejoin="round">
            <g id="Notifications" transform="translate(122.000000, 1316.000000)" sketch:type="MSShapeGroup">
                <rect id="Rectangle-1634" stroke-linecap="round" fill="#D8D8D8" x="0" y="15" width="52" height="33"></rect>
                <rect id="Rectangle-1634" stroke-linecap="round" x="0" y="4" width="52" height="13"></rect>
                <path d="M10,0 L10,5" id="Line" stroke-linecap="square"></path>
                <path d="M42,0 L42,5" id="Line" stroke-linecap="square"></path>
                <path d="M8,21 L4.46446609,24.5355339" id="Line" stroke-linecap="round"></path>
                <path d="M18,21 L14.4644661,24.5355339" id="Line-340" stroke-linecap="round"></path>
                <path d="M28,21 L24.4644661,24.5355339" id="Line-343" stroke-linecap="round"></path>
                <path d="M38,21 L34.4644661,24.5355339" id="Line-344" stroke-linecap="round"></path>
                <path d="M48,21 L44.4644661,24.5355339" id="Line-345" stroke-linecap="round"></path>
                <path d="M8,29 L4.46446609,32.5355339" id="Line-350" stroke-linecap="round"></path>
                <path d="M18,29 L14.4644661,32.5355339" id="Line-346" stroke-linecap="round"></path>
                <path d="M28,29 L24.4644661,32.5355339" id="Line-347" stroke-linecap="round"></path>
                <path d="M38,29 L34.4644661,32.5355339" id="Line-348" stroke-linecap="round"></path>
                <path d="M34,29 L37.5355339,32.5355339" id="Line-356" stroke-linecap="round"></path>
                <path d="M48,29 L44.4644661,32.5355339" id="Line-349" stroke-linecap="round"></path>
                <path d="M8,37 L4.46446609,40.5355339" id="Line-355" stroke-linecap="round"></path>
                <path d="M18,37 L14.4644661,40.5355339" id="Line-351" stroke-linecap="round"></path>
                <path d="M28,37 L24.4644661,40.5355339" id="Line-352" stroke-linecap="round"></path>
                <path d="M24,37 L27.5355339,40.5355339" id="Line-357" stroke-linecap="round"></path>
                <path d="M38,37 L34.4644661,40.5355339" id="Line-353" stroke-linecap="round"></path>
                <path d="M48,37 L44.4644661,40.5355339" id="Line-354" stroke-linecap="round"></path>
            </g>
        </g>
    </g>
</svg>