<?xml version="1.0" encoding="UTF-8" standalone="no"?>
<svg width="60px" height="60px" viewBox="0 0 60 60" version="1.1" xmlns="http://www.w3.org/2000/svg" xmlns:xlink="http://www.w3.org/1999/xlink" xmlns:sketch="http://www.bohemiancoding.com/sketch/ns">
    <!-- Generator: Sketch 3.2.2 (9983) - http://www.bohemiancoding.com/sketch -->
    <title>Prizecup</title>
    <desc>Created with Sketch.</desc>
    <defs></defs>
    <g id="filled" stroke="none" stroke-width="1" fill="none" fill-rule="evenodd" sketch:type="MSPage">
        <g id="Marketing_sliced" sketch:type="MSLayerGroup" transform="translate(-360.000000, -960.000000)"></g>
        <g id="Marketing" sketch:type="MSLayerGroup" transform="translate(-358.000000, -950.000000)" stroke="#535353" stroke-width="2" stroke-linejoin="round">
            <g id="Prizecup" transform="translate(364.000000, 955.000000)" sketch:type="MSShapeGroup">
                <path d="M12.7053257,0 L37.2946891,0 L39.6237022,28.1307364 C39.8463494,30.8199564 37.9057335,33.5285109 35.2928821,34.1795484 L25.0000073,36.7441978 L14.7071327,34.1795484 C12.0926396,33.5281018 10.1534949,30.8220158 10.3763126,28.1307364 L12.7053257,0 Z" id="Rectangle-1564" stroke-linecap="round" fill="#D8D8D8"></path>
                <path d="M25,36 L25,39" id="Line" stroke-linecap="square"></path>
                <path d="M18,40 L32,40 L34,46 L16,46 L18,40 Z" id="Rectangle-1565" stroke-linecap="round"></path>
                <rect id="Rectangle-1566" stroke-linecap="round" fill="#D8D8D8" x="10" y="44" width="30" height="9"></rect>
                <path d="M36.9525134,7.27680803 L40.364548,4 L49.9302881,4 C49.9302881,4 51.0246828,17.3977701 38.4503052,25.6755503" id="Path-3529" stroke-linecap="round"></path>
                <path d="M0,7.27680803 L3.41203468,4 L12.9777747,4 C12.9777747,4 14.0721695,17.3977701 1.49779185,25.6755503" id="Path-3529" stroke-linecap="round" transform="translate(6.500915, 14.837775) scale(-1, 1) translate(-6.500915, -14.837775) "></path>
                <polygon id="Star-18" stroke-linecap="round" points="25 20 22.648859 21.236068 23.097887 18.618034 21.1957739 16.763932 23.8244295 16.381966 25 14 26.1755705 16.381966 28.8042261 16.763932 26.902113 18.618034 27.351141 21.236068 "></polygon>
            </g>
        </g>
    </g>
</svg>