<?xml version="1.0" encoding="UTF-8" standalone="no"?>
<svg width="60px" height="60px" viewBox="0 0 60 60" version="1.1" xmlns="http://www.w3.org/2000/svg" xmlns:xlink="http://www.w3.org/1999/xlink" xmlns:sketch="http://www.bohemiancoding.com/sketch/ns">
    <!-- Generator: Sketch 3.2.2 (9983) - http://www.bohemiancoding.com/sketch -->
    <title>Saleshop</title>
    <desc>Created with Sketch.</desc>
    <defs></defs>
    <g id="filled" stroke="none" stroke-width="1" fill="none" fill-rule="evenodd" sketch:type="MSPage">
        <g id="Marketing_sliced" sketch:type="MSLayerGroup" transform="translate(0.000000, -840.000000)"></g>
        <g id="Marketing" sketch:type="MSLayerGroup" transform="translate(2.000000, -830.000000)" stroke="#535353" stroke-width="2" stroke-linejoin="round">
            <g id="Saleshop" transform="translate(4.000000, 838.000000)" sketch:type="MSShapeGroup">
                <rect id="Rectangle-1544" stroke-linecap="round" fill="#D8D8D8" x="0" y="0" width="48" height="18"></rect>
                <path d="M13,5 L8,5" id="Line" stroke-linecap="square"></path>
                <path d="M13,9 L8,9" id="Line" stroke-linecap="square"></path>
                <path d="M13,13 L8,13" id="Line" stroke-linecap="square"></path>
                <path d="M31,13 L26,13" id="Line" stroke-linecap="square"></path>
                <path d="M40,13 L35,13" id="Line" stroke-linecap="square"></path>
                <path d="M40,5 L35,5" id="Line" stroke-linecap="square"></path>
                <path d="M40,9 L35,9" id="Line" stroke-linecap="square"></path>
                <path d="M8,5 L8,8" id="Line" stroke-linecap="square"></path>
                <path d="M13,9 L13,12" id="Line" stroke-linecap="square"></path>
                <path d="M17,13 L17,5" id="Line" stroke-linecap="square"></path>
                <path d="M22,13 L22,5" id="Line" stroke-linecap="square"></path>
                <path d="M26,13 L26,5" id="Line" stroke-linecap="square"></path>
                <path d="M35,13 L35,5" id="Line" stroke-linecap="square"></path>
                <path d="M17,5 L22,5" id="Line" stroke-linecap="square"></path>
                <path d="M17,9 L22,9" id="Line" stroke-linecap="square"></path>
                <path d="M24,18 L24,22" id="Line" stroke-linecap="square"></path>
                <rect id="Rectangle-1545" stroke-linecap="round" x="1" y="23" width="46" height="23"></rect>
                <rect id="Rectangle-1546" stroke-linecap="round" fill="#D8D8D8" x="7" y="28" width="18" height="18"></rect>
                <rect id="Rectangle-1549" stroke-linecap="round" x="19" y="36" width="2" height="2"></rect>
                <rect id="Rectangle-1547" stroke-linecap="round" fill="#D8D8D8" x="28" y="28" width="6" height="9"></rect>
                <rect id="Rectangle-1547" stroke-linecap="round" fill="#D8D8D8" x="36" y="28" width="6" height="9"></rect>
            </g>
        </g>
    </g>
</svg>