<?xml version="1.0" encoding="UTF-8" standalone="no"?>
<svg width="32px" height="32px" viewBox="0 0 32 32" version="1.1" xmlns="http://www.w3.org/2000/svg" xmlns:xlink="http://www.w3.org/1999/xlink">
    <!-- Generator: Sketch 3.8.3 (29802) - http://www.bohemiancoding.com/sketch -->
    <title>air-balloon</title>
    <desc>Created with Sketch.</desc>
    <defs></defs>
    <g id="Page-1" stroke="none" stroke-width="1" fill="none" fill-rule="evenodd" stroke-linecap="round" stroke-linejoin="round">
        <g id="air-balloon" stroke="#000000" stroke-width="2">
            <g transform="translate(3.000000, 1.000000)">
                <path d="M7,15 L1,15" id="Stroke-1"></path>
                <path d="M6,11 L0,11" id="Stroke-3"></path>
                <path d="M15,24 L18,24 L18,29 C18,29.553 17.553,30 17,30 L13,30 C12.447,30 12,29.553 12,29 L12,24 C11.33,23.33 9.344,21.75 8,19 L2,19" id="Stroke-5"></path>
                <path d="M18,24 C22,20 26,16 26,11 C26,4.925 21.075,0 15,0 C9.966,0 5.721,3.382 4.415,7.998" id="Stroke-7"></path>
                <path d="M15,21 C15,21 19,17 19,11 C19,5 15,0 15,0 C15,0 11,5 11,11 C11,17 15,21 15,21 L15,21 Z" id="Stroke-9"></path>
            </g>
        </g>
    </g>
</svg>