<?xml version="1.0" encoding="UTF-8" standalone="no"?>
<svg width="32px" height="32px" viewBox="0 0 32 32" version="1.1" xmlns="http://www.w3.org/2000/svg" xmlns:xlink="http://www.w3.org/1999/xlink">
    <!-- Generator: Sketch 3.8.3 (29802) - http://www.bohemiancoding.com/sketch -->
    <title>bike-city</title>
    <desc>Created with Sketch.</desc>
    <defs></defs>
    <g id="Page-1" stroke="none" stroke-width="1" fill="none" fill-rule="evenodd" stroke-linecap="round" stroke-linejoin="round">
        <g id="bike-city" stroke="#000000" stroke-width="2">
            <g transform="translate(1.000000, 1.000000)">
                <path d="M30,24 C30,20.687 27.313,18 24,18 C20.687,18 18,20.687 18,24 C18,27.313 20.687,30 24,30 C27.313,30 30,27.313 30,24 L30,24 Z" id="Stroke-1"></path>
                <path d="M15,24 L15,18 C15,18 9,15 10,13 C12,9 15,7 17,6 C19,11 24,13 24,13" id="Stroke-3"></path>
                <path d="M7,15 L1,15" id="Stroke-5"></path>
                <path d="M6,11 L0,11" id="Stroke-7"></path>
                <path d="M22,2 C22,0.896 21.104,0 20,0 C18.896,0 18,0.896 18,2 C18,3.104 18.896,4 20,4 C21.104,4 22,3.104 22,2 L22,2 Z" id="Stroke-13"></path>
                <path d="M0.3457,21.9893 C0.1217,22.6183 -0.0003,23.2953 -0.0003,24.0003 C-0.0003,27.3133 2.6867,30.0003 5.9997,30.0003 C9.3137,30.0003 11.9997,27.3133 11.9997,24.0003 C11.9997,21.9283 10.9507,20.0783 9.3557,19.0003 L1.9997,19.0003" id="Stroke-15"></path>
                <path d="M12,16.1582 C12,16.1582 13.687,12.0002 18.687,9.0002" id="Stroke-17"></path>
                <path d="M6,24 L6,24" id="Stroke-8"></path>
                <path d="M24,24 L24,24" id="Stroke-8"></path>
            </g>
        </g>
    </g>
</svg>