<?xml version="1.0" encoding="UTF-8" standalone="no"?>
<svg width="32px" height="32px" viewBox="0 0 32 32" version="1.1" xmlns="http://www.w3.org/2000/svg" xmlns:xlink="http://www.w3.org/1999/xlink">
    <!-- Generator: Sketch 3.8.3 (29802) - http://www.bohemiancoding.com/sketch -->
    <title>blackboard</title>
    <desc>Created with Sketch.</desc>
    <defs></defs>
    <g id="Page-1" stroke="none" stroke-width="1" fill="none" fill-rule="evenodd" stroke-linecap="round" stroke-linejoin="round">
        <g id="blackboard" stroke="#000000" stroke-width="2">
            <g transform="translate(1.000000, 1.000000)">
                <polyline id="Stroke-1" points="9 30 15 24 21 30"></polyline>
                <path d="M15,0 L15,1" id="Stroke-3"></path>
                <path d="M15,24 L15,21 L1,21 C0.447,21 0,20.553 0,20 L0,2 C0,1.447 0.447,1 1,1 L29,1 C29.553,1 30,1.447 30,2 L30,20 C30,20.553 29.553,21 29,21 L18,21" id="Stroke-5"></path>
                <path d="M9,9 L21,9" id="Stroke-7"></path>
                <path d="M9,13 L14,13" id="Stroke-9"></path>
            </g>
        </g>
    </g>
</svg>