<?xml version="1.0" encoding="UTF-8" standalone="no"?>
<svg width="32px" height="32px" viewBox="0 0 32 32" version="1.1" xmlns="http://www.w3.org/2000/svg" xmlns:xlink="http://www.w3.org/1999/xlink">
    <!-- Generator: Sketch 3.8.3 (29802) - http://www.bohemiancoding.com/sketch -->
    <title>book</title>
    <desc>Created with Sketch.</desc>
    <defs></defs>
    <g id="Page-1" stroke="none" stroke-width="1" fill="none" fill-rule="evenodd" stroke-linecap="round" stroke-linejoin="round">
        <g id="book" stroke="#000000" stroke-width="2">
            <g transform="translate(3.000000, 1.000000)">
                <path d="M10,8 L25,8 C25,8 26,8 26,9 L26,29 C26,29 26,30 25,30 L1,30 C1,30 0,30 0,29 L0,4" id="Stroke-1"></path>
                <path d="M26,0 L4,0 C4,0 0,0 0,4 C0,8 4,8 4,8" id="Stroke-3"></path>
                <polyline id="Stroke-5" points="4 4 4 16 7 14 10 16 10 4 24 4"></polyline>
            </g>
        </g>
    </g>
</svg>