<?xml version="1.0" encoding="UTF-8" standalone="no"?>
<svg width="32px" height="32px" viewBox="0 0 32 32" version="1.1" xmlns="http://www.w3.org/2000/svg" xmlns:xlink="http://www.w3.org/1999/xlink">
    <!-- Generator: Sketch 3.8.3 (29802) - http://www.bohemiancoding.com/sketch -->
    <title>boxing</title>
    <desc>Created with Sketch.</desc>
    <defs></defs>
    <g id="Page-1" stroke="none" stroke-width="1" fill="none" fill-rule="evenodd" stroke-linecap="round" stroke-linejoin="round">
        <g id="boxing" stroke="#000000" stroke-width="2">
            <g transform="translate(1.000000, 1.000000)">
                <path d="M0,22 L2.002,22 C2.002,22 4.002,22 4.002,24 C4.002,27.375 6.688,30 10.002,30 L24.002,30 C27.315,30 30,27.313 30,24 L30,8 C30,4.687 27.315,2 24.002,2 L18,2" id="Stroke-1"></path>
                <path d="M0,8 L2.002,8 C2.002,8 4.002,8 4.002,6 C4.002,2.687 6.687,0 10.001,0 C13.314,0 16,2.687 16,6 L16,13 C16,15.762 13.763,18 11.001,18 C8.239,18 6,15.762 6,13" id="Stroke-3"></path>
                <path d="M2,19 L2,8" id="Stroke-5"></path>
                <path d="M13.001,21 C13.001,21 13.002,24 16.002,24 L19,24" id="Stroke-7"></path>
            </g>
        </g>
    </g>
</svg>