<?xml version="1.0" encoding="UTF-8" standalone="no"?>
<svg width="32px" height="32px" viewBox="0 0 32 32" version="1.1" xmlns="http://www.w3.org/2000/svg" xmlns:xlink="http://www.w3.org/1999/xlink">
    <!-- Generator: Sketch 3.8.3 (29802) - http://www.bohemiancoding.com/sketch -->
    <title>browser-wifi</title>
    <desc>Created with Sketch.</desc>
    <defs></defs>
    <g id="Page-1" stroke="none" stroke-width="1" fill="none" fill-rule="evenodd" stroke-linecap="round" stroke-linejoin="round">
        <g id="browser-wifi" stroke="#000000" stroke-width="2">
            <g transform="translate(1.000000, 1.000000)">
                <path d="M10,30 L1,30 C0.447,30 0,29.558 0,29.005 L0,1.005 C0,0.452 0.447,0 1,0 L29,0 C29.553,0 30,0.452 30,1.005 L30,19" id="Stroke-1"></path>
                <path d="M0,6 L30,6" id="Stroke-3"></path>
                <path id="Stroke-5"></path>
                <path id="Stroke-7"></path>
                <path id="Stroke-9"></path>
                <path d="M24.3428,30.0498 C23.0758,28.7828 21.3258,27.9998 19.3928,27.9998 C17.4588,27.9998 15.7088,28.7828 14.4428,30.0498" id="Stroke-11"></path>
                <path d="M27.1709,27.2217 C25.1809,25.2307 22.4309,23.9997 19.3929,23.9997 C16.3549,23.9997 13.6049,25.2307 11.6139,27.2217" id="Stroke-13"></path>
                <path d="M8.7852,24.3926 C11.5002,21.6786 15.2502,19.9996 19.3922,19.9996 C23.5352,19.9996 27.2852,21.6786 30.0002,24.3926" id="Stroke-15"></path>
                <path d="M6,3 L6,3" id="Stroke-8"></path>
                <path d="M3,3 L3,3" id="Stroke-8"></path>
                <path d="M9,3 L9,3" id="Stroke-8"></path>
            </g>
        </g>
    </g>
</svg>