<?xml version="1.0" encoding="UTF-8" standalone="no"?>
<svg width="32px" height="32px" viewBox="0 0 32 32" version="1.1" xmlns="http://www.w3.org/2000/svg" xmlns:xlink="http://www.w3.org/1999/xlink">
    <!-- Generator: Sketch 3.8.3 (29802) - http://www.bohemiancoding.com/sketch -->
    <title>browser</title>
    <desc>Created with Sketch.</desc>
    <defs></defs>
    <g id="Page-1" stroke="none" stroke-width="1" fill="none" fill-rule="evenodd" stroke-linecap="round" stroke-linejoin="round">
        <g id="browser" stroke="#000000" stroke-width="2">
            <g transform="translate(1.000000, -1.000000)">
                <path d="M3,8 L30,8 L30,3.025 C30,2.473 29.553,2 29,2 L1,2 C0.447,2 0,2.473 0,3.025 L0,31.025 C0,31.578 0.447,32 1,32 L29,32 C29.553,32 30,31.578 30,31.025 L30,11" id="Page-1"></path>
                <polygon id="Stroke-1" points="6 22 16 22 16 14 6 14"></polygon>
                <path d="M20,14 L24,14" id="Stroke-3"></path>
                <path d="M20,18 L24,18" id="Stroke-4"></path>
                <path d="M20,22 L24,22" id="Stroke-5"></path>
                <path d="M6,26 L24,26" id="Stroke-6"></path>
                <path d="M6,5 L6,5" id="Stroke-8"></path>
                <path d="M3,5 L3,5" id="Stroke-8"></path>
                <path d="M9,5 L9,5" id="Stroke-8"></path>
            </g>
        </g>
    </g>
</svg>