<?xml version="1.0" encoding="UTF-8" standalone="no"?>
<svg width="32px" height="32px" viewBox="0 0 32 32" version="1.1" xmlns="http://www.w3.org/2000/svg" xmlns:xlink="http://www.w3.org/1999/xlink">
    <!-- Generator: Sketch 3.8.3 (29802) - http://www.bohemiancoding.com/sketch -->
    <title>browsers</title>
    <desc>Created with Sketch.</desc>
    <defs></defs>
    <g id="Page-1" stroke="none" stroke-width="1" fill="none" fill-rule="evenodd" stroke-linecap="round" stroke-linejoin="round">
        <g id="browsers" stroke="#000000" stroke-width="2">
            <g transform="translate(1.000000, 1.000000)">
                <path d="M30,29 C30,29.553 29.552,30 29,30 L7,30 C6.448,30 6,29.553 6,29 L6,7 C6,6.447 6.448,6 7,6 L29,6 C29.552,6 30,6.447 30,7 L30,29 L30,29 Z" id="Stroke-1"></path>
                <path d="M6,10 L30,10" id="Stroke-3"></path>
                <path d="M12,20 L24,20" id="Stroke-5"></path>
                <path d="M12,16 L17,16" id="Stroke-7"></path>
                <path d="M12,24 L24,24" id="Stroke-9"></path>
                <path d="M2,24 L1,24 C1,24 0,24.005 0,23.005 L0,1.005 C0,1.005 0,0 1,0 L23,0 C23,0 24,0.005 24,1.005 L24,2" id="Stroke-11"></path>
            </g>
        </g>
    </g>
</svg>