<?xml version="1.0" encoding="UTF-8" standalone="no"?>
<svg width="32px" height="32px" viewBox="0 0 32 32" version="1.1" xmlns="http://www.w3.org/2000/svg" xmlns:xlink="http://www.w3.org/1999/xlink">
    <!-- Generator: Sketch 3.8.3 (29802) - http://www.bohemiancoding.com/sketch -->
    <title>building</title>
    <desc>Created with Sketch.</desc>
    <defs></defs>
    <g id="Page-1" stroke="none" stroke-width="1" fill="none" fill-rule="evenodd" stroke-linecap="round" stroke-linejoin="round">
        <g id="building" stroke="#000000" stroke-width="2">
            <g transform="translate(1.000000, 1.000000)">
                <path d="M20,27 L20,1 C20,0.447 19.553,0 19,0 L1,0 C0.447,0 0,0.447 0,1 L0,30 L7,30 L7,24 L13,24 L13,30 L30,30 L30,7 C30,7 30,6 29,6 L23,6" id="Stroke-1"></path>
                <path d="M15,5 L15,7" id="Stroke-3"></path>
                <path d="M25,11 L25,13" id="Stroke-5"></path>
                <path d="M25,17 L25,19" id="Stroke-7"></path>
                <path d="M10,5 L10,7" id="Stroke-9"></path>
                <path d="M5,5 L5,7" id="Stroke-11"></path>
                <path d="M15,11 L15,13" id="Stroke-13"></path>
                <path d="M10,11 L10,13" id="Stroke-15"></path>
                <path d="M5,11 L5,13" id="Stroke-17"></path>
                <path d="M15,17 L15,19" id="Stroke-19"></path>
                <path d="M10,17 L10,19" id="Stroke-21"></path>
                <path d="M5,17 L5,19" id="Stroke-23"></path>
            </g>
        </g>
    </g>
</svg>