<?xml version="1.0" encoding="UTF-8" standalone="no"?>
<svg width="32px" height="32px" viewBox="0 0 32 32" version="1.1" xmlns="http://www.w3.org/2000/svg" xmlns:xlink="http://www.w3.org/1999/xlink">
    <!-- Generator: Sketch 3.8.3 (29802) - http://www.bohemiancoding.com/sketch -->
    <title>calculator</title>
    <desc>Created with Sketch.</desc>
    <defs></defs>
    <g id="Page-1" stroke="none" stroke-width="1" fill="none" fill-rule="evenodd" stroke-linecap="round" stroke-linejoin="round">
        <g id="calculator" stroke="#000000" stroke-width="2">
            <g transform="translate(1.000000, 1.000000)">
                <path d="M4,8 L12,8" id="Stroke-1"></path>
                <path d="M5.1719,24.833 L10.8279,19.177" id="Stroke-2"></path>
                <path d="M18,8 L26,8" id="Stroke-3"></path>
                <path d="M8,12 L8,4" id="Stroke-4"></path>
                <path d="M19.1719,24.833 L24.8279,19.177" id="Stroke-5"></path>
                <path d="M24.8281,24.833 L19.1721,19.177" id="Stroke-6"></path>
                <path d="M11,25 L11,25" id="Stroke-8"></path>
                <path d="M5,19 L5,19" id="Stroke-8"></path>
                <path d="M30,29 C30,29.553 29.553,30 29,30 L1,30 C0.447,30 0,29.553 0,29 L0,1 C0,0.447 0.447,0 1,0 L29,0 C29.553,0 30,0.447 30,1 L30,29 L30,29 Z" id="Stroke-11"></path>
            </g>
        </g>
    </g>
</svg>