<?xml version="1.0" encoding="UTF-8" standalone="no"?>
<svg width="32px" height="32px" viewBox="0 0 32 32" version="1.1" xmlns="http://www.w3.org/2000/svg" xmlns:xlink="http://www.w3.org/1999/xlink">
    <!-- Generator: Sketch 3.8.3 (29802) - http://www.bohemiancoding.com/sketch -->
    <title>calendar</title>
    <desc>Created with Sketch.</desc>
    <defs></defs>
    <g id="Page-1" stroke="none" stroke-width="1" fill="none" fill-rule="evenodd" stroke-linecap="round" stroke-linejoin="round">
        <g id="calendar" stroke="#000000" stroke-width="2">
            <g transform="translate(1.000000, 1.000000)">
                <path d="M25,3 L29,3 C29.553,3 30,3.447 30,4 L30,29 C30,29.553 29.553,30 29,30 L1,30 C0.447,30 0,29.553 0,29 L0,4 C0,3.447 0.447,3 1,3 L2,3" id="Stroke-1"></path>
                <path d="M9,5 C9,5.553 8.553,6 8,6 L6,6 C5.447,6 5,5.553 5,5 L5,1 C5,0.447 5.447,0 6,0 L8,0 C8.553,0 9,0.447 9,1 L9,5 L9,5 Z" id="Stroke-3"></path>
                <path d="M25,5 C25,5.553 24.553,6 24,6 L22,6 C21.447,6 21,5.553 21,5 L21,1 C21,0.447 21.447,0 22,0 L24,0 C24.553,0 25,0.447 25,1 L25,5 L25,5 Z" id="Stroke-5"></path>
                <path d="M9,3 L18,3" id="Stroke-7"></path>
                <path d="M6,12 L8,12" id="Stroke-9"></path>
                <path d="M6,18 L8,18" id="Stroke-11"></path>
                <path d="M6,24 L8,24" id="Stroke-13"></path>
                <path d="M14,12 L16,12" id="Stroke-15"></path>
                <path d="M14,18 L16,18" id="Stroke-17"></path>
                <path d="M14,24 L16,24" id="Stroke-19"></path>
                <path d="M22,12 L24,12" id="Stroke-21"></path>
                <path d="M22,18 L24,18" id="Stroke-23"></path>
                <path d="M22,24 L24,24" id="Stroke-25"></path>
            </g>
        </g>
    </g>
</svg>