<?xml version="1.0" encoding="UTF-8" standalone="no"?>
<svg width="32px" height="32px" viewBox="0 0 32 32" version="1.1" xmlns="http://www.w3.org/2000/svg" xmlns:xlink="http://www.w3.org/1999/xlink">
    <!-- Generator: Sketch 3.8.3 (29802) - http://www.bohemiancoding.com/sketch -->
    <title>cd-music</title>
    <desc>Created with Sketch.</desc>
    <defs></defs>
    <g id="Page-1" stroke="none" stroke-width="1" fill="none" fill-rule="evenodd" stroke-linecap="round" stroke-linejoin="round">
        <g id="cd-music" stroke="#000000" stroke-width="2">
            <g transform="translate(1.000000, 1.000000)">
                <path d="M17.0078,0.1328 C16.3508,0.0448 15.6808,-0.0002 14.9998,-0.0002 C6.7158,-0.0002 -0.0002,6.7158 -0.0002,14.9998 C-0.0002,23.2838 6.7158,29.9998 14.9998,29.9998 C23.2838,29.9998 29.9998,23.2838 29.9998,14.9998" id="Stroke-1"></path>
                <polyline id="Stroke-3" points="30 10 30 0 20 2 20 12"></polyline>
                <path d="M13.0537,10.3936 C11.2597,11.1526 9.9997,12.9286 9.9997,14.9996 C9.9997,17.7616 12.2387,19.9996 14.9997,19.9996 C17.0367,19.9996 18.7897,18.7816 19.5687,17.0336" id="Stroke-5"></path>
                <path d="M7,7 L9,9" id="Stroke-7"></path>
                <path d="M23,23 L21,21" id="Stroke-9"></path>
                <path d="M30,10 C30,8.896 29.104,8 28,8 C26.896,8 26,8.896 26,10 C26,11.104 26.896,12 28,12 C29.104,12 30,11.104 30,10 L30,10 Z" id="Stroke-11"></path>
                <path d="M20,12 C20,10.896 19.104,10 18,10 C16.896,10 16,10.896 16,12 C16,13.104 16.896,14 18,14 C19.104,14 20,13.104 20,12 L20,12 Z" id="Stroke-13"></path>
            </g>
        </g>
    </g>
</svg>