<?xml version="1.0" encoding="UTF-8" standalone="no"?>
<svg width="32px" height="32px" viewBox="0 0 32 32" version="1.1" xmlns="http://www.w3.org/2000/svg" xmlns:xlink="http://www.w3.org/1999/xlink">
    <!-- Generator: Sketch 3.8.3 (29802) - http://www.bohemiancoding.com/sketch -->
    <title>cog</title>
    <desc>Created with Sketch.</desc>
    <defs></defs>
    <g id="Page-1" stroke="none" stroke-width="1" fill="none" fill-rule="evenodd" stroke-linecap="round" stroke-linejoin="round">
        <g id="cog" stroke="#000000" stroke-width="2">
            <g transform="translate(1.000000, 1.000000)">
                <path d="M28.0557,13 C27.8977,13.001 27.7417,13.023 27.5947,13.057 L26.8757,13.057 C26.5697,11.236 25.8587,9.557 24.8297,8.112 L25.3387,7.604 C25.4637,7.525 25.5897,7.431 25.7017,7.318 C26.5067,6.516 26.5067,5.215 25.7017,4.41 C24.8997,3.607 23.5987,3.607 22.7937,4.41 C22.6827,4.523 22.5877,4.649 22.5077,4.776 L22.0007,5.283 C20.5557,4.255 19.0557,3.543 17.0557,3.236 L17.0557,2.516 C17.0557,2.372 17.1127,2.215 17.1127,2.057 C17.1127,0.92 16.1947,0 15.0557,0 C13.9207,0 13.0007,0.92 12.9987,2.057 C13.0007,2.215 13.0227,2.372 13.0557,2.519 L13.0557,3.236 C11.2347,3.543 9.5547,4.254 8.1107,5.282 L7.6027,4.774 C7.5247,4.649 7.4287,4.521 7.3177,4.41 C6.5147,3.605 5.2137,3.605 4.4097,4.41 C3.6067,5.213 3.6067,6.514 4.4097,7.318 C4.5227,7.43 4.6487,7.525 4.7757,7.605 L5.2817,8.111 C4.2527,9.556 3.5417,11.235 3.2357,13.057 L2.5147,13.057 C2.3677,13.022 2.2137,13.001 2.0557,13.001 C0.9197,13.001 -0.0003,13.921 -0.0003,15.057 C-0.0003,16.192 0.9197,17.112 2.0557,17.112 C2.2137,17.112 2.3677,17.091 2.5147,17.057 L3.2357,17.057 C3.5417,18.878 4.2537,20.558 5.2827,22.002 L4.7737,22.511 C4.6457,22.59 4.5217,22.684 4.4097,22.795 C3.6067,23.599 3.6067,24.899 4.4097,25.703 C5.2127,26.506 6.5137,26.506 7.3177,25.703 C7.4287,25.591 7.5227,25.467 7.6017,25.339 L8.1107,24.83 C9.5547,25.858 11.2347,26.57 13.0557,26.877 L13.0557,27.599 C13.0207,27.744 12.9987,27.898 12.9987,28.057 C12.9987,29.193 13.9187,30.113 15.0557,30.113 C16.1917,30.112 17.1107,29.193 17.1127,28.057 C17.1117,27.898 17.0887,27.744 17.0557,27.598 L17.0557,26.877 C18.8767,26.57 20.5567,25.859 22.0007,24.831 L22.5097,25.34 C22.5867,25.467 22.6817,25.592 22.7937,25.703 C23.5967,26.508 24.8977,26.508 25.7017,25.703 C26.5047,24.9 26.5047,23.6 25.7017,22.795 C25.5897,22.684 25.4637,22.59 25.3367,22.51 L24.8287,22.002 C25.8577,20.557 26.5697,19.057 26.8757,17.057 L27.5977,17.057 C27.7417,17.057 27.8977,17.113 28.0557,17.113 C29.1927,17.115 30.1127,16.195 30.1127,15.057 C30.1127,13.922 29.1927,13.002 28.0557,13 L28.0557,13 Z" id="Stroke-1"></path>
                <path d="M18.0557,15.0567 C18.0557,13.3997 16.7127,12.0567 15.0557,12.0567 C13.3987,12.0567 12.0557,13.3997 12.0557,15.0567 C12.0557,16.7137 13.3987,18.0567 15.0557,18.0567 C16.7127,18.0567 18.0557,16.7137 18.0557,15.0567 L18.0557,15.0567 Z" id="Stroke-3"></path>
            </g>
        </g>
    </g>
</svg>