<?xml version="1.0" encoding="UTF-8" standalone="no"?>
<svg width="32px" height="32px" viewBox="0 0 32 32" version="1.1" xmlns="http://www.w3.org/2000/svg" xmlns:xlink="http://www.w3.org/1999/xlink">
    <!-- Generator: Sketch 3.8.3 (29802) - http://www.bohemiancoding.com/sketch -->
    <title>comment</title>
    <desc>Created with Sketch.</desc>
    <defs></defs>
    <g id="Page-1" stroke="none" stroke-width="1" fill="none" fill-rule="evenodd" stroke-linecap="round" stroke-linejoin="round">
        <g id="comment" stroke="#000000" stroke-width="2">
            <g transform="translate(1.000000, 1.000000)">
                <path d="M21,22 L28,29 C29.609,30.609 30,30 30,29 L30,1 C30,0.447 29.553,0 29,0 L1,0 C0.447,0 0,0.447 0,1 L0,23 C0,23.553 0.447,24 1,24 L19,24" id="Stroke-1"></path>
                <path d="M16,11.9912 C16,11.4382 15.553,10.9912 15,10.9912 C14.447,10.9912 14,11.4382 14,11.9912 C14,12.5442 14.447,12.9912 15,12.9912 C15.553,12.9912 16,12.5442 16,11.9912 L16,11.9912 Z" id="Stroke-3"></path>
                <path d="M22,11.9912 C22,11.4382 21.553,10.9912 21,10.9912 C20.447,10.9912 20,11.4382 20,11.9912 C20,12.5442 20.447,12.9912 21,12.9912 C21.553,12.9912 22,12.5442 22,11.9912 L22,11.9912 Z" id="Stroke-5"></path>
                <path d="M10,11.9912 C10,11.4382 9.553,10.9912 9,10.9912 C8.447,10.9912 8,11.4382 8,11.9912 C8,12.5442 8.447,12.9912 9,12.9912 C9.553,12.9912 10,12.5442 10,11.9912 L10,11.9912 Z" id="Stroke-7"></path>
            </g>
        </g>
    </g>
</svg>