<?xml version="1.0" encoding="UTF-8" standalone="no"?>
<svg width="32px" height="32px" viewBox="0 0 32 32" version="1.1" xmlns="http://www.w3.org/2000/svg" xmlns:xlink="http://www.w3.org/1999/xlink">
    <!-- Generator: Sketch 3.8.3 (29802) - http://www.bohemiancoding.com/sketch -->
    <title>credit-card</title>
    <desc>Created with Sketch.</desc>
    <defs></defs>
    <g id="Page-1" stroke="none" stroke-width="1" fill="none" fill-rule="evenodd" stroke-linecap="round" stroke-linejoin="round">
        <g id="credit-card" stroke="#000000" stroke-width="2">
            <g transform="translate(1.000000, 1.000000)">
                <path d="M24,8 L24,29 C24,29.553 23.553,30 23,30 L7,30 C6.447,30 6,29.553 6,29 L6,8" id="Stroke-1"></path>
                <path d="M4,8 L26,8" id="Stroke-3"></path>
                <path d="M12,24 L12,22" id="Stroke-5"></path>
                <path d="M12,18 L12,12" id="Stroke-7"></path>
                <path d="M2,12 L1,12 C0.447,12 0,11.553 0,11 L0,1 C0,0.447 0.447,0 1,0 L29,0 C29.553,0 30,0.447 30,1 L30,11 C30,11.553 29.553,12 29,12 L28,12" id="Stroke-9"></path>
            </g>
        </g>
    </g>
</svg>