<?xml version="1.0" encoding="UTF-8" standalone="no"?>
<svg width="32px" height="32px" viewBox="0 0 32 32" version="1.1" xmlns="http://www.w3.org/2000/svg" xmlns:xlink="http://www.w3.org/1999/xlink">
    <!-- Generator: Sketch 3.8.3 (29802) - http://www.bohemiancoding.com/sketch -->
    <title>drink-tea</title>
    <desc>Created with Sketch.</desc>
    <defs></defs>
    <g id="Page-1" stroke="none" stroke-width="1" fill="none" fill-rule="evenodd" stroke-linecap="round" stroke-linejoin="round">
        <g id="drink-tea" stroke="#000000" stroke-width="2">
            <g transform="translate(1.000000, 2.000000)">
                <path d="M21,8 C21,8 20,7 20,6 C20,5 21,4 21,4 C21,4 22,3 22,2 C22,1 21,0 21,0" id="Stroke-1"></path>
                <path d="M16,8 C16,8 15,7 15,6 C15,5 16,4 16,4 C16,4 17,3 17,2 C17,1 16,0 16,0" id="Stroke-3"></path>
                <path d="M10,29 L26,29" id="Stroke-5"></path>
                <path d="M5,20.0029 C5,20.0029 5,19.9999 4,19.9999 C1.791,19.9999 0,18.2089 0,15.9999 C0,13.7909 1.791,11.9999 4,11.9999 L29,11.9999 C29.386,11.9999 30,11.9999 30,12.9999 C30,19.6269 24.627,24.9999 18,24.9999 C12.054,24.9999 7.117,20.6739 6.166,14.9979" id="Stroke-7"></path>
            </g>
        </g>
    </g>
</svg>