<?xml version="1.0" encoding="UTF-8" standalone="no"?>
<svg width="32px" height="32px" viewBox="0 0 32 32" version="1.1" xmlns="http://www.w3.org/2000/svg" xmlns:xlink="http://www.w3.org/1999/xlink">
    <!-- Generator: Sketch 3.8.3 (29802) - http://www.bohemiancoding.com/sketch -->
    <title>explosion</title>
    <desc>Created with Sketch.</desc>
    <defs></defs>
    <g id="Page-1" stroke="none" stroke-width="1" fill="none" fill-rule="evenodd" stroke-linecap="round" stroke-linejoin="round">
        <g id="explosion" stroke="#000000" stroke-width="2">
            <g transform="translate(1.000000, 1.000000)">
                <path d="M21.4346,3.2617 C20.4546,3.5917 19.6076,4.2127 19.0006,5.0287" id="Stroke-1"></path>
                <path d="M10.999,5.0283 C10.393,4.2133 9.546,3.5913 8.557,3.2723" id="Stroke-3"></path>
                <path d="M10,22 C10,22 11,23 11,25 C11,29 9,30 9,30" id="Stroke-5"></path>
                <path d="M20,22 C20,22 19,23 19,25 C19,29 21,30 21,30" id="Stroke-7"></path>
                <path d="M15,29.9902 L15,23.9902" id="Stroke-9"></path>
                <path d="M27.0078,16.873 C28.7288,16.426 29.9998,14.861 29.9998,13 C29.9998,11.431 29.0878,10.086 27.7728,9.432 C27.9118,8.977 27.9998,8.501 27.9998,8 C27.9998,5.24 25.7598,3 22.9998,3 C22.4528,3 21.9368,3.109 21.4438,3.272 C19.9868,1.291 17.6478,0 14.9998,0 C12.3528,0 10.0128,1.291 8.5568,3.272 C8.0638,3.109 7.5468,3 6.9998,3 C4.2398,3 1.9998,5.24 1.9998,8 C1.9998,8.501 2.0878,8.977 2.2278,9.432 C0.9118,10.086 -0.0002,11.431 -0.0002,13 C-0.0002,14.868 1.2808,16.437 3.0118,16.877" id="Stroke-11"></path>
                <path d="M6.0781,16.4033 C7.1601,17.9663 8.9551,19.0003 11.0001,19.0003 C12.5381,19.0003 13.9371,18.4153 15.0001,17.4623 C16.0611,18.4153 17.4611,19.0003 19.0001,19.0003 C21.0451,19.0003 22.8401,17.9673 23.9221,16.4033" id="Stroke-13"></path>
            </g>
        </g>
    </g>
</svg>