<?xml version="1.0" encoding="UTF-8" standalone="no"?>
<svg width="32px" height="32px" viewBox="0 0 32 32" version="1.1" xmlns="http://www.w3.org/2000/svg" xmlns:xlink="http://www.w3.org/1999/xlink">
    <!-- Generator: Sketch 3.8.3 (29802) - http://www.bohemiancoding.com/sketch -->
    <title>eye-closed</title>
    <desc>Created with Sketch.</desc>
    <defs></defs>
    <g id="Page-1" stroke="none" stroke-width="1" fill="none" fill-rule="evenodd" stroke-linecap="round" stroke-linejoin="round">
        <g id="eye-closed" stroke="#000000" stroke-width="2">
            <g transform="translate(1.000000, 3.000000)">
                <path d="M30,11 C30,13 25,22 15,22 C5,22 0,13 0,11 C0,9 5,0 15,0 C25,0 30,9 30,11 L30,11 Z" id="Stroke-1"></path>
                <path d="M15.001,26 L15.001,22" id="Stroke-3"></path>
                <path d="M9.8232,25.3184 L10.8592,21.4554" id="Stroke-5"></path>
                <path d="M4.999,23.3203 L7,19.8573" id="Stroke-7"></path>
                <path d="M0.8574,20.1426 L3.6854,17.3156" id="Stroke-9"></path>
                <path d="M20.1768,25.3184 L19.1418,21.4554" id="Stroke-11"></path>
                <path d="M25,23.3203 L23,19.8563" id="Stroke-13"></path>
                <path d="M29.1416,20.1426 L26.3136,17.3146" id="Stroke-15"></path>
            </g>
        </g>
    </g>
</svg>