<?xml version="1.0" encoding="UTF-8" standalone="no"?>
<svg width="32px" height="32px" viewBox="0 0 32 32" version="1.1" xmlns="http://www.w3.org/2000/svg" xmlns:xlink="http://www.w3.org/1999/xlink">
    <!-- Generator: Sketch 3.8.3 (29802) - http://www.bohemiancoding.com/sketch -->
    <title>eye-open</title>
    <desc>Created with Sketch.</desc>
    <defs></defs>
    <g id="Page-1" stroke="none" stroke-width="1" fill="none" fill-rule="evenodd" stroke-linecap="round" stroke-linejoin="round">
        <g id="eye-open" stroke="#000000" stroke-width="2">
            <g transform="translate(1.000000, 3.000000)">
                <path d="M17.001,15 C17.001,13.896 16.105,13 15.001,13 C13.897,13 13.001,13.896 13.001,15 C13.001,16.104 13.897,17 15.001,17 C16.105,17 17.001,16.104 17.001,15 L17.001,15 Z" id="Stroke-1"></path>
                <path d="M3.001,18 C4.001,21 7.001,26 15.001,26 C23.001,26 26.001,21 27.001,18" id="Stroke-3"></path>
                <path d="M30,16 C30,14 26.001,4 15,4 C4.001,4 0,14 0,16" id="Stroke-5"></path>
                <path d="M15,0 L15,4" id="Stroke-7"></path>
                <path d="M20.1758,0.6816 L19.1758,4.4106" id="Stroke-9"></path>
                <path d="M25,2.6797 L22.999,6.1427" id="Stroke-11"></path>
                <path d="M29.1416,5.8574 L26.3136,8.6844" id="Stroke-13"></path>
                <path d="M9.8223,0.6816 L10.8213,4.4106" id="Stroke-15"></path>
                <path d="M4.999,2.6797 L6.999,6.1437" id="Stroke-17"></path>
                <path d="M0.8574,5.8574 L3.6854,8.6854" id="Stroke-19"></path>
                <path d="M15.001,9 C11.688,9 9.001,11.687 9.001,15 C9.001,18.313 11.688,21 15.001,21 C18.314,21 21.001,18.313 21.001,15" id="Stroke-21"></path>
                <path d="M20.2441,12.0869 C19.7001,11.1089 18.8911,10.3009 17.9141,9.7569" id="Stroke-23"></path>
            </g>
        </g>
    </g>
</svg>