<?xml version="1.0" encoding="UTF-8" standalone="no"?>
<svg width="32px" height="32px" viewBox="0 0 32 32" version="1.1" xmlns="http://www.w3.org/2000/svg" xmlns:xlink="http://www.w3.org/1999/xlink">
    <!-- Generator: Sketch 3.8.3 (29802) - http://www.bohemiancoding.com/sketch -->
    <title>file-upload</title>
    <desc>Created with Sketch.</desc>
    <defs></defs>
    <g id="Page-1" stroke="none" stroke-width="1" fill="none" fill-rule="evenodd" stroke-linecap="round" stroke-linejoin="round">
        <g id="file-upload" stroke="#000000" stroke-width="2">
            <g transform="translate(1.000000, 1.000000)">
                <path d="M26,15 L26,10 C26,10 26,9 25,8 L18,1 C17,0 16,0 16,0 L1,0 C1,0 0,0 0,1 L0,29 C0,29 0,30 1,30 L17,30" id="Stroke-1"></path>
                <path d="M16,0 L16,9 C16,9 16,10 17,10 L22,10" id="Stroke-3"></path>
                <path d="M30,24 C30,20.687 27.313,18 24,18 C20.687,18 18,20.687 18,24 C18,27.313 20.687,30 24,30 C27.313,30 30,27.313 30,24 L30,24 Z" id="Stroke-5"></path>
                <polyline id="Stroke-7" points="22 24 24 22 26 24"></polyline>
                <path d="M24,26 L24,22" id="Stroke-9"></path>
            </g>
        </g>
    </g>
</svg>