<?xml version="1.0" encoding="UTF-8" standalone="no"?>
<svg width="32px" height="32px" viewBox="0 0 32 32" version="1.1" xmlns="http://www.w3.org/2000/svg" xmlns:xlink="http://www.w3.org/1999/xlink">
    <!-- Generator: Sketch 3.8.3 (29802) - http://www.bohemiancoding.com/sketch -->
    <title>file-text</title>
    <desc>Created with Sketch.</desc>
    <defs></defs>
    <g id="Page-1" stroke="none" stroke-width="1" fill="none" fill-rule="evenodd" stroke-linecap="round" stroke-linejoin="round">
        <g id="file-text" stroke="#000000" stroke-width="2">
            <g transform="translate(3.000000, 1.000000)">
                <path d="M1,0 C1,0 0,0 0,1 L0,29 C0,29 0,30 1,30 L25,30 C25,30 26,30 26,29 L26,10 C26,10 26,9 25,8 L18,1 C17,0 16,0 16,0 L1,0 L1,0 Z" id="Stroke-1"></path>
                <path d="M16,0 L16,9 C16,9 16,10 17,10 L22,10" id="Stroke-3"></path>
                <path d="M6,16 L12,16" id="Stroke-5"></path>
                <path d="M6,20 L20,20" id="Stroke-7"></path>
                <path d="M6,24 L20,24" id="Stroke-9"></path>
            </g>
        </g>
    </g>
</svg>