<?xml version="1.0" encoding="UTF-8" standalone="no"?>
<svg width="32px" height="32px" viewBox="0 0 32 32" version="1.1" xmlns="http://www.w3.org/2000/svg" xmlns:xlink="http://www.w3.org/1999/xlink">
    <!-- Generator: Sketch 3.8.3 (29802) - http://www.bohemiancoding.com/sketch -->
    <title>house-traditional</title>
    <desc>Created with Sketch.</desc>
    <defs></defs>
    <g id="Page-1" stroke="none" stroke-width="1" fill="none" fill-rule="evenodd" stroke-linecap="round" stroke-linejoin="round">
        <g id="house-traditional" stroke-width="2" stroke="#000000">
            <g transform="translate(1.000000, 1.000000)">
                <g id="Group-9">
                    <polygon id="Stroke-1" points="2 0 2 11 8 11 15 4 22 11 28 11 28 0"></polygon>
                    <path d="M4,14 L4,30" id="Stroke-3"></path>
                    <path d="M26,14 L26,30" id="Stroke-5"></path>
                    <path d="M0,30 L30,30" id="Stroke-7"></path>
                </g>
                <polygon id="Stroke-10" points="17 18 21 18 21 14 17 14"></polygon>
                <polygon id="Stroke-11" points="17 26 21 26 21 22 17 22"></polygon>
                <polygon id="Stroke-12" points="9 18 13 18 13 14 9 14"></polygon>
                <polygon id="Stroke-13" points="9 30 13 30 13 22 9 22"></polygon>
            </g>
        </g>
    </g>
</svg>