<?xml version="1.0" encoding="UTF-8" standalone="no"?>
<svg width="32px" height="32px" viewBox="0 0 32 32" version="1.1" xmlns="http://www.w3.org/2000/svg" xmlns:xlink="http://www.w3.org/1999/xlink">
    <!-- Generator: Sketch 3.8.3 (29802) - http://www.bohemiancoding.com/sketch -->
    <title>house-modern</title>
    <desc>Created with Sketch.</desc>
    <defs></defs>
    <g id="Page-1" stroke="none" stroke-width="1" fill="none" fill-rule="evenodd" stroke-linecap="round" stroke-linejoin="round">
        <g id="house-modern" stroke="#000000" stroke-width="2">
            <g transform="translate(1.000000, 1.000000)">
                <path d="M20,27 L20,1 C20,0.447 19.553,0 19,0 L1,0 C0.447,0 0,0.447 0,1 L0,30 L3,30 L3,18 L17,18 L17,30 L30,30 L30,16 L23,16 L23,2 L30,2" id="Stroke-1"></path>
                <path d="M7,30 L13,30" id="Stroke-3"></path>
                <path d="M7,26 L13,26" id="Stroke-5"></path>
                <path d="M7,22 L13,22" id="Stroke-7"></path>
                <polygon id="Stroke-9" points="4 12 16 12 16 6 4 6"></polygon>
                <path d="M10,6 L10,12" id="Stroke-11"></path>
                <path d="M30,10 L23,10" id="Stroke-12"></path>
                <path d="M26,16 L26,10" id="Stroke-13"></path>
                <path d="M29,16 L29,10" id="Stroke-14"></path>
            </g>
        </g>
    </g>
</svg>