<?xml version="1.0" encoding="UTF-8" standalone="no"?>
<svg width="32px" height="32px" viewBox="0 0 32 32" version="1.1" xmlns="http://www.w3.org/2000/svg" xmlns:xlink="http://www.w3.org/1999/xlink">
    <!-- Generator: Sketch 3.8.3 (29802) - http://www.bohemiancoding.com/sketch -->
    <title>inbox</title>
    <desc>Created with Sketch.</desc>
    <defs></defs>
    <g id="Page-1" stroke="none" stroke-width="1" fill="none" fill-rule="evenodd" stroke-linecap="round" stroke-linejoin="round">
        <g id="inbox" stroke="#000000" stroke-width="2">
            <g transform="translate(1.000000, 1.000000)">
                <path d="M28,8 L29,8 C30,8 30,9 30,9 L30,29 C30,29.553 29.553,30 29,30 L1.019,30 C0.466,30 0,29.553 0,29 L0,9 C0,9 0,8 1,8 L2,8" id="Stroke-1"></path>
                <path d="M5,15 L5,1 C5,0.447 5.447,0 6,0 L24,0 C24.553,0 25,0.447 25,1 L25,15" id="Stroke-3"></path>
                <path d="M10,7 L15,7" id="Stroke-5"></path>
                <path d="M10,11 L20,11" id="Stroke-7"></path>
                <path d="M3,18 L11,18 L11,20 C11,20.553 11.447,21 12,21 L19,21 C19.553,21 20,20.553 20,20 L20,18 L27,18" id="Stroke-9"></path>
            </g>
        </g>
    </g>
</svg>