<?xml version="1.0" encoding="UTF-8" standalone="no"?>
<svg width="32px" height="32px" viewBox="0 0 32 32" version="1.1" xmlns="http://www.w3.org/2000/svg" xmlns:xlink="http://www.w3.org/1999/xlink">
    <!-- Generator: Sketch 3.8.3 (29802) - http://www.bohemiancoding.com/sketch -->
    <title>international</title>
    <desc>Created with Sketch.</desc>
    <defs></defs>
    <g id="Page-1" stroke="none" stroke-width="1" fill="none" fill-rule="evenodd" stroke-linecap="round" stroke-linejoin="round">
        <g id="international" stroke="#000000" stroke-width="2">
            <g transform="translate(1.000000, 1.000000)">
                <path d="M15,30.001 C23.284,30.001 30,23.285 30,15.001 C30,6.717 23.284,0.001 15,0.001 C6.716,0.001 0,6.717 0,15.001 C0,23.285 6.716,30.001 15,30.001 L15,30.001 Z" id="Stroke-1"></path>
                <path d="M10.834,0.5879 C8.397,4.8329 7.004,9.7549 7.004,15.0009 C7.004,20.2469 8.396,25.1689 10.834,29.4139" id="Stroke-3"></path>
                <path d="M19.1699,29.4121 C21.6079,25.1681 22.9999,20.2471 22.9999,15.0011 C22.9999,9.7571 21.6069,4.8381 19.1719,0.5901" id="Stroke-5"></path>
                <path d="M26.6543,24.4395 C23.0883,22.8745 19.1473,22.0045 15.0043,22.0045 C10.8573,22.0045 6.9143,22.8765 3.3453,24.4435" id="Stroke-7"></path>
                <path d="M3.3486,5.5635 C6.9146,7.1315 10.8576,8.0015 15.0036,8.0015 C19.1486,8.0015 23.0896,7.1305 26.6586,5.5635" id="Stroke-9"></path>
                <path d="M30,15.001 L0,15.001" id="Stroke-11"></path>
                <path d="M14.999,0 L14.999,30" id="Stroke-13"></path>
            </g>
        </g>
    </g>
</svg>