<?xml version="1.0" encoding="UTF-8" standalone="no"?>
<svg width="32px" height="32px" viewBox="0 0 32 32" version="1.1" xmlns="http://www.w3.org/2000/svg" xmlns:xlink="http://www.w3.org/1999/xlink">
    <!-- Generator: Sketch 3.8.3 (29802) - http://www.bohemiancoding.com/sketch -->
    <title>location-1</title>
    <desc>Created with Sketch.</desc>
    <defs></defs>
    <g id="Page-1" stroke="none" stroke-width="1" fill="none" fill-rule="evenodd" stroke-linecap="round" stroke-linejoin="round">
        <g id="location-1" stroke="#000000" stroke-width="2">
            <g transform="translate(5.000000, 1.000000)">
                <path d="M14,27 C18,23 22,16.447 22,11 C22,4.925 17.075,0 11,0 C4.925,0 0,4.925 0,11 C0,20 11,30 11,30" id="Stroke-1"></path>
                <path d="M16,11 C16,8.238 13.762,6 11,6 C8.238,6 6,8.238 6,11 C6,13.762 8.238,16 11,16 C13.762,16 16,13.762 16,11 L16,11 Z" id="Stroke-3"></path>
                <path d="M0,30 L22,30" id="Stroke-5"></path>
            </g>
        </g>
    </g>
</svg>