<?xml version="1.0" encoding="UTF-8" standalone="no"?>
<svg width="32px" height="32px" viewBox="0 0 32 32" version="1.1" xmlns="http://www.w3.org/2000/svg" xmlns:xlink="http://www.w3.org/1999/xlink">
    <!-- Generator: Sketch 3.8.3 (29802) - http://www.bohemiancoding.com/sketch -->
    <title>lock-unlocked</title>
    <desc>Created with Sketch.</desc>
    <defs></defs>
    <g id="Page-1" stroke="none" stroke-width="1" fill="none" fill-rule="evenodd" stroke-linecap="round" stroke-linejoin="round">
        <g id="lock-unlocked" stroke="#000000" stroke-width="2">
            <g transform="translate(1.000000, 1.000000)">
                <path d="M15,20 L15,22" id="Stroke-1"></path>
                <g id="Group-6">
                    <path d="M16,19 C16,18.447 15.553,18 15,18 C14.447,18 14,18.447 14,19 C14,19.553 14.447,20 15,20 C15.553,20 16,19.553 16,19 L16,19 Z" id="Stroke-2"></path>
                    <path d="M0,8 L0,5 C0,2.238 2.238,0 5,0 C7.762,0 10,2.238 10,5 L10,12 L25,12 C25.594,12 26,12.469 26,13 L26,19 C26,25.075 21.075,30 15,30 C8.925,30 4,25.075 4,19 L4,13 C4,12.437 4.453,12 5,12 L7,12" id="Stroke-4"></path>
                </g>
            </g>
        </g>
    </g>
</svg>