<?xml version="1.0" encoding="UTF-8" standalone="no"?>
<svg width="32px" height="32px" viewBox="0 0 32 32" version="1.1" xmlns="http://www.w3.org/2000/svg" xmlns:xlink="http://www.w3.org/1999/xlink">
    <!-- Generator: Sketch 3.8.3 (29802) - http://www.bohemiancoding.com/sketch -->
    <title>lock</title>
    <desc>Created with Sketch.</desc>
    <defs></defs>
    <g id="Page-1" stroke="none" stroke-width="1" fill="none" fill-rule="evenodd" stroke-linecap="round" stroke-linejoin="round">
        <g id="lock" stroke="#000000" stroke-width="2">
            <g transform="translate(5.000000, 1.000000)">
                <path d="M11,20 L11,22" id="Stroke-1"></path>
                <g id="Group-6">
                    <path d="M12,19 C12,18.447 11.553,18 11,18 C10.447,18 10,18.447 10,19 C10,19.553 10.447,20 11,20 C11.553,20 12,19.553 12,19 L12,19 Z" id="Stroke-2"></path>
                    <path d="M13,12 L6,12 L6,5 C6,2.238 8.238,0 11,0 C13.762,0 16,2.238 16,5 L16,12 L21,12 C21.594,12 22,12.469 22,13 L22,19 C22,25.075 17.075,30 11,30 C4.925,30 0,25.075 0,19 L0,13 C0,12.437 0.453,12 1,12 L3,12" id="Stroke-4"></path>
                </g>
            </g>
        </g>
    </g>
</svg>