<?xml version="1.0" encoding="UTF-8" standalone="no"?>
<svg width="32px" height="32px" viewBox="0 0 32 32" version="1.1" xmlns="http://www.w3.org/2000/svg" xmlns:xlink="http://www.w3.org/1999/xlink">
    <!-- Generator: Sketch 3.8.3 (29802) - http://www.bohemiancoding.com/sketch -->
    <title>magnifier</title>
    <desc>Created with Sketch.</desc>
    <defs></defs>
    <g id="Page-1" stroke="none" stroke-width="1" fill="none" fill-rule="evenodd" stroke-linecap="round" stroke-linejoin="round">
        <g id="magnifier" stroke="#000000" stroke-width="2">
            <g transform="translate(1.000000, 1.000000)">
                <path d="M20.4326,24.6767 L25.2926,29.5347 C25.6836,29.9257 26.3166,29.9257 26.7066,29.5347 L29.5356,26.7067 C29.9256,26.3167 29.9256,25.6837 29.5356,25.2927 L22.3336,18.0917 C22.3336,18.0917 23.9996,14.6557 23.9996,11.9997 C23.9996,5.3727 18.6266,-0.0003 11.9996,-0.0003 C5.3726,-0.0003 -0.0004,5.3727 -0.0004,11.9997 C-0.0004,18.6267 5.3726,23.9997 11.9996,23.9997 C15.3066,23.9997 18.2996,22.6627 20.4696,20.4997" id="Stroke-1"></path>
                <path d="M6,10 L18,10" id="Stroke-3"></path>
                <path d="M6,14 L11,14" id="Stroke-5"></path>
            </g>
        </g>
    </g>
</svg>