<?xml version="1.0" encoding="UTF-8" standalone="no"?>
<svg width="32px" height="32px" viewBox="0 0 32 32" version="1.1" xmlns="http://www.w3.org/2000/svg" xmlns:xlink="http://www.w3.org/1999/xlink">
    <!-- Generator: Sketch 3.8.3 (29802) - http://www.bohemiancoding.com/sketch -->
    <title>mail-full</title>
    <desc>Created with Sketch.</desc>
    <defs></defs>
    <g id="Page-1" stroke="none" stroke-width="1" fill="none" fill-rule="evenodd" stroke-linecap="round" stroke-linejoin="round">
        <g id="mail-full" stroke="#000000" stroke-width="2">
            <g transform="translate(1.000000, 1.000000)">
                <path d="M27.999,7.416 L29,8 C29.562,8.328 30,8.447 30,9 L30,29 C30,29.553 29.553,30 29,30 L1,30 C0.447,30 0,29.553 0,29 L0,9 C0,8.664 0.359,8.375 1,8 L1.981,7.378" id="Stroke-1"></path>
                <path d="M3,11 L14,22 C14.834,22.834 15.167,22.833 16,22 L27,11" id="Stroke-3"></path>
                <path d="M8.5,21.5 L3,27" id="Stroke-5"></path>
                <path d="M27,27 L21.5,21.5" id="Stroke-7"></path>
                <path d="M5,13 L5,1 C5,0.447 5.447,0 6,0 L24,0 C24.553,0 25,0.447 25,1 L25,13" id="Stroke-9"></path>
                <path d="M10,7 L20,7" id="Stroke-11"></path>
                <path d="M10,11 L20,11" id="Stroke-13"></path>
            </g>
        </g>
    </g>
</svg>