<?xml version="1.0" encoding="UTF-8" standalone="no"?>
<svg width="32px" height="32px" viewBox="0 0 32 32" version="1.1" xmlns="http://www.w3.org/2000/svg" xmlns:xlink="http://www.w3.org/1999/xlink">
    <!-- Generator: Sketch 3.8.3 (29802) - http://www.bohemiancoding.com/sketch -->
    <title>mail-back</title>
    <desc>Created with Sketch.</desc>
    <defs></defs>
    <g id="Page-1" stroke="none" stroke-width="1" fill="none" fill-rule="evenodd" stroke-linecap="round" stroke-linejoin="round">
        <g id="mail-back" stroke="#000000" stroke-width="2">
            <g transform="translate(1.000000, 9.000000)">
                <path d="M30,21 C30,21.553 29.553,22 29,22 L1,22 C0.447,22 0,21.553 0,21 L0,1 C0,0.447 0.447,0 1,0 L29,0 C29.553,0 30,0.447 30,1 L30,21 L30,21 Z" id="Stroke-1"></path>
                <path d="M25,7 C25,5.896 24.104,5 23,5 C21.896,5 21,5.896 21,7 C21,8.104 21.896,9 23,9 C24.104,9 25,8.104 25,7 L25,7 Z" id="Stroke-3"></path>
                <path d="M6,12 L11,12" id="Stroke-5"></path>
                <path d="M6,16 L18,16" id="Stroke-7"></path>
            </g>
        </g>
    </g>
</svg>