<?xml version="1.0" encoding="UTF-8" standalone="no"?>
<svg width="32px" height="32px" viewBox="0 0 32 32" version="1.1" xmlns="http://www.w3.org/2000/svg" xmlns:xlink="http://www.w3.org/1999/xlink">
    <!-- Generator: Sketch 3.8.3 (29802) - http://www.bohemiancoding.com/sketch -->
    <title>mail-send</title>
    <desc>Created with Sketch.</desc>
    <defs></defs>
    <g id="Page-1" stroke="none" stroke-width="1" fill="none" fill-rule="evenodd" stroke-linecap="round" stroke-linejoin="round">
        <g id="mail-send" stroke="#000000" stroke-width="2">
            <g transform="translate(1.000000, 1.000000)">
                <path d="M23.001,26.0054 L30.001,26.0054" id="Stroke-1"></path>
                <path d="M28.001,22.0054 L30.001,22.0054" id="Stroke-3"></path>
                <path d="M29.7207,12.7544 C30.1117,13.1454 30.0997,13.7664 29.7087,14.1564 L14.1527,29.7134 C13.7617,30.1044 13.1247,30.1004 12.7347,29.7094 L0.2817,17.2564 C-0.1093,16.8654 -0.0853,16.0754 0.3057,15.6854 L15.8807,0.3284 C16.2717,-0.0616 16.8377,-0.1286 17.2287,0.2624 L29.7207,12.7544 L29.7207,12.7544 Z" id="Stroke-5"></path>
                <path d="M5.001,17.0054 L16.001,17.0054 C16.532,17.0054 17.001,16.5684 17.001,16.0054 L17.001,6.0054" id="Stroke-7"></path>
                <path d="M13.001,21.0054 L13.001,24.0054" id="Stroke-9"></path>
                <path d="M24.001,13.0054 L21.001,13.0054" id="Stroke-11"></path>
            </g>
        </g>
    </g>
</svg>