<?xml version="1.0" encoding="UTF-8" standalone="no"?>
<svg width="32px" height="32px" viewBox="0 0 32 32" version="1.1" xmlns="http://www.w3.org/2000/svg" xmlns:xlink="http://www.w3.org/1999/xlink">
    <!-- Generator: Sketch 3.8.3 (29802) - http://www.bohemiancoding.com/sketch -->
    <title>money</title>
    <desc>Created with Sketch.</desc>
    <defs></defs>
    <g id="Page-1" stroke="none" stroke-width="1" fill="none" fill-rule="evenodd" stroke-linecap="round" stroke-linejoin="round">
        <g id="money" stroke="#000000" stroke-width="2">
            <g transform="translate(1.000000, 1.000000)">
                <path d="M22,19 C22,12.926 17.074,8 11,8 C4.926,8 0,12.926 0,19 C0,25.074 4.926,30 11,30 C17.074,30 22,25.074 22,19 L22,19 Z" id="Stroke-1"></path>
                <path d="M14,16 C14,14.343 12.657,13 11,13 C9.343,13 8,14.343 8,16 C8,17.657 9.343,19 11,19 C12.657,19 14,20.343 14,22 C14,23.657 12.657,25 11,25 C9.343,25 8,23.657 8,22" id="Stroke-3"></path>
                <path d="M11,12 L11,13" id="Stroke-5"></path>
                <path d="M11,25 L11,26" id="Stroke-7"></path>
                <polyline id="Stroke-9" points="21 30 30 30 30 28"></polyline>
                <polyline id="Stroke-11" points="24 25 30 25 30 23"></polyline>
                <polyline id="Stroke-13" points="25 20 30 20 30 18"></polyline>
                <polyline id="Stroke-15" points="25 15 30 15 30 13"></polyline>
                <polyline id="Stroke-17" points="22 10 30 10 30 8"></polyline>
                <polyline id="Stroke-19" points="9 5 30 5 30 0 6 0 6 5"></polyline>
            </g>
        </g>
    </g>
</svg>