<?xml version="1.0" encoding="UTF-8" standalone="no"?>
<svg width="32px" height="32px" viewBox="0 0 32 32" version="1.1" xmlns="http://www.w3.org/2000/svg" xmlns:xlink="http://www.w3.org/1999/xlink">
    <!-- Generator: Sketch 3.8.3 (29802) - http://www.bohemiancoding.com/sketch -->
    <title>newspaper</title>
    <desc>Created with Sketch.</desc>
    <defs></defs>
    <g id="Page-1" stroke="none" stroke-width="1" fill="none" fill-rule="evenodd" stroke-linecap="round" stroke-linejoin="round">
        <g id="newspaper" stroke="#000000" stroke-width="2">
            <g transform="translate(1.000000, 1.000000)">
                <path d="M6,24 L6,1.005 C6,1.005 6,0 7,0 L29,0 C29,0 30,0.005 30,1.005 L30,27.005 C30,27.005 30,30 27,30 L3,30 C3,30 0,30.005 0,26.005 L0,11.005 C0,11.005 0,10 1,10 L3,10" id="Stroke-1"></path>
                <path d="M12,18 L16,18" id="Stroke-3"></path>
                <path d="M20,18 L24,18" id="Stroke-5"></path>
                <path d="M12,22 L16,22" id="Stroke-7"></path>
                <path d="M20,22 L24,22" id="Stroke-9"></path>
                <path d="M24,13 C24,13.552 23.552,14 23,14 L13,14 C12.448,14 12,13.552 12,13 L12,7 C12,6.448 12.448,6 13,6 L23,6 C23.552,6 24,6.448 24,7 L24,13 L24,13 Z" id="Stroke-11"></path>
            </g>
        </g>
    </g>
</svg>