<?xml version="1.0" encoding="UTF-8" standalone="no"?>
<svg width="32px" height="32px" viewBox="0 0 32 32" version="1.1" xmlns="http://www.w3.org/2000/svg" xmlns:xlink="http://www.w3.org/1999/xlink">
    <!-- Generator: Sketch 3.8.3 (29802) - http://www.bohemiancoding.com/sketch -->
    <title>note</title>
    <desc>Created with Sketch.</desc>
    <defs></defs>
    <g id="Page-1" stroke="none" stroke-width="1" fill="none" fill-rule="evenodd" stroke-linecap="round" stroke-linejoin="round">
        <g id="note" stroke="#000000" stroke-width="2">
            <g transform="translate(3.000000, 1.000000)">
                <path d="M21,3 L25,3 C25.553,3 26,3.447 26,4 L26,29 C26,29.553 25.553,30 25,30 L1,30 C0.447,30 0,29.553 0,29 L0,4 C0,3.447 0.447,3 1,3 L2,3" id="Stroke-1"></path>
                <path d="M9,5 C9,5.553 8.553,6 8,6 L6,6 C5.447,6 5,5.553 5,5 L5,1 C5,0.447 5.447,0 6,0 L8,0 C8.553,0 9,0.447 9,1 L9,5 L9,5 Z" id="Stroke-3"></path>
                <path d="M21,5 C21,5.553 20.553,6 20,6 L18,6 C17.447,6 17,5.553 17,5 L17,1 C17,0.447 17.447,0 18,0 L20,0 C20.553,0 21,0.447 21,1 L21,5 L21,5 Z" id="Stroke-5"></path>
                <path d="M9,3 L14,3" id="Stroke-7"></path>
                <path d="M6,14 L13,14" id="Stroke-9"></path>
                <path d="M6,18 L20,18" id="Stroke-11"></path>
                <path d="M6,22 L20,22" id="Stroke-13"></path>
            </g>
        </g>
    </g>
</svg>