<?xml version="1.0" encoding="UTF-8" standalone="no"?>
<svg width="32px" height="32px" viewBox="0 0 32 32" version="1.1" xmlns="http://www.w3.org/2000/svg" xmlns:xlink="http://www.w3.org/1999/xlink">
    <!-- Generator: Sketch 3.8.3 (29802) - http://www.bohemiancoding.com/sketch -->
    <title>off-grid</title>
    <desc>Created with Sketch.</desc>
    <defs></defs>
    <g id="Page-1" stroke="none" stroke-width="1" fill="none" fill-rule="evenodd" stroke-linecap="round" stroke-linejoin="round">
        <g id="off-grid" stroke="#000000" stroke-width="2">
            <g transform="translate(1.000000, 0.000000)">
                <path d="M7,25.9995 C7,24.8955 6.104,23.9995 5,23.9995 L2,23.9995 C0.896,23.9995 0,24.8955 0,25.9995 L0,28.9995 C0,30.1035 0.896,30.9995 2,30.9995 L5,30.9995 C6.104,30.9995 7,30.1035 7,28.9995 L7,25.9995 L7,25.9995 Z" id="Stroke-1"></path>
                <path d="M18,25.9995 C18,24.8955 17.104,23.9995 16,23.9995 L13,23.9995 C11.896,23.9995 11,24.8955 11,25.9995 L11,28.9995 C11,30.1035 11.896,30.9995 13,30.9995 L16,30.9995 C17.104,30.9995 18,30.1035 18,28.9995 L18,25.9995 L18,25.9995 Z" id="Stroke-3"></path>
                <path d="M29,25.9995 C29,24.8955 28.104,23.9995 27,23.9995 L24,23.9995 C22.896,23.9995 22,24.8955 22,25.9995 L22,28.9995 C22,30.1035 22.896,30.9995 24,30.9995 L27,30.9995 C28.104,30.9995 29,30.1035 29,28.9995 L29,25.9995 L29,25.9995 Z" id="Stroke-5"></path>
                <path d="M7,14.9995 C7,13.8955 6.104,12.9995 5,12.9995 L2,12.9995 C0.896,12.9995 0,13.8955 0,14.9995 L0,17.9995 C0,19.1035 0.896,19.9995 2,19.9995 L5,19.9995 C6.104,19.9995 7,19.1035 7,17.9995 L7,14.9995 L7,14.9995 Z" id="Stroke-7"></path>
                <path d="M18,14.9995 C18,13.8955 17.104,12.9995 16,12.9995 L13,12.9995 C11.896,12.9995 11,13.8955 11,14.9995 L11,17.9995 C11,19.1035 11.896,19.9995 13,19.9995 L16,19.9995 C17.104,19.9995 18,19.1035 18,17.9995 L18,14.9995 L18,14.9995 Z" id="Stroke-9"></path>
                <path d="M29,14.9995 C29,13.8955 28.104,12.9995 27,12.9995 L24,12.9995 C22.896,12.9995 22,13.8955 22,14.9995 L22,17.9995 C22,19.1035 22.896,19.9995 24,19.9995 L27,19.9995 C28.104,19.9995 29,19.1035 29,17.9995 L29,14.9995 L29,14.9995 Z" id="Stroke-11"></path>
                <path d="M7,3.9995 C7,2.8955 6.104,1.9995 5,1.9995 L2,1.9995 C0.896,1.9995 0,2.8955 0,3.9995 L0,6.9995 C0,8.1035 0.896,8.9995 2,8.9995 L5,8.9995 C6.104,8.9995 7,8.1035 7,6.9995 L7,3.9995 L7,3.9995 Z" id="Stroke-13"></path>
                <path d="M18,3.9995 C18,2.8955 17.104,1.9995 16,1.9995 L13,1.9995 C11.896,1.9995 11,2.8955 11,3.9995 L11,6.9995 C11,8.1035 11.896,8.9995 13,8.9995 L16,8.9995 C17.104,8.9995 18,8.1035 18,6.9995 L18,3.9995 L18,3.9995 Z" id="Stroke-15"></path>
                <path d="M28.999,2.7681 L26.401,1.2681 C25.444,0.7151 24.222,1.0431 23.669,1.9991 L22.169,4.5981 C21.616,5.5541 21.944,6.7781 22.901,7.3301 L25.499,8.8301 C26.456,9.3811 27.679,9.0541 28.231,8.0981 L29.731,5.4991 C30.283,4.5431 29.956,3.3201 28.999,2.7681 L28.999,2.7681 Z" id="Stroke-17"></path>
            </g>
        </g>
    </g>
</svg>