<?xml version="1.0" encoding="UTF-8" standalone="no"?>
<svg width="32px" height="32px" viewBox="0 0 32 32" version="1.1" xmlns="http://www.w3.org/2000/svg" xmlns:xlink="http://www.w3.org/1999/xlink">
    <!-- Generator: Sketch 3.8.3 (29802) - http://www.bohemiancoding.com/sketch -->
    <title>paper-ruler</title>
    <desc>Created with Sketch.</desc>
    <defs></defs>
    <g id="Page-1" stroke="none" stroke-width="1" fill="none" fill-rule="evenodd" stroke-linecap="round" stroke-linejoin="round">
        <g id="paper-ruler" stroke="#000000" stroke-width="2">
            <g transform="translate(1.000000, 1.000000)">
                <path d="M20,0 L20,9 C20,9 20,10 21,10 L25,10" id="Stroke-1"></path>
                <path d="M0,30 L0,0.977 C0,0.424 0.447,0 1,0 L13,0 C13.553,0 14,0.424 14,0.977 L14,29.977 L14,30 L29,30 C29,30 30,30 30,29 L30,10 C30,10 30,9 29,8 L22,1 C21,0 20,0 20,0 L17,0" id="Stroke-3"></path>
                <path d="M8,6 L14,6" id="Stroke-5"></path>
                <path d="M8,22 L14,22" id="Stroke-7"></path>
                <path d="M11,10 L14,10" id="Stroke-9"></path>
                <path d="M11,14 L14,14" id="Stroke-11"></path>
                <path d="M11,18 L14,18" id="Stroke-13"></path>
                <path d="M11,26 L14,26" id="Stroke-15"></path>
                <path d="M11,30 L14,30" id="Stroke-17"></path>
            </g>
        </g>
    </g>
</svg>