<?xml version="1.0" encoding="UTF-8" standalone="no"?>
<svg width="32px" height="32px" viewBox="0 0 32 32" version="1.1" xmlns="http://www.w3.org/2000/svg" xmlns:xlink="http://www.w3.org/1999/xlink">
    <!-- Generator: Sketch 3.8.3 (29802) - http://www.bohemiancoding.com/sketch -->
    <title>paper-pencil</title>
    <desc>Created with Sketch.</desc>
    <defs></defs>
    <g id="Page-1" stroke="none" stroke-width="1" fill="none" fill-rule="evenodd" stroke-linecap="round" stroke-linejoin="round">
        <g id="paper-pencil" stroke="#000000" stroke-width="2">
            <g transform="translate(1.000000, 1.000000)">
                <path d="M20,0 L20,9 C20,9 20,10 21,10 L25,10" id="Stroke-1"></path>
                <path d="M12,10 L12,30 L29,30 C29,30 30,30 30,29 L30,10 C30,10 30,9 29,8 L22,1 C21,0 20,0 20,0 L10,0" id="Stroke-3"></path>
                <path d="M6,30 L6,12" id="Stroke-5"></path>
                <path d="M3,5 L9,5" id="Stroke-7"></path>
                <polyline id="Stroke-9" points="0 10 6 12 12 10 6 0 0 10 0 28"></polyline>
            </g>
        </g>
    </g>
</svg>