<?xml version="1.0" encoding="UTF-8" standalone="no"?>
<svg width="32px" height="32px" viewBox="0 0 32 32" version="1.1" xmlns="http://www.w3.org/2000/svg" xmlns:xlink="http://www.w3.org/1999/xlink">
    <!-- Generator: Sketch 3.8.3 (29802) - http://www.bohemiancoding.com/sketch -->
    <title>person-boy</title>
    <desc>Created with Sketch.</desc>
    <defs></defs>
    <g id="Page-1" stroke="none" stroke-width="1" fill="none" fill-rule="evenodd" stroke-linecap="round" stroke-linejoin="round">
        <g id="person-boy" stroke="#000000" stroke-width="2">
            <g transform="translate(1.000000, 1.000000)">
                <path d="M0,30 C0,30 0.687,26.379 1,25 C1.208,24.083 2,22 10,21 C10,21 11,24 15,24 C19,24 20,21 20,21 C28,22 28.792,24.021 29,25 C29.294,26.384 30,30 30,30" id="Stroke-1"></path>
                <path d="M9,10 C9,13.866 12,17 15,17 C18,17 21,13.866 21,10" id="Stroke-3"></path>
                <path d="M7,29 L7,30" id="Stroke-5"></path>
                <path d="M23,29 L23,30" id="Stroke-7"></path>
                <path d="M5,7 L22,7 C22,3.134 18.866,0 15,0 C11.134,0 8,3.134 8,7" id="Stroke-9"></path>
            </g>
        </g>
    </g>
</svg>