<?xml version="1.0" encoding="UTF-8" standalone="no"?>
<svg width="32px" height="32px" viewBox="0 0 32 32" version="1.1" xmlns="http://www.w3.org/2000/svg" xmlns:xlink="http://www.w3.org/1999/xlink">
    <!-- Generator: Sketch 3.8.3 (29802) - http://www.bohemiancoding.com/sketch -->
    <title>person-girl</title>
    <desc>Created with Sketch.</desc>
    <defs></defs>
    <g id="Page-1" stroke="none" stroke-width="1" fill="none" fill-rule="evenodd" stroke-linecap="round" stroke-linejoin="round">
        <g id="person-girl" stroke="#000000" stroke-width="2">
            <g transform="translate(1.000000, 1.000000)">
                <path d="M0,30 C0,30 0.687,26.379 1,25 C1.208,24.083 2,22 10,21 C10,21 11,24 15,24 C19,24 20,21 20,21 C28,22 28.792,24.021 29,25 C29.294,26.384 30,30 30,30" id="Stroke-1"></path>
                <path d="M6,18.501 L7,7 C7.531,2.563 11.134,0 15,0 C18.866,0 22.469,2.594 23,7 L24,18.5" id="Stroke-3"></path>
                <path d="M7,29 L7,30" id="Stroke-5"></path>
                <path d="M23,29 L23,30" id="Stroke-7"></path>
                <path d="M17.999,6 C15,8 10,8 10,8 C10,13 12,17 15,17 C18,17 20,13 20,8" id="Stroke-9"></path>
            </g>
        </g>
    </g>
</svg>