<?xml version="1.0" encoding="UTF-8" standalone="no"?>
<svg width="32px" height="32px" viewBox="0 0 32 32" version="1.1" xmlns="http://www.w3.org/2000/svg" xmlns:xlink="http://www.w3.org/1999/xlink">
    <!-- Generator: Sketch 3.8.3 (29802) - http://www.bohemiancoding.com/sketch -->
    <title>photo</title>
    <desc>Created with Sketch.</desc>
    <defs></defs>
    <g id="Page-1" stroke="none" stroke-width="1" fill="none" fill-rule="evenodd" stroke-linecap="round" stroke-linejoin="round">
        <g id="photo" stroke="#000000" stroke-width="2">
            <g transform="translate(1.000000, 1.000000)">
                <path d="M17,21.0313 L10,14.0153 C9.172,13.1873 8.836,13.1723 8,14.0083 L0,22.0003 L0,29.0003 C0,29.5523 0.447,30.0003 1,30.0003 L29,30.0003 C29.553,30.0003 30,29.5523 30,29.0003 L30,1.0003 C30,0.4473 29.553,0.0003 29,0.0003 L1,0.0003 C0.447,0.0003 0,0.4473 0,1.0003 L0,18.0003" id="Stroke-1"></path>
                <path d="M15,23 L22,16 C22.836,15.164 23.172,15.172 24,16 L27,19" id="Stroke-3"></path>
                <path d="M22,8 C22,9.104 21.104,10 20,10 C18.896,10 18,9.104 18,8 C18,6.896 18.896,6 20,6 C21.104,6 22,6.896 22,8 L22,8 Z" id="Stroke-5"></path>
            </g>
        </g>
    </g>
</svg>