<?xml version="1.0" encoding="UTF-8" standalone="no"?>
<svg width="32px" height="32px" viewBox="0 0 32 32" version="1.1" xmlns="http://www.w3.org/2000/svg" xmlns:xlink="http://www.w3.org/1999/xlink">
    <!-- Generator: Sketch 3.8.3 (29802) - http://www.bohemiancoding.com/sketch -->
    <title>photo-camera</title>
    <desc>Created with Sketch.</desc>
    <defs></defs>
    <g id="Page-1" stroke="none" stroke-width="1" fill="none" fill-rule="evenodd" stroke-linecap="round" stroke-linejoin="round">
        <g id="photo-camera" stroke="#000000" stroke-width="2">
            <g transform="translate(1.000000, 1.000000)">
                <path d="M21,30 L25,30 C25.553,30 26,29.553 26,29 L26,19" id="Stroke-1"></path>
                <path d="M18,19 L18,29 C18,29.553 17.553,30 17,30 L1,30 C0.447,30 0,29.553 0,29 L0,11 C0,10.447 0.447,10 1,10 L6,10 L6,9 L11,9" id="Stroke-3"></path>
                <path d="M30,8 C30,3.582 26.418,0 22,0 C17.582,0 14,3.582 14,8 C14,12.418 17.582,16 22,16 C26.418,16 30,12.418 30,8 L30,8 Z" id="Stroke-5"></path>
                <path d="M22,16 L22,22" id="Stroke-7"></path>
                <path d="M24,8 C24,6.896 23.104,6 22,6 C20.896,6 20,6.896 20,8 C20,9.104 20.896,10 22,10 C23.104,10 24,9.104 24,8 L24,8 Z" id="Stroke-9"></path>
                <polyline id="Stroke-11" points="6 10 6 18 12 18 12 14"></polyline>
                <path id="Stroke-13"></path>
            </g>
        </g>
    </g>
</svg>