<?xml version="1.0" encoding="UTF-8" standalone="no"?>
<svg width="32px" height="32px" viewBox="0 0 32 32" version="1.1" xmlns="http://www.w3.org/2000/svg" xmlns:xlink="http://www.w3.org/1999/xlink">
    <!-- Generator: Sketch 3.8.3 (29802) - http://www.bohemiancoding.com/sketch -->
    <title>piano</title>
    <desc>Created with Sketch.</desc>
    <defs></defs>
    <g id="Page-1" stroke="none" stroke-width="1" fill="none" fill-rule="evenodd" stroke-linecap="round" stroke-linejoin="round">
        <g id="piano" stroke="#000000" stroke-width="2">
            <g transform="translate(1.000000, 1.000000)">
                <path d="M3,24 L30,24 L30,18 C30,15.791 28.187,13.312 26,13 C19,12 15,10 14,6 C13.063,2.249 10.866,0 7,0 C3.134,0 0,3.134 0,7 L0,30" id="Stroke-1"></path>
                <path d="M30,30 L30,24" id="Stroke-3"></path>
                <path d="M23,29 L23,27" id="Stroke-5"></path>
                <path d="M20,29 L20,27" id="Stroke-7"></path>
                <path d="M13,29 L13,27" id="Stroke-9"></path>
                <path d="M10,29 L10,27" id="Stroke-11"></path>
                <path d="M7,29 L7,27" id="Stroke-13"></path>
            </g>
        </g>
    </g>
</svg>