<?xml version="1.0" encoding="UTF-8" standalone="no"?>
<svg width="32px" height="32px" viewBox="0 0 32 32" version="1.1" xmlns="http://www.w3.org/2000/svg" xmlns:xlink="http://www.w3.org/1999/xlink">
    <!-- Generator: Sketch 3.8.3 (29802) - http://www.bohemiancoding.com/sketch -->
    <title>printer</title>
    <desc>Created with Sketch.</desc>
    <defs></defs>
    <g id="Page-1" stroke="none" stroke-width="1" fill="none" fill-rule="evenodd" stroke-linecap="round" stroke-linejoin="round">
        <g id="printer" stroke="#000000" stroke-width="2">
            <g transform="translate(1.000000, 1.000000)">
                <path d="M5,13 L5,1 C5,0.447 5.447,0 6,0 L24,0 C24.553,0 25,0.447 25,1 L25,13" id="Stroke-1"></path>
                <path d="M10,7 L15,7" id="Stroke-3"></path>
                <path d="M10,11 L20,11" id="Stroke-5"></path>
                <path d="M30,29 C30,29.552 29.553,30 29,30 L1,30 C0.447,30 0,29.552 0,29 L0,20 C0,17.771 1.667,16 4,16 L26,16 C28.333,16 30,17.75 30,20 L30,29 L30,29 Z" id="Stroke-7"></path>
                <path id="Stroke-9"></path>
                <path id="Stroke-11"></path>
            </g>
        </g>
    </g>
</svg>