<?xml version="1.0" encoding="UTF-8" standalone="no"?>
<svg width="32px" height="32px" viewBox="0 0 32 32" version="1.1" xmlns="http://www.w3.org/2000/svg" xmlns:xlink="http://www.w3.org/1999/xlink">
    <!-- Generator: Sketch 3.8.3 (29802) - http://www.bohemiancoding.com/sketch -->
    <title>radar</title>
    <desc>Created with Sketch.</desc>
    <defs></defs>
    <g id="Page-1" stroke="none" stroke-width="1" fill="none" fill-rule="evenodd" stroke-linecap="round" stroke-linejoin="round">
        <g id="radar" stroke="#000000" stroke-width="2">
            <g transform="translate(1.000000, 1.000000)">
                <path d="M28.2695,21.999 C29.3745,19.91 29.9995,17.527 29.9995,15 C29.9995,6.716 23.2845,0 14.9995,0" id="Stroke-1"></path>
                <path d="M12,0.3008 C5.153,1.6898 0,7.7428 0,14.9998 C0,23.2838 6.716,29.9998 15,29.9998 C18.189,29.9998 21.11,29.0628 23.541,27.3658" id="Stroke-3"></path>
                <path d="M15,15 L15,0" id="Stroke-5"></path>
                <path d="M7.5166,20.002 C9.1316,22.412 11.8806,24 14.9996,24 C19.9706,24 23.9996,19.971 23.9996,15 C23.9996,10.029 19.9706,6 14.9996,6" id="Stroke-7"></path>
                <path d="M12,6.5117 C9.09,7.5397 6.887,9.9367 6.223,12.9997" id="Stroke-9"></path>
                <path d="M8,15 C8,13.896 7.104,13 6,13 C4.896,13 4,13.896 4,15 C4,16.104 4.896,17 6,17 C7.104,17 8,16.104 8,15 L8,15 Z" id="Stroke-11"></path>
                <path d="M27,26 C27,24.896 26.104,24 25,24 C23.896,24 23,24.896 23,26 C23,27.104 23.896,28 25,28 C26.104,28 27,27.104 27,26 L27,26 Z" id="Stroke-13"></path>
            </g>
        </g>
    </g>
</svg>