<?xml version="1.0" encoding="UTF-8" standalone="no"?>
<svg width="32px" height="32px" viewBox="0 0 32 32" version="1.1" xmlns="http://www.w3.org/2000/svg" xmlns:xlink="http://www.w3.org/1999/xlink">
    <!-- Generator: Sketch 3.8.3 (29802) - http://www.bohemiancoding.com/sketch -->
    <title>responsive</title>
    <desc>Created with Sketch.</desc>
    <defs></defs>
    <g id="Page-1" stroke="none" stroke-width="1" fill="none" fill-rule="evenodd" stroke-linecap="round" stroke-linejoin="round">
        <g id="responsive" stroke="#000000" stroke-width="2">
            <g transform="translate(1.000000, 1.000000)">
                <path d="M0,9 L0,0.995 C0,0.442 0.447,0 1,0 L29,0 C29.553,0 30,0.442 30,0.995 L30,17" id="Stroke-1"></path>
                <path d="M30,29 C30,29.553 29.553,30 29,30 L25,30 C24.447,30 24,29.553 24,29 L24,21 C24,20.447 24.447,20 25,20 L29,20 C29.553,20 30,20.447 30,21 L30,29 L30,29 Z" id="Stroke-3"></path>
                <path d="M14,29 C14,29.553 13.553,30 13,30 L1,30 C0.447,30 0,29.553 0,29 L0,13 C0,12.447 0.447,12 1,12 L13,12 C13.553,12 14,12.447 14,13 L14,29 L14,29 Z" id="Stroke-5"></path>
                <polyline id="Stroke-7" points="20 29.998 17 28.995 17 24 21 24"></polyline>
                <path d="M21,20 L17,20" id="Stroke-9"></path>
                <path d="M27,27 L27,27" id="Stroke-8"></path>
                <path d="M7,27 L7,27" id="Stroke-8"></path>
            </g>
        </g>
    </g>
</svg>