<?xml version="1.0" encoding="UTF-8" standalone="no"?>
<svg width="32px" height="32px" viewBox="0 0 32 32" version="1.1" xmlns="http://www.w3.org/2000/svg" xmlns:xlink="http://www.w3.org/1999/xlink">
    <!-- Generator: Sketch 3.8.3 (29802) - http://www.bohemiancoding.com/sketch -->
    <title>rock-on</title>
    <desc>Created with Sketch.</desc>
    <defs></defs>
    <g id="Page-1" stroke="none" stroke-width="1" fill="none" fill-rule="evenodd" stroke-linecap="round" stroke-linejoin="round">
        <g id="rock-on" stroke="#000000" stroke-width="2">
            <g transform="translate(1.000000, 1.000000)">
                <path d="M22,20.001 C22,21.105 21.104,22.001 20,22.001 L18,22.001 C16.896,22.001 16,21.105 16,20.001 L16,10.001 C16,8.897 16.896,8.001 18,8.001 L20,8.001 C21.104,8.001 22,8.897 22,10.001 L22,20.001 L22,20.001 Z" id="Stroke-1"></path>
                <path d="M8.6191,5.9815 L7.8731,1.6465 C7.6831,0.5625 6.6571,-0.1615 5.5801,0.0305 L3.6311,0.3765 C2.5541,0.5675 1.8361,1.6015 2.0241,2.6845 L4.3571,16.0015" id="Stroke-3"></path>
                <path d="M23.3701,6.0147 L24.1201,1.6467 C24.3081,0.5627 25.3351,-0.1613 26.4111,0.0307 L28.3591,0.3757 C29.4351,0.5677 30.1521,1.6017 29.9641,2.6847 L27.0001,19.0007 L27.0001,26.0007 C27.0001,28.3337 25.3331,30.0007 23.0001,30.0007 L8.0001,30.0007 C3.0001,30.0007 0.0001,27.9587 0.0001,22.0007 L0.0001,17.0007 C0.0001,16.4487 0.4471,16.0007 1.0001,16.0007 L15.0001,16.0007 C15.5311,16.0007 16.0001,16.4387 16.0001,17.0007 L16.0001,18.0007 C16.0001,20.3447 14.3441,22.0007 12.0001,22.0007 L6.0001,22.0007" id="Stroke-5"></path>
                <path d="M10,13.001 L10,10.001 C10,8.897 10.896,8.001 12,8.001 L14,8.001 C15.104,8.001 16,8.897 16,10.001" id="Stroke-7"></path>
            </g>
        </g>
    </g>
</svg>