<?xml version="1.0" encoding="UTF-8" standalone="no"?>
<svg width="32px" height="32px" viewBox="0 0 32 32" version="1.1" xmlns="http://www.w3.org/2000/svg" xmlns:xlink="http://www.w3.org/1999/xlink">
    <!-- Generator: Sketch 3.8.3 (29802) - http://www.bohemiancoding.com/sketch -->
    <title>servers</title>
    <desc>Created with Sketch.</desc>
    <defs></defs>
    <g id="Page-1" stroke="none" stroke-width="1" fill="none" fill-rule="evenodd" stroke-linecap="round" stroke-linejoin="round">
        <g id="servers" stroke="#000000" stroke-width="2">
            <g transform="translate(1.000000, 1.000000)">
                <polyline id="Stroke-1" points="3 20 30 20 30 13"></polyline>
                <path d="M6,5 L16,5" id="Stroke-5"></path>
                <path d="M6,15 L16,15" id="Stroke-8"></path>
                <path d="M24,15 L24,15" id="Stroke-8"></path>
                <path d="M24,5 L24,5" id="Stroke-8"></path>
                <path d="M24,25 L24,25" id="Stroke-8"></path>
                <path d="M21,25 L21,25" id="Stroke-8"></path>
                <path d="M21,5 L21,5" id="Stroke-8"></path>
                <path d="M21,15 L21,15" id="Stroke-8"></path>
                <path d="M6,25 L16,25" id="Stroke-11"></path>
                <path d="M3,10 L30,10 L30,1 C30,0.447 29.553,0 29,0 L1,0 C0.447,0 0,0.447 0,1 L0,29 C0,29.553 0.447,30 1,30 L29,30 C29.553,30 30,29.553 30,29 L30,23" id="Stroke-12"></path>
            </g>
        </g>
    </g>
</svg>