<?xml version="1.0" encoding="UTF-8" standalone="no"?>
<svg width="32px" height="32px" viewBox="0 0 32 32" version="1.1" xmlns="http://www.w3.org/2000/svg" xmlns:xlink="http://www.w3.org/1999/xlink">
    <!-- Generator: Sketch 3.8.3 (29802) - http://www.bohemiancoding.com/sketch -->
    <title>settings-simple</title>
    <desc>Created with Sketch.</desc>
    <defs></defs>
    <g id="Page-1" stroke="none" stroke-width="1" fill="none" fill-rule="evenodd" stroke-linecap="round" stroke-linejoin="round">
        <g id="settings-simple" stroke="#000000" stroke-width="2">
            <g transform="translate(1.000000, 1.000000)">
                <path d="M30,29 C30,29.553 29.553,30 29,30 L1,30 C0.447,30 0,29.553 0,29 L0,1 C0,0.447 0.447,0 1,0 L29,0 C29.553,0 30,0.447 30,1 L30,29 L30,29 Z" id="Stroke-1"></path>
                <path d="M22,21 C22,19.343 20.657,18 19,18 C17.343,18 16,19.343 16,21 C16,22.657 17.343,24 19,24 C20.657,24 22,22.657 22,21 L22,21 Z" id="Stroke-3"></path>
                <path d="M13,21 L6,21" id="Stroke-5"></path>
                <path d="M24,21 L22,21" id="Stroke-7"></path>
                <path d="M10,9 C10,10.657 11.343,12 13,12 C14.657,12 16,10.657 16,9 C16,7.343 14.657,6 13,6 C11.343,6 10,7.343 10,9 L10,9 Z" id="Stroke-9"></path>
                <path d="M16,9 L24,9" id="Stroke-11"></path>
                <path d="M6,9 L7,9" id="Stroke-13"></path>
            </g>
        </g>
    </g>
</svg>