<?xml version="1.0" encoding="UTF-8" standalone="no"?>
<svg width="32px" height="32px" viewBox="0 0 32 32" version="1.1" xmlns="http://www.w3.org/2000/svg" xmlns:xlink="http://www.w3.org/1999/xlink">
    <!-- Generator: Sketch 3.8.3 (29802) - http://www.bohemiancoding.com/sketch -->
    <title>shopping-cart</title>
    <desc>Created with Sketch.</desc>
    <defs></defs>
    <g id="Page-1" stroke="none" stroke-width="1" fill="none" fill-rule="evenodd" stroke-linecap="round" stroke-linejoin="round">
        <g id="shopping-cart" stroke="#000000" stroke-width="2">
            <g transform="translate(1.000000, 1.000000)">
                <g id="Group-7" transform="translate(0.000000, 11.000000)">
                    <path d="M7,4 L1,4" id="Stroke-1"></path>
                    <path d="M8,8 L2,8" id="Stroke-3"></path>
                    <path d="M6,0 L0,0" id="Stroke-5"></path>
                </g>
                <path d="M25,15 L10,15" id="Stroke-8"></path>
                <path d="M24,19 L11,19" id="Stroke-9"></path>
                <path d="M26,11 L9,11" id="Stroke-10"></path>
                <g id="Group-17">
                    <path d="M12,28 C12,26.896 11.104,26 10,26 C8.896,26 8,26.896 8,28 C8,29.104 8.896,30 10,30 C11.104,30 12,29.104 12,28 L12,28 Z" id="Stroke-11"></path>
                    <path d="M24,28 C24,26.896 23.104,26 22,26 C20.896,26 20,26.896 20,28 C20,29.104 20.896,30 22,30 C23.104,30 24,29.104 24,28 L24,28 Z" id="Stroke-13"></path>
                    <path d="M9,23 L26,23 C27.125,23 27.862,22.038 28,21 L30,7 L5,7 L3,0 L0,0" id="Stroke-15"></path>
                </g>
            </g>
        </g>
    </g>
</svg>