<?xml version="1.0" encoding="UTF-8" standalone="no"?>
<svg width="32px" height="32px" viewBox="0 0 32 32" version="1.1" xmlns="http://www.w3.org/2000/svg" xmlns:xlink="http://www.w3.org/1999/xlink">
    <!-- Generator: Sketch 3.8.3 (29802) - http://www.bohemiancoding.com/sketch -->
    <title>shopping-bag</title>
    <desc>Created with Sketch.</desc>
    <defs></defs>
    <g id="Page-1" stroke="none" stroke-width="1" fill="none" fill-rule="evenodd" stroke-linecap="round" stroke-linejoin="round">
        <g id="shopping-bag" stroke="#000000" stroke-width="2">
            <g transform="translate(1.000000, 1.000000)">
                <path d="M2,12 L4,28 C4,29.104 4.896,30 6,30 L24,30 C25.104,30 26,29.104 26,28 L28,12" id="Stroke-1"></path>
                <path d="M0,12 L10,12" id="Stroke-3"></path>
                <polyline id="Stroke-5" points="14 12 13 12 11 0 8 0"></polyline>
                <polyline id="Stroke-7" points="22 0 19 0 17 12 30 12"></polyline>
                <path d="M13,17 L13,25" id="Stroke-9"></path>
                <path d="M17,17 L17,25" id="Stroke-11"></path>
                <path d="M21,17 L21,25" id="Stroke-13"></path>
                <path d="M9,17 L9,25" id="Stroke-15"></path>
            </g>
        </g>
    </g>
</svg>