<?xml version="1.0" encoding="UTF-8" standalone="no"?>
<svg width="32px" height="32px" viewBox="0 0 32 32" version="1.1" xmlns="http://www.w3.org/2000/svg" xmlns:xlink="http://www.w3.org/1999/xlink">
    <!-- Generator: Sketch 3.8.3 (29802) - http://www.bohemiancoding.com/sketch -->
    <title>signpost</title>
    <desc>Created with Sketch.</desc>
    <defs></defs>
    <g id="Page-1" stroke="none" stroke-width="1" fill="none" fill-rule="evenodd" stroke-linecap="round" stroke-linejoin="round">
        <g id="signpost" stroke="#000000" stroke-width="2">
            <g transform="translate(1.000000, 1.000000)">
                <path d="M20,16 L29,16 C29.553,16 30,15.553 30,15 L30,5 C30,4.447 29.553,4 29,4 L17,4 L17,1 C17,0.447 16.553,0 16,0 L14,0 C13.447,0 13,0.447 13,1 L13,11" id="Stroke-1"></path>
                <polyline id="Stroke-3" points="21 30 17 30 17 7"></polyline>
                <path d="M11,30 L13,30 L13,14 L1,14 C0.447,14 0,13.553 0,13 L0,3 C0,2.447 0.447,2 1,2 L10,2" id="Stroke-5"></path>
                <path d="M5,8 L8,8" id="Stroke-7"></path>
                <path d="M22,10 L25,10" id="Stroke-9"></path>
            </g>
        </g>
    </g>
</svg>