<?xml version="1.0" encoding="UTF-8" standalone="no"?>
<svg width="32px" height="32px" viewBox="0 0 32 32" version="1.1" xmlns="http://www.w3.org/2000/svg" xmlns:xlink="http://www.w3.org/1999/xlink">
    <!-- Generator: Sketch 3.8.3 (29802) - http://www.bohemiancoding.com/sketch -->
    <title>star</title>
    <desc>Created with Sketch.</desc>
    <defs></defs>
    <g id="Page-1" stroke="none" stroke-width="1" fill="none" fill-rule="evenodd" stroke-linecap="round" stroke-linejoin="round">
        <g id="star" stroke="#000000" stroke-width="2">
            <g transform="translate(1.000000, -1.000000)" id="Page-1">
                <path d="M16.2162003,3.02169294 C16.6662003,4.14269294 20.1742003,12.8636929 20.1742003,12.8636929 C20.1742003,12.8636929 27.8062003,13.5426929 28.9552003,13.6386929 C30.2142003,13.7186929 30.3132003,15.2796929 29.4962003,15.9146929 C28.6812003,16.5466929 22.7612003,21.1406929 22.7612003,21.1406929 C22.7612003,21.1406929 24.5602003,28.4376929 25.0832003,30.4256929 C25.5732003,32.2986929 24.0702003,32.2486929 23.1562003,31.6096929 C22.1212003,30.8886929 15.0012003,25.7966929 15.0012003,25.7966929 C15.0012003,25.7966929 7.82520035,30.9276929 6.83720035,31.6176929 C5.98720035,32.2086929 4.40020035,32.3376929 5.04020035,30.4536929 C5.50520035,28.8636929 7.75520035,21.1406929 7.75520035,21.1406929 C7.75520035,21.1406929 1.17920035,16.3286929 0.481200349,15.7916929 C-0.220799651,15.2556929 -0.242799651,13.7596929 1.00920035,13.6526929 C2.26320035,13.5466929 10.3432003,12.8636929 10.3432003,12.8636929 C10.3432003,12.8636929 13.4752003,4.18969294 13.8962003,3.04269294 C14.3042003,1.67169294 15.6632003,1.64069294 16.2162003,3.02169294 L16.2162003,3.02169294 Z"></path>
            </g>
        </g>
    </g>
</svg>