<?xml version="1.0" encoding="UTF-8" standalone="no"?>
<svg width="32px" height="32px" viewBox="0 0 32 32" version="1.1" xmlns="http://www.w3.org/2000/svg" xmlns:xlink="http://www.w3.org/1999/xlink">
    <!-- Generator: Sketch 3.8.3 (29802) - http://www.bohemiancoding.com/sketch -->
    <title>stats-pipes</title>
    <desc>Created with Sketch.</desc>
    <defs></defs>
    <g id="Page-1" stroke="none" stroke-width="1" fill="none" fill-rule="evenodd" stroke-linecap="round" stroke-linejoin="round">
        <g id="stats-pipes" stroke="#000000" stroke-width="2">
            <g transform="translate(1.000000, 1.000000)">
                <path d="M28,6 L29,6 C29.553,6 30,6.447 30,7 L30,29 C30,29.553 29.553,30 29,30 L1,30 C0.447,30 0,29.553 0,29 L0,7 C0,6.447 0.447,6 1,6 L18,6" id="Stroke-1"></path>
                <polyline id="Stroke-3" points="5 27 5 18 9 18 9 27"></polyline>
                <polyline id="Stroke-5" points="13 27 13 12 17 12 17 27"></polyline>
                <polyline id="Stroke-7" points="21 27 21 0 25 0 25 27"></polyline>
            </g>
        </g>
    </g>
</svg>