<?xml version="1.0" encoding="UTF-8" standalone="no"?>
<svg width="32px" height="32px" viewBox="0 0 32 32" version="1.1" xmlns="http://www.w3.org/2000/svg" xmlns:xlink="http://www.w3.org/1999/xlink">
    <!-- Generator: Sketch 3.8.3 (29802) - http://www.bohemiancoding.com/sketch -->
    <title>subwoofer</title>
    <desc>Created with Sketch.</desc>
    <defs></defs>
    <g id="Page-1" stroke="none" stroke-width="1" fill="none" fill-rule="evenodd" stroke-linecap="round" stroke-linejoin="round">
        <g id="subwoofer" stroke="#000000" stroke-width="2">
            <g transform="translate(1.000000, 1.000000)">
                <path d="M30,29 C30,29.553 29.553,30 29,30 L1,30 C0.447,30 0,29.553 0,29 L0,1 C0,0.447 0.447,0 1,0 L29,0 C29.553,0 30,0.447 30,1 L30,29 L30,29 Z" id="Stroke-1"></path>
                <path d="M24,15 C24,10.028 19.972,6 15,6 C10.028,6 6,10.028 6,15 C6,19.972 10.028,24 15,24 C19.972,24 24,19.972 24,15 L24,15 Z" id="Stroke-3"></path>
                <path d="M17,15 C17,13.895 16.105,13 15,13 C13.895,13 13,13.895 13,15 C13,16.105 13.895,17 15,17 C16.105,17 17,16.105 17,15 L17,15 Z" id="Stroke-5"></path>
                <path id="Stroke-7"></path>
                <path id="Stroke-9"></path>
                <path id="Stroke-11"></path>
                <path id="Stroke-13"></path>
            </g>
        </g>
    </g>
</svg>