<?xml version="1.0" encoding="UTF-8" standalone="no"?>
<svg width="32px" height="32px" viewBox="0 0 32 32" version="1.1" xmlns="http://www.w3.org/2000/svg" xmlns:xlink="http://www.w3.org/1999/xlink">
    <!-- Generator: Sketch 3.8.3 (29802) - http://www.bohemiancoding.com/sketch -->
    <title>target</title>
    <desc>Created with Sketch.</desc>
    <defs></defs>
    <g id="Page-1" stroke="none" stroke-width="1" fill="none" fill-rule="evenodd" stroke-linecap="round" stroke-linejoin="round">
        <g id="target" stroke="#000000" stroke-width="2">
            <g transform="translate(1.000000, 1.000000)">
                <path d="M24,15 C24,10.029 19.971,6 15,6 C10.029,6 6,10.029 6,15 C6,19.971 10.029,24 15,24 C19.971,24 24,19.971 24,15 L24,15 Z" id="Stroke-1"></path>
                <path d="M20,15 C20,12.238 17.762,10 15,10 C12.238,10 10,12.238 10,15 C10,17.762 12.238,20 15,20 C17.762,20 20,17.762 20,15 L20,15 Z" id="Stroke-3"></path>
                <path d="M16,15 C16,14.447 15.553,14 15,14 C14.447,14 14,14.447 14,15 C14,15.553 14.447,16 15,16 C15.553,16 16,15.553 16,15 L16,15 Z" id="Stroke-5"></path>
                <path d="M0,15 L6,15" id="Stroke-7"></path>
                <path d="M24,15 L30,15" id="Stroke-9"></path>
                <path d="M15,0 L15,6" id="Stroke-11"></path>
                <path d="M15,24 L15,30" id="Stroke-13"></path>
                <path d="M12.0244,2.3555 C7.2384,3.4785 3.4784,7.2385 2.3554,12.0245" id="Stroke-15"></path>
                <path d="M2.3555,17.9756 C3.4785,22.7616 7.2385,26.5216 12.0245,27.6446" id="Stroke-17"></path>
                <path d="M17.9756,27.6445 C22.7616,26.5215 26.5216,22.7615 27.6446,17.9755" id="Stroke-19"></path>
                <path d="M27.6445,12.0244 C26.5215,7.2384 22.7615,3.4784 17.9755,2.3554" id="Stroke-21"></path>
            </g>
        </g>
    </g>
</svg>