<?xml version="1.0" encoding="UTF-8" standalone="no"?>
<svg width="32px" height="32px" viewBox="0 0 32 32" version="1.1" xmlns="http://www.w3.org/2000/svg" xmlns:xlink="http://www.w3.org/1999/xlink">
    <!-- Generator: Sketch 3.8.3 (29802) - http://www.bohemiancoding.com/sketch -->
    <title>thumb-up</title>
    <desc>Created with Sketch.</desc>
    <defs></defs>
    <g id="Page-1" stroke="none" stroke-width="1" fill="none" fill-rule="evenodd" stroke-linecap="round" stroke-linejoin="round">
        <g id="thumb-up" stroke="#000000" stroke-width="2">
            <g transform="translate(1.000000, 1.000000)">
                <path d="M18,8 C18,12 22,12 22,12 L28,12 C30.146,12 30,14 30,14 L26.5,28 C26.007,29.972 24,30 24,30 L18.002,30 C15.002,30 14,28 11,28" id="Stroke-1"></path>
                <path d="M8,15 L8,30 L0,30 L0,12 L8,12 C12,12 12,8 12,8 L12,2 C12,0.896 12.896,0 14,0 C16,0 18,2 18,4 L18,14 C18,14 18.002,18 14.002,18" id="Stroke-3"></path>
                <path id="Stroke-5"></path>
            </g>
        </g>
    </g>
</svg>