<?xml version="1.0" encoding="UTF-8" standalone="no"?>
<svg width="32px" height="32px" viewBox="0 0 32 32" version="1.1" xmlns="http://www.w3.org/2000/svg" xmlns:xlink="http://www.w3.org/1999/xlink">
    <!-- Generator: Sketch 3.8.3 (29802) - http://www.bohemiancoding.com/sketch -->
    <title>time-watch-1</title>
    <desc>Created with Sketch.</desc>
    <defs></defs>
    <g id="Page-1" stroke="none" stroke-width="1" fill="none" fill-rule="evenodd" stroke-linecap="round" stroke-linejoin="round">
        <g id="time-watch-1" stroke="#000000" stroke-width="2">
            <g transform="translate(5.000000, 1.000000)">
                <path d="M22,15.0049 C22,8.9299 17.075,4.0049 11,4.0049 C4.925,4.0049 0,8.9299 0,15.0049 C0,21.0799 4.925,26.0049 11,26.0049 C17.075,26.0049 22,21.0799 22,15.0049 L22,15.0049 Z" id="Stroke-1"></path>
                <polyline id="Stroke-3" points="11 8 11 15.005 14 18.002"></polyline>
                <path d="M5,2 L5,0.505 C5,0.229 5.224,0 5.5,0 L16.5,0 C16.776,0 17,0.229 17,0.505 L17,2" id="Stroke-5"></path>
                <path d="M17,28 L17,29.505 C17,29.781 16.776,30 16.5,30 L5.5,30 C5.224,30 5,29.781 5,29.505 L5,28" id="Stroke-7"></path>
            </g>
        </g>
    </g>
</svg>