<?xml version="1.0" encoding="UTF-8" standalone="no"?>
<svg width="32px" height="32px" viewBox="0 0 32 32" version="1.1" xmlns="http://www.w3.org/2000/svg" xmlns:xlink="http://www.w3.org/1999/xlink">
    <!-- Generator: Sketch 3.8.3 (29802) - http://www.bohemiancoding.com/sketch -->
    <title>time-clock</title>
    <desc>Created with Sketch.</desc>
    <defs></defs>
    <g id="Page-1" stroke="none" stroke-width="1" fill="none" fill-rule="evenodd" stroke-linecap="round" stroke-linejoin="round">
        <g id="time-clock" stroke="#000000" stroke-width="2">
            <g transform="translate(1.000000, 1.000000)">
                <path d="M28,15 C28,7.82 22.18,2 15,2 C7.82,2 2,7.82 2,15 C2,22.18 7.82,28 15,28 C22.18,28 28,22.18 28,15 L28,15 Z" id="Stroke-1"></path>
                <path d="M8.3115,26.1475 L5.9995,30.0005" id="Stroke-3"></path>
                <path d="M28.7686,6.8789 C29.5256,6.1499 29.9996,5.1329 29.9996,3.9999 C29.9996,1.7899 28.2096,-0.0001 25.9996,-0.0001 C24.8676,-0.0001 23.8496,0.4749 23.1216,1.2319" id="Stroke-5"></path>
                <path d="M6.8789,1.2314 C6.1499,0.4744 5.1329,0.0004 3.9999,0.0004 C1.7899,0.0004 -0.0001,1.7904 -0.0001,4.0004 C-0.0001,5.1324 0.4749,6.1504 1.2319,6.8784" id="Stroke-7"></path>
                <path d="M15,0 L15,2" id="Stroke-9"></path>
                <polyline id="Stroke-11" points="21 11 13 19 9 15"></polyline>
                <path d="M24,30 L21.689,26.148" id="Stroke-13"></path>
            </g>
        </g>
    </g>
</svg>