<?xml version="1.0" encoding="UTF-8" standalone="no"?>
<svg width="32px" height="32px" viewBox="0 0 32 32" version="1.1" xmlns="http://www.w3.org/2000/svg" xmlns:xlink="http://www.w3.org/1999/xlink">
    <!-- Generator: Sketch 3.8.3 (29802) - http://www.bohemiancoding.com/sketch -->
    <title>utencil</title>
    <desc>Created with Sketch.</desc>
    <defs></defs>
    <g id="Page-1" stroke="none" stroke-width="1" fill="none" fill-rule="evenodd" stroke-linecap="round" stroke-linejoin="round">
        <g id="utencil" stroke="#000000" stroke-width="2">
            <g transform="translate(1.000000, 1.000000)">
                <path d="M13,14 L20,14 L30,30 L0,30 L10,14 L10,3 C10,3 10,2 9,2 L8,2" id="Stroke-1"></path>
                <path d="M20,11 L20,3 C20,3 20,2 21,2 L22,2" id="Stroke-3"></path>
                <path d="M18,23 C18,23.553 17.553,24 17,24 C16.447,24 16,23.553 16,23 C16,22.447 16.447,22 17,22 C17.553,22 18,22.447 18,23 L18,23 Z" id="Stroke-5"></path>
                <path d="M17,1 C17,1.553 16.553,2 16,2 C15.447,2 15,1.553 15,1 C15,0.447 15.447,0 16,0 C16.553,0 17,0.447 17,1 L17,1 Z" id="Stroke-7"></path>
                <path d="M15,9 C15,9.553 14.553,10 14,10 C13.447,10 13,9.553 13,9 C13,8.447 13.447,8 14,8 C14.553,8 15,8.447 15,9 L15,9 Z" id="Stroke-9"></path>
            </g>
        </g>
    </g>
</svg>