<?xml version="1.0" encoding="UTF-8" standalone="no"?>
<svg width="32px" height="32px" viewBox="0 0 32 32" version="1.1" xmlns="http://www.w3.org/2000/svg" xmlns:xlink="http://www.w3.org/1999/xlink">
    <!-- Generator: Sketch 3.8.3 (29802) - http://www.bohemiancoding.com/sketch -->
    <title>video-camera</title>
    <desc>Created with Sketch.</desc>
    <defs></defs>
    <g id="Page-1" stroke="none" stroke-width="1" fill="none" fill-rule="evenodd" stroke-linecap="round" stroke-linejoin="round">
        <g id="video-camera" stroke="#000000" stroke-width="2">
            <g transform="translate(1.000000, 1.000000)">
                <path d="M18,21 C18,19.896 17.104,19 16,19 C14.896,19 14,19.896 14,21 C14,22.104 14.896,23 16,23 C17.104,23 18,22.104 18,21 L18,21 Z" id="Stroke-1"></path>
                <path d="M10,21 C10,19.896 9.104,19 8,19 C6.896,19 6,19.896 6,21 C6,22.104 6.896,23 8,23 C9.104,23 10,22.104 10,21 L10,21 Z" id="Stroke-3"></path>
                <path d="M16,19 L8,19" id="Stroke-5"></path>
                <path d="M27,17 L28.76,16.24 C28.76,16.24 30,15.375 30,17 L30,25 C30,26.547 28.747,25.849 28.747,25.849 L24,24 L24,29 C24,29.553 23.553,30 23,30 L1,30 C0.447,30 0,29.553 0,29 L0,13 C0,12.447 0.447,12 1,12 L23,12 C23.553,12 24,12.447 24,13 L24,21" id="Stroke-7"></path>
                <path d="M19.9727,9 C21.1967,8.089 21.9997,6.644 21.9997,5 C21.9997,2.238 19.7617,0 16.9997,0 C14.2387,0 11.9997,2.238 11.9997,5 C11.9997,6.644 12.8037,8.089 14.0277,9" id="Stroke-9"></path>
                <path d="M9.9727,9 C11.1967,8.089 11.9997,6.644 11.9997,5 C11.9997,2.238 9.7617,0 6.9997,0 C4.2387,0 1.9997,2.238 1.9997,5 C1.9997,6.644 2.8037,8.089 4.0277,9" id="Stroke-11"></path>
                <path d="M7,5 L7,5" id="Stroke-8"></path>
                <path d="M17,5 L17,5" id="Stroke-8"></path>
            </g>
        </g>
    </g>
</svg>