<svg xmlns="http://www.w3.org/2000/svg" xmlns:xlink="http://www.w3.org/1999/xlink" version="1.1" x="0px" y="0px" viewBox="0 0 100 125" enable-background="new 0 0 100 100" xml:space="preserve"><g><path d="M50,85c-1.263,0-2.391-0.791-2.821-1.979L27.2,27.81c-0.553-1.343-1.358-2.55-2.396-3.588   c-1.051-1.05-2.274-1.863-3.638-2.416c-2.637-1.068-5.646-1.068-8.281,0c-1.362,0.553-2.586,1.365-3.637,2.416   c-1.05,1.05-1.863,2.273-2.417,3.638C6.296,29.177,6.025,30.57,6.025,32c0,1.429,0.271,2.822,0.805,4.142   c0.552,1.361,1.365,2.585,2.417,3.637c1.051,1.05,2.274,1.863,3.638,2.416c2.635,1.068,5.646,1.068,8.282,0   c1.534-0.62,3.284,0.117,3.908,1.652c0.623,1.536-0.117,3.285-1.653,3.908c-4.075,1.652-8.717,1.652-12.792,0   c-2.112-0.857-4.004-2.113-5.625-3.734c-1.623-1.622-2.879-3.515-3.735-5.625c-0.826-2.04-1.244-4.19-1.244-6.396   c0-2.207,0.419-4.358,1.245-6.396c0.858-2.113,2.114-4.006,3.735-5.625c1.621-1.621,3.513-2.877,5.624-3.733   c4.075-1.651,8.715-1.653,12.791,0c2.112,0.856,4.004,2.113,5.625,3.734c1.622,1.621,2.878,3.514,3.734,5.625   c0.014,0.036,0.028,0.071,0.041,0.107L50,73.184l17.179-47.472c0.014-0.036,0.027-0.071,0.041-0.107   c0.855-2.109,2.112-4.002,3.733-5.624c1.62-1.621,3.513-2.878,5.626-3.735c4.077-1.652,8.717-1.652,12.792,0   c2.111,0.857,4.003,2.113,5.624,3.734s2.877,3.513,3.734,5.624c0.826,2.038,1.245,4.189,1.245,6.396   c0,2.206-0.419,4.357-1.245,6.396c-0.855,2.109-2.112,4.002-3.733,5.624c-1.62,1.621-3.513,2.878-5.626,3.735   c-4.077,1.653-8.717,1.651-12.792,0c-1.535-0.623-2.274-2.372-1.652-3.908s2.37-2.273,3.908-1.652c2.635,1.068,5.646,1.068,8.28,0   c1.365-0.554,2.589-1.366,3.638-2.415c1.052-1.053,1.864-2.277,2.417-3.64c0.535-1.317,0.806-2.71,0.806-4.14   s-0.271-2.823-0.806-4.141c-0.553-1.363-1.366-2.587-2.416-3.638c-1.051-1.05-2.274-1.863-3.638-2.416   c-2.635-1.068-5.646-1.068-8.28,0c-1.365,0.554-2.589,1.366-3.638,2.415c-1.039,1.04-1.845,2.247-2.396,3.589L52.821,83.021   C52.392,84.209,51.264,85,50,85z"/></g><text x="0" y="115" fill="#000000" font-size="5px" font-weight="bold" font-family="'Helvetica Neue', Helvetica, Arial-Unicode, Arial, Sans-serif">Created by Cengiz SARI</text><text x="0" y="120" fill="#000000" font-size="5px" font-weight="bold" font-family="'Helvetica Neue', Helvetica, Arial-Unicode, Arial, Sans-serif">from the Noun Project</text></svg>