<svg xmlns="http://www.w3.org/2000/svg" xmlns:xlink="http://www.w3.org/1999/xlink" version="1.1" viewBox="0 0 98 120" x="0px" y="0px"><path d="M69.536 96c-0.028-0.008-0.052-0.008-0.084 0-11.352 0-45.904 0-45.904-35.752 0-15.24 9.36-23.5 16.192-29.56 0.816-0.728 1.596-1.416 2.328-2.084-3.208-4.136-3.048-7.66-2.512-11.452 0.108-0.752 0.644-1.396 1.376-1.612 0.736-0.24 1.532-0.032 2.060 0.532 2.232 2.36 9.784 4.76 14.972 4.76 0.552 0 1.076 0.232 1.444 0.612 2.040 2.148 5.32 4.992 10.284 4.992 2.232 0 4.632-0.576 7.16-1.696 0.58-0.252 1.244-0.232 1.788 0.084s0.92 0.856 1.008 1.48c1.004 7.472 3.36 24.968 16.444 27.428 0.54 0.084 1.008 0.416 1.312 0.876 0.292 0.452 0.4 1.020 0.264 1.556-1.784 7.608-7.644 13.744-12.652 16.416-0.484 0.252-1.044 0.304-1.568 0.14-4.48-1.444-11.892-3.54-15.18-4.028-2.452 1.732-5.884 5.76-6.056 10.632-0.156 4.584 2.556 8.904 8.064 12.812 0.732 0.3 1.236 1.012 1.236 1.844 0.024 1.128-0.876 2.020-1.976 2.020zM43.264 21.124c0.084 2.060 0.804 3.916 3.016 6.268 0.74 0.784 0.724 2.016-0.040 2.776-1.108 1.108-2.424 2.272-3.84 3.54-6.612 5.844-14.836 13.112-14.836 26.552 0 25.552 19.268 30.804 36.228 31.612-4.664-4.748-5.648-9.344-5.54-12.664 0.228-6.44 4.584-11.924 8.54-14.292 0.372-0.236 0.78-0.328 1.216-0.268 3.38 0.3 11.612 2.688 15.868 4.024 3.516-2.124 7.552-6.348 9.38-11.492-12.716-3.86-15.916-19.064-17.204-27.796-2.18 0.72-4.296 1.084-6.34 1.084-6.472 0-10.72-3.744-12.596-5.632-4.324-0.188-9.98-1.624-13.852-3.712z" fill="#000000"/><path d="M51.948 33.244c-3.648 0-7.408-1.6-8.692-3.236-0.684-0.86-0.544-2.096 0.316-2.784 0.856-0.696 2.112-0.56 2.808 0.296 0.756 0.924 5.888 2.672 8.304 1.068 0.916-0.604 2.16-0.368 2.768 0.572 0.6 0.916 0.36 2.164-0.572 2.764-1.404 0.936-3.152 1.32-4.932 1.32z" fill="#000000"/><path d="M67.816 68.632c-8.312 0-15.22-3.392-18.472-9.040-2.916-5.084-2.584-11.18 0.916-17.228 0.556-0.944 1.776-1.264 2.732-0.736 0.948 0.568 1.276 1.776 0.724 2.744-2.752 4.752-3.080 9.42-0.916 13.204 2.54 4.416 8.148 7.032 15.012 7.032 1.096 0 2 0.912 2 2 0 1.112-0.888 2.024-1.996 2.024z" fill="#000000"/><path d="M89.104 69.056c-0.616 0-1.244-0.288-1.624-0.836-0.392-0.556-3.476-3.204-8.804-2.484-1.108 0.124-2.092-0.632-2.244-1.736-0.148-1.084 0.62-2.092 1.728-2.252 6.428-0.804 11.116 2.084 12.584 4.132 0.632 0.908 0.424 2.144-0.468 2.772-0.352 0.284-0.76 0.404-1.172 0.404z" fill="#000000"/><path d="M14.508 78.684c-0.568 0-1.128-0.248-1.52-0.7-20.536-24.008-11.812-47.008-7.112-55.78 7.124-13.272 21.296-22.204 35.268-22.204 19 0 36.804 3.204 38.528 26.444 0.068 0.824-0.396 1.6-1.14 1.952-7.588 3.588-12.856 2.92-20.776-2.968-0.336-0.252-0.584-0.592-0.72-0.992-2.156-6.72-7.692-10.568-15.196-10.568-8.584 0-17.516 4.964-22.212 12.356-5.464 8.592-13.196 30.016-3.34 49.556 0.456 0.908 0.168 2.008-0.676 2.568-0.34 0.232-0.724 0.336-1.104 0.336zM41.14 4c-10.436 0-24.296 6.22-31.744 20.084-4.364 8.144-9.324 22.904-1.16 39.604-2.692-16.632 3.408-32.36 8.016-39.604 5.4-8.5 15.68-14.224 25.584-14.224 8.988 0 15.96 4.748 18.788 12.72 5.936 4.296 9.528 4.92 14.916 2.752-1.912-17.716-14.616-21.332-34.4-21.332z" fill="#000000"/><path d="M71.356 40.876h-4c-1.1 0-2-0.9-2-2s0.9-2 2-2h4c1.1 0 2 0.9 2 2s-0.9 2-2 2z" fill="#000000"/><text x="0" y="111" fill="#000000" font-size="5px" font-weight="bold" font-family="'Helvetica Neue', Helvetica, Arial-Unicode, Arial, Sans-serif">Created by iconsmind.com</text><text x="0" y="116" fill="#000000" font-size="5px" font-weight="bold" font-family="'Helvetica Neue', Helvetica, Arial-Unicode, Arial, Sans-serif">from the Noun Project</text></svg>