<svg xmlns="http://www.w3.org/2000/svg" xmlns:xlink="http://www.w3.org/1999/xlink" version="1.1" viewBox="0 0 104 120" x="0px" y="0px"><path d="M51.744 73.452c-7.944 0-12.42-4.236-18.388-12.564-6.668-9.312-2.66-14.476 0.876-19.020l0.64-0.828c4.116-5.392 11.212-9.288 16.872-9.288 5.576 0 12.824 3.992 16.872 9.288l0.644 0.828c3.536 4.556 7.536 9.708 0.872 19.020-5.956 8.34-10.44 12.564-18.388 12.564zM51.744 35.76c-4.372 0-10.388 3.392-13.696 7.72l-0.66 0.852c-3.316 4.264-5.712 7.348-0.78 14.248 5.972 8.344 9.508 10.9 15.136 10.9 5.62 0 9.16-2.556 15.136-10.9 4.916-6.9 2.532-9.968-0.78-14.24l-0.66-0.86c-3.312-4.328-9.328-7.72-13.696-7.72z" fill="#000000"/><path d="M31.852 54.6c-0.268 0-0.548-0.064-0.804-0.164-10.416-4.584-17.344-13.772-19.56-18-1.292-2.476 0.576-5.896 4.288-12.204 1.584-2.7 3.232-5.492 4.38-8.052 2.36-6.804 8.604-15.296 24.64-16.18 0.98-0.052 1.864 0.608 2.072 1.584 0.208 0.964-0.32 1.932-1.248 2.284-3.936 1.508-6.416 5.008-7.624 7.804 2.312-1.196 5.18-2.984 6.992-4.468 0.68-0.552 1.624-0.592 2.36-0.116 0.728 0.468 1.068 1.36 0.836 2.2-2.42 8.832-7.428 13.776-15.304 15.104l-0.84 1.1c-2.084 2.724-4.832 6.32-6.8 9.132 1.62 2.388 7.092 8.296 9.436 9.604 0.952 0.56 1.292 1.764 0.752 2.74-0.54 0.964-1.752 1.312-2.724 0.752-3.308-1.88-10.972-10.164-11.716-12.672-0.164-0.576-0.076-1.196 0.26-1.688 2.028-3.008 5.252-7.232 7.608-10.304l1.336-1.744c0.328-0.416 0.8-0.704 1.332-0.768 3.432-0.448 7.456-1.68 10.376-6.46-2.412 1.408-4.884 2.584-6.456 2.848-0.572 0.104-1.172-0.068-1.62-0.436-0.448-0.384-0.712-0.932-0.712-1.528 0-2.232 1.288-6.252 4.108-9.708-6.7 1.972-11.18 6.116-13.36 12.4-1.304 2.916-3 5.804-4.64 8.592-1.7 2.908-4.288 7.296-4.136 8.484v0c0.024 0 5.844 10.884 17.568 16.028 1.016 0.428 1.468 1.616 1.028 2.632-0.324 0.76-1.068 1.204-1.828 1.204z" fill="#000000"/><path d="M73.528 54.6c-0.76 0-1.5-0.444-1.828-1.196-0.44-1.008 0.008-2.188 1.024-2.632 11.748-5.168 17.568-16.084 17.616-16.184 0.084-1.032-2.484-5.42-4.208-8.328-1.636-2.792-3.336-5.68-4.584-8.436-2.232-6.392-6.724-10.572-13.416-12.556 2.828 3.452 4.1 7.492 4.1 9.708 0 0.588-0.252 1.148-0.712 1.528-0.436 0.384-1.052 0.556-1.624 0.444-1.564-0.26-4.040-1.448-6.44-2.852 2.916 4.768 6.924 6 10.384 6.448 0.524 0.084 1 0.352 1.32 0.76l1.328 1.752c2.36 3.084 5.584 7.296 7.596 10.304 0.336 0.492 0.42 1.104 0.256 1.688-0.752 2.508-8.416 10.796-11.72 12.668-0.964 0.572-2.184 0.22-2.732-0.752-0.548-0.96-0.212-2.18 0.752-2.736 2.336-1.32 7.78-7.204 9.428-9.616-1.96-2.812-4.728-6.416-6.788-9.12l-0.828-1.092c-7.876-1.328-12.884-6.272-15.284-15.104-0.236-0.84 0.104-1.74 0.844-2.2 0.728-0.476 1.68-0.416 2.352 0.116 1.812 1.476 4.672 3.26 6.984 4.468-1.212-2.796-3.68-6.296-7.624-7.812-0.92-0.352-1.448-1.32-1.252-2.276 0.212-0.96 1.12-1.604 2.072-1.584 16.044 0.888 22.284 9.38 24.716 16.336 1.084 2.404 2.736 5.188 4.308 7.896 3.716 6.312 5.584 9.732 4.288 12.208-2.216 4.236-9.14 13.416-19.56 18-0.236 0.1-0.508 0.152-0.768 0.152z" fill="#000000"/><path d="M28.252 62.868c-4.084 0-8.064-1.172-11.752-3.492-7.312-4.608-11.952-12.756-12.6-18.084-0.136-1.092 0.644-2.092 1.744-2.228 1.084-0.156 2.092 0.64 2.236 1.744 0.444 3.672 4.18 11.036 10.756 15.184 4.9 3.084 10.172 3.704 15.72 1.844 1.052-0.352 2.18 0.212 2.532 1.256 0.352 1.040-0.212 2.18-1.26 2.532-2.476 0.836-4.94 1.244-7.376 1.244z" fill="#000000"/><path d="M22.624 69.672c-3.28 0-6.584-0.58-9.752-1.796-6.508-2.476-11.536-7.244-12.808-12.14-0.276-1.072 0.364-2.164 1.428-2.42 1.072-0.252 2.164 0.368 2.432 1.416 0.94 3.632 5.104 7.42 10.356 9.42 7.288 2.752 15.324 1.752 22.072-2.756 0.916-0.632 2.16-0.376 2.764 0.556 0.616 0.916 0.376 2.156-0.548 2.764-4.888 3.276-10.408 4.956-15.944 4.956z" fill="#000000"/><path d="M75.648 62.868c-2.416 0-4.9-0.416-7.368-1.252-1.048-0.352-1.604-1.484-1.252-2.532 0.352-1.056 1.492-1.6 2.532-1.256 5.536 1.852 10.82 1.252 15.716-1.852 6.584-4.148 10.32-11.504 10.76-15.176 0.14-1.092 1.164-1.892 2.232-1.752 1.096 0.132 1.884 1.128 1.752 2.236-0.648 5.328-5.288 13.476-12.596 18.084-3.716 2.328-7.692 3.5-11.776 3.5z" fill="#000000"/><path d="M81.28 69.672c-5.532 0-11.056-1.68-15.952-4.976-0.916-0.6-1.16-1.852-0.552-2.756 0.612-0.904 1.86-1.172 2.768-0.564 6.744 4.524 14.772 5.524 22.072 2.756 5.252-1.992 9.416-5.772 10.352-9.408 0.28-1.080 1.344-1.736 2.444-1.428 1.064 0.272 1.712 1.368 1.428 2.436-1.272 4.9-6.304 9.664-12.812 12.124-3.164 1.228-6.468 1.816-9.748 1.816z" fill="#000000"/><path d="M30.288 94.796c-0.664 0-1.316-0.328-1.696-0.92-3.036-4.82-3.952-9.648-2.728-14.352 2.216-8.508 10.748-13.752 13.324-15.14 0.968-0.532 2.184-0.172 2.716 0.796s0.172 2.188-0.796 2.72c-1.576 0.86-9.512 5.508-11.368 12.64-0.936 3.584-0.18 7.368 2.248 11.22 0.584 0.928 0.304 2.172-0.624 2.752-0.336 0.184-0.708 0.284-1.076 0.284z" fill="#000000"/><path d="M40.144 96c-0.508 0-1.016-0.188-1.408-0.58-3.952-3.916-5.832-8.572-5.428-13.444 0.572-6.844 5.468-12.648 8.624-14.884 0.912-0.632 2.152-0.42 2.788 0.484 0.64 0.9 0.416 2.148-0.48 2.772-2.448 1.744-6.496 6.5-6.944 11.936-0.304 3.728 1.124 7.18 4.252 10.252 0.784 0.78 0.792 2.056 0.016 2.828-0.38 0.44-0.896 0.636-1.42 0.636z" fill="#000000"/><path d="M75.2 94.796c-0.372 0-0.74-0.084-1.076-0.304-0.924-0.58-1.212-1.828-0.612-2.752 2.416-3.852 3.18-7.616 2.248-11.236-1.856-7.124-9.792-11.756-11.364-12.624-0.968-0.54-1.328-1.752-0.796-2.72s1.752-1.328 2.716-0.796c2.572 1.408 11.108 6.632 13.32 15.132 1.244 4.704 0.304 9.544-2.74 14.36-0.384 0.612-1.032 0.94-1.696 0.94z" fill="#000000"/><path d="M65.348 96c-0.52 0-1.040-0.196-1.416-0.58-0.776-0.78-0.76-2.072 0.016-2.828 3.128-3.084 4.564-6.572 4.252-10.264-0.448-5.436-4.5-10.22-6.944-11.944-0.908-0.632-1.116-1.892-0.48-2.788s1.896-1.092 2.784-0.476c3.156 2.252 8.060 8.048 8.624 14.908 0.404 4.908-1.476 9.548-5.424 13.42-0.388 0.364-0.904 0.552-1.412 0.552z" fill="#000000"/><path d="M38.876 40.54c-0.62 0-1.24-0.288-1.624-0.828-1.728-2.4-3.044-6.36-1.072-9.68 0.564-0.944 1.792-1.26 2.74-0.696 0.952 0.564 1.264 1.776 0.7 2.74-0.912 1.544-0.188 3.824 0.876 5.292 0.644 0.9 0.44 2.144-0.444 2.792-0.352 0.256-0.772 0.38-1.176 0.38z" fill="#000000"/><path d="M64.612 40.54c-0.412 0-0.816-0.124-1.168-0.392-0.9-0.648-1.088-1.908-0.44-2.792 1.064-1.468 1.78-3.752 0.876-5.292-0.576-0.936-0.252-2.176 0.696-2.752 0.944-0.572 2.176-0.252 2.744 0.704 1.972 3.32 0.656 7.284-1.072 9.672-0.392 0.564-1.016 0.852-1.636 0.852z" fill="#000000"/><text x="0" y="111" fill="#000000" font-size="5px" font-weight="bold" font-family="'Helvetica Neue', Helvetica, Arial-Unicode, Arial, Sans-serif">Created by iconsmind.com</text><text x="0" y="116" fill="#000000" font-size="5px" font-weight="bold" font-family="'Helvetica Neue', Helvetica, Arial-Unicode, Arial, Sans-serif">from the Noun Project</text></svg>