<?xml version="1.0" encoding="utf-8"?><!DOCTYPE svg PUBLIC "-//W3C//DTD SVG 1.1//EN" "http://www.w3.org/Graphics/SVG/1.1/DTD/svg11.dtd"><svg version="1.1" xmlns="http://www.w3.org/2000/svg" xmlns:xlink="http://www.w3.org/1999/xlink" x="0px" y="0px" viewBox="1 8.84 100 105.39999999999999" enable-background="new 1 8.84 100 84.32" xml:space="preserve"><path d="M81.832,39.502c-10.565,0-19.161,8.598-19.161,19.163c0,9.956,7.656,18.062,17.373,18.985
	c-8.017,4.817-18.939,7.844-30.789,7.844c-18.052,0-34.605-6.983-41.188-17.377c-1.129-1.79-3.493-2.325-5.284-1.188
	c-1.789,1.132-2.318,3.497-1.188,5.289C9.644,84.94,28.354,93.16,49.255,93.16c28.528,0,51.741-15.474,51.741-34.495
	C100.996,48.1,92.4,39.502,81.832,39.502z M81.832,70.164c-6.339,0-11.498-5.158-11.498-11.499c0-6.34,5.159-11.497,11.498-11.497
	c6.343,0,11.501,5.158,11.501,11.497C93.333,65.006,88.175,70.164,81.832,70.164z M20.167,62.498
	c10.565,0,19.163-8.598,19.163-19.163c0-9.953-7.658-18.062-17.374-18.984c8.015-4.816,18.941-7.845,30.79-7.845
	c18.055,0,34.607,6.984,41.188,17.378c1.13,1.79,3.496,2.326,5.284,1.187c1.789-1.13,2.321-3.499,1.19-5.289
	C92.353,17.061,73.646,8.84,52.745,8.84c-28.531,0-51.741,15.474-51.741,34.494C1.002,53.9,9.6,62.498,20.167,62.498z
	 M20.167,31.837c6.339,0,11.498,5.16,11.498,11.498s-5.159,11.498-11.498,11.498c-6.341,0-11.498-5.16-11.498-11.498
	S13.826,31.837,20.167,31.837z"/><text x="1" y="108.16" fill="#000000" font-size="5px" font-weight="bold" font-family="'Helvetica Neue', Helvetica, Arial-Unicode, Arial, Sans-serif">Created by Dmitry Baranovskiy</text><text x="1" y="113.16" fill="#000000" font-size="5px" font-weight="bold" font-family="'Helvetica Neue', Helvetica, Arial-Unicode, Arial, Sans-serif">from the Noun Project</text></svg>