<svg xmlns="http://www.w3.org/2000/svg" xmlns:xlink="http://www.w3.org/1999/xlink" version="1.1" x="0px" y="0px" viewBox="0 0 100 125" enable-background="new 0 0 100 100" xml:space="preserve"><path d="M68.066,49.376c-6.838,0-11.93,3.045-16.016,7.134c-0.238-2.254-0.238-4.679-0.238-7.134V29.872  c0-5.227-3.461-13.003-13.002-13.003c-4.551,0-7.684,1.791-9.752,4.209c-2.068-2.419-5.202-4.209-9.752-4.209  c-1.793,0-3.25,1.457-3.25,3.251c0,1.793,1.457,3.25,3.25,3.25c5.939,0,6.479,4.997,6.501,6.501v29.255  c0,1.797,1.457,3.25,3.251,3.25c1.793,0,3.25-1.453,3.25-3.25V29.872c0-1.086,0.312-6.501,6.501-6.501  c5.939,0,6.479,4.997,6.501,6.501v19.504c0,3.928,0,8.931,1.501,13.497c-1.147,1.618-2.217,3.25-3.238,4.806  c-3.853,5.873-7.178,10.952-11.267,10.952c-1.793,0-3.25,1.447-3.25,3.251c0,1.797,1.457,3.251,3.25,3.251  c7.6,0,12.23-7.061,16.703-13.893c0.451-0.686,0.9-1.371,1.355-2.057c3.293,3.663,8.728,6.196,17.7,6.196  c12.285,0,17.879-6.742,17.879-13.003C85.945,56.111,80.352,49.376,68.066,49.376z M68.066,68.879c-7.518,0-11.562-2.025-13.733-5.2  c3.613-4.444,7.842-7.803,13.733-7.803c7.47,0,11.377,3.27,11.377,6.501C79.443,65.609,75.536,68.879,68.066,68.879z"/><text x="0" y="115" fill="#000000" font-size="5px" font-weight="bold" font-family="'Helvetica Neue', Helvetica, Arial-Unicode, Arial, Sans-serif">Created by Dmitry Baranovskiy</text><text x="0" y="120" fill="#000000" font-size="5px" font-weight="bold" font-family="'Helvetica Neue', Helvetica, Arial-Unicode, Arial, Sans-serif">from the Noun Project</text></svg>