<svg xmlns="http://www.w3.org/2000/svg" xmlns:xlink="http://www.w3.org/1999/xlink" version="1.1" viewBox="0 0 101 120" x="0px" y="0px"><path d="M64.564 95.968c-0.056 0-0.108 0-0.172-0.008-1.040-0.084-1.828-0.952-1.828-1.992 0-6.524-6.804-7.836-23.584-10.428-2.688-0.416-5.584-0.868-8.668-1.384-21.12-3.516-32.084-20.040-30.084-45.328 1.536-19.256 22.492-36.8 43.976-36.8 8.096 0 19.748 2.488 29.248 14.34 0.428 0.556 0.564 1.288 0.312 1.944-0.18 0.484 0.072 1.704 1.352 3.56 4.304 6.188 15.672 13.448 23.084 12.388 0.992-0.112 2.040 0.556 2.252 1.584 0.844 4.22-1.196 12.6-4.836 19.936-0.376 0.744-1.156 1.188-1.968 1.084-0.82-0.084-1.516-0.632-1.752-1.42-1.82-6.252-4.532-7.264-6.416-7.5-4.584-0.6-10.040 1.468-11.664 4.16-0.548 0.916-0.584 1.76-0.084 2.732 1.296 2.476 4.484 2.836 9.212 3.084 3.116 0.172 6.084 0.336 8.204 1.76 0.436 0.304 0.752 0.752 0.836 1.28 0.092 0.524-0.016 1.080-0.304 1.5-4.916 7.080-11.108 12.080-17.952 14.456-0.788 0.268-1.688 0.032-2.236-0.612-0.532-0.648-0.584-1.584-0.156-2.296 1.804-2.984 2.344-5.724 1.444-7.484-1.072-2.088-4.048-2.82-6.352-3.048-7.408-0.732-12.432-1.64-15.72-2.916 1.304 4.868 4.308 8.156 7.456 11.592 5.18 5.68 10.548 11.556 8.352 24.132-0.148 0.996-0.984 1.684-1.952 1.684zM44.224 4.032c-19.556 0-38.612 15.78-39.992 33.116-0.868 10.864 0.008 36.608 26.752 41.060 3.080 0.52 5.952 0.96 8.624 1.388 10.788 1.664 18.832 2.916 23.216 6.276-0.844-5.584-4.048-9.088-7.592-13-4.084-4.456-8.692-9.524-9.152-18.316-0.048-0.904 0.524-1.724 1.38-2 0.844-0.296 1.784 0.040 2.284 0.784 0.812 1.224 4.428 2.924 17.080 4.172 6.016 0.584 8.508 3.172 9.548 5.24 0.916 1.836 1.084 4.016 0.524 6.396 3.648-2.084 6.984-5.036 9.952-8.836-1.212-0.232-2.672-0.296-4.108-0.396-4.476-0.248-10.080-0.56-12.516-5.232-1.148-2.18-1.084-4.548 0.188-6.648 2.42-4.040 9.416-6.84 15.584-6.064 3.368 0.416 6.024 2.368 7.916 5.804 1.876-4.756 2.656-8.9 2.744-11.424-8.82-0.036-20.108-7.5-24.764-14.204-1.584-2.252-2.264-4.268-2.1-6.008-8.424-9.98-18.512-12.108-25.568-12.108z" fill="#000000"/><path d="M72.064 32.94c-6.312 0-13.048-1.68-15.9-6.496-0.304-0.524-0.356-1.132-0.164-1.668-2.024 0.092-4.132 0.408-6.388 0.916-1.416 0.32-3.152 0.916-4.992 1.56-8.276 2.84-20.828 7.144-26.62-7.036-0.4-0.932 0-2.032 0.9-2.516 6.72-3.628 18.312-3.472 24.52-1.068 1.028 0.408 1.54 1.568 1.136 2.584-0.416 1.028-1.58 1.54-2.588 1.136-4.76-1.852-13.712-2.084-19.452 0.088 4.204 7.96 11.352 6.264 20.82 3.016 1.94-0.664 3.776-1.296 5.416-1.664 11.896-2.712 21.356-0.104 28.084 7.696 0.484 0.576 0.608 1.352 0.344 2.060-0.28 0.7-0.916 1.176-1.672 1.252-1.124 0.084-2.272 0.14-3.444 0.14zM59.908 24.86c1.884 2.572 6.084 3.788 10.516 4.032-3.016-2.312-6.508-3.656-10.516-4.032z" fill="#000000"/><path d="M64.564 95.968c-0.032 0-0.080 0-0.092 0-1.092-0.064-1.952-0.992-1.908-2.1 0.36-7.080-6.916-9.72-18.828-13.436-16.28-5.084-38.588-12.084-29.212-43.992 0.312-1.072 1.416-1.668 2.484-1.356 1.064 0.312 1.664 1.416 1.352 2.48-8.264 28.14 9.432 33.684 26.576 39.060 11.392 3.572 22.156 6.928 21.616 17.468-0.044 1.048-0.932 1.876-1.988 1.876z" fill="#000000"/><path d="M61.22 78.936c-0.752 0-1.46-0.42-1.804-1.14-0.648-1.36-4.296-2.704-7.836-3.992-9.228-3.392-23.164-8.5-20.992-25.732 0.14-1.096 1.148-1.892 2.236-1.748 1.096 0.136 1.876 1.136 1.736 2.248-1.76 14.076 9.416 18.176 18.416 21.468 4.872 1.78 8.732 3.196 10.084 6.032 0.476 0.992 0.056 2.188-0.936 2.664-0.316 0.14-0.616 0.2-0.904 0.2z" fill="#000000"/><text x="0" y="111" fill="#000000" font-size="5px" font-weight="bold" font-family="'Helvetica Neue', Helvetica, Arial-Unicode, Arial, Sans-serif">Created by iconsmind.com</text><text x="0" y="116" fill="#000000" font-size="5px" font-weight="bold" font-family="'Helvetica Neue', Helvetica, Arial-Unicode, Arial, Sans-serif">from the Noun Project</text></svg>