<svg xmlns="http://www.w3.org/2000/svg" xmlns:xlink="http://www.w3.org/1999/xlink" version="1.1" x="0px" y="0px" viewBox="0 0 100 125" enable-background="new 0 0 100 100" xml:space="preserve"><path d="M85.311,82.84c-1.502-0.996-3.512-0.597-4.508,0.902c-2.248,3.364-5.54,4.889-8.565,3.968  c-3.12-0.946-4.983-4.184-4.983-8.666c0-5.365,1.854-11.479,4-18.564c2.698-8.893,5.752-18.976,5.752-30.198  c0-11.31-7.815-22.755-22.755-22.755c-14.89,0-22.757,7.866-22.757,22.755c0,5.295,1.427,9.566,3.189,13.325  c-1.03-0.205-2.1-0.322-3.189-0.322c-8.961,0-16.253,7.292-16.253,16.255c0,8.959,7.292,16.254,16.253,16.254  c8.962,0,16.254-7.295,16.254-16.254c0-5.358-2.416-9.763-4.752-14.018c-2.457-4.473-5-9.102-5-15.239  c0-11.241,5.013-16.253,16.255-16.253c11.168,0,16.253,8.425,16.253,16.253c0,10.257-2.907,19.849-5.473,28.312  c-2.196,7.263-4.279,14.12-4.279,20.45c0,7.39,3.68,13.092,9.6,14.888c1.207,0.362,2.432,0.54,3.651,0.54  c4.635,0,9.168-2.565,12.209-7.124C87.209,85.85,86.809,83.837,85.311,82.84z M31.494,69.292c-5.376,0-9.752-4.375-9.752-9.753  c0-5.377,4.376-9.75,9.752-9.75c4.646,0,8.527,3.268,9.501,7.617c0.13,0.705,0.251,1.409,0.251,2.133  C41.247,64.917,36.871,69.292,31.494,69.292z"/><text x="0" y="115" fill="#000000" font-size="5px" font-weight="bold" font-family="'Helvetica Neue', Helvetica, Arial-Unicode, Arial, Sans-serif">Created by Dmitry Baranovskiy</text><text x="0" y="120" fill="#000000" font-size="5px" font-weight="bold" font-family="'Helvetica Neue', Helvetica, Arial-Unicode, Arial, Sans-serif">from the Noun Project</text></svg>