<svg xmlns="http://www.w3.org/2000/svg" xmlns:xlink="http://www.w3.org/1999/xlink" version="1.1" viewBox="0 0 96 120" x="0px" y="0px"><path d="M21.132 25.568c-6.272 0-11.692-3.352-12.084-7.476-0.104-1.084 0.7-2.076 1.8-2.18 1.108-0.072 2.076 0.704 2.18 1.804 0.148 1.56 3.616 3.852 8.104 3.852 2.776 0 5.052-1.86 7.684-4.008 3.1-2.532 6.62-5.4 11.64-5.4h7.888c1.104 0 2 0.9 2 2s-0.896 2-2 2h-7.888c-3.596 0-6.272 2.184-9.108 4.5-2.956 2.416-6.012 4.908-10.216 4.908z" fill="#000000"/><path d="M75.468 25.568c-4.204 0-7.264-2.492-10.228-4.908-2.836-2.316-5.524-4.5-9.124-4.5h-7.772c-1.104 0-2-0.9-2-2s0.896-2 2-2h7.772c5.024 0 8.544 2.868 11.648 5.4 2.64 2.148 4.92 4.008 7.704 4.008 4.504 0 7.984-2.304 8.132-3.852 0.104-1.088 1.088-1.86 2.18-1.804 1.1 0.108 1.912 1.084 1.804 2.188-0.396 4.116-5.832 7.468-12.116 7.468z" fill="#000000"/><path d="M70.684 24.164h-44.764c-1.104 0-2-0.9-2-2s0.896-2 2-2h44.764c1.104 0 2 0.9 2 2s-0.896 2-2 2z" fill="#000000"/><path d="M48.288 14.624c-4.052 0-7.352-3.312-7.352-7.384 0-4.084 3.3-7.404 7.352-7.404s7.348 3.32 7.348 7.404c0 4.072-3.296 7.384-7.348 7.384zM48.288 3.848c-1.848 0-3.352 1.52-3.352 3.392 0 1.868 1.504 3.396 3.352 3.396 1.844 0 3.348-1.516 3.348-3.396 0-1.872-1.5-3.392-3.348-3.392z" fill="#000000"/><path d="M64.18 96.164h-31.696c-3.852 0-6.648-2.312-6.648-5.492 0-3.188 3.828-6.968 7.528-8.796 4.436-2.18 6.012-4.592 8.428-12.9 2.408-8.288 0.752-40.472-1.116-44.508-0.464-1-0.024-2.188 0.98-2.656 1.004-0.46 2.192-0.024 2.656 0.976 2.436 5.268 3.816 38.72 1.324 47.308-2.556 8.772-4.528 12.416-10.5 15.368-3.112 1.536-5.296 4.292-5.296 5.208 0 1.024 1.372 1.492 2.648 1.492h31.696c1.504 0 2.56-0.608 2.56-1.484 0-0.852-2.068-3.508-5.304-5.1-5.964-2.936-7.936-6.592-10.508-15.42-2.5-8.592-1.136-42.056 1.304-47.324 0.46-1 1.644-1.428 2.652-0.976 1.004 0.46 1.44 1.648 0.98 2.656-1.864 4.032-3.5 36.236-1.092 44.524 2.428 8.352 4.008 10.764 8.436 12.952 3.652 1.796 7.532 5.452 7.532 8.688-0.008 3.18-2.764 5.484-6.564 5.484z" fill="#000000"/><path d="M5.276 66.788c-0.896 0-1.712-0.608-1.94-1.524-2.756-11.1 1.504-27.256 6.916-36.804 0.544-0.96 1.764-1.32 2.728-0.752 0.96 0.544 1.3 1.76 0.752 2.724-4.308 7.604-9.176 23.152-6.512 33.892 0.264 1.080-0.388 2.156-1.46 2.416-0.164 0.024-0.324 0.048-0.484 0.048z" fill="#000000"/><path d="M33.076 58.024c-0.284 0-0.572-0.064-0.844-0.188-11.944-5.58-21.136-19.064-22.228-28.156-0.132-1.096 0.652-2.088 1.748-2.22 1.116-0.132 2.092 0.648 2.224 1.748 0.816 6.792 8.388 19.604 19.944 25.004 1 0.468 1.432 1.656 0.968 2.656-0.336 0.724-1.056 1.156-1.812 1.156z" fill="#000000"/><path d="M29.872 69.6c-0.428 0-0.864-0.14-1.232-0.428-16.832-13.172-18.652-30.796-18.652-37.76 0-1.092 0.896-2 2-2s2 0.908 2 2c0 6.392 1.668 22.524 17.116 34.612 0.868 0.68 1.024 1.936 0.34 2.812-0.388 0.5-0.976 0.764-1.572 0.764z" fill="#000000"/><path d="M19.376 82.368c-7.104 0-13.576-3.452-18.22-9.736-0.308-0.42-0.44-0.928-0.376-1.444 0.984-7.648 11.736-18.992 24.568-18.992 3.136 0 6.224 0.672 9.18 2 0.348 0.156 0.648 0.416 0.856 0.736 2.684 4.108 3.476 9.264 2.168 14.164-1.304 4.884-4.516 8.916-8.82 11.1-2.76 1.404-6.084 2.172-9.356 2.172zM4.892 70.936c4.852 6.108 10.52 7.42 14.484 7.42 2.656 0 5.332-0.608 7.544-1.752 3.292-1.672 5.756-4.796 6.768-8.58 0.96-3.592 0.468-7.368-1.344-10.436-2.272-0.928-4.62-1.416-6.996-1.416-10.44 0.024-19.088 9.196-20.456 14.764z" fill="#000000"/><path d="M13.592 76.368c-4.256 0-8.424-1.080-11.888-3.228-0.936-0.584-1.228-1.812-0.644-2.756 0.58-0.928 1.816-1.228 2.752-0.64 5.68 3.516 14.072 3.444 20.408-0.18 2.988-1.704 7.976-5.664 7.796-12.992-0.024-1.092 0.848-2.016 1.952-2.048 1.196 0 2.020 0.844 2.048 1.944 0.164 6.86-3.412 12.908-9.812 16.564-3.86 2.224-8.28 3.336-12.612 3.336z" fill="#000000"/><path d="M90.724 66.788c-0.16 0-0.324-0.024-0.48-0.072-1.076-0.256-1.728-1.352-1.46-2.416 2.664-10.744-2.204-26.272-6.516-33.888-0.54-0.96-0.204-2.18 0.752-2.732 0.964-0.56 2.18-0.204 2.732 0.76 5.412 9.56 9.672 25.7 6.916 36.812-0.232 0.928-1.052 1.536-1.944 1.536z" fill="#000000"/><path d="M62.92 58.024c-0.752 0-1.476-0.42-1.812-1.156-0.468-1-0.040-2.188 0.968-2.656 11.56-5.4 19.128-18.212 19.94-25.004 0.136-1.088 1.096-1.872 2.224-1.748 1.096 0.116 1.884 1.112 1.752 2.224-1.092 9.088-10.28 22.576-22.228 28.156-0.268 0.12-0.556 0.184-0.844 0.184z" fill="#000000"/><path d="M66.128 69.6c-0.592 0-1.184-0.264-1.584-0.764-0.68-0.876-0.528-2.132 0.34-2.812 15.448-12.084 17.116-28.236 17.116-34.612 0-1.092 0.9-2 2-2s2 0.908 2 2c0 6.968-1.816 24.588-18.652 37.76-0.356 0.288-0.792 0.428-1.22 0.428z" fill="#000000"/><path d="M76.628 82.368v0c-3.276 0-6.596-0.764-9.356-2.172-4.3-2.188-7.516-6.236-8.82-11.1-1.308-4.9-0.516-10.056 2.164-14.164 0.212-0.32 0.508-0.58 0.86-0.736 2.96-1.328 6.048-2 9.18-2 12.832 0 23.584 11.344 24.572 18.992 0.064 0.516-0.076 1.032-0.38 1.444-4.648 6.284-11.112 9.736-18.22 9.736zM63.66 57.608c-1.816 3.080-2.308 6.852-1.344 10.428 1.008 3.772 3.472 6.92 6.768 8.584 2.204 1.108 4.888 1.744 7.54 1.744v0c3.968 0 9.632-1.312 14.484-7.428-1.368-5.58-10.016-14.744-20.448-14.744-2.38 0.004-4.732 0.48-7 1.416z" fill="#000000"/><path d="M82.408 76.368c-4.328 0-8.748-1.108-12.616-3.328-6.4-3.656-9.972-9.696-9.808-16.556 0.028-1.108 0.768-1.92 2.048-1.952 1.104 0.024 1.976 0.944 1.952 2.048-0.176 7.328 4.808 11.28 7.792 12.992 6.336 3.632 14.732 3.696 20.412 0.18 0.932-0.584 2.172-0.296 2.752 0.64s0.288 2.172-0.648 2.752c-3.46 2.144-7.628 3.224-11.884 3.224z" fill="#000000"/><text x="0" y="111" fill="#000000" font-size="5px" font-weight="bold" font-family="'Helvetica Neue', Helvetica, Arial-Unicode, Arial, Sans-serif">Created by iconsmind.com</text><text x="0" y="116" fill="#000000" font-size="5px" font-weight="bold" font-family="'Helvetica Neue', Helvetica, Arial-Unicode, Arial, Sans-serif">from the Noun Project</text></svg>