<svg xmlns="http://www.w3.org/2000/svg" xmlns:xlink="http://www.w3.org/1999/xlink" version="1.1" x="0px" y="0px" viewBox="0 0 100 125" enable-background="new 0 0 100 100" xml:space="preserve"><path d="M88.383,78.631H13.617c-1.793,0-3.251,1.454-3.251,3.251s1.458,3.251,3.251,3.251h74.766  c1.797,0,3.251-1.454,3.251-3.251S90.18,78.631,88.383,78.631z M13.617,62.377h21.471c1.321,0,2.509-0.8,3.009-2.021  c0.502-1.223,0.209-2.626-0.733-3.553c-3.784-3.701-5.868-8.65-5.868-13.93c0-10.757,8.747-19.504,19.504-19.504  c10.756,0,19.504,8.747,19.504,19.504c0,5.279-2.082,10.229-5.866,13.93c-0.946,0.927-1.238,2.33-0.739,3.553  c0.498,1.222,1.691,2.021,3.013,2.021h21.472c1.797,0,3.251-1.453,3.251-3.25s-1.454-3.251-3.251-3.251h-14.85  c2.263-3.908,3.473-8.357,3.473-13.003c0-14.339-11.666-26.005-26.006-26.005c-14.339,0-26.005,11.667-26.005,26.005  c0,4.646,1.209,9.095,3.478,13.003H13.617c-1.793,0-3.251,1.454-3.251,3.251S11.824,62.377,13.617,62.377z"/><text x="0" y="115" fill="#000000" font-size="5px" font-weight="bold" font-family="'Helvetica Neue', Helvetica, Arial-Unicode, Arial, Sans-serif">Created by Dmitry Baranovskiy</text><text x="0" y="120" fill="#000000" font-size="5px" font-weight="bold" font-family="'Helvetica Neue', Helvetica, Arial-Unicode, Arial, Sans-serif">from the Noun Project</text></svg>