<svg xmlns="http://www.w3.org/2000/svg" xmlns:xlink="http://www.w3.org/1999/xlink" version="1.1" x="0px" y="0px" viewBox="0 0 100 125" enable-background="new 0 0 100 100" xml:space="preserve"><path d="M86.758,47.75H67.33c0.762-21.224,8.856-35.758,16.177-35.758c1.797,0,3.251-1.457,3.251-3.251  c0-1.793-1.454-3.25-3.251-3.25c-12.209,0-21.866,18.32-22.679,42.259H41.167C40.357,23.811,30.702,5.49,18.493,5.49  c-1.793,0-3.25,1.457-3.25,3.25c0,1.794,1.457,3.251,3.25,3.251c7.317,0,15.416,14.534,16.179,35.758H15.243  c-1.794,0-3.251,1.457-3.251,3.25c0,1.797,1.457,3.251,3.251,3.251h19.429c-0.763,21.228-8.861,35.758-16.179,35.758  c-1.793,0-3.25,1.453-3.25,3.25s1.457,3.251,3.25,3.251c12.209,0,21.864-18.32,22.677-42.259h19.665  C61.647,78.189,71.301,96.51,83.511,96.51c1.8,0,3.25-1.454,3.25-3.251s-1.45-3.25-3.25-3.25c-7.321,0-15.416-14.53-16.181-35.758  h19.428c1.797,0,3.251-1.454,3.251-3.251C90.009,49.207,88.555,47.75,86.758,47.75z"/><text x="0" y="115" fill="#000000" font-size="5px" font-weight="bold" font-family="'Helvetica Neue', Helvetica, Arial-Unicode, Arial, Sans-serif">Created by Dmitry Baranovskiy</text><text x="0" y="120" fill="#000000" font-size="5px" font-weight="bold" font-family="'Helvetica Neue', Helvetica, Arial-Unicode, Arial, Sans-serif">from the Noun Project</text></svg>