<svg xmlns="http://www.w3.org/2000/svg" xmlns:xlink="http://www.w3.org/1999/xlink" version="1.1" viewBox="0 0 120 120" x="0px" y="0px"><path d="M67.716 83.072c-13.312 0-24.324-5.696-29.332-11.336-9.148-10.304-10.676-20.548-10.732-28.584-3.416-0.664-7.376 2.916-11.156 6.32-3.828 3.452-7.784 7.028-12.108 7.028v0c-1.1 0-2.18-0.24-3.204-0.696-0.88-0.396-1.352-1.364-1.12-2.296 0.236-0.924 1.136-1.596 2.060-1.524v0c2.936 0 5.968-5.46 9.188-11.248 5.588-10.084 12.56-22.628 26-22.628 2.236 0 4.584 0.364 7.008 1.084 6.436-3.984 14.532-6.252 22.348-6.252 12.532 0 26.724 6.18 28.936 23.524 0.084 0.68-0.18 1.36-0.712 1.796l-1 0.84c-3.984 3.396-13.312 11.304-22.672 11.304-0.544 0-1.080-0.016-1.6-0.084 0.188 0.756 0.752 1.624 1.724 2.968 1.76 2.46 4.184 5.836 3.284 11.256-0.132 0.804-0.752 1.436-1.548 1.608-0.804 0.164-1.624-0.156-2.084-0.828-3.48-5.1-7.224-4.796-10.26-4.6-0.404 0.016-0.796 0.032-1.172 0.056 0.26 2.256 1.42 4.72 3.292 6.828 2.924 3.312 7.080 5.228 11.368 5.228 3.4 0 6.836-1.132 10.228-3.384-0.876-12.46 4.896-23.372 17.164-32.444 0.752-0.572 1.812-0.524 2.536 0.12 0.696 0.632 0.852 1.68 0.376 2.496-3.524 5.972-3.204 11.5-2.948 15.94 0.084 1.492 0.164 2.828 0.084 4.008 0.936 0.156 1.92 0.42 2.944 0.736 1.764 0.5 3.584 1.016 5.428 1.016 2.54 0 4.584-1.048 6.416-3.272 0.6-0.744 1.648-0.928 2.5-0.476 0.84 0.444 1.24 1.436 0.944 2.36-2 6.32-10.416 17.256-28.976 15.936-6.612 4.7-14.62 7.2-23.204 7.2zM26.824 39.064c1.252 0 2.476 0.264 3.652 0.792 0.728 0.324 1.192 1.060 1.184 1.852-0.156 11.336 2.752 19.528 9.72 27.372 4.272 4.812 14.336 9.992 26.34 9.992 7.98 0 15.4-2.396 21.424-6.904 0.4-0.296 0.892-0.424 1.376-0.404 10.688 0.916 17.584-2.588 21.544-6.672-2.916 0.5-6.060-0.292-8.552-1-1.664-0.464-3.448-0.74-3.664-0.636-0.784 0.3-1.672 0.080-2.236-0.56-0.556-0.632-0.648-1.544-0.252-2.26 0.444-0.82 0.328-2.796 0.212-4.904-0.164-2.916-0.376-6.516 0.484-10.508-10.976 10.976-9.916 21.256-9.532 24.952 0.080 0.716-0.248 1.412-0.82 1.828-4.392 3.164-8.928 4.752-13.492 4.752-5.436 0-10.672-2.404-14.364-6.576-3.148-3.576-4.752-7.984-4.268-11.844 0.076-0.568 0.368-1.076 0.824-1.396 0.46-0.328 1.032-0.424 1.584-0.328 0.528 0.108 1.508 0.084 2.528 0.028 2.528-0.132 5.844-0.416 9.504 2.008-0.512-1.088-1.22-2.084-1.94-3.088-1.632-2.252-3.476-4.844-2-8.4 0.384-0.912 1.352-1.4 2.328-1.172 0.9 0.236 1.828 0.336 2.8 0.336 7.896 0 16.44-7.252 20.088-10.352l0.172-0.148c-1.992-11.9-11.2-18.96-24.824-18.96-7.396 0-15.036 2.24-20.964 6.116-0.508 0.348-1.152 0.416-1.736 0.236-2.332-0.76-4.576-1.168-6.664-1.168-11.084 0-17.144 10.928-22.5 20.584-1.2 2.16-2.348 4.24-3.512 6.084 0.84-0.732 1.696-1.484 2.536-2.252 4.052-3.624 8.236-7.4 13.020-7.4z" fill="#000000"/><path d="M68.848 49.992c-0.1 0-0.212-0.008-0.324-0.028-3.416-0.556-8.584-5.176-10.816-11.176-2.048-5.48-1.156-10.924 2.52-15.34 0.712-0.844 1.968-0.964 2.816-0.252 0.852 0.704 0.964 1.96 0.256 2.812-2.796 3.36-3.416 7.188-1.856 11.38 1.824 4.872 6.036 8.356 7.72 8.628 1.084 0.18 1.832 1.204 1.656 2.292-0.156 0.984-1.004 1.684-1.972 1.684z" fill="#000000"/><path d="M79.248 31.696h-4c-1.096 0-2-0.9-2-2s0.904-2 2-2h4c1.104 0 2 0.9 2 2s-0.896 2-2 2z" fill="#000000"/><text x="0" y="111" fill="#000000" font-size="5px" font-weight="bold" font-family="'Helvetica Neue', Helvetica, Arial-Unicode, Arial, Sans-serif">Created by iconsmind.com</text><text x="0" y="116" fill="#000000" font-size="5px" font-weight="bold" font-family="'Helvetica Neue', Helvetica, Arial-Unicode, Arial, Sans-serif">from the Noun Project</text></svg>