<svg xmlns="http://www.w3.org/2000/svg" xmlns:xlink="http://www.w3.org/1999/xlink" version="1.1" viewBox="0 0 126 120" x="0px" y="0px"><path d="M54.28 95.996c-0.28 0-0.572-0.060-0.84-0.188-4.148-1.916-5.472-5.008-5.852-7.248-0.596-3.532 0.816-7.656 3.512-10.288 3.476-3.392 7.944-4.084 12.668-4.836 4.628-0.736 9.876-1.556 15.204-5.084 9.46-6.296 16.484-22.332 10.872-39.628-4.468-13.744-17.964-23.084-29.432-20.432-9.248 2.128-13.092 8.096-16.812 13.884-1.728 2.692-3.364 5.244-5.468 7.228-2.404 2.252-6.328 2.908-9.332 1.516-2.376-1.084-3.732-3.264-3.612-5.836 0.052-1.072 0.936-1.908 1.996-1.908 0.032 0 0.064 0 0.096 0.004 1.1 0.056 1.956 0.984 1.904 2.088-0.012 0.344-0.064 1.392 1.288 2.016 1.34 0.608 3.548 0.476 4.916-0.804 1.752-1.648 3.256-3.992 4.848-6.468 3.756-5.852 8.436-13.12 19.276-15.616 13.664-3.136 28.972 7.224 34.136 23.1 5.464 16.828 0.104 35.828-12.452 44.196-6.060 4.036-11.756 4.916-16.796 5.724-4.432 0.704-7.936 1.252-10.5 3.752-1.772 1.732-2.748 4.5-2.364 6.752 0.32 1.884 1.528 3.32 3.596 4.28 1 0.46 1.432 1.656 0.968 2.656-0.34 0.716-1.068 1.14-1.82 1.14z" fill="#000000"/><path d="M49.976 85.772c-0.332 0-0.672-0.084-0.984-0.252l-28.584-16.156c-0.96-0.548-1.3-1.752-0.756-2.732 0.544-0.968 1.764-1.3 2.724-0.752l28.584 16.148c0.96 0.564 1.3 1.764 0.756 2.744-0.364 0.644-1.040 1-1.74 1z" fill="#000000"/><path d="M19.196 62.628c-0.264 0-0.532-0.060-0.788-0.164-1.016-0.428-1.484-1.608-1.048-2.624l13.336-31.024c0.436-1.008 1.616-1.492 2.628-1.052 1.020 0.436 1.484 1.608 1.048 2.628l-13.336 31.032c-0.328 0.752-1.068 1.204-1.84 1.204z" fill="#000000"/><path d="M17.208 67.252c-0.628 0-1.248-0.288-1.636-0.844-0.636-0.916-0.42-2.156 0.484-2.788 39.208-27.584 62.744-36.412 92.464-43.056 1.080-0.224 2.148 0.432 2.384 1.516 0.252 1.080-0.428 2.148-1.516 2.392-29.216 6.52-52.372 15.224-91.032 42.42-0.348 0.244-0.748 0.36-1.148 0.36z" fill="#000000"/><path d="M106.036 31.6c-0.46 0-0.92-0.16-1.296-0.476-0.656-0.564-0.884-1.484-0.548-2.284l2.28-5.556-5.912-3.848c-0.752-0.488-1.084-1.416-0.82-2.268s1.076-1.416 1.956-1.408l22.704 0.608c0.884 0.028 1.644 0.616 1.876 1.484 0.24 0.852-0.128 1.752-0.884 2.224l-18.312 11.232c-0.32 0.196-0.684 0.292-1.044 0.292zM108.692 19.952l1.352 0.888c0.812 0.524 1.124 1.56 0.756 2.432l-0.584 1.416 7.328-4.5-8.852-0.236z" fill="#000000"/><path d="M8.936 81.384c-0.296 0-0.592-0.084-0.868-0.208-0.752-0.36-1.2-1.156-1.124-1.984l0.84-9.076-6.624-3.072c-0.752-0.344-1.204-1.096-1.156-1.916 0.044-0.82 0.584-1.536 1.364-1.776l13.872-4.616c0.412-0.132 0.852-0.132 1.26 0l5.98 1.968c1 0.328 1.572 1.384 1.312 2.4l-1.48 5.82c-0.092 0.368-0.284 0.696-0.556 0.944l-11.436 10.952c-0.384 0.364-0.88 0.564-1.384 0.564zM7.416 65.556l3.332 1.548c0.768 0.356 1.232 1.156 1.152 2l-0.48 5.132 7.156-6.852 0.88-3.46-3.584-1.18-8.456 2.812z" fill="#000000"/><path d="M69.784 76.364c-1.056 0-1.928-0.82-2-1.896-0.072-1.096 0.78-2.064 1.884-2.104 19.624-1.128 28.060-19.964 28.904-23.628 3.016-13.080-1.008-26.132-11.328-36.804-4.932-5.096-10.712-7.836-16.712-7.932-6.9-0.076-13.676 3.136-20.356 9.62-0.796 0.768-2.064 0.752-2.832-0.032-0.772-0.796-0.752-2.076 0.040-2.828 7.472-7.26 15.392-10.848 23.212-10.756 7.084 0.108 13.836 3.264 19.516 9.14 11.288 11.68 15.672 26.064 12.352 40.488-1.556 6.724-12.152 25.552-32.572 26.732-0.032 0-0.068 0-0.108 0z" fill="#000000"/><text x="0" y="111" fill="#000000" font-size="5px" font-weight="bold" font-family="'Helvetica Neue', Helvetica, Arial-Unicode, Arial, Sans-serif">Created by iconsmind.com</text><text x="0" y="116" fill="#000000" font-size="5px" font-weight="bold" font-family="'Helvetica Neue', Helvetica, Arial-Unicode, Arial, Sans-serif">from the Noun Project</text></svg>