<svg xmlns="http://www.w3.org/2000/svg" xmlns:xlink="http://www.w3.org/1999/xlink" version="1.1" x="0px" y="0px" viewBox="0 0 100 125" enable-background="new 0 0 100 100" xml:space="preserve"><path d="M87.431,14.569c-0.807-0.81-1.98-1.132-3.086-0.854L58.34,20.217c-1.74,0.435-2.8,2.2-2.368,3.943  c0.438,1.738,2.203,2.805,3.942,2.366l14.622-3.657L33.121,64.282l-7.454-7.454c-1.271-1.27-3.325-1.27-4.597,0  c-1.271,1.271-1.271,3.327,0,4.597l7.454,7.454L14.569,82.834c-1.271,1.27-1.271,3.327,0,4.597c0.633,0.635,1.467,0.952,2.298,0.952  c0.832,0,1.665-0.317,2.298-0.952l13.955-13.955l7.454,7.454c0.633,0.635,1.466,0.952,2.298,0.952c0.832,0,1.665-0.317,2.298-0.952  c1.271-1.271,1.271-3.327,0-4.597l-7.454-7.454l41.415-41.418l-3.657,14.622c-0.438,1.743,0.622,3.508,2.368,3.942  c0.264,0.07,0.53,0.099,0.79,0.099c1.458,0,2.778-0.984,3.152-2.46l6.502-26.005C88.567,16.549,88.237,15.379,87.431,14.569z"/><text x="0" y="115" fill="#000000" font-size="5px" font-weight="bold" font-family="'Helvetica Neue', Helvetica, Arial-Unicode, Arial, Sans-serif">Created by Dmitry Baranovskiy</text><text x="0" y="120" fill="#000000" font-size="5px" font-weight="bold" font-family="'Helvetica Neue', Helvetica, Arial-Unicode, Arial, Sans-serif">from the Noun Project</text></svg>