<svg xmlns="http://www.w3.org/2000/svg" xmlns:xlink="http://www.w3.org/1999/xlink" version="1.1" viewBox="0 0 96 120" x="0px" y="0px"><path d="M59.28 75.188c-9.5 0-16.164-4.632-18.188-12.5-4.024 0.172-9.788-0.752-12.548-4.024-1.004-1.188-1.556-2.584-1.608-4.14-9.24-4.244-23.684-17.68-21.568-34.828 0.108-0.912 0.832-1.632 1.744-1.74 0.892-0.14 1.784 0.416 2.108 1.28 3.3 8.796 8.8 18.916 22.16 19.084 8.152 0.096 22.012 1.308 26.668 7.98 6.848-0.292 19.444 3.756 23.98 15.864 0.308 0.836 0.036 1.772-0.688 2.312-0.72 0.532-1.7 0.524-2.408-0.024-3.892-2.992-9.14-4.772-14.040-4.772-3.4 0-5.548 0.86-6.428 1.656-0.132 0.116-0.372 0.344-0.076 1.108 1.012 2.616 6.604 6.58 13.272 5.592 0.96-0.092 1.868 0.42 2.184 1.328 0.308 0.916-0.068 1.916-0.904 2.4-3.728 2.144-8.844 3.424-13.66 3.424zM42.68 58.484c0.412 0 0.808 0.124 1.148 0.36 0.448 0.312 0.752 0.796 0.832 1.336 1.48 9.58 9.796 11.008 14.624 11.008 1.18 0 2.38-0.092 3.568-0.256-4.080-1.58-7.148-4.376-8.18-7.040-0.816-2.1-0.412-4.108 1.116-5.508 3.484-3.172 11.936-3.5 18.808-0.868-5.292-5.86-13.38-7.744-17.304-7.108-0.888 0.132-1.732-0.32-2.112-1.108-1.972-4.124-11.104-6.788-23.84-6.948-10.52-0.136-16.908-5.512-21.024-11.8 3.348 10.672 13.22 18.476 19.42 20.832 0.896 0.336 1.424 1.256 1.264 2.2-0.172 1.024 0.020 1.82 0.612 2.524 1.972 2.336 7.916 2.976 10.688 2.436 0.116-0.044 0.252-0.060 0.38-0.060z" fill="#000000"/><path d="M7.348 21.94c-0.052 0-0.1 0-0.152-0.008-1.1-0.084-1.924-1.048-1.84-2.144 0.792-10.328 7.452-17.576 17.812-19.38 10.368-1.82 24.124 2.392 29.212 13.72 0.448 1.008 0 2.192-1.004 2.644-1.012 0.456-2.196 0-2.644-1.004-4.104-9.144-15.888-12.992-24.872-11.416-4.060 0.704-13.588 3.656-14.52 15.744-0.080 1.048-0.952 1.844-1.992 1.844z" fill="#000000"/><path d="M54.484 33.956c-0.304 0-0.608-0.072-0.904-0.22-0.984-0.5-1.376-1.704-0.876-2.688 1.18-2.328 0.156-8.392-1.584-11.752-0.364 2.216-0.216 5.184 0.54 6.596 0.524 0.968 0.152 2.18-0.82 2.704-0.976 0.524-2.188 0.156-2.708-0.82-1.612-3.024-1.836-10.64 0.952-13.632 0.664-0.696 1.728-0.844 2.54-0.32 4.34 2.764 7.116 14.164 4.64 19.040-0.348 0.692-1.044 1.092-1.78 1.092z" fill="#000000"/><path d="M31.292 82.148c-0.376 0-0.752-0.1-1.088-0.328-7.42-4.86-8.868-10.296-8.768-13.992 0.152-5.728 3.936-10.5 7.388-12.516 0.956-0.564 2.18-0.236 2.74 0.72 0.556 0.96 0.236 2.18-0.724 2.752-2.544 1.484-5.296 5.204-5.404 9.164-0.1 3.908 2.24 7.436 6.96 10.556 0.92 0.592 1.18 1.844 0.576 2.756-0.388 0.576-1.028 0.888-1.68 0.888z" fill="#000000"/><path d="M48.16 96c-0.028 0-0.052 0-0.080 0-5.236 0-12.196-1.584-16.048-6.032-2.344-2.704-3.284-6.204-2.724-10.1 0.084-0.572 0.404-1.072 0.884-1.392 2.324-1.532 5.112-2.336 8.080-2.336 7.584 0 15.116 5.072 17.916 12.064 0.336 0.844 0.060 1.812-0.676 2.352-0.74 0.54-1.748 0.508-2.444-0.064-1.516-1.244-5.932-3.4-10.892-4.024 2.416 2.752 5.044 5.148 6.228 5.548 0.992 0.116 1.756 0.96 1.756 1.984 0 1.108-0.896 2-2 2zM33.172 81.36c-0.164 2.392 0.46 4.344 1.888 5.992 1.412 1.632 3.484 2.756 5.712 3.5-2.056-2.164-3.792-4.392-4.472-5.344-0.416-0.58-0.488-1.352-0.18-2.008s0.944-1.080 1.668-1.148c3.58-0.244 7.064 0.352 10.004 1.256-4.252-3.344-10.404-4.516-14.62-2.248z" fill="#000000"/><path d="M50.556 45.324c-0.564 0-1.116-0.236-1.508-0.688-0.728-0.836-0.636-2.092 0.2-2.824 6.528-5.676 14.52-8 21.912-6.356 1.084 0.244 1.76 1.304 1.52 2.384-0.24 1.084-1.292 1.748-2.384 1.524-6.14-1.368-12.856 0.64-18.42 5.476-0.388 0.324-0.852 0.484-1.32 0.484z" fill="#000000"/><path d="M85.208 51.344c-5.18 0-14.6-6.028-16.424-13.46-0.124-0.5-0.044-1.032 0.216-1.484 1.68-2.884 5.416-4.672 9.732-4.672 6.168 0 14.408 3.976 17.324 15.188 0.212 0.812-0.108 1.672-0.804 2.148s-1.616 0.468-2.296-0.024c-2.412-1.728-6.82-3.764-10.188-4.9 0.9 1.256 2.14 2.408 4.048 3.356 0.772 0.388 1.216 1.224 1.084 2.076-0.124 0.856-0.78 1.536-1.632 1.684-0.332 0.056-0.684 0.088-1.060 0.088zM72.924 37.784c0.904 2.524 2.992 4.796 5.276 6.496-0.38-0.752-0.696-1.508-0.98-2.24-0.248-0.612-0.164-1.312 0.208-1.86 0.372-0.552 0.992-0.884 1.652-0.884 2.464 0 7.1 1.628 11.084 3.564-4.764-8.388-14.208-8.328-17.24-5.076z" fill="#000000"/><path d="M15.508 82.148c-1 0-1.864-0.752-1.98-1.764-2.164-18.252 5.416-26.392 12.156-30 0.976-0.536 2.192-0.156 2.712 0.812 0.524 0.976 0.156 2.188-0.816 2.72-8.092 4.336-11.584 13.328-10.080 26.008 0.128 1.092-0.656 2.084-1.752 2.228-0.080-0.004-0.16-0.004-0.24-0.004z" fill="#000000"/><path d="M7.344 76.008c-1.028 0-1.904-0.772-1.988-1.828-1.168-14 9.276-23.688 17.076-26.084 1.052-0.332 2.176 0.256 2.5 1.32 0.328 1.060-0.264 2.176-1.32 2.5-6.516 2.016-15.252 10.156-14.268 21.928 0.088 1.1-0.728 2.076-1.828 2.156-0.060 0.008-0.112 0.008-0.172 0.008z" fill="#000000"/><path d="M1.892 65.008c-0.16 0-0.324-0.016-0.488-0.056-1.076-0.272-1.728-1.36-1.456-2.428 3.368-13.476 13.396-15.052 20.028-16.084l0.472-0.084c1.084-0.172 2.116 0.584 2.288 1.664 0.172 1.088-0.576 2.116-1.664 2.288l-0.476 0.080c-6.256 0.976-14.044 2.204-16.772 13.108-0.224 0.904-1.040 1.512-1.932 1.512z" fill="#000000"/><path d="M1.888 51.992c-0.444 0-0.9-0.148-1.268-0.452-0.852-0.704-0.976-1.96-0.276-2.812 4.744-5.76 13.156-5.796 18.924-4.084 1.060 0.316 1.66 1.424 1.344 2.492s-1.432 1.644-2.488 1.344c-3.704-1.112-10.956-1.76-14.684 2.776-0.4 0.488-0.976 0.736-1.552 0.736z" fill="#000000"/><path d="M42.68 62.484c-0.864 0-1.66-0.564-1.916-1.428-0.316-1.056 0.284-2.172 1.344-2.484 3.424-1.024 11.096-6.204 13.016-10.912 0.416-1.024 1.592-1.508 2.608-1.092 1.024 0.416 1.512 1.584 1.092 2.608-2.404 5.872-10.964 11.856-15.576 13.232-0.184 0.052-0.376 0.076-0.568 0.076z" fill="#000000"/><text x="0" y="111" fill="#000000" font-size="5px" font-weight="bold" font-family="'Helvetica Neue', Helvetica, Arial-Unicode, Arial, Sans-serif">Created by iconsmind.com</text><text x="0" y="116" fill="#000000" font-size="5px" font-weight="bold" font-family="'Helvetica Neue', Helvetica, Arial-Unicode, Arial, Sans-serif">from the Noun Project</text></svg>