<svg xmlns="http://www.w3.org/2000/svg" xmlns:xlink="http://www.w3.org/1999/xlink" version="1.1" x="0px" y="0px" viewBox="0 0 100 125" enable-background="new 0 0 100 100" xml:space="preserve"><path d="M80.435,79.177l-9.753-6.501c-1.504-0.997-3.511-0.591-4.508,0.901c-0.996,1.495-0.597,3.511,0.902,4.508  l0.724,0.482c-8.12-0.619-8.654-8.14-8.673-9.688V20.118c0-3.92-2.597-9.752-9.754-9.752c-2.866,0-4.97,0.956-6.501,2.327  c-1.531-1.372-3.635-2.327-6.501-2.327c-2.867,0-4.97,0.956-6.501,2.327c-1.532-1.372-3.635-2.327-6.501-2.327  c-1.793,0-3.251,1.457-3.251,3.251c0,1.793,1.458,3.25,3.251,3.25c2.617,0,3.211,1.787,3.25,3.25v48.761  c0,1.797,1.457,3.251,3.251,3.251c1.793,0,3.25-1.454,3.25-3.251V20.158c0.04-1.5,0.633-3.291,3.251-3.291  c2.617,0,3.211,1.787,3.25,3.25v48.761c0,1.797,1.457,3.251,3.25,3.251c1.794,0,3.251-1.454,3.251-3.251V20.158  c0.04-1.5,0.633-3.291,3.25-3.291s3.211,1.787,3.253,3.25v48.761c0,5.485,3.257,15.701,15.345,16.202l-0.895,0.598  c-1.492,0.996-1.898,3.013-0.902,4.508c0.629,0.939,1.664,1.447,2.712,1.447c0.615,0,1.244-0.178,1.803-0.546l9.752-6.502  c0.901-0.603,1.441-1.618,1.441-2.704S81.336,79.78,80.435,79.177z"/><text x="0" y="115" fill="#000000" font-size="5px" font-weight="bold" font-family="'Helvetica Neue', Helvetica, Arial-Unicode, Arial, Sans-serif">Created by Dmitry Baranovskiy</text><text x="0" y="120" fill="#000000" font-size="5px" font-weight="bold" font-family="'Helvetica Neue', Helvetica, Arial-Unicode, Arial, Sans-serif">from the Noun Project</text></svg>