<svg xmlns="http://www.w3.org/2000/svg" xmlns:xlink="http://www.w3.org/1999/xlink" version="1.1" x="0px" y="0px" viewBox="0 0 100 125" enable-background="new 0 0 100 100" xml:space="preserve"><g><g><g><circle cx="50" cy="50" r="6.25"/><path d="M50,25c13.81,0,25,11.19,25,25c0,13.81-11.19,25-25,25c-13.81,0-25-11.19-25-25C25,36.19,36.19,25,50,25z M68.75,50     c0-10.36-8.39-18.75-18.75-18.75c-10.36,0-18.75,8.39-18.75,18.75c0,10.36,8.39,18.75,18.75,18.75     C60.36,68.75,68.75,60.36,68.75,50z"/></g></g></g><text x="0" y="115" fill="#000000" font-size="5px" font-weight="bold" font-family="'Helvetica Neue', Helvetica, Arial-Unicode, Arial, Sans-serif">Created by Valerio Poltrini</text><text x="0" y="120" fill="#000000" font-size="5px" font-weight="bold" font-family="'Helvetica Neue', Helvetica, Arial-Unicode, Arial, Sans-serif">from the Noun Project</text></svg>