<svg xmlns="http://www.w3.org/2000/svg" xmlns:xlink="http://www.w3.org/1999/xlink" version="1.1" viewBox="0 0 96 120" x="0px" y="0px"><path d="M47.252 95.92c-12.444 0-24.028-4.084-32.608-11.496-8.22-7.096-12.928-16.708-12.928-26.364 0-18.080 6.372-32.084 17.968-39.548 3.972-12.412 11.308-18.432 22.4-18.432 1.316 0 2.588 0.080 3.8 0.196 3.148 0.288 6.984 1.5 11.42 2.892 6.892 2.164 15.468 4.86 24.328 4.86 3.544 0 6.944-0.424 10.124-1.296 0.932-0.252 1.928 0.204 2.34 1.092s0.112 1.936-0.696 2.492c-5.74 3.9-12.416 5.788-20.416 5.788-4.732 0-9.176-0.64-13.1-1.204-3-0.432-5.584-0.804-7.668-0.804-2.28 0-3.34 0.432-3.86 1.148 15.084 3.888 23.18 11 22.388 19.744 1.972 4.156 8.376 9.416 10.652 10.452 0.68 0.304 1.132 0.968 1.168 1.724l0.028 0.476c0.196 3.26 0.768 12.812-10 15.3 0.184 2.428-0.432 5.252-0.8 6.42-0.216 0.704-0.788 1.228-1.504 1.376-0.716 0.156-1.452-0.1-1.924-0.664-0.82-0.952-6.1-2.868-10.892-2.868-0.896 0-1.692 0.072-2.38 0.204-1.232 2.132-1.764 5.976-1.652 7.616 3.712 2.664 11.488 10.084 11.324 16.86-0.020 0.9-0.624 1.664-1.492 1.892-5.38 1.42-10.768 2.14-16.020 2.144zM42.084 4.080c-5.936 0-14.352 1.696-18.8 16.324-0.14 0.468-0.448 0.872-0.868 1.12-10.764 6.584-16.7 19.576-16.7 36.54 0 8.492 4.208 16.992 11.544 23.336 10.844 9.368 27.028 12.756 43.352 8.916-1.064-4.892-7.372-10.708-10.052-12.416-0.388-0.252-0.68-0.62-0.828-1.072-0.788-2.4 0.076-9.18 2.536-12.416 0.256-0.344 0.616-0.584 1.024-0.712 1.192-0.352 2.592-0.524 4.176-0.524 3.44 0 7.96 0.916 11.048 2.328 0.176-1.436 0.164-2.756-0.096-3.252-0.316-0.584-0.324-1.272-0.020-1.868 0.3-0.584 0.872-0.984 1.528-1.080 7.852-0.992 8.916-5.752 8.7-10.86-3.58-2.132-9.836-7.632-11.78-12.436-0.132-0.32-0.176-0.672-0.128-1.016 1.388-10.368-15.96-15.164-21.312-16.392-0.988-0.236-1.652-1.156-1.544-2.164 0.46-4.252 3.264-6.4 8.356-6.4 2.364 0 5.084 0.4 8.24 0.844 5.14 0.752 11.508 1.556 17.096 0.916-7.932-0.632-15.328-2.948-21.44-4.88-4.232-1.316-7.876-2.456-10.6-2.716-1.1-0.044-2.248-0.12-3.432-0.12z" fill="#000000"/><path d="M32.056 38.936c-0.172 0-0.352-0.024-0.528-0.072-6.148-1.672-14.004-9.564-12.12-19.42 0.204-1.084 1.26-1.78 2.34-1.584 1.084 0.204 1.796 1.252 1.588 2.336-1.388 7.252 4.444 13.516 9.24 14.812 1.068 0.288 1.696 1.4 1.408 2.452-0.244 0.892-1.056 1.476-1.928 1.476z" fill="#000000"/><path d="M49.392 68.084c-11.896 0-24.12-7.964-27.492-16.096-0.42-1.016 0.060-2.188 1.084-2.6 1.016-0.416 2.188 0.080 2.608 1.084 3.248 7.828 16.74 15.44 27.876 13.24 1.084-0.224 2.132 0.484 2.356 1.576 0.216 1.084-0.484 2.132-1.572 2.352-1.596 0.288-3.224 0.444-4.86 0.444z" fill="#000000"/><path d="M70.18 63.336c-0.584 0-1.16-0.252-1.56-0.744-4.496-5.556-9.864-4.636-14.596-3.832-1.868 0.312-3.492 0.584-4.892 0.396-1.092-0.156-1.856-1.172-1.704-2.252 0.156-1.084 1.164-1.824 2.26-1.7 0.788 0.108 2.184-0.116 3.664-0.384 4.932-0.836 12.408-2.092 18.376 5.256 0.696 0.86 0.568 2.116-0.296 2.812-0.364 0.3-0.816 0.448-1.252 0.448z" fill="#000000"/><path d="M63.716 37.744c-3.284 0-7.136-0.6-9.416-3.016-0.756-0.8-0.728-2.072 0.080-2.828 0.804-0.752 2.068-0.72 2.828 0.080 1.848 1.96 7.072 2.076 11.144 1.352 1.084-0.232 2.124 0.54 2.316 1.62s-0.532 2.12-1.62 2.316c-1.020 0.176-3.040 0.476-5.332 0.476z" fill="#000000"/><text x="0" y="111" fill="#000000" font-size="5px" font-weight="bold" font-family="'Helvetica Neue', Helvetica, Arial-Unicode, Arial, Sans-serif">Created by iconsmind.com</text><text x="0" y="116" fill="#000000" font-size="5px" font-weight="bold" font-family="'Helvetica Neue', Helvetica, Arial-Unicode, Arial, Sans-serif">from the Noun Project</text></svg>