<svg xmlns="http://www.w3.org/2000/svg" xmlns:xlink="http://www.w3.org/1999/xlink" version="1.1" x="0px" y="0px" viewBox="0 0 100 125" enable-background="new 0 0 100 100" xml:space="preserve"><g><path d="M89.37,16.25c-4.07-1.66-8.71-1.66-12.79,0c-2.11,0.85-4.01,2.11-5.63,3.73c-1.62,1.619-2.87,3.52-3.73,5.619   c-0.029,0.08-0.06,0.17-0.09,0.25C66.99,26.3,63.47,37,50,37S33.01,26.3,32.87,25.87c-0.021-0.09-0.061-0.18-0.09-0.271   c-0.86-2.109-2.11-4-3.73-5.619c-1.63-1.62-3.52-2.881-5.63-3.73c-4.08-1.66-8.72-1.66-12.79,0c-1.54,0.62-2.28,2.37-1.649,3.9   C9.6,21.69,11.34,22.43,12.88,21.81c2.64-1.069,5.65-1.069,8.29,0c1.36,0.551,2.58,1.36,3.63,2.41c1.03,1.021,1.82,2.21,2.37,3.53   c1.12,3.56,4.53,9.13,10.88,12.45C30.86,44.34,26,52.12,26,61c0,13.23,10.77,24,24,24s24-10.77,24-24c0-8.88-4.86-16.66-12.05-20.8   c6.35-3.32,9.76-8.891,10.88-12.45c0.55-1.32,1.34-2.51,2.37-3.53c1.05-1.05,2.27-1.859,3.63-2.41c2.64-1.069,5.65-1.069,8.29,0   c1.53,0.62,3.28-0.119,3.899-1.659C91.65,18.62,90.91,16.87,89.37,16.25z M68,61c0,9.92-8.08,18-18,18s-18-8.08-18-18   s8.08-18,18-18S68,51.08,68,61z"/></g><text x="0" y="115" fill="#000000" font-size="5px" font-weight="bold" font-family="'Helvetica Neue', Helvetica, Arial-Unicode, Arial, Sans-serif">Created by Cengiz SARI</text><text x="0" y="120" fill="#000000" font-size="5px" font-weight="bold" font-family="'Helvetica Neue', Helvetica, Arial-Unicode, Arial, Sans-serif">from the Noun Project</text></svg>