<svg xmlns="http://www.w3.org/2000/svg" xmlns:xlink="http://www.w3.org/1999/xlink" version="1.1" x="0px" y="0px" viewBox="0 0 100 125" enable-background="new 0 0 100 100" xml:space="preserve"><path d="M72.571,81.882c-3.118,0-5.219-0.949-6.667-2.248c3.121-3.364,5.797-7.644,7.93-12.793  c4.781-11.543,6.337-27.466,1.032-32.767c-3.784-3.788-8.213-5.24-12.051-4.067v-6.638c0-3.92-2.597-9.752-9.752-9.752  c-2.867,0-4.97,0.955-6.501,2.327c-1.53-1.372-3.633-2.327-6.501-2.327c-2.867,0-4.97,0.955-6.501,2.327  c-1.53-1.372-3.633-2.327-6.501-2.327c-1.793,0-3.251,1.457-3.251,3.25s1.458,3.25,3.251,3.25c2.617,0,3.212,1.788,3.25,3.251V72.13  c0,1.797,1.457,3.25,3.251,3.25c1.795,0,3.25-1.453,3.25-3.25V23.409c0.04-1.5,0.635-3.291,3.251-3.291  c2.617,0,3.212,1.788,3.25,3.251V72.13c0,1.797,1.457,3.25,3.25,3.25c1.795,0,3.251-1.453,3.251-3.25V23.409  c0.04-1.5,0.635-3.291,3.25-3.291c2.619,0,3.213,1.788,3.251,3.251V72.13c0,1.749,0.333,3.987,1.171,6.234  c-2.968,2.102-6.569,3.518-10.923,3.518c-1.793,0-3.25,1.454-3.25,3.251c0,1.796,1.457,3.25,3.25,3.25  c5.273,0,10.085-1.6,14.346-4.514c2.508,2.612,6.234,4.514,11.659,4.514c1.801,0,3.251-1.454,3.251-3.25  C75.818,83.336,74.368,81.882,72.571,81.882z M64.508,36.261c1.485-0.611,3.676,0.319,5.762,2.41  c1.769,1.768,2.683,13.307-2.444,25.681c-1.051,2.546-2.663,5.756-4.949,8.736c-0.044-0.409-0.057-0.742-0.061-0.958V39.623  C62.819,37.954,63.45,36.7,64.508,36.261z"/><text x="0" y="115" fill="#000000" font-size="5px" font-weight="bold" font-family="'Helvetica Neue', Helvetica, Arial-Unicode, Arial, Sans-serif">Created by Dmitry Baranovskiy</text><text x="0" y="120" fill="#000000" font-size="5px" font-weight="bold" font-family="'Helvetica Neue', Helvetica, Arial-Unicode, Arial, Sans-serif">from the Noun Project</text></svg>