<svg xmlns="http://www.w3.org/2000/svg" xmlns:xlink="http://www.w3.org/1999/xlink" version="1.1" viewBox="0 0 96 120" x="0px" y="0px"><path d="M65.788 96.032v0c-1.512 0-2.796-0.484-3.712-1.36-1.12 0.228-2.316 0.328-3.532 0.328-3.808 0-6.624-1-7.92-2.704-7.708 0.804-14.5-3.32-15.312-9.032-12.132-7.328-14.020-16.568-12.252-21.828-4.444-6.9-3.312-17.868-0.048-26.236-2.752-10.952-1.664-19.72 3.22-26.048 6.58-8.524 17.42-9.188 20.584-9.188 6.732 0 11.792 2.112 15.084 6.32 5.916 7.548 3.88 18.984 3.136 22.216 1.252 6.060-0.78 16.576-2.816 21.372-0.288 0.688-0.944 1.156-1.7 1.22-1.296 0.092-4.26 1.32-4.672 2.064-0.444 1.228-0.32 7.264 0.86 10.564 0.696-0.096 1.436-0.272 2.252-0.468 1.872-0.432 3.992-0.928 6.42-0.928l0.816 0.020c5.124 0.248 6.936 6.76 8.264 11.528 0.22 0.8 0.424 1.564 0.632 2.236 1.184 6.296 1.204 14.040-1.416 16.696-2.66 2.072-5.544 3.228-7.888 3.228zM62.896 90.42c0.76 0 1.488 0.436 1.82 1.168 0.060 0.132 0.2 0.432 1.076 0.432 1.44 0 3.516-0.888 5.276-2.248 0.636-0.68 1.492-5.74 0.196-12.752-0.164-0.468-0.396-1.264-0.62-2.108-0.944-3.392-2.368-8.5-4.608-8.6l-0.612-0.016c-1.968 0-3.852 0.432-5.516 0.828-1.472 0.344-2.872 0.672-4.172 0.672-0.724 0-1.596-0.388-1.96-0.992-2.36-4.032-2.52-12.884-1.584-15.18 0.984-2.408 4.604-3.764 6.752-4.28 1.68-4.7 3.248-13.868 2.128-18.364-0.084-0.316-0.084-0.644 0-0.96 0.312-1.26 2.916-12.596-2.296-19.252-2.488-3.18-6.504-4.78-11.928-4.78-2.712 0-11.96 0.564-17.416 7.632-4.184 5.412-4.98 13.248-2.352 23.24 0.108 0.412 0.084 0.86-0.088 1.252-3.084 7.52-4.416 18.192-0.060 23.864 0.464 0.592 0.552 1.416 0.208 2.1-1.788 3.584-0.356 11.728 11.096 18.256 0.62 0.356 1.008 1.016 1.008 1.736 0 4.14 6.088 7.252 12.232 6.076 0.568-0.096 1.14 0.032 1.592 0.388 0.452 0.344 0.744 0.868 0.78 1.428 0.204 0.296 1.88 1.064 4.716 1.064 1.336 0 2.684-0.18 3.792-0.5 0.168-0.080 0.356-0.104 0.54-0.104z" fill="#000000"/><path d="M31.524 54.056c-0.128 0-0.26-0.016-0.408-0.040-0.936-0.196-1.616-1.032-1.592-2 0.084-4.588-2.772-9.576-4.672-12.86-0.8-1.412-1.384-2.416-1.636-3.228-0.332-1.060 0.252-2.176 1.3-2.508 1.064-0.324 2.18 0.252 2.508 1.304 0.124 0.4 0.752 1.468 1.296 2.416 1.232 2.132 2.952 5.148 4.084 8.484 2.584-4.704 5.992-9.828 8.232-11.804 0.816-0.74 2.084-0.664 2.816 0.172 0.74 0.828 0.656 2.088-0.172 2.82-2.484 2.204-7.932 11-9.9 15.952-0.3 0.8-1.044 1.292-1.856 1.292z" fill="#000000"/><path d="M37.228 74.024c-0.62 0-1.228-0.276-1.604-0.804-0.44-0.588-2.848-2.64-4.776-4.272-2.868-2.428-5.836-4.96-7.076-6.504-0.692-0.86-0.556-2.112 0.308-2.804 0.856-0.688 2.116-0.568 2.808 0.304 1 1.252 4.076 3.86 6.548 5.948 0.8 0.68 1.512 1.28 2.132 1.82 0.948-5.884 3.868-10.96 8.448-14.584v0c-0.016 0 5.1-5.028 7.224-8.812 0.544-0.98 1.224-2.348 1.988-3.888 3.116-6.26 5.916-11.6 8.592-13.568 0.896-0.652 2.132-0.44 2.784 0.432 0.648 0.9 0.452 2.14-0.432 2.788-2.104 1.54-5.268 7.9-7.368 12.1-0.796 1.592-1.516 3.024-2.084 4.056-2.416 4.328-7.852 9.64-8.084 9.868-4.844 3.844-7.416 9.436-7.416 15.9 0 0.86-0.568 1.624-1.38 1.908-0.192 0.080-0.404 0.112-0.612 0.112z" fill="#000000"/><path d="M46.928 86.148c-0.376 0-0.752-0.1-1.084-0.32-1.344-0.868-3.664-1.116-5.72-1.332-1.224-0.128-2.388-0.252-3.352-0.48-1.080-0.252-1.752-1.324-1.496-2.4 0.252-1.084 1.316-1.752 2.404-1.5 0.828 0.188 1.82 0.276 2.876 0.404 1.184 0.12 2.436 0.252 3.672 0.512-0.6-4.928 0.18-10.752 1.244-13.876 0.368-1.060 1.488-1.596 2.548-1.252 1.048 0.356 1.592 1.492 1.252 2.54-1.164 3.416-1.892 10.796-0.42 15.052 0.276 0.812 0.016 1.704-0.656 2.24-0.392 0.272-0.828 0.412-1.268 0.412z" fill="#000000"/><path d="M51.836 92.092c-1.092 0-2-0.9-2-2 0-3.824 0.896-9.584 3.36-14.296 0.524-0.98 1.744-1.352 2.712-0.836 0.976 0.508 1.356 1.72 0.84 2.696-2.14 4.080-2.912 9.252-2.912 12.436 0 1.112-0.896 2-2 2z" fill="#000000"/><path d="M62.892 94.42c-1.048 0-1.92-0.804-1.992-1.868-0.024-0.352-0.564-8.696 1.084-14.176 0.304-1.060 1.424-1.66 2.484-1.34 1.064 0.316 1.664 1.428 1.344 2.488-1.444 4.792-0.928 12.68-0.92 12.76 0.080 1.088-0.756 2.056-1.868 2.116-0.040 0.020-0.088 0.020-0.132 0.020z" fill="#000000"/><path d="M71 81.748c-8.416 0-16.468-3.24-21.492-8.768-4.788-5.272-6.584-12.084-5.18-19.68 0.196-1.084 1.252-1.82 2.328-1.592 1.084 0.2 1.8 1.252 1.596 2.328-1.168 6.32 0.284 11.936 4.216 16.256 4.76 5.252 12.792 8.064 21.024 7.352 1.084-0.096 2.080 0.724 2.164 1.82 0.096 1.092-0.72 2.080-1.82 2.164-0.944 0.076-1.896 0.12-2.836 0.12z" fill="#000000"/><text x="0" y="111" fill="#000000" font-size="5px" font-weight="bold" font-family="'Helvetica Neue', Helvetica, Arial-Unicode, Arial, Sans-serif">Created by iconsmind.com</text><text x="0" y="116" fill="#000000" font-size="5px" font-weight="bold" font-family="'Helvetica Neue', Helvetica, Arial-Unicode, Arial, Sans-serif">from the Noun Project</text></svg>