<?xml version="1.0" encoding="utf-8"?>
<!-- Generator: Adobe Illustrator 17.1.0, SVG Export Plug-In . SVG Version: 6.00 Build 0)  -->
<!DOCTYPE svg PUBLIC "-//W3C//DTD SVG 1.1//EN" "http://www.w3.org/Graphics/SVG/1.1/DTD/svg11.dtd">
<svg version="1.1" id="air-balloon" xmlns="http://www.w3.org/2000/svg" xmlns:xlink="http://www.w3.org/1999/xlink" x="0px"
	 y="0px" viewBox="0 0 862.8453 1009.9999" enable-background="new 0 0 862.8453 1009.9999" xml:space="preserve">
<g id="air-balloon-air-balloon">
	<g>
		<g>
			<g>
				<path fill="#5065A1" d="M509.1753,1009.9999H332.4639c-10.1094,0-18.8013-7.1914-20.6709-17.1367l-25.2329-133.5195
					c-1.1714-6.1446,0.4727-12.5137,4.4795-17.3223c3.9863-4.8291,9.9248-7.6231,16.1919-7.6231h227.1772
					c6.2666,0,12.2051,2.794,16.1914,7.6231c4.0069,4.8086,5.6504,11.1777,4.4795,17.3223l-25.2334,133.5195
					C527.9771,1002.8085,519.2857,1009.9999,509.1753,1009.9999L509.1753,1009.9999z M349.9092,967.9179H491.731l17.2803-91.4375
					H332.6285L349.9092,967.9179L349.9092,967.9179z"/>
			</g>
			<g>
				<path fill="none" d="M285.9029,855.4394"/>
			</g>
			<g>
				<path fill="none" d="M420.8199,855.4394"/>
			</g>
			<g>
				<path fill="none" d="M490.3951,855.4394"/>
			</g>
			<g>
				<g>
					<path fill="none" d="M218.1358,636.4394"/>
				</g>
				<g>
					<path fill="none" d="M420.8199,655.2206"/>
				</g>
				<g>
					<path fill="none" d="M543.8599,636.4394"/>
				</g>
				<g>
					<g>
						<path fill="#5065A1" d="M420.8199,862.7128c-11.6304,0-21.0411-9.4102-21.0411-21.041V21.0731
							c0-11.6303,9.4107-21.041,21.0411-21.041c11.6298,0,21.041,9.4107,21.041,21.041v820.5987
							C441.8609,853.3026,432.4497,862.7128,420.8199,862.7128L420.8199,862.7128z"/>
					</g>
					<g>
						<path fill="#5065A1" d="M540.7369,736.4667c-2.9375,0-5.8965-0.6162-8.7325-1.9102
							c-10.5625-4.8086-15.2265-17.3017-10.4179-27.8632c1.4384-3.1231,141.1015-313.9097,55.2324-516.9839
							c-29.959-70.8286-84.8213-120.9038-163.0674-148.8282c-10.9521-3.9042-16.6645-15.9453-12.7397-26.8769
							c3.8833-10.9517,15.8422-16.7051,26.8764-12.7598c89.835,32.0752,152.999,89.979,187.7256,172.1704
							c93.041,220.1905-49.623,537.3672-55.7461,550.7432C556.3326,731.9052,548.7095,736.4667,540.7369,736.4667L540.7369,736.4667
							z"/>
					</g>
					<g>
						<path fill="#5065A1" d="M300.9229,736.4667c-7.9927,0-15.6367-4.5615-19.1504-12.3086
							c-6.123-13.3965-148.7461-330.5937-55.7051-550.7637C260.793,91.2235,323.9366,33.2987,413.7515,1.2445
							c10.9722-3.9453,22.9717,1.8081,26.876,12.7598c3.9258,10.9316-1.7871,22.9727-12.7393,26.8769
							c-78.2461,27.9449-133.1089,78.0201-163.0473,148.8897c-85.9307,203.3208,53.7739,513.7993,55.1919,516.9224
							c4.8286,10.5615,0.1845,23.0546-10.3975,27.8632C306.7998,735.8505,303.8409,736.4667,300.9229,736.4667L300.9229,736.4667z"
							/>
					</g>
					<g>
						<path fill="#5065A1" d="M634.065,736.4667H207.6153c-6.1641,0-12.0205-2.7119-16.0274-7.418
							C183.7593,719.8642,0,501.8925,0,336.6674C0,160.4696,200.5674,0.0321,420.8199,0.0321
							c220.2529,0,420.8193,160.4375,420.8193,336.6353c0,163.643-183.6768,383.0737-191.5059,392.3403
							C646.147,733.7343,640.271,736.4667,634.065,736.4667L634.065,736.4667z M217.5401,694.3847h406.56
							c31.6846-39.3282,175.4571-225.1426,175.4571-357.7173c0-154.1704-180.5118-294.5532-378.7373-294.5532
							c-198.2251,0-378.7378,140.3828-378.7378,294.5532C42.0821,470.7421,185.8755,655.3651,217.5401,694.3847L217.5401,694.3847z"
							/>
					</g>
				</g>
				<g>
					<path fill="#5065A1" d="M302.0328,869.412c-6.5547,0-13.0274-3.0625-17.1373-8.7949l-99.5747-139.1914
						c-6.7603-9.4512-4.582-22.6026,4.8701-29.3633c9.4722-6.7598,22.6026-4.5605,29.3627,4.8711l99.5748,139.1904
						c6.7602,9.4522,4.582,22.6026-4.8697,29.3623C310.5396,868.1376,306.2657,869.412,302.0328,869.412L302.0328,869.412z"/>
				</g>
				<g>
					<path fill="#5065A1" d="M539.4829,869.412c-4.2324,0-8.5058-1.2744-12.2246-3.9258
						c-9.4531-6.7597-11.6308-19.9101-4.8711-29.3623l99.5762-139.1904c6.7598-9.4316,19.8897-11.6309,29.3623-4.8711
						c9.4522,6.7607,11.6299,19.9121,4.8701,29.3633l-99.5752,139.1914C552.5103,866.3495,546.0386,869.412,539.4829,869.412
						L539.4829,869.412z"/>
				</g>
			</g>
		</g>
	</g>
	<g>
		<polygon fill="#5065A1" points="690.8189,652.5292 150.8208,652.5292 150.8208,610.4472 690.8189,610.4472 690.8189,652.5292 		
			"/>
	</g>
	<g>
		<path fill="#5065A1" d="M769.6402,1009.9999H589.312c-11.6298,0-21.041-9.4111-21.041-21.041
			c0-11.6299,9.4112-21.041,21.041-21.041h180.3282c28.1914,0,51.123-22.9317,51.123-51.1026c0-21.4111-13.8701-40.6845-34.5-47.999
			c-8.8154-3.1035-14.5273-11.6719-13.9931-21c0.0205-0.5351,0.2675-2.9394,0.3496-3.4726
			c0.0205-27.8428-22.8907-50.7745-51.0616-50.7745c-28.1914,0-51.123,22.9316-51.123,51.123c0,11.6299-9.4111,21.041-21.041,21.041
			c-11.6299,0-21.041-9.4111-21.041-21.041c0-51.3896,41.8154-93.2051,93.205-93.2051c48.2471,0,88.0264,36.8633,92.712,83.917
			c29.5683,16.2334,48.5752,47.3223,48.5752,81.4111C862.8453,968.205,821.0298,1009.9999,769.6402,1009.9999L769.6402,1009.9999z"
			/>
	</g>
</g>
</svg>
