<?xml version="1.0" encoding="utf-8"?>
<!-- Generator: Adobe Illustrator 17.1.0, SVG Export Plug-In . SVG Version: 6.00 Build 0)  -->
<!DOCTYPE svg PUBLIC "-//W3C//DTD SVG 1.1//EN" "http://www.w3.org/Graphics/SVG/1.1/DTD/svg11.dtd">
<svg version="1.1" id="backpack" xmlns="http://www.w3.org/2000/svg" xmlns:xlink="http://www.w3.org/1999/xlink" x="0px" y="0px"
	 viewBox="0 0 925.8325 1010" enable-background="new 0 0 925.8325 1010" xml:space="preserve">
<g id="backpack-backpack">
	<g>
		<path fill="#5065A1" d="M796.686,475.9854H613.1255v-42.0831H796.686c6.8008,0,12.3291-5.5278,12.3291-12.3291V221.2866
			c0-43.6035-35.4668-79.0703-79.0713-79.0703H195.9092c-43.6245,0-79.1118,35.4668-79.1118,79.0703v200.2866
			c0,6.8013,5.538,12.3291,12.3496,12.3291h183.56v42.0831h-183.56c-30.0108,0-54.4326-24.4117-54.4326-54.4122V221.2866
			c0-66.8027,54.371-121.1538,121.1948-121.1538h534.0346c66.8038,0,121.1543,54.3511,121.1543,121.1538v200.2866
			C851.0981,451.5737,826.686,475.9854,796.686,475.9854L796.686,475.9854z"/>
	</g>
	<g>
		<path fill="#5065A1" d="M679.8677,1010H245.9653c-11.6201,0-21.0415-9.4111-21.0415-21.041V721.9512
			c0-48.412,39.3814-87.7831,87.7832-87.7831h300.4185c48.4121,0,87.7832,39.3711,87.7832,87.7831V988.959
			C700.9087,1000.5889,691.4985,1010,679.8677,1010L679.8677,1010z M267.0073,967.916h391.8184V721.9512
			c0-25.1924-20.5069-45.7002-45.7002-45.7002H312.707c-25.2026,0-45.6997,20.5078-45.6997,45.7002V967.916L267.0073,967.916z"/>
	</g>
	<g>
		<polygon fill="#5065A1" points="780.0005,1010 145.8325,1010 145.8325,967.916 780.0005,967.916 780.0005,1010 		"/>
	</g>
	<g>
		<path fill="#5065A1" d="M379.4897,542.7266H312.707c-11.6201,0-21.0415-9.4102-21.0415-21.0411V354.811
			c0-11.6201,9.4214-21.0415,21.0415-21.0415h66.7827c11.6202,0,21.0415,9.4214,21.0415,21.0415v166.8745
			C400.5312,533.3164,391.1099,542.7266,379.4897,542.7266L379.4897,542.7266z M333.7485,500.6436h24.6993V375.8525h-24.6993
			V500.6436L333.7485,500.6436z"/>
	</g>
	<g>
		<path fill="#5065A1" d="M613.1255,542.7266h-66.7617c-11.6094,0-21.041-9.4102-21.041-21.0411V354.811
			c0-11.6201,9.4316-21.0415,21.041-21.0415h66.7617c11.6308,0,21.042,9.4214,21.042,21.0415v166.8745
			C634.1675,533.3164,624.7563,542.7266,613.1255,542.7266L613.1255,542.7266z M567.4058,500.6436h24.6787V375.8525h-24.6787
			V500.6436L567.4058,500.6436z"/>
	</g>
	<g>
		<polygon fill="#5065A1" points="679.8677,776.3633 245.9653,776.3633 245.9653,734.2803 679.8677,734.2803 679.8677,776.3633 		
			"/>
	</g>
	<g>
		<path fill="#5065A1" d="M584.0708,121.1743h-42.084V54.4126c0-6.8018-5.5068-12.3291-12.3087-12.3291H396.1543
			c-6.8013,0-12.3291,5.5273-12.3291,12.3291v66.7617h-42.083V54.4126C341.7422,24.4116,366.1538,0,396.1543,0h133.5239
			c29.9805,0,54.3926,24.4116,54.3926,54.4126V121.1743L584.0708,121.1743z"/>
	</g>
	<g>
		<polygon fill="#5065A1" points="546.3638,475.9854 379.4897,475.9854 379.4897,433.9023 546.3638,433.9023 546.3638,475.9854 		
			"/>
	</g>
	<g>
		<polygon fill="#5065A1" points="634.1675,788.6924 592.0845,788.6924 592.0845,755.3223 634.1675,755.3223 634.1675,788.6924 		
			"/>
	</g>
	<g>
		<g>
			<polygon fill="#5065A1" points="904.7915,650.1133 780.0005,650.1133 780.0005,608.0303 904.7915,608.0303 904.7915,650.1133 			
				"/>
		</g>
		<g>
			<polygon fill="#5065A1" points="859.0923,662.4424 817.0083,662.4424 817.0083,629.0723 859.0923,629.0723 859.0923,662.4424 			
				"/>
		</g>
		<g>
			<path fill="#5065A1" d="M831.3101,1010h-73.8096V462.937h99.0019c38.2207,0,69.3301,31.0899,69.3301,69.3101v383.2295
				C925.8325,967.5879,883.4204,1010,831.3101,1010L831.3101,1010z M799.5825,967.916h31.7275
				c28.9111,0,52.4404-23.5273,52.4404-52.4394V532.2471c0-15.0108-12.2266-27.2266-27.2481-27.2266h-56.9199V967.916
				L799.5825,967.916z"/>
		</g>
	</g>
	<g>
		<g>
			<polygon fill="#5065A1" points="145.8325,650.1133 21.0415,650.1133 21.0415,608.0303 145.8325,608.0303 145.8325,650.1133 			
				"/>
		</g>
		<g>
			<polygon fill="#5065A1" points="108.8247,662.4424 66.7412,662.4424 66.7412,629.0723 108.8247,629.0723 108.8247,662.4424 			
				"/>
		</g>
		<g>
			<path fill="#5065A1" d="M168.333,1010H94.5229C42.4019,1010,0,967.5879,0,915.4766V532.2471
				c0-38.2202,31.1001-69.3101,69.3306-69.3101h99.0024V1010L168.333,1010z M69.3306,505.0205
				c-15.021,0-27.2476,12.2158-27.2476,27.2266v383.2295c0,28.912,23.5283,52.4394,52.4399,52.4394H126.25V505.0205H69.3306
				L69.3306,505.0205z"/>
		</g>
	</g>
</g>
</svg>
