<?xml version="1.0" encoding="utf-8"?>
<!-- Generator: Adobe Illustrator 17.1.0, SVG Export Plug-In . SVG Version: 6.00 Build 0)  -->
<!DOCTYPE svg PUBLIC "-//W3C//DTD SVG 1.1//EN" "http://www.w3.org/Graphics/SVG/1.1/DTD/svg11.dtd">
<svg version="1.1" id="bb-sign" xmlns="http://www.w3.org/2000/svg" xmlns:xlink="http://www.w3.org/1999/xlink" x="0px" y="0px"
	 viewBox="0 0 925.8325 1010" enable-background="new 0 0 925.8325 1010" xml:space="preserve">
<g id="bb-sign-bb-sign">
	<g>
		<path fill="#5065A1" d="M99.064,1010H52.2549C23.4458,1010,0,986.5742,0,957.7656V35.3022c0-6.9453,3.4316-13.4384,9.144-17.3632
			c2.0957-1.4283,4.377-2.4453,6.7603-3.0415C25.5415,5.4863,38.5488,0,52.2549,0H99.064c28.8296,0,52.2754,23.4458,52.2754,52.2754
			v905.4902C151.3394,986.5742,127.8936,1010,99.064,1010L99.064,1010z M42.083,49.5322v908.2334
			c0,5.5899,4.562,10.1504,10.1719,10.1504H99.064c5.6098,0,10.1923-4.5605,10.1923-10.1504V52.2754
			c0-5.6201-4.5825-10.1919-10.1923-10.1919H52.2549c-3.5962,0-6.8633,1.9624-8.7334,5.2397
			C43.0898,48.104,42.5967,48.8335,42.083,49.5322L42.083,49.5322z"/>
	</g>
	<g>
		<path fill="#5065A1" d="M873.5981,193.4229H147.2915c-11.6304,0-21.0415-9.4214-21.0415-21.0416
			c0-11.6201,9.4111-21.0415,21.0415-21.0415h726.3066c5.5899,0,10.1524-4.562,10.1524-10.1713v-25.7681
			c0-5.6201-4.5625-10.1919-10.1524-10.1919H147.2915c-11.6304,0-21.0415-9.4219-21.0415-21.042s9.4111-21.0415,21.0415-21.0415
			h726.3066c28.8096,0,52.2344,23.4458,52.2344,52.2754v25.7681C925.8325,169.9771,902.4077,193.4229,873.5981,193.4229
			L873.5981,193.4229z"/>
	</g>
	<g>
		<g>
			<path fill="#5065A1" d="M827.981,703.6836H224.0811c-11.6304,0-21.0415-9.4316-21.0415-21.042V309.8921
				c0-11.6201,9.4111-21.042,21.0415-21.042h68.6118c11.6303,0,21.0415,9.4219,21.0415,21.042
				c0,11.6201-9.4112,21.0415-21.0415,21.0415H245.123v330.666h561.8169V330.9541h-47.5498c-11.6298,0-21.042-9.4214-21.042-21.0415
				c0-11.6201,9.4122-21.0415,21.042-21.0415h68.5909c11.6308,0,21.0419,9.4214,21.0419,21.0415v372.729
				C849.0229,694.252,839.6118,703.6836,827.981,703.6836L827.981,703.6836z"/>
		</g>
		<g>
			<path fill="#5065A1" d="M671.4224,330.9541H380.6401c-11.6303,0-21.0415-9.4214-21.0415-21.0415
				c0-11.6201,9.4112-21.0415,21.0415-21.0415h290.7823c11.6308,0,21.041,9.4214,21.041,21.0415
				C692.4634,321.5327,683.0532,330.9541,671.4224,330.9541L671.4224,330.9541z"/>
		</g>
		<g>
			<g>
				<path fill="#5065A1" d="M336.6665,312.9946c-11.6304,0-21.0415-9.4214-21.0415-21.0415V189.375
					c0-11.6201,9.4111-21.0415,21.0415-21.0415s21.0415,9.4214,21.0415,21.0415v102.5781
					C357.708,303.5732,348.2969,312.9946,336.6665,312.9946L336.6665,312.9946z"/>
			</g>
			<g>
				<path fill="#5065A1" d="M715.4165,312.9946c-11.6309,0-21.041-9.4214-21.041-21.0415V189.375
					c0-11.6201,9.4101-21.0415,21.041-21.0415c11.6309,0,21.041,9.4214,21.041,21.0415v102.5781
					C736.4575,303.5732,727.0474,312.9946,715.4165,312.9946L715.4165,312.9946z"/>
			</g>
		</g>
	</g>
	<g>
		<path fill="#5065A1" d="M336.6665,374.9282c-35.8774,0-65.0566-29.1792-65.0566-65.0361
			c0-35.8574,29.1792-65.0361,65.0566-65.0361c35.8569,0,65.0156,29.1787,65.0156,65.0361
			C401.6821,345.749,372.5234,374.9282,336.6665,374.9282L336.6665,374.9282z M336.6665,286.9395
			c-12.6577,0-22.9731,10.2944-22.9731,22.9526c0,12.6577,10.3154,22.9526,22.9731,22.9526
			c12.6372,0,22.9321-10.2949,22.9321-22.9526C359.5986,297.2339,349.3037,286.9395,336.6665,286.9395L336.6665,286.9395z"/>
	</g>
	<g>
		<path fill="#5065A1" d="M715.4165,374.9282c-35.8779,0-65.0566-29.1792-65.0566-65.0361
			c0-35.8574,29.1787-65.0361,65.0566-65.0361c35.8574,0,65.0156,29.1787,65.0156,65.0361
			C780.4321,345.749,751.2739,374.9282,715.4165,374.9282L715.4165,374.9282z M715.4165,286.9395
			c-12.6582,0-22.9727,10.2944-22.9727,22.9526c0,12.6577,10.3145,22.9526,22.9727,22.9526
			c12.6367,0,22.9316-10.2949,22.9316-22.9526C738.3481,297.2339,728.0532,286.9395,715.4165,286.9395L715.4165,286.9395z"/>
	</g>
	<g>
		<g>
			<path fill="#5065A1" d="M367.3247,429.1143c29.1792,0,47.3643,12.6992,47.3643,33.145c0,14.4043-8.7124,25.5825-22.9112,29.1787
				c17.0347,3.2261,27.6582,16.1099,27.6582,33.5347c0,22.7265-19.1513,36.7412-50.0151,36.7412h-63.084V429.1143H367.3247z
				 M336.2554,482.5405h29.5488c11.1787,0,18.2061-5.5068,18.2061-14.7744c0-9.103-7.0274-14.2197-18.2061-14.2197h-29.5488
				V482.5405z M336.2554,537.2812h29.5488c14.2197,0,22.7471-5.8769,22.7471-16.1093c0-9.6582-8.5274-15.5347-22.7471-15.5347
				h-29.5488V537.2812z"/>
		</g>
		<g>
			<path fill="#5065A1" d="M546.3022,547.8848c-11.3837,9.8427-24.4521,15.1445-38.4668,15.1445
				c-25.1923,0-44.1381-15.9043-44.1381-38.2412c0-18.1856,12.6997-28.0488,27.0825-36.001
				c-8.1367-11.1782-11.5479-20.2607-11.5479-29.7334c0-18.7607,14.3838-31.2544,36.7412-31.2544
				c21.6172,0,36.5762,12.1236,36.5762,29.1582c0,18.3706-15.5351,28.0488-31.4395,36.1861
				c6.041,6.8222,13.623,14.7744,22.9121,23.8779c3.9648-6.4531,7.3769-13.8296,10.0478-22.1724l18.5342,13.8286
				c-3.3906,8.8985-7.7461,16.8496-12.4932,23.8575l20.2608,19.5214l-14.7539,14.7735L546.3022,547.8848z M530.9321,532.9258
				c-11.7334-11.7538-21-21.4121-28.6035-29.7339c-8.5078,5.3013-14.5683,11.1782-14.5683,19.5005
				c0,11.3633,9.1025,19.1299,21.2265,19.1299C516.7534,541.8223,524.1304,538.6172,530.9321,532.9258z M509.9321,479.1294
				c10.9727-5.877,19.6856-12.1235,19.6856-21.9868c0-7.1919-5.3028-12.1236-13.2539-12.1236
				c-8.7129,0-14.1993,5.877-14.1993,14.0347C502.1645,464.9097,504.6294,471.3623,509.9321,479.1294z"/>
		</g>
		<g>
			<path fill="#5065A1" d="M683.936,429.1143c29.1797,0,47.3848,12.6992,47.3848,33.145c0,14.4043-8.7129,25.5825-22.9316,29.1787
				c17.0546,3.2261,27.6582,16.1099,27.6582,33.5347c0,22.7265-19.1514,36.7412-50.0157,36.7412h-63.0839V429.1143H683.936z
				 M652.8667,482.5405h29.5898c11.1377,0,18.1651-5.5068,18.1651-14.7744c0-9.103-7.0274-14.2197-18.1651-14.2197h-29.5898
				V482.5405z M652.8667,537.2812h29.5898c14.1788,0,22.7266-5.8769,22.7266-16.1093c0-9.6582-8.5478-15.5347-22.7266-15.5347
				h-29.5898V537.2812z"/>
		</g>
	</g>
	<g>
		<polygon fill="#5065A1" points="96.7012,355.0781 54.6177,355.0781 54.6177,105.2085 96.7012,105.2085 96.7012,355.0781 		"/>
	</g>
</g>
</svg>
