<?xml version="1.0" encoding="utf-8"?>
<!-- Generator: Adobe Illustrator 17.1.0, SVG Export Plug-In . SVG Version: 6.00 Build 0)  -->
<!DOCTYPE svg PUBLIC "-//W3C//DTD SVG 1.1//EN" "http://www.w3.org/Graphics/SVG/1.1/DTD/svg11.dtd">
<svg version="1.1" id="boat-wheel-nautic" xmlns="http://www.w3.org/2000/svg" xmlns:xlink="http://www.w3.org/1999/xlink" x="0px"
	 y="0px" viewBox="0 0 1010 1010" enable-background="new 0 0 1010 1010" xml:space="preserve">
<g id="boat-wheel-nautic-boat-wheel-nautic">
	<g>
		<path fill="#5065A1" d="M505,142.2163c-30.001,0-54.4126-24.4116-54.4126-54.4331V54.4126C450.5874,24.4116,474.999,0,505,0
			c30.001,0,54.4121,24.4116,54.4121,54.4126v33.3706C559.4121,117.8047,535.001,142.2163,505,142.2163L505,142.2163z M505,42.0835
			c-6.8018,0-12.3291,5.5273-12.3291,12.3291v33.3706c0,6.8018,5.5273,12.3496,12.3291,12.3496
			c6.8018,0,12.3291-5.5478,12.3291-12.3496V54.4126C517.3291,47.6108,511.8018,42.0835,505,42.0835L505,42.0835z"/>
	</g>
	<g>
		<path fill="#5065A1" d="M505,1010c-30.001,0-54.4126-24.4316-54.4126-54.4531v-33.3301c0-30.0215,24.4116-54.4531,54.4126-54.4531
			c30.001,0,54.4121,24.4316,54.4121,54.4531v33.3301C559.4121,985.5684,535.001,1010,505,1010L505,1010z M505,909.8467
			c-6.8018,0-12.3291,5.5478-12.3291,12.3701v33.3301c0,6.8222,5.5273,12.3691,12.3291,12.3691
			c6.8018,0,12.3291-5.5469,12.3291-12.3691v-33.3301C517.3291,915.3945,511.8018,909.8467,505,909.8467L505,909.8467z"/>
	</g>
	<g>
		<polygon fill="#5065A1" points="526.041,187.9365 483.9585,187.9365 483.9585,121.1743 526.041,121.1743 526.041,187.9365 		"/>
	</g>
	<g>
		<path fill="#5065A1" d="M505,843.1055c-186.4058,0-338.064-151.669-338.064-338.1055S318.5942,166.895,505,166.895
			c186.4365,0,338.1055,151.6685,338.1055,338.105S691.4365,843.1055,505,843.1055L505,843.1055z M505,208.9785
			c-163.2065,0-295.9805,132.8047-295.9805,296.0215S341.7935,801.0215,505,801.0215
			c163.2373,0,296.0215-132.8047,296.0215-296.0215S668.2373,208.9785,505,208.9785L505,208.9785z"/>
	</g>
	<g>
		<path fill="#5065A1" d="M505,776.3633c-149.624,0-271.3428-121.7285-271.3428-271.3633
			c0-149.6343,121.7188-271.3633,271.3428-271.3633c149.6348,0,271.3633,121.729,271.3633,271.3633
			C776.3633,654.6348,654.6348,776.3633,505,776.3633L505,776.3633z M505,275.7197c-126.4146,0-229.2598,102.8452-229.2598,229.2803
			c0,126.4355,102.8452,229.2803,229.2598,229.2803c126.4141,0,229.2803-102.8448,229.2803-229.2803
			C734.2803,378.5649,631.4141,275.7197,505,275.7197L505,275.7197z"/>
	</g>
	<g>
		<polygon fill="#5065A1" points="526.041,888.8047 483.9585,888.8047 483.9585,822.0635 526.041,822.0635 526.041,888.8047 		"/>
	</g>
	<g>
		<polygon fill="#5065A1" points="526.041,755.3223 483.9585,755.3223 483.9585,621.8184 526.041,621.8184 526.041,755.3223 		"/>
	</g>
	<g>
		<polygon fill="#5065A1" points="526.041,388.1611 483.9585,388.1611 483.9585,254.6782 526.041,254.6782 526.041,388.1611 		"/>
	</g>
	<g>
		<path fill="#5065A1" d="M955.5664,559.4121h-33.3496c-30.001,0-54.4336-24.4111-54.4336-54.4121
			c0-30.0215,24.4326-54.4536,54.4336-54.4536h33.3496C985.5879,450.5464,1010,474.9785,1010,505
			C1010,535.001,985.5879,559.4121,955.5664,559.4121L955.5664,559.4121z M922.2168,492.6299
			c-6.8223,0-12.3496,5.5478-12.3496,12.3701c0,6.8018,5.5273,12.3291,12.3496,12.3291h33.3496
			c6.8027,0,12.3496-5.5273,12.3496-12.3291c0-6.8223-5.5469-12.3701-12.3496-12.3701H922.2168L922.2168,492.6299z"/>
	</g>
	<g>
		<path fill="#5065A1" d="M87.8242,559.4121H54.4331C24.4219,559.4121,0,535.001,0,505c0-30.0215,24.4219-54.4536,54.4331-54.4536
			h33.3911c29.9805,0,54.3716,24.4321,54.3716,54.4536C142.1958,535.001,117.8047,559.4121,87.8242,559.4121L87.8242,559.4121z
			 M54.4331,492.6299c-6.812,0-12.3496,5.5478-12.3496,12.3701c0,6.8018,5.5376,12.3291,12.3496,12.3291h33.3911
			c6.771,0,12.2881-5.5273,12.2881-12.3291c0-6.8223-5.5171-12.3701-12.2881-12.3701H54.4331L54.4331,492.6299z"/>
	</g>
	<g>
		<polygon fill="#5065A1" points="187.9775,526.041 121.1538,526.041 121.1538,483.9585 187.9775,483.9585 187.9775,526.041 		"/>
	</g>
	<g>
		<polygon fill="#5065A1" points="388.2021,526.041 254.6987,526.041 254.6987,483.9585 388.2021,483.9585 388.2021,526.041 		"/>
	</g>
	<g>
		<polygon fill="#5065A1" points="755.3223,526.041 621.8184,526.041 621.8184,483.9585 755.3223,483.9585 755.3223,526.041 		"/>
	</g>
	<g>
		<polygon fill="#5065A1" points="888.8262,526.041 822.0635,526.041 822.0635,483.9585 888.8262,483.9585 888.8262,526.041 		"/>
	</g>
	<g>
		<path fill="#5065A1" d="M799.9941,264.418c-14.5273,0-28.1923-5.6714-38.4668-15.9453
			c-10.2949-10.295-15.9863-23.9805-15.9453-38.5494c0-14.5278,5.6719-28.1923,15.9864-38.4668l23.5078-23.5278
			c20.7129-20.6514,56.4669-20.5483,76.9746-0.0205c10.2744,10.2534,15.9453,23.9185,15.9668,38.4463
			c0.0195,14.5483-5.6719,28.2334-15.9668,38.5283l-23.5899,23.5899C828.207,258.7466,814.543,264.418,799.9941,264.418
			L799.9941,264.418z M823.6045,174.0664c-3.3076,0-6.4316,1.2739-8.7744,3.6372l-23.5078,23.5278
			c-2.3828,2.3838-3.6573,5.4659-3.6573,8.7334c-0.0205,3.2876,1.2745,6.3902,3.6163,8.733
			c4.6855,4.685,12.7812,4.6645,17.4257,0.0205l23.5899-23.6104c2.3418-2.3423,3.6367-5.4453,3.6367-8.7329
			c0-3.2876-1.2949-6.3701-3.6172-8.6919C829.9541,175.3403,826.8711,174.0459,823.6045,174.0664L823.6045,174.0664z"/>
	</g>
	<g>
		<path fill="#5065A1" d="M186.3955,877.9961c-14.5278,0-28.1821-5.6709-38.4565-15.9453
			c-10.2642-10.2129-15.9458-23.877-15.9561-38.4053c-0.0102-14.5478,5.6611-28.2539,15.9766-38.5488l23.5796-23.5693
			c20.4868-20.5488,56.395-20.5488,76.9438,0c21.1958,21.2061,21.1958,55.707,0,76.954l-23.6308,23.5899
			C214.5776,872.3457,200.9233,877.9961,186.3955,877.9961L186.3955,877.9961z M209.9956,787.665
			c-3.2778,0-6.3599,1.2745-8.6821,3.5967l-23.6099,23.6094c-2.353,2.3428-3.6372,5.4453-3.6372,8.7334
			c0,3.2666,1.2842,6.3496,3.6065,8.6514c4.7465,4.7666,12.75,4.7255,17.435,0.041l23.6206-23.5899
			c4.7876-4.7881,4.7984-12.6172-0.0102-17.4257C216.376,788.9395,213.2832,787.665,209.9956,787.665L209.9956,787.665z"/>
	</g>
	<g>
		<polygon fill="#5065A1" points="248.4829,791.2813 218.708,761.5273 265.8872,714.3066 295.6621,744.0605 248.4829,791.2813 		"/>
	</g>
	<g>
		<polygon fill="#5065A1" points="342.9956,696.7588 313.2412,667.0039 407.5796,572.707 437.334,602.4609 342.9956,696.7588 		"/>
	</g>
	<g>
		<polygon fill="#5065A1" points="602.4414,437.272 572.6875,407.5181 667.1689,313.1182 696.9229,342.8726 602.4414,437.272 		"/>
	</g>
	<g>
		<polygon fill="#5065A1" points="744.1025,295.6724 714.3477,265.918 761.5479,218.7183 791.3027,248.4727 744.1025,295.6724 		"/>
	</g>
	<g>
		<path fill="#5065A1" d="M823.6045,877.9961c-14.5283,0-28.1719-5.6504-38.4873-15.9248l-23.5899-23.5899
			c-10.2734-10.2744-15.9658-23.9599-15.9453-38.5078c0-14.5478,5.6719-28.2129,15.9864-38.4872
			c20.4257-20.4669,56.3847-20.5273,76.913,0.0615l23.5694,23.5693c10.3154,10.2744,15.9863,23.9805,15.9668,38.5283
			c-0.0215,14.5283-5.6924,28.1924-16.0078,38.4463C851.8174,872.3252,838.1328,877.9961,823.6045,877.9961L823.6045,877.9961z
			 M799.9941,787.665c-3.2675,0-6.3496,1.2745-8.6718,3.5967c-2.3828,2.3828-3.6573,5.4649-3.6573,8.7324
			c-0.0205,3.2881,1.2745,6.3702,3.6163,8.7129l23.5898,23.5899c4.6035,4.623,12.7402,4.664,17.4043,0.0195
			c2.3633-2.3623,3.6582-5.4453,3.6582-8.7119c0-3.2881-1.2949-6.3906-3.6367-8.7119l-23.5899-23.6113
			C806.3643,788.9395,803.2822,787.665,799.9941,787.665L799.9941,787.665z"/>
	</g>
	<g>
		<path fill="#5065A1" d="M209.9956,264.418c-14.5381,0-28.2031-5.6714-38.4668-15.9453l-23.5898-23.6104
			c-10.2847-10.2744-15.9663-23.9595-15.9561-38.5078c0.0103-14.5278,5.6817-28.1929,15.9868-38.4668
			c20.5074-20.5073,56.313-20.5073,76.8824,0l23.6206,23.6103c21.1958,21.1851,21.2061,55.7066,0.0205,76.9541
			C238.1982,258.7466,224.5337,264.418,209.9956,264.418L209.9956,264.418z M186.3955,174.0664
			c-3.2773,0-6.3599,1.2739-8.6919,3.5962c-2.353,2.3423-3.6372,5.4248-3.6372,8.7124c0,3.2876,1.2842,6.3906,3.627,8.7124
			l23.6098,23.6309c4.6338,4.644,12.7403,4.6235,17.4151,0c4.7978-4.8081,4.8086-12.6578,0-17.4663l-23.6104-23.5894
			C192.7759,175.3403,189.6831,174.0664,186.3955,174.0664L186.3955,174.0664z"/>
	</g>
	<g>
		<polygon fill="#5065A1" points="761.5479,791.2813 714.3477,744.0605 744.1025,714.3066 791.3027,761.5273 761.5479,791.2813 		
			"/>
	</g>
	<g>
		<polygon fill="#5065A1" points="667.1689,696.8408 572.5635,602.3184 602.2773,572.5635 696.9229,667.0859 667.1689,696.8408 		
			"/>
	</g>
	<g>
		<polygon fill="#5065A1" points="265.8975,295.6724 218.7183,248.4727 248.4727,218.7183 295.6519,265.918 265.8975,295.6724 		"/>
	</g>
	<g>
		<polygon fill="#5065A1" points="407.5796,437.313 313.0771,342.8726 342.8311,313.1182 437.334,407.5591 407.5796,437.313 		"/>
	</g>
	<g>
		<path fill="#5065A1" d="M505,642.8594c-76.0088,0-137.8394-61.8506-137.8394-137.8594
			c0-76.0293,61.8306-137.8804,137.8394-137.8804c76.0293,0,137.8594,61.8511,137.8594,137.8804
			C642.8594,581.0088,581.0293,642.8594,505,642.8594L505,642.8594z M505,409.2026c-52.7993,0-95.7559,42.9673-95.7559,95.7974
			c0,52.8096,42.9566,95.7764,95.7559,95.7764c52.8096,0,95.7764-42.9668,95.7764-95.7764
			C600.7764,452.1699,557.8096,409.2026,505,409.2026L505,409.2026z"/>
	</g>
	<g>
		<path fill="#5065A1" d="M505,576.1182c-39.2065,0-71.0977-31.9113-71.0977-71.1182c0-39.2065,31.8912-71.1182,71.0977-71.1182
			c39.207,0,71.0977,31.9117,71.0977,71.1182C576.0977,544.207,544.207,576.1182,505,576.1182L505,576.1182z M505,475.9648
			c-15.9971,0-29.0146,13.0279-29.0146,29.0352c0,16.0078,13.0175,29.0352,29.0146,29.0352
			c15.9971,0,29.0146-13.0274,29.0146-29.0352C534.0146,488.9927,520.9971,475.9648,505,475.9648L505,475.9648z"/>
	</g>
</g>
</svg>
