<?xml version="1.0" encoding="utf-8"?>
<!-- Generator: Adobe Illustrator 17.1.0, SVG Export Plug-In . SVG Version: 6.00 Build 0)  -->
<!DOCTYPE svg PUBLIC "-//W3C//DTD SVG 1.1//EN" "http://www.w3.org/Graphics/SVG/1.1/DTD/svg11.dtd">
<svg version="1.1" id="camera" xmlns="http://www.w3.org/2000/svg" xmlns:xlink="http://www.w3.org/1999/xlink" x="0px" y="0px"
	 viewBox="0 0 1010 1010" enable-background="new 0 0 1010 1010" xml:space="preserve">
<g id="camera-camera">
	<g>
		<path fill="#5065A1" d="M922.1309,570.8691H87.8691c-12.1362,0-21.9565-9.8203-21.9565-21.956V197.6084
			C65.9126,88.6406,154.5532,0,263.5,0h483c108.9473,0,197.5879,88.6406,197.5879,197.6084v351.3047
			C944.0879,561.0488,934.2676,570.8691,922.1309,570.8691L922.1309,570.8691z M109.8257,526.957h790.3491V197.6084
			c0-84.7383-68.9365-153.6953-153.6748-153.6953h-483c-84.7388,0-153.6743,68.957-153.6743,153.6953V526.957L109.8257,526.957z"/>
	</g>
	<g>
		<path fill="#5065A1" d="M988.043,856.3047H803.5996v-43.9141h162.4872V664.7852l-62.7822-104.5723l37.6523-22.5996
			l65.9121,109.7822c2.0586,3.4092,3.1309,7.3115,3.1309,11.2998v175.6524C1010,846.4844,1000.1797,856.3047,988.043,856.3047
			L988.043,856.3047z"/>
	</g>
	<g>
		<path fill="#5065A1" d="M206.3784,856.3047H21.9565C9.8203,856.3047,0,846.4844,0,834.3477V658.6953
			c0-3.9883,1.0723-7.8906,3.1309-11.2998L69.043,537.6133l37.6523,22.5996L43.9131,664.7852v147.6054h162.4653V856.3047
			L206.3784,856.3047z"/>
	</g>
	<g>
		<polygon fill="#5065A1" points="988.043,680.6523 21.9565,680.6523 21.9565,636.7383 988.043,636.7383 988.043,680.6523 		"/>
	</g>
	<g>
		<polygon fill="#5065A1" points="856.3047,768.4785 153.6958,768.4785 153.6958,724.5645 856.3047,724.5645 856.3047,768.4785 		
			"/>
	</g>
	<g>
		<path fill="#5065A1" d="M856.3047,1010H153.6958c-7.1616,0-13.873-3.4951-17.9897-9.3701
			c-4.0953-5.8545-5.1031-13.3584-2.6373-20.0908l87.8047-241.5215l41.2539,15.0088l-77.0835,212.0605H824.957l-77.084-212.0605
			l41.254-15.0088l87.8046,241.5215c2.4659,6.7324,1.458,14.2363-2.6367,20.0908C870.1777,1006.5049,863.4668,1010,856.3047,1010
			L856.3047,1010z"/>
	</g>
	<g>
		<path fill="#5065A1" d="M505,461.0869c-96.853,0-175.6519-78.7993-175.6519-175.6523S408.147,109.8037,505,109.8037
			c96.8535,0,175.6523,78.7778,175.6523,175.6309S601.8535,461.0869,505,461.0869L505,461.0869z M505,153.7168
			c-72.645,0-131.7388,59.0942-131.7388,131.7178c0,72.6455,59.0938,131.7392,131.7388,131.7392
			c72.6455,0,131.7393-59.0937,131.7393-131.7392C636.7393,212.811,577.6455,153.7168,505,153.7168L505,153.7168z"/>
	</g>
	<g>
		<path fill="#5065A1" d="M505,351.3042c-36.3223,0-65.8696-29.5469-65.8696-65.8696c0-36.3228,29.5473-65.8697,65.8696-65.8697
			s65.8691,29.5469,65.8691,65.8697C570.8691,321.7573,541.3223,351.3042,505,351.3042L505,351.3042z M505,263.478
			c-12.1147,0-21.9565,9.8418-21.9565,21.9566c0,12.1147,9.8418,21.9565,21.9565,21.9565c12.1152,0,21.957-9.8418,21.957-21.9565
			C526.957,273.3198,517.1152,263.478,505,263.478L505,263.478z"/>
	</g>
	<g>
		<polygon fill="#5065A1" points="439.1948,138.1499 439.1304,21.978 483.0435,21.9351 483.1079,138.1074 439.1948,138.1499 		"/>
	</g>
	<g>
		<polygon fill="#5065A1" points="570.8691,138.1289 526.957,138.1289 526.957,21.9565 570.8691,21.9565 570.8691,138.1289 		"/>
	</g>
	<g>
		<polygon fill="#5065A1" points="483.0649,548.9131 439.1519,548.9131 439.1948,432.7407 483.1079,432.7407 483.0649,548.9131 		
			"/>
	</g>
	<g>
		<polygon fill="#5065A1" points="570.8691,548.9131 526.957,548.9131 526.957,432.7407 570.8691,432.7407 570.8691,548.9131 		"/>
	</g>
	<g>
		<polygon fill="#5065A1" points="266.3516,219.5649 200.4819,219.5649 200.4819,175.6519 266.3516,175.6519 266.3516,219.5649 		
			"/>
	</g>
	<g>
		<polygon fill="#5065A1" points="266.3516,282.6045 200.4819,282.6045 200.4819,238.6914 266.3516,238.6914 266.3516,282.6045 		
			"/>
	</g>
</g>
</svg>
