<?xml version="1.0" encoding="utf-8"?>
<!-- Generator: Adobe Illustrator 17.1.0, SVG Export Plug-In . SVG Version: 6.00 Build 0)  -->
<!DOCTYPE svg PUBLIC "-//W3C//DTD SVG 1.1//EN" "http://www.w3.org/Graphics/SVG/1.1/DTD/svg11.dtd">
<svg version="1.1" id="church" xmlns="http://www.w3.org/2000/svg" xmlns:xlink="http://www.w3.org/1999/xlink" x="0px" y="0px"
	 viewBox="0 0 857.6949 1010" enable-background="new 0 0 857.6949 1010" xml:space="preserve">
<g id="church-church">
	<g id="church-outline">
		<g>
			<path fill="#5065A1" d="M195.9092,833.0977C73.2349,753.6162,0,618.9824,0,472.9854C0,283.4048,121.647,118.647,302.6792,63.002
				l12.3706,40.2338C151.7915,153.415,42.0835,302.0015,42.0835,472.9854c0,131.6748,66.063,253.0966,176.7168,324.8095
				L195.9092,833.0977L195.9092,833.0977z"/>
		</g>
		<g>
			<path fill="#5065A1" d="M656.9156,836.1797l-22.419-35.6309c113.4072-71.3438,181.1143-193.7929,181.1143-327.5634
				c0-171.251-114.7832-324.0499-279.1094-371.5582l11.6914-40.4394c182.2246,52.707,309.502,222.1089,309.502,411.9976
				C857.6949,621.3047,782.6304,757.0684,656.9156,836.1797L656.9156,836.1797z"/>
		</g>
		<g>
			<g>
				<polygon fill="#5065A1" points="671.2378,1010 629.1538,1010 629.1538,479.52 671.2378,479.52 671.2378,1010 				"/>
			</g>
			<g>
				<polygon fill="#5065A1" points="228.4995,1010 186.416,1010 186.416,479.52 228.4995,479.52 228.4995,1010 				"/>
			</g>
		</g>
		<g>
			<path fill="#5065A1" d="M753.9654,507.6094H103.6875l325.1392-359.2285L753.9654,507.6094L753.9654,507.6094z M198.5396,465.5264
				h460.5742L428.8267,211.0947L198.5396,465.5264L198.5396,465.5264z"/>
		</g>
		<g>
			<polygon fill="#5065A1" points="449.8687,206.9233 407.7852,206.9233 407.7852,0 449.8687,0 449.8687,206.9233 			"/>
		</g>
		<g>
			<polygon fill="#5065A1" points="497.438,89.6738 360.2154,89.6738 360.2154,47.5903 497.438,47.5903 497.438,89.6738 			"/>
		</g>
		<g>
			<path fill="#5065A1" d="M531.8775,1008.0684h-42.083V871.3799c0-33.6377-27.3506-60.9883-60.9678-60.9883
				s-60.9673,27.3506-60.9673,60.9883v136.6885h-42.0835V871.3799c0-56.8369,46.2344-103.0713,103.0508-103.0713
				s103.0508,46.2344,103.0508,103.0713V1008.0684L531.8775,1008.0684z"/>
		</g>
		<g>
			<path fill="#5065A1" d="M449.8687,743.4863h-42.0835v-38.2822h42.0835V743.4863L449.8687,743.4863z M449.8687,663.1211h-42.0835
				v-42.084h42.0835V663.1211L449.8687,663.1211z M449.8687,578.9541h-42.0835v-42.083h42.0835V578.9541L449.8687,578.9541z"/>
		</g>
	</g>
</g>
</svg>
