<?xml version="1.0" encoding="utf-8"?>
<!-- Generator: Adobe Illustrator 17.1.0, SVG Export Plug-In . SVG Version: 6.00 Build 0)  -->
<!DOCTYPE svg PUBLIC "-//W3C//DTD SVG 1.1//EN" "http://www.w3.org/Graphics/SVG/1.1/DTD/svg11.dtd">
<svg version="1.1" id="citytrip-paris" xmlns="http://www.w3.org/2000/svg" xmlns:xlink="http://www.w3.org/1999/xlink" x="0px"
	 y="0px" viewBox="0 0 1010 1009.2697" enable-background="new 0 0 1010 1009.2697" xml:space="preserve">
<g id="citytrip-paris-citytrip-paris">
	<g>
		<g>
			<path fill="#5065A1" d="M798.0625,1009.2697h-168.292c-11.6299,0-21.042-9.4102-21.042-21.041v-52.0489
				c0-72.3105-36.3301-108.9688-108.0024-108.9688c-71.6734,0-108.003,36.6582-108.003,108.9688v52.0489
				c0,11.6308-9.4111,21.041-21.0419,21.041H211.9375c-8.6514,0-16.439-5.3008-19.583-13.3555
				c-3.1646-8.0547-1.0684-17.2402,5.2812-23.1172c157.73-146.1406,251.9039-440.334,251.9039-786.9873h42.0834
				c0,331.7549-85.1323,618.5508-229.7529,781.3779h88.7695v-31.0078c0-96.0029,54.7002-151.0527,150.0865-151.0527
				s150.0864,55.0498,150.0864,151.0527v31.0078h97.2969c-144.6211-162.7441-229.753-448.8203-229.753-779.4257h42.0831
				c0,345.4199,94.1738,638.8945,251.9248,785.0351c6.3495,5.877,8.4462,15.0625,5.2812,23.1172
				C814.502,1003.9689,806.7139,1009.2697,798.0625,1009.2697L798.0625,1009.2697z"/>
		</g>
		<g>
			<path fill="#5065A1" d="M673.334,666.1925H336.6665c-11.6304,0-21.0415-9.4111-21.0415-21.042
				c0-11.6299,9.4111-21.041,21.0415-21.041H673.334c11.6299,0,21.041,9.4111,21.041,21.041
				C694.375,656.7814,684.9639,666.1925,673.334,666.1925L673.334,666.1925z"/>
		</g>
		<g>
			<path fill="none" d="M264.8701,730.9611"/>
		</g>
		<g>
			<path fill="#5065A1" d="M569.3379,194.4811H440.6831c-11.6304,0-21.0415-9.4111-21.0415-21.0415v-44.6314
				c0-3.7807,1.0068-7.4795,2.9385-10.7265L486.897,9.5856c7.6025-12.7808,28.603-12.7808,36.2065,0l64.3369,108.4961
				c1.9317,3.247,2.9385,6.9458,2.9385,10.7265v44.6314C590.3789,185.07,580.9678,194.4811,569.3379,194.4811L569.3379,194.4811z
				 M461.7251,152.3981h86.5708v-17.8159L505,61.5734l-43.2749,73.0088V152.3981L461.7251,152.3981z"/>
		</g>
		<g>
			<path fill="#5065A1" d="M599.6875,494.6745h-189.375c-11.6304,0-21.0415-9.4117-21.0415-21.042
				c0-11.6304,9.4111-21.0415,21.0415-21.0415h189.375c11.6309,0,21.041,9.4111,21.041,21.0415
				C620.7285,485.2628,611.3184,494.6745,599.6875,494.6745L599.6875,494.6745z"/>
		</g>
	</g>
	<g>
		<g>
			<g>
				<path fill="#5065A1" d="M904.6484,888.7326c-3.4726,0-6.9257-0.8633-10.0693-2.5684l-5.4248-2.959
					c-57.2275-31.665-89.9609-79.584-89.9609-131.5098c0.0195-51.9268,32.7538-99.8251,89.8574-131.3671l5.5283-3.0205
					c6.3076-3.4317,13.9316-3.4317,20.2402,0.041l5.3633,2.959C977.2656,651.8908,1010,699.7687,1010,751.6954
					c0.0205,51.9257-32.7129,99.8447-89.7969,131.4482l-5.3838,2.9795C911.6543,887.8693,908.1406,888.7326,904.6484,888.7326
					L904.6484,888.7326z M904.6074,659.8849c-40.2754,23.7324-63.3105,56.9805-63.3311,91.8105
					c0,34.8085,22.9931,68.0762,63.3311,91.8925c40.3155-23.8163,63.3301-57.0635,63.3086-91.8925
					C967.916,716.8859,944.9229,683.6583,904.6074,659.8849L904.6074,659.8849z"/>
			</g>
			<g>
				<path fill="#5065A1" d="M904.6484,1009.2697c-11.6308,0-21.0429-9.4102-21.0429-21.041V795.4015
					c0-11.6299,9.4121-21.042,21.0429-21.042c11.6299,0,21.0411,9.4121,21.0411,21.042v192.8272
					C925.6895,999.8595,916.2783,1009.2697,904.6484,1009.2697L904.6484,1009.2697z"/>
			</g>
		</g>
		<g>
			<g>
				<path fill="#5065A1" d="M105.3521,888.7326c-3.4932,0-7.0069-0.8633-10.1714-2.6094l-5.3633-2.959
					C32.7134,851.5402-0.0205,803.6212,0,751.6954c0-51.9268,32.7339-99.8046,89.7969-131.3671l5.3838-2.9796
					c6.3086-3.4727,13.9321-3.4727,20.2402-0.041l5.4248,2.9589c57.207,31.6036,89.9409,79.502,89.9614,131.4288
					c0,51.9257-32.7339,99.8447-89.8379,131.4482l-5.5483,3.0205C112.2769,887.8693,108.8247,888.7326,105.3521,888.7326
					L105.3521,888.7326z M105.3931,659.8849c-40.316,23.7734-63.3096,57.001-63.3096,91.8105
					c-0.0205,34.8085,22.9936,68.0762,63.3096,91.8925c40.2959-23.7754,63.3305-57.0428,63.3305-91.8925
					C168.7031,716.8859,145.7095,683.6583,105.3931,659.8849L105.3931,659.8849z"/>
			</g>
			<g>
				<path fill="#5065A1" d="M105.3521,1009.2697c-11.6304,0-21.0416-9.4102-21.0416-21.041V795.4015
					c0-11.6299,9.4112-21.042,21.0416-21.042c11.6303,0,21.0419,9.4121,21.0419,21.042v192.8272
					C126.394,999.8595,116.9824,1009.2697,105.3521,1009.2697L105.3521,1009.2697z"/>
			</g>
		</g>
	</g>
	<g>
		<path fill="#5065A1" d="M746.3633,395.0138c-2.3028,0-4.542-0.2261-6.7617-0.4932c-2.7531,0.3291-4.7256,0.4932-6.6983,0.4932
			H618.1602c-11.6299,0-21.0411-9.4111-21.0411-21.0415s9.4112-21.0415,21.0411-21.0415l119.3457-0.5547
			c1.4178-0.1235,2.8154-0.1235,4.2539,0l2.7129,0.3286c0.1435,0,0.3076,0,0.451,0c23.4258,0,40.9121-17.6103,40.9121-39.2475
			c0-21.7818-17.7129-39.4942-39.4726-39.4942c-0.7197,0.0205-1.418,0.1436-2.1172,0.2466
			c-0.1436,0.0205-2.1582,0.2671-2.3008,0.2876c-6.2265,0.6367-12.7812-1.562-17.2812-6.062
			c-3.9453-3.9453-6.1651-9.2881-6.1651-14.877c0-0.5136,0.0204-1.0893,0.0615-1.6645
			c-0.5341-25.0278-21.0625-45.2271-46.2128-45.2271c-25.502,0-46.2344,20.7539-46.2344,46.2544
			c0,11.6304-9.4121,21.042-21.042,21.042s-21.042-9.4116-21.042-21.042c0-48.6997,39.6172-88.3379,88.3184-88.3379
			c41.7539,0,76.8505,29.1582,85.9941,68.1797c39.3105,5.8155,69.5781,39.7823,69.5781,80.6944
			C827.9199,358.4376,791.3438,395.0138,746.3633,395.0138L746.3633,395.0138z"/>
	</g>
</g>
</svg>
