<?xml version="1.0" encoding="utf-8"?>
<!-- Generator: Adobe Illustrator 17.1.0, SVG Export Plug-In . SVG Version: 6.00 Build 0)  -->
<!DOCTYPE svg PUBLIC "-//W3C//DTD SVG 1.1//EN" "http://www.w3.org/Graphics/SVG/1.1/DTD/svg11.dtd">
<svg version="1.1" id="compass" xmlns="http://www.w3.org/2000/svg" xmlns:xlink="http://www.w3.org/1999/xlink" x="0px" y="0px"
	 viewBox="0 0 865.7593 1010" enable-background="new 0 0 865.7593 1010" xml:space="preserve">
<g id="compass-compass">
	<g>
		<path fill="#5065A1" d="M432.8794,184.1274c-50.7661,0-92.0635-41.2973-92.0635-92.0639C340.8159,41.2974,382.1133,0,432.8794,0
			c50.7764,0,92.0645,41.2974,92.0645,92.0635C524.9439,142.8301,483.6558,184.1274,432.8794,184.1274L432.8794,184.1274z
			 M432.8794,40.3999c-28.4849,0-51.6636,23.1787-51.6636,51.6636c0,28.4853,23.1787,51.664,51.6636,51.664
			c28.4854,0,51.6641-23.1787,51.6641-51.664C484.5435,63.5786,461.3648,40.3999,432.8794,40.3999L432.8794,40.3999z"/>
	</g>
	<g>
		<g>
			<path fill="#5065A1" d="M365.9277,530.0723c-5.1684,0-10.3369-1.9727-14.2822-5.9082l-66.5571-66.5181
				c-7.8906-7.8906-7.8906-20.6831-0.0103-28.5737c7.8907-7.8907,20.6836-7.8809,28.5742-0.0098l66.5572,66.5181
				c7.8906,7.8906,7.8906,20.6831,0.0102,28.5737C376.2744,528.0996,371.0962,530.0723,365.9277,530.0723L365.9277,530.0723z"/>
		</g>
		<g>
			<path fill="#5065A1" d="M498.9048,530.0723c-5.169,0-10.3574-1.9727-14.3027-5.918c-7.8702-7.9004-7.8702-20.6831,0.0205-28.5737
				l66.5771-66.5181c7.8906-7.8711,20.6738-7.8809,28.5645,0.0098c7.8906,7.9004,7.8906,20.6831,0,28.5737l-66.5782,66.5181
				C509.2407,528.0996,504.0728,530.0723,498.9048,530.0723L498.9048,530.0723z"/>
		</g>
		<g>
			<path fill="#5065A1" d="M560.9644,600.8906c0,0,0,0-0.0205,0l-49.75-0.0195c-11.1651,0-20.1993-9.0547-20.1993-20.2002
				c0-11.165,9.0342-20.2002,20.1993-20.2002l0,0l49.79,0.0195c11.1455,0,20.1807,9.0547,20.1807,20.2206
				C581.1646,591.8555,572.1099,600.8906,560.9644,600.8906L560.9644,600.8906z"/>
		</g>
		<g>
			<path fill="#5065A1" d="M295.3657,600.8906c-11.1552,0-20.2002-9.0351-20.2002-20.1797c0-11.166,9.0352-20.2206,20.1905-20.2206
				l49.77-0.0195h0.0097c11.1553,0,20.2002,9.0352,20.2002,20.2002c0,11.1455-9.0346,20.2002-20.1904,20.2002l-49.77,0.0195
				H295.3657L295.3657,600.8906z"/>
		</g>
		<g>
			<path fill="#5065A1" d="M432.4653,517.8613c-11.1455,0-20.1801-9.0254-20.2002-20.1704l-0.0786-49.77
				c-0.02-11.1553,9.0152-20.21,20.1704-20.2295c0.0098,0,0.0196,0,0.0293,0c11.1455,0,20.1807,9.0249,20.2002,20.1704l0.0791,49.77
				c0.0196,11.1553-9.0146,20.21-20.1704,20.2295C432.4849,517.8613,432.4751,517.8613,432.4653,517.8613L432.4653,517.8613z"/>
		</g>
		<g>
			<path fill="#5065A1" d="M432.3862,733.6895c-0.0097,0-0.0195,0-0.0293,0c-11.1552-0.0196-20.1904-9.0743-20.1704-20.2393
				l0.0786-49.7305c0.0201-11.165,9.0547-20.1806,20.2002-20.1806c0.0098,0,0.0196,0,0.0298,0
				c11.1558,0.0195,20.19,9.0742,20.1704,20.2207l-0.0791,49.7695C452.5669,724.6748,443.5317,733.6895,432.3862,733.6895
				L432.3862,733.6895z"/>
		</g>
		<g>
			<path fill="#5065A1" d="M299.3701,729.666c-5.1684,0-10.3364-1.9726-14.2817-5.918c-7.8906-7.8906-7.8906-20.6738,0-28.5644
				l66.5571-66.5576c7.8906-7.8906,20.6734-7.8906,28.564,0c7.8906,7.8906,7.8906,20.6738,0,28.5645l-66.5572,66.5576
				C309.707,727.6934,304.5386,729.666,299.3701,729.666L299.3701,729.666z"/>
		</g>
		<g>
			<path fill="#5065A1" d="M565.481,729.666c-5.168,0-10.336-1.9726-14.2813-5.918l-66.5771-66.5576
				c-7.8907-7.8712-7.8907-20.6738,0-28.5645c7.8906-7.8906,20.6728-7.8906,28.5634,0l66.5782,66.5576
				c7.8906,7.8906,7.8906,20.6738,0,28.5644C575.8189,727.6934,570.6499,729.666,565.481,729.666L565.481,729.666z"/>
		</g>
	</g>
	<g>
		<path fill="#5065A1" d="M432.8794,230.978c-11.1553,0-20.1997-9.0444-20.1997-20.1997v-92.0639
			c0-11.1553,9.0444-20.2002,20.1997-20.2002c11.1563,0,20.2002,9.0449,20.2002,20.2002v92.0639
			C453.0796,221.9336,444.0357,230.978,432.8794,230.978L432.8794,230.978z"/>
	</g>
	<g>
		<path fill="#5065A1" d="M432.8794,1010C194.188,1010,0,815.8115,0,577.1006c0-238.7017,194.188-432.8994,432.8794-432.8994
			s432.8799,194.1977,432.8799,432.8994C865.7593,815.8115,671.5708,1010,432.8794,1010L432.8794,1010z M432.8794,184.6011
			c-216.4102,0-392.4795,176.0791-392.4795,392.4995c0,216.4199,176.0693,392.499,392.4795,392.499
			c216.4004,0,392.4805-176.0791,392.4805-392.499C825.3599,360.6802,649.2798,184.6011,432.8794,184.6011L432.8794,184.6011z"/>
	</g>
	<g>
		<path fill="#5065A1" d="M414.2183,940.207c-21.3936-1.1045-42.7378-4.0829-63.4307-8.8574l9.0938-39.374
			c18.395,4.2607,37.372,6.9043,56.3886,7.8711L414.2183,940.207L414.2183,940.207z M453.2173,940.1289l-2.2481-40.3223
			c18.9766-1.0644,37.9336-3.826,56.3389-8.166l9.3106,39.2949C495.9058,935.8477,474.5815,938.9453,453.2173,940.1289
			L453.2173,940.1289z M289.8521,911.3867c-19.5489-8.3838-38.5357-18.6015-56.4375-30.3789l22.2119-33.7324
			c15.9096,10.4551,32.7758,19.5488,50.145,26.9863L289.8521,911.3867L289.8521,911.3867z M577.436,910.6963l-16.1367-37.0459
			c17.3594-7.5361,34.1865-16.709,50.0273-27.2432l22.3691,33.6533C615.8833,891.8965,596.9653,902.2139,577.436,910.6963
			L577.436,910.6963z M183.2104,841.2393c-15.5152-14.6768-29.8071-30.8135-42.4913-47.9161l32.4502-24.0664
			c11.2837,15.2296,24.0074,29.5703,37.816,42.6289L183.2104,841.2393L183.2104,841.2393z M683.7026,840.0557l-27.874-29.2354
			c13.7696-13.1172,26.4336-27.498,37.6387-42.7666l32.5488,23.9483C713.4107,809.1445,699.188,825.3203,683.7026,840.0557
			L683.7026,840.0557z M107.2334,738.6807c-9.5376-19.1348-17.3989-39.2159-23.3857-59.6339l38.7822-11.3418
			c5.3066,18.1279,12.2998,35.9609,20.7622,52.9844L107.2334,738.6807L107.2334,738.6807z M759.3149,737.2402l-36.2578-17.832
			c8.3838-17.0439,15.2686-34.916,20.5157-53.124l38.8221,11.1455C776.5161,697.9258,768.7446,718.0469,759.3149,737.2402
			L759.3149,737.2402z M71.3706,616.1982c-1.3808-12.7627-2.081-25.8418-2.0908-38.8808c0-6.2725,0.1577-12.5654,0.4829-18.8975
			l0.375-6.3125l40.3013,2.8399l-0.3355,5.5234c-0.2856,5.6621-0.4238,11.2637-0.4238,16.8467
			c0.0098,11.5791,0.6313,23.1982,1.854,34.5615L71.3706,616.1982L71.3706,616.1982z M794.5464,614.5605l-40.1826-4.1816
			c0.5722-5.5234,1.0058-11.0859,1.2812-16.6885c0.3165-5.6416,0.4346-11.2246,0.4346-16.7871
			c0-7.8711-0.2764-15.7021-0.8486-23.4551l40.3018-2.9589c0.6319,8.7392,0.9463,17.5566,0.9463,26.414
			c0,6.2725-0.1572,12.5654-0.4726,18.8975C795.6704,602.0742,795.1978,608.3281,794.5464,614.5605L794.5464,614.5605z
			 M119.2964,498.6479l-39.1968-9.7846c5.1685-20.7027,12.2305-41.0806,20.9893-60.5703l36.8491,16.5703
			C130.1558,462.1636,123.8926,480.2627,119.2964,498.6479L119.2964,498.6479z M746.0982,497.2573
			c-4.6954-18.3755-11.086-36.435-18.9375-53.686l36.7695-16.7481c8.8379,19.4112,16.0185,39.7393,21.3047,60.4126
			L746.0982,497.2573L746.0982,497.2573z M165.8115,395.2017l-33.3574-22.8038c12.023-17.5766,25.6939-34.2255,40.6367-49.5039
			l28.8794,28.2681C188.6646,364.7539,176.4937,379.5684,165.8115,395.2017L165.8115,395.2017z M699.0698,394.0381
			c-10.7704-15.6333-23.0009-30.4087-36.3163-43.9019l28.7607-28.3862c14.9727,15.1797,28.7031,31.7793,40.8145,49.3457
			L699.0698,394.0381L699.0698,394.0381z M245.2505,314.0962l-23.4946-32.8648c17.3794-12.4277,35.9419-23.3857,55.1753-32.5488
			l17.3794,36.4746C277.2173,293.3042,260.7158,303.0391,245.2505,314.0962L245.2505,314.0962z M619.355,313.2183
			c-15.5244-10.9976-32.0557-20.6538-49.1787-28.7222l17.2011-36.5532c19.293,9.084,37.8956,19.9536,55.334,32.312L619.355,313.2183
			L619.355,313.2183z M347.6411,265.3022l-10.6719-38.9599c20.6143-5.6514,41.8399-9.4785,63.0655-11.3823l3.6103,40.2421
			C384.7959,256.8892,365.9473,260.292,347.6411,265.3022L347.6411,265.3022z M516.7173,264.9175
			c-18.2266-4.8921-37.125-8.1963-56.1016-9.8238l3.4707-40.2617c21.3448,1.8345,42.5703,5.563,63.086,11.0664L516.7173,264.9175
			L516.7173,264.9175z"/>
	</g>
	<g>
		<path fill="#5065A1" d="M433.0273,859.8809c-4.8623,0-9.7543-0.1387-14.6762-0.375
			c-75.3262-3.8663-144.7041-36.9082-195.3623-93.0508c-50.648-56.1406-76.4107-128.537-72.5445-203.8926
			c7.9996-155.2979,139.9209-276.2119,296.9644-267.897c155.7109,8.0283,275.8848,141.2422,267.877,296.9732
			C707.5923,742.0537,583.5903,859.8809,433.0273,859.8809L433.0273,859.8809z M432.7612,334.6904
			c-129.0415,0-235.3281,101.0098-241.976,229.9619c-3.3042,64.5459,18.7797,126.6055,62.1982,174.7383
			c43.4277,48.1133,102.8838,76.461,167.439,79.7549c134.6435,6.8838,247.6963-96.4834,254.541-229.5976
			c6.8652-133.4698-96.1465-247.6573-229.627-254.5416C441.1255,334.7891,436.9341,334.6904,432.7612,334.6904L432.7612,334.6904z"
			/>
	</g>
	<g>
		<path fill="#5065A1" d="M432.8794,636.5166c-30.6646,0-55.6089-24.9541-55.6089-55.6289s24.9443-55.6289,55.6089-55.6289
			c30.6553,0,55.6094,24.9541,55.6094,55.6289S463.5347,636.5166,432.8794,636.5166L432.8794,636.5166z M432.8794,565.6592
			c-8.3838,0-15.209,6.8447-15.209,15.2285s6.8252,15.2295,15.209,15.2295s15.209-6.8457,15.209-15.2295
			S441.2632,565.6592,432.8794,565.6592L432.8794,565.6592z"/>
	</g>
</g>
</svg>
