<?xml version="1.0" encoding="utf-8"?>
<!-- Generator: Adobe Illustrator 17.1.0, SVG Export Plug-In . SVG Version: 6.00 Build 0)  -->
<!DOCTYPE svg PUBLIC "-//W3C//DTD SVG 1.1//EN" "http://www.w3.org/Graphics/SVG/1.1/DTD/svg11.dtd">
<svg version="1.1" id="cruise" xmlns="http://www.w3.org/2000/svg" xmlns:xlink="http://www.w3.org/1999/xlink" x="0px" y="0px"
	 viewBox="0 0 1019.7459 1009.9983" enable-background="new 0 0 1019.7459 1009.9983" xml:space="preserve">
<g id="cruise-cruise">
	<g>
		<path fill="#5065A1" d="M755.6631,981.5598c-5.5068,0-11.0341-2.1572-15.1436-6.4521
			c-8.0752-8.3633-7.8291-21.6777,0.5547-29.7324c159.1836-153.3477,171.122-283.6416,170.7314-322.4561L508.9253,471.8108
			L106.045,622.9192c-0.4107,38.6505,11.4453,169.0264,170.6904,322.4561c8.3838,8.0547,8.6304,21.3691,0.5552,29.7324
			c-8.0757,8.4043-21.3906,8.6309-29.7329,0.5547C40.7857,776.4729,64.0044,611.6389,65.0933,604.7347
			c1.1919-7.5,6.3081-13.7676,13.3975-16.4385l417.7363-156.6768c8.2188-3.041,17.2192-3.041,25.356,0l417.7773,156.6768
			c7.0889,2.6709,12.2051,8.9385,13.3965,16.4385c1.0898,6.9042,24.3086,171.7382-182.5049,370.9492
			C766.1836,979.6077,760.9229,981.5598,755.6631,981.5598L755.6631,981.5598z"/>
	</g>
	<g>
		<path fill="#5065A1" d="M122.8741,756.3773l-13.4795-39.8633l392.791-132.8613c4.418-1.5,9.2256-1.459,13.6436,0.0606
			l382.2304,132.8632l-13.8087,39.7383L508.8228,625.8362L122.8741,756.3773L122.8741,756.3773z"/>
	</g>
	<g>
		<path fill="#5065A1" d="M618.1163,290.5589h-42.0822v-75.6778c-2.3221-1.6845-8.4043-4.4589-17.7119-4.4589h-98.7934
			c-9.2876,0-15.3702,2.7539-17.6714,4.4589v75.6778h-42.0816v-78.1641c0-25.1094,25.6846-44.0537,59.753-44.0537h98.7934
			c34.0889,0,59.794,18.9443,59.794,44.0537V290.5589L618.1163,290.5589z"/>
	</g>
	<g>
		<path fill="#5065A1" d="M864.8956,574.9397h-42.0822V341.3938c0-6.6367-5.4043-12.041-12.041-12.041H207.0787
			c-6.6162,0-12,5.4043-12,12.041v233.5459h-42.0821V341.3938c0-29.8349,24.2671-54.122,54.0821-54.122h603.6938
			c29.836,0,54.1231,24.2871,54.1231,54.122V574.9397L864.8956,574.9397z"/>
	</g>
	<g>
		<path fill="#5065A1" d="M742.6768,399.8733h-42.082v-42.082h42.082V399.8733L742.6768,399.8733z M637.4717,399.8733h-42.081
			v-42.082h42.081V399.8733L637.4717,399.8733z M532.2676,399.8733h-42.0815v-42.082h42.0815V399.8733L532.2676,399.8733z
			 M427.063,399.8733h-42.0815v-42.082h42.0815V399.8733L427.063,399.8733z M321.8585,399.8733h-42.0816v-42.082h42.0816V399.8733
			L321.8585,399.8733z"/>
	</g>
	<g>
		<polygon fill="#5065A1" points="529.9659,981.5598 487.8848,981.5598 487.8848,451.3245 529.9659,451.3245 529.9659,981.5598 		
			"/>
	</g>
	<g>
		<path fill="#5065A1" d="M524.1514,1009.9983c-29.0137,0-59.2597-11.8769-90.1225-35.4248
			c-27.0411-20.6094-51.8213-29.4443-73.8692-26.1161c-24.6987,3.6777-38.0957,21.4932-38.2192,21.6582
			c-0.8833,1.2529-22.9927,31.623-64.8487,38.1777c-33.9038,5.2393-69.6772-6-106.684-33.5761
			c-27.6162-20.5469-52.8282-29.1563-75.0611-25.7461c-23.8149,3.7402-37.0678,20.9385-37.1914,21.1035
			c-6.7397,9.4717-19.8696,11.6914-29.3423,4.8896c-9.4521-6.7392-11.6503-19.8896-4.8901-29.3427
			c0.9243-1.294,23.0337-31.6641,64.9102-38.2188c33.8833-5.3008,69.6982,6,106.7046,33.5762
			c27.5957,20.5469,52.705,29.1973,75.0405,25.7461c23.7944-3.7197,37.0273-20.9385,37.1504-21.1035
			c0.9658-1.376,23.7329-32.4444,66.2256-38.793c33.6777-4.9727,69.205,6.5332,105.5952,34.293
			c26.7529,20.4258,51.4516,29.2402,73.2524,26.1992c24.8223-3.4522,38.3633-21.1641,38.918-21.9043
			c0.9044-1.1914,65.2597-82.9512,171.3887-4.4795c73.1298,54.041,111.1015,6.1846,112.6835,4.1299
			c1.9317-2.3213,32.5274-37.9102,77.6504-39.3076c28.5821-1.335,55.7256,11.7119,80.4453,37.541
			c8.0547,8.3838,7.7667,21.6982-0.6376,29.7324c-8.3624,8.0752-21.6983,7.7666-29.7325-0.6367
			c-16.0273-16.7256-32.0547-24.4522-48.4931-24.5957c-26.2803,0.6787-46.335,23.4853-46.541,23.7324l0,0
			c0.041,0-64.4161,81.6161-170.4024,3.2256c-73.1094-54.0195-111.081-6.1641-112.6836-4.1289
			c-0.5547,0.8008-23.3008,31.8691-65.7529,38.2187C534.5069,1009.6077,529.3506,1009.9983,524.1514,1009.9983L524.1514,1009.9983z"
			/>
	</g>
	<g>
		<g>
			<path fill="#5065A1" d="M499.1036,136.7796c-4.2329,0-8.4243-1.2744-11.9795-3.7403
				c-5.6709-3.9453-9.0615-10.3964-9.0615-17.3007V21.054c0-6.9033,3.3906-13.3555,9.0615-17.3008
				c5.6509-3.9248,12.8633-4.8496,19.3769-2.4043l126.2461,47.3418c8.1973,3.082,13.6426,10.9316,13.6426,19.7061
				c0,8.7734-5.4453,16.623-13.6426,19.705L506.501,135.4436C504.0967,136.3479,501.5899,136.7796,499.1036,136.7796
				L499.1036,136.7796z M520.1446,51.4241v33.9443l45.2871-16.9716L520.1446,51.4241L520.1446,51.4241z"/>
		</g>
		<g>
			<polygon fill="#5065A1" points="520.1446,189.3821 478.0626,189.3821 478.0626,0.013 520.1446,0.013 520.1446,189.3821 			"/>
		</g>
	</g>
</g>
</svg>
