<?xml version="1.0" encoding="utf-8"?>
<!-- Generator: Adobe Illustrator 17.1.0, SVG Export Plug-In . SVG Version: 6.00 Build 0)  -->
<!DOCTYPE svg PUBLIC "-//W3C//DTD SVG 1.1//EN" "http://www.w3.org/Graphics/SVG/1.1/DTD/svg11.dtd">
<svg version="1.1" id="destination" xmlns="http://www.w3.org/2000/svg" xmlns:xlink="http://www.w3.org/1999/xlink" x="0px"
	 y="0px" viewBox="0 0 925.8325 1010" enable-background="new 0 0 925.8325 1010" xml:space="preserve">
<g id="destination-destination">
	<g>
		<g>
			<path fill="#5065A1" d="M462.896,1010C207.6528,1010,0,802.3369,0,547.0625c0-255.2432,207.6528-462.896,462.896-462.896
				c22.1924,0,44.4463,1.5825,66.1865,4.6953c11.5078,1.6441,19.5,12.3086,17.836,23.8057
				c-1.6436,11.5073-12.4113,19.4492-23.795,17.8462c-19.7675-2.8252-40.0283-4.2637-60.2275-4.2637
				c-232.0337,0-420.813,188.7793-420.813,420.8125c0,232.0547,188.7793,420.8535,420.813,420.8535
				c232.0537,0,420.8545-188.7988,420.8545-420.8535c0-65.9399-14.8369-129.0649-44.0567-187.6382
				c-5.1992-10.3979-0.9863-23.0351,9.4112-28.2236c10.4385-5.1987,23.0556-0.9761,28.2334,9.4214
				c32.1797,64.4712,48.4941,133.9248,48.4941,206.4404C925.8325,802.3369,718.1704,1010,462.896,1010L462.896,1010z"/>
		</g>
		<g>
			<g>
				<path fill="#5065A1" d="M464.9204,416.0044c-5.8672,0-11.6924-2.4453-15.833-7.1714
					c-7.3052-8.3325-6.894-20.9082,0.9453-28.7476c2.1162-2.1162,4.9932-4.4072,8.2808-6.7397
					c9.1235-6.5034,21.7925-4.6851,28.727,4.1714c6.9453,8.8359,5.7119,21.5552-2.7744,28.9014
					c-0.8935,0.7705-2.6191,2.2294-6.5547,5.2397C473.9106,414.5762,469.3989,416.0044,464.9204,416.0044L464.9204,416.0044z"/>
			</g>
			<g>
				<path fill="#5065A1" d="M504.5474,1007.9863c-7.1299,0-13.8282-3.6172-17.7129-9.6992
					c-4.253-6.6367-4.4375-15.082-0.4922-21.9043c0,0,0.2871-0.4932,0.5957-1.0273c2.0752-11.5684,1.3965-15.6787,1.2324-16.3986
					c-5.4043-23.6913-0.8418-36.2469,4.0078-49.5215c1.3965-3.8007,2.959-8.0341,4.4375-13.2539
					c3.3701-11.4863,4.6035-25.706,5.8985-40.748c0.9443-10.9316,1.9306-22.2129,3.8007-32.959
					c3.6172-22.0693,3-33.0625,2.1368-35.7549c-1.4375-2.7744-9.7403-8.8564-14.2188-12.124
					c-5.0137-3.6572-9.6377-7.1504-13.0078-10.3965c-12.4414-11.5488-20.1167-24.1445-27.5449-36.3301l-6.9971-10.9941
					c-4.1304-6.1025-8.7944-13.0068-12.3188-20.9795c-2.6299-5.7119-10.0894-21.9053-0.0616-33.165
					c0-1.0274-0.0307-2.0547-0.041-3.0625c-0.0825-6.924-0.185-15.5137,3.4624-25.5205c3.1646-8.4873,7.9932-14.7539,11.877-19.7881
					c1.7466-2.2607,3.4214-4.4395,4.5307-6.3086c-1.4795-0.3086-3.1538-0.5137-4.6435-0.5547
					c-23.8159,1.6641-63.0532-19.0078-130.2573-60.207c-11.7432-7.1924-21.3804-13.1104-27.0518-16.1104
					c-3.6372-1.9111-14.7437-4.1103-22.8501-5.7119c-25.2231-4.9727-53.8062-10.624-62.334-33.731
					c-3.0923-7.9521-7.2637-12.9248-13.5825-20.4663c-2.8047-3.3388-5.7432-6.8633-8.7949-10.8701
					c-2.2705-2.8354-4.4795-5.8667-6.5342-8.6919c-6.2778-8.6406-7.9829-10.7471-13.7778-12.6787
					c-15.2163-5.9282-25.3262-13.7056-34.8091-26.3843c-0.3496-0.3593-3.1953-1.9624-5.0757-3.0307
					c-3.9146-2.2193-8.7944-4.9829-13.4487-9.3189c-24.6275-23.1064-34.7578-54.9463-31.0386-97.3794
					c0.6059-6.5854,2.4863-12.2671,4.1509-17.2812l1.4174-4.459c0.6783-2.3423,1.7676-4.541,3.1954-6.5034
					c76.8413-105.4038,194.9541-173.8404,324.0605-187.7725c8.9077-0.9243,17.3941,3.7813,21.2368,11.836
					c3.8526,8.0449,2.209,17.6513-4.0996,23.9599c-4.4487,4.4487-8.7847,8.7432-12.894,12.6167
					c-2.0962,1.9727-4.4795,3.4317-7.0176,4.3872c-8.918,4.9419-31.9116,20.5381-36.5249,26.836
					c4.7466,4.521,20.3433,10.1201,27.3091,12.6171c5.6303,2.024,10.7368,3.8936,14.6509,5.7022
					c2.4658,1.1811,6.0825,2.2602,10.0278,3.5444c17.1992,5.6099,28.9634,9.9971,35.4668,19.4903l2.8559,4.1303
					c2.4561,3.627,8.7129,12.8633,12.5342,15.4937c10.6553,0.123,19.6963,8.2807,20.6826,19.1098
					c1.0694,11.5689-7.4384,21.8228-19.0068,22.8809c-24.5972,2.0444-40.4912-21.2368-49.0498-33.8638l-1.1196-1.6338
					c-3.4937-1.7158-11.0962-4.1918-15.4219-5.5996c-6.041-1.9726-11.5176-3.8628-14.8667-5.4658
					c-2.7227-1.2534-6.6577-2.6304-10.9732-4.1816c-18.7709-6.7398-44.477-15.9663-52.9946-37.4805
					c-2.9692-7.5-4.9521-19.4902,2.4761-34.0283c0.2778-0.5444,0.5962-1.1196,0.9761-1.7261
					c-84.1153,26.4458-158.8501,79.1426-212.2657,151.1651c-0.226,0.7192-0.4624,1.4384-0.7089,2.1577
					c-0.9454,2.8769-2.0245,6.144-2.1885,7.8496c-2.5791,29.4253,2.9282,48.8335,17.8667,62.8579
					c0.9555,0.8935,3.2466,2.1885,5.4555,3.4419c5.1065,2.8867,12.0928,6.8423,17.754,14.0654
					c5.6713,7.582,9.5551,9.9966,15.7094,12.4111c17.8052,5.8975,26.1377,17.3736,33.4942,27.4942
					c1.7158,2.3525,3.5444,4.8799,5.6816,7.5615c2.918,3.8223,5.4453,6.8325,7.8496,9.6992
					c7.1201,8.4864,14.4766,17.25,20.127,31.1719c5.1679,3.5444,22.2954,6.9248,31.6963,8.7847
					c12.9868,2.5683,25.2539,4.9829,34.3159,9.7602c6.1543,3.2466,16.665,9.6475,29.4253,17.4771
					c9.2265,5.6504,24.2783,14.8662,40.2754,24.1133c-4.9009-6.5762-5.4659-14.6924-3.8428-21.4219
					c0.2978-1.3457,0.7192-2.6719,1.2226-3.9961c-9.6884,1.1094-20.1992,0.8008-29.0966-5.9595
					c-4.6748-3.5449-10.5205-10.2129-11.795-21.8022c-2.5888-24.8946-5.1679-49.6656,27.607-70.5738
					c29.518-18.6684,50.6933-18.2675,65.1596-11.8872c1.8799-4.5927,5.2603-8.497,9.5855-10.8803
					c4.7266-5.3121,11.1684-11.6514,18.0727-15.73l2.6299-1.8291c0.8633-0.5855,1.9214-1.315,2.9898-2.0752
					c-1.0889-5.4761-1.1607-12.4419,2.7744-19.6958c0.0205-0.041,0.041-0.082,0.0615-0.1231
					c0.5449-0.976,1.1504-1.9008,1.8086-2.7641c13.4082-19.1099,26.4668-34.1924,38.1992-44.2613
					c8.8155-7.5927,22.0899-6.5756,29.6719,2.2603c7.582,8.8257,6.5547,22.1103-2.2598,29.6719
					c-4.8291,4.1303-14.4863,13.4697-27.4121,31.2544c1.2539,4.3667,2.0137,9.8222,0.0821,15.915
					c-3.6983,11.8667-13.8702,18.8735-22.0684,24.4937l-2.291,1.5922c-0.5547,0.3907-1.1211,0.7505-1.7061,1.0791
					c-2.1269,1.6646-5.0556,4.2022-7.5927,6.627c4.6132,20.3018,6.2773,30.3604,3.5546,38.7749
					c-5.332,16.8291-17.5175,19.7471-22.5004,20.2095c-18.2266,1.7876-27.3707-15.2779-34.0386-27.689
					c-0.8628-1.6133-1.5923-3.0415-2.1988-3.9868c-2.1572-3.3286-6.5546-10.2124-29.9594,4.562
					c-8.8462,5.6509-10.4077,6.9658-9.3189,20.3325c0.8526-0.1435,1.6851-0.2773,2.4351-0.4004
					c5.7637-0.9453,11.8154-1.8803,17.5996-2.0859c17.5483-0.1846,25.4492,8.271,28.5625,13.521
					c7.5928,12.8017,2.1269,26.0249-3.3804,36.042c1.336,1.5312,2.5996,3.2881,3.73,5.332
					c8.106,14.4258,22.2949,23.6309,48.3096,36.3096c4.0586-4.1299,9.9043-8.2803,18.6777-11.0752
					c33.4531-10.5625,98.0586,0.4922,134.4902,31.0683c0.2881-0.2666,4.9532,1.0694,8.3848,1.9727
					c16.7051,4.3164,51.4727,13.2949,55.7061,51.2891c1.6435,1.9316,12.042,5.5898,22.0693,9.1445l2.5889,0.9248
					c2.4658,0.8213,6.4931,1.4795,11.3427,2.3838c26.6104,5.0957,51.6592,10.9726,65.6739,26.8164
					c13.0683,14.7734,12.3496,37.1914-1.8301,58.542c-4.335,6.7803-9.5742,11.7949-13.7871,15.8223
					c-4.6445,4.4179-6.9258,6.6982-8.0547,9.9872c-1.0273,2.959-1.0488,7.335-1.0693,12.3906
					c0,5.6299-0.0204,12.0205-1.3155,19.1719c-1.9922,11.1367-11.3008,22.1093-28.9316,39.6582
					c-0.7813,0.7596-1.4795,1.4375-2.0547,2.0341c-1.9727,2.8975-4.6641,5.3213-8.0137,7.0069c-0.041,0-0.041,0.0205-0.082,0.041
					c-4.377,2.1777-7.9736,3.8633-11.0147,5.2607c-8.8359,4.1094-8.8359,4.1094-16.583,19.1514
					c-4.7461,10.1094-11.4658,17.2188-17.9589,24.082l-1.8702,1.9942c-0.247,0.3486-2.0752,2.8144-4.3564,5.8965
					c-20.0547,26.8779-25.7061,34.7275-38.7129,33.8847c-9.4121,16.1514-28.3164,18.3495-36.5762,19.2754
					c-1.3154,4.7461-4.2744,8.9785-8.3222,11.8145c-3.5137,4.9316-10.6231,19.8496-14.5684,29.9599
					c-0.3906,1.0274-0.8633,2.0137-1.4394,2.9796c-2.959,5.0762-8.424,9.6172-14.1368,10.8701
					c-19.3984,4.3155-38.8779,7.418-57.8242,9.2061C505.8628,1007.9453,505.2056,1007.9863,504.5474,1007.9863L504.5474,1007.9863z
					 M473.7759,680.793c2.0761,4.0879,4.8496,8.1982,7.7578,12.493l8.0752,12.6787c6.7607,11.0547,12.0615,19.8086,20.5488,27.6582
					c2.4863,2.4239,5.6094,4.6026,8.8975,6.9864c10.5625,7.7266,23.7129,17.3223,28.9316,31.6855
					c1.541,4.1504,6.3711,17.1582-0.164,57.2071c-1.6846,9.4931-2.5069,19.5214-3.3692,29.5488
					c-1.4394,16.459-2.918,33.4531-7.3984,48.8027c-1.7666,6.1856-3.6573,11.3633-5.3418,16.0078
					c-3.9668,10.8907-5.1582,14.1573-2.5078,25.7051c0.9257,4.1104,1.2744,8.4863,1.2744,12.8438
					c4.7256-0.7813,9.4521-1.6446,14.1787-2.5684c6.7402-15.8438,12.5137-25.584,17.3428-31.666
					c1.1093-6.2051,3.6982-10.7266,6.1025-13.7676c8.5684-10.7676,21.3906-12.2051,29.8984-13.1504
					c0.0821,0,0.2051-0.0215,0.2871-0.041c0.5762-9.8223,7.7891-18.6387,17.754-20.1387c3.3495-0.5136,6.5966-0.2666,9.5966,0.6172
					c0.5547-0.082,1.1514-0.164,1.7471-0.2461c1.2734-0.206,2.8965-0.4121,4.7256-0.5762
					c4.0693-5.1582,9.4111-12.3291,12.2471-16.1093c3.5341-4.7676,6.3496-8.3848,7.1914-9.3301l2.2197-2.3418
					c5.6299-5.959,8.6709-9.2471,10.7676-13.7676c13.0693-25.3574,17.1377-29.6308,36.5556-38.6719
					c1.8282-0.8632,3.8838-1.8085,6.2266-2.9394c1.1094-1.2119,2.1572-2.2393,3.0195-3.1025
					c9.4326-9.4112,15.3086-15.8223,17.4873-19.1514c0.4317-3.4317,0.3702-6.7188,0.3702-9.9453
					c0.0204-7.7051,0.041-16.459,3.3691-26.0762c4.5215-13.0479,12.7617-20.918,18.7822-26.6504
					c3.1026-2.959,5.794-5.5283,7.582-8.3437c2.4864-3.7393,3.6983-7.0684,4.1104-9c-7.7676-5.7735-31.3164-10.2735-40.584-12.0411
					c-7.7266-1.4589-13.2734-2.5273-17.6719-4.1503l-2.3828-0.8223c-28.6445-10.1104-45.9472-16.2344-49.8105-43.5625
					c-0.9043-7.9736-5.6709-10.9531-24.4932-15.8233c-9.2471-2.3837-17.9795-4.6435-24.9463-10.5205
					c-25.3154-21.2265-75.4121-29.1581-94.6875-23.1377l-2.2597,1.8702c-2.5078,4.1298-5.3428,7.3974-8.5078,9.7812
					c1.2744,6.2051,1.0078,12.9658-0.8829,19.8906c-2.9384,10.1914-8.4453,17.3633-12.874,23.1172
					c-2.5986,3.3692-4.8389,6.287-5.7334,8.6719c-0.914,2.5059-0.9238,5.3008-0.8633,10.4375
					c0.0528,4.5215,0.042,9.083-0.5742,13.8301C475.4712,675.3672,474.8755,678.0596,473.7759,680.793L473.7759,680.793z"/>
			</g>
			<g>
				<path fill="#5065A1" d="M560.0083,999.1299c-6.9248,0-13.418-3.4111-17.3438-9.124
					c-3.8828-5.6504-4.7666-12.8418-2.3623-19.2539c0.4112-1.212,1.1299-2.877,1.7471-3.9649
					c0.1846-0.3086,0.3486-0.5967,0.5547-0.9043c5.0547-9.5146,16.6035-13.748,26.7129-9.4941
					c10.5615,4.4395,15.6582,16.5421,11.3838,27.2265l0,0c-0.083,0.2061-0.1846,0.4121-0.2881,0.6582l0,0
					c0,0,0,0.0205-0.0205,0.0411l-0.9658,2.2187c-2.3828,5.4258-6.9453,9.6172-12.5752,11.4863
					C564.6938,998.7393,562.2895,999.1299,560.0083,999.1299L560.0083,999.1299z"/>
			</g>
		</g>
	</g>
	<g>
		<g>
			<path fill="#5065A1" d="M698.5464,572.3164c-5.3838,0-10.7676-2.0547-14.8779-6.1641
				c-8.671-8.6718-212.3887-213.8276-212.3887-344.7832C471.2798,82.8003,586.8247,0,698.5464,0S925.813,82.8003,925.813,221.3691
				c0,130.9556-203.7188,336.1114-212.3897,344.7832C709.313,570.2617,703.9302,572.3164,698.5464,572.3164L698.5464,572.3164z
				 M698.5464,42.0835c-91.0303,0-185.1826,67.0601-185.1826,179.2856c0,86.8379,122.3047,233.5337,185.1826,299.7305
				C761.4038,454.8721,883.729,308.125,883.729,221.3691C883.729,109.1436,789.5767,42.0835,698.5464,42.0835L698.5464,42.0835z"/>
		</g>
		<g>
			<path fill="#5065A1" d="M698.5464,307.2207c-44.0772,0-79.9346-35.8779-79.9346-79.9746
				c0-44.0869,35.8574-79.9546,79.9346-79.9546c44.0762,0,79.9336,35.8677,79.9336,79.9546
				C778.48,271.3428,742.6226,307.2207,698.5464,307.2207L698.5464,307.2207z M698.5464,189.375
				c-20.8565,0-37.8506,16.9937-37.8506,37.8711c0,20.8975,16.9941,37.8911,37.8506,37.8911
				c20.8564,0,37.8506-16.9936,37.8506-37.8911C736.397,206.3687,719.4028,189.375,698.5464,189.375L698.5464,189.375z"/>
		</g>
	</g>
</g>
</svg>
