<?xml version="1.0" encoding="utf-8"?>
<!-- Generator: Adobe Illustrator 17.1.0, SVG Export Plug-In . SVG Version: 6.00 Build 0)  -->
<!DOCTYPE svg PUBLIC "-//W3C//DTD SVG 1.1//EN" "http://www.w3.org/Graphics/SVG/1.1/DTD/svg11.dtd">
<svg version="1.1" id="door-tag" xmlns="http://www.w3.org/2000/svg" xmlns:xlink="http://www.w3.org/1999/xlink" x="0px" y="0px"
	 viewBox="0 0 475.9849 1010" enable-background="new 0 0 475.9849 1010" xml:space="preserve">
<g id="door-tag-door-tag">
	<g>
		<path fill="#5065A1" d="M379.4488,1010H87.4131C42.4737,1010,0,965.2871,0,918.0254V520.8633
			c0-52.0288,43.1724-86.9815,107.4278-86.9815H234.294c34.0288,0,66.0835-44.0664,66.0835-78.2285V229.1772
			c0-34.809-34.2539-53.5903-66.4947-53.5903c-36.2885,0-58.2754,20.5381-58.2754,53.5903v22.6446
			c0,46.604-42.2475,90.6601-86.9199,90.6601h-2.5893C41.8369,342.4819,0,298.4258,0,251.8218v-22.6446
			C0,102.8042,104.5098,0,232.979,0c132.1475,0,243.0059,104.9517,243.0059,229.1772v688.8481
			C475.9849,962.7383,426.3609,1010,379.4488,1010L379.4488,1010z M107.4278,475.9648c-15.3296,0-65.3443,3.2364-65.3443,44.8985
			v397.1621c0,24.2461,23.3018,49.8906,45.3296,49.8906h292.0357c23.9189,0,54.4531-27.9863,54.4531-49.8906V229.1772
			c0-99.6704-93.4756-187.0937-200.0191-187.0937c-104.3862,0-191.7993,85.6768-191.7993,187.0937v22.6446
			c0,23.1582,23.0347,48.5766,44.0147,48.5766h2.5893c21.3701,0,44.8365-25.4184,44.8365-48.5766v-22.6446
			c0-56.3335,40.8916-95.6738,99.455-95.6738c62.7959,0,109.4825,41.1279,109.4825,95.6738v126.4761
			c0,54.4946-48.2481,120.3115-108.1675,120.3115H107.4278L107.4278,475.9648z"/>
	</g>
	<g>
		<path fill="#5065A1" d="M237.9927,862.7285c-81.2075,0-147.2915-66.084-147.2915-147.3125
			c0-81.2275,66.084-147.3115,147.2915-147.3115c81.207,0,147.291,66.084,147.291,147.3115
			C385.2837,796.6445,319.1997,862.7285,237.9927,862.7285L237.9927,862.7285z M237.9927,610.1875
			c-58.0083,0-105.2085,47.2002-105.2085,105.2285c0,58.0293,47.2002,105.2295,105.2085,105.2295
			c58.0078,0,105.209-47.2002,105.209-105.2295C343.2017,657.3877,296.0005,610.1875,237.9927,610.1875L237.9927,610.1875z"/>
	</g>
	<g>
		<polygon fill="#5065A1" points="301.1177,736.459 174.8677,736.459 174.8677,694.375 301.1177,694.375 301.1177,736.459 		"/>
	</g>
</g>
</svg>
