<?xml version="1.0" encoding="utf-8"?>
<!-- Generator: Adobe Illustrator 17.1.0, SVG Export Plug-In . SVG Version: 6.00 Build 0)  -->
<!DOCTYPE svg PUBLIC "-//W3C//DTD SVG 1.1//EN" "http://www.w3.org/Graphics/SVG/1.1/DTD/svg11.dtd">
<svg version="1.1" id="historical-monuments" xmlns="http://www.w3.org/2000/svg" xmlns:xlink="http://www.w3.org/1999/xlink"
	 x="0px" y="0px" viewBox="0 0 898.5546 1010" enable-background="new 0 0 898.5546 1010" xml:space="preserve">
<g id="historical-monuments-historical-monuments">
	<g>
		<path fill="#5065A1" d="M656.041,1010H242.5546c-11.6308,0-21.0419-9.4111-21.0419-21.041V427.7788
			c0-11.6304,9.4111-21.042,21.0419-21.042H656.041c11.6308,0,21.0428,9.4116,21.0428,21.042V988.959
			C677.0839,1000.5889,667.6718,1010,656.041,1010L656.041,1010z M263.5961,967.916H635V448.8203H263.5961V967.916L263.5961,967.916
			z"/>
	</g>
	<g>
		<path fill="#5065A1" d="M242.5546,1010H21.0415C9.4111,1010,0,1000.5889,0,988.959V560.6865
			c0-11.6299,9.4111-21.042,21.0415-21.042h103.3798c11.6304,0,21.0415,9.412,21.0415,21.042v82.3174h97.0918
			c11.6304,0,21.0415,9.4111,21.0415,21.041V988.959C263.5961,1000.5889,254.185,1010,242.5546,1010L242.5546,1010z
			 M42.0835,967.916h179.4292V685.0869h-97.0914c-11.6308,0-21.0419-9.4111-21.0419-21.042v-82.3164H42.0835V967.916
			L42.0835,967.916z"/>
	</g>
	<g>
		<path fill="#5065A1" d="M877.5136,1010H656.041c-11.6299,0-21.041-9.4111-21.041-21.041V664.0449
			c0-11.6299,9.4111-21.041,21.041-21.041h97.0721v-82.3174c0-11.6299,9.4102-21.042,21.0411-21.042h103.3593
			c11.6309,0,21.041,9.412,21.041,21.042V988.959C898.5546,1000.5889,889.1445,1010,877.5136,1010L877.5136,1010z M677.0839,967.916
			h179.3877V581.7285h-61.2754v82.3164c0,11.6309-9.4111,21.042-21.0419,21.042h-97.0704V967.916L677.0839,967.916z"/>
	</g>
	<g>
		<path fill="#5065A1" d="M700.3437,448.8203H198.2519c-11.6304,0-21.0415-9.4111-21.0415-21.0415V250.5684
			c0-11.6304,9.4111-21.0415,21.0415-21.0415h88.605c11.6304,0,21.042,9.4111,21.042,21.0415v52.8095h16.9726v-52.8095
			c0-11.6304,9.4117-21.0415,21.042-21.0415h73.8306c11.6304,0,21.042,9.4111,21.042,21.0415v52.8095h17.0146v-52.8095
			c0-11.6304,9.4102-21.0415,21.0313-21.0415h73.8506c11.6308,0,21.042,9.4111,21.042,21.0415v52.8095h16.9726v-52.8095
			c0-11.6304,9.4121-21.0415,21.042-21.0415h88.6045c11.6309,0,21.042,9.4111,21.042,21.0415v177.2104
			C721.3857,439.4092,711.9746,448.8203,700.3437,448.8203L700.3437,448.8203z M219.2934,406.7368h460.0093V271.6104h-46.5215
			v52.8095c0,11.6304-9.4121,21.0415-21.042,21.0415h-59.0566c-11.6299,0-21.0421-9.4111-21.0421-21.0415v-52.8095H499.873v52.8095
			c0,11.6304-9.4111,21.0415-21.041,21.0415h-59.0879c-11.6304,0-21.0415-9.4111-21.0415-21.0415v-52.8095H366.955v52.8095
			c0,11.6304-9.4111,21.0415-21.0415,21.0415h-59.0566c-11.6304,0-21.0415-9.4111-21.0415-21.0415v-52.8095h-46.522V406.7368
			L219.2934,406.7368z"/>
	</g>
	<g>
		<path fill="#5065A1" d="M414.7509,640.7852H311.351c-11.6308,0-21.042-9.4122-21.042-21.043v-81.207
			c0-40.1109,32.6314-72.7417,72.7417-72.7417c40.1109,0,72.7417,32.6308,72.7417,72.7417v81.207
			C435.7924,631.373,426.3813,640.7852,414.7509,640.7852L414.7509,640.7852z M332.3925,598.7012h61.3169v-60.166
			c0-16.9122-13.747-30.6582-30.6587-30.6582c-16.9111,0-30.6582,13.746-30.6582,30.6582V598.7012L332.3925,598.7012z"/>
	</g>
	<g>
		<path fill="#5065A1" d="M587.2041,640.7852H483.8457c-11.6309,0-21.0313-9.4122-21.0313-21.043v-81.207
			c0-40.1109,32.6201-72.7417,72.7305-72.7417c40.1113,0,72.7012,32.6308,72.7012,72.7417v81.207
			C608.2461,631.373,598.8339,640.7852,587.2041,640.7852L587.2041,640.7852z M504.8867,598.7012h61.2754v-60.166
			c0-16.9122-13.7266-30.6582-30.6172-30.6582c-16.8906,0-30.6582,13.746-30.6582,30.6582V598.7012L504.8867,598.7012z"/>
	</g>
	<g>
		<path fill="#5065A1" d="M552.6826,1010H345.9135c-11.6303,0-21.042-9.4111-21.042-21.041V811.748
			c0-68.6113,55.8101-124.4414,124.4214-124.4414c68.6211,0,124.4317,55.8301,124.4317,124.4414v177.211
			C573.7246,1000.5889,564.3134,1010,552.6826,1010L552.6826,1010z M366.955,967.916h164.6856V811.748
			c0-45.4121-36.9453-82.3584-82.3477-82.3584c-45.3916,0-82.3379,36.9463-82.3379,82.3584V967.916L366.955,967.916z"/>
	</g>
	<g>
		<g>
			<polygon fill="#5065A1" points="800.375,905.1621 758.291,905.1621 758.291,739.7051 800.375,739.7051 800.375,905.1621 			"/>
		</g>
		<g>
			<polygon fill="#5065A1" points="140.2641,905.1621 98.1806,905.1621 98.1806,739.7051 140.2641,739.7051 140.2641,905.1621 			
				"/>
		</g>
	</g>
	<g>
		<g>
			<path fill="#5065A1" d="M449.2929,176.7583c-4.2329,0-8.4248-1.2739-11.98-3.7397c-5.6713-3.9454-9.0615-10.3975-9.0615-17.3018
				V38.9189c0-6.9043,3.3902-13.3564,9.0615-17.3017c5.6304-3.9043,12.8638-4.8496,19.3775-2.4043l155.706,58.3989
				c8.2198,3.082,13.6447,10.9317,13.6447,19.7061c0,8.7739-5.4248,16.6235-13.6447,19.706l-155.706,58.3985
				C454.2861,176.3267,451.7793,176.7583,449.2929,176.7583L449.2929,176.7583z M470.3242,69.2896v56.0561L545.08,97.3179
				L470.3242,69.2896L470.3242,69.2896z"/>
		</g>
		<g>
			<polygon fill="#5065A1" points="470.3242,233.5952 428.2514,233.5952 428.2514,0 470.3242,0 470.3242,233.5952 			"/>
		</g>
	</g>
	<g>
		<polygon fill="#5065A1" points="470.3242,967.916 428.2514,967.916 428.2514,715.416 470.3242,715.416 470.3242,967.916 		"/>
	</g>
</g>
</svg>
