<?xml version="1.0" encoding="utf-8"?>
<!-- Generator: Adobe Illustrator 17.1.0, SVG Export Plug-In . SVG Version: 6.00 Build 0)  -->
<!DOCTYPE svg PUBLIC "-//W3C//DTD SVG 1.1//EN" "http://www.w3.org/Graphics/SVG/1.1/DTD/svg11.dtd">
<svg version="1.1" id="hotel-towel" xmlns="http://www.w3.org/2000/svg" xmlns:xlink="http://www.w3.org/1999/xlink" x="0px"
	 y="0px" viewBox="0 0 1010 937.5865" enable-background="new 0 0 1010 937.5865" xml:space="preserve">
<g id="hotel-towel-hotel-towel">
	<g>
		<polygon fill="#5065A1" points="830.6523,759.7193 301.4468,759.7193 301.4468,717.6353 830.6523,717.6353 830.6523,759.7193 		
			"/>
	</g>
	<g>
		<polygon fill="#5065A1" points="830.6523,841.1324 301.4468,841.1324 301.4468,799.0494 830.6523,799.0494 830.6523,841.1324 		
			"/>
	</g>
	<g>
		<path fill="#5065A1" d="M301.4468,449.149H118.2773c-11.6303,0-21.0419-9.4214-21.0419-21.0415V127.2364
			c0-11.6201,9.4116-21.0415,21.0419-21.0415c11.6304,0,21.0415,9.4214,21.0415,21.0415V407.066h162.128
			c11.6303,0,21.0415,9.4213,21.0415,21.0415C322.4883,439.7276,313.0771,449.149,301.4468,449.149L301.4468,449.149z"/>
	</g>
	<g>
		<path fill="#5065A1" d="M118.2773,143.8394c-11.6303,0-21.0419-9.4214-21.0419-21.0415V112.647
			C97.2354,50.5289,147.7642,0,209.8823,0c11.6304,0,21.042,9.4214,21.042,21.0415c0,11.6202-9.4116,21.042-21.042,21.042
			c-38.9189,0-70.5635,31.6548-70.5635,70.5635v10.1509C139.3188,134.418,129.9077,143.8394,118.2773,143.8394L118.2773,143.8394z"
			/>
	</g>
	<g>
		<path fill="#5065A1" d="M830.6523,937.5865H301.4468c-11.6309,0-21.042-9.4102-21.042-21.041V112.647
			c0-38.9087-31.6445-70.5635-70.5225-70.5635c-11.6303,0-21.0415-9.4218-21.0415-21.042C188.8408,9.4214,198.252,0,209.8823,0
			h589.1255c29.0557,0,52.6865,23.6206,52.6865,52.6451v863.9004C851.6943,928.1763,842.2832,937.5865,830.6523,937.5865
			L830.6523,937.5865z M322.4883,895.5035h487.123V52.6451c0-5.8252-4.747-10.5616-10.6035-10.5616H297.604
			c15.5552,19.3257,24.8843,43.8706,24.8843,70.5635V895.5035L322.4883,895.5035z"/>
	</g>
	<g>
		<path fill="#5065A1" d="M988.959,143.8394H830.6523c-11.6308,0-21.041-9.4214-21.041-21.0415s9.4102-21.0415,21.041-21.0415
			H988.959c11.6299,0,21.041,9.4214,21.041,21.0415S1000.5889,143.8394,988.959,143.8394L988.959,143.8394z"/>
	</g>
	<g>
		<path fill="#5065A1" d="M301.4468,143.8394H21.0415C9.4111,143.8394,0,134.418,0,122.7979s9.4111-21.0415,21.0415-21.0415
			h280.4053c11.6303,0,21.0415,9.4214,21.0415,21.0415S313.0771,143.8394,301.4468,143.8394L301.4468,143.8394z"/>
	</g>
	<g>
		<g>
			<path fill="#5065A1" d="M566.0703,550.8638c-11.6308,0-21.042-9.4101-21.042-21.041v-33.3711
				c0-11.6201,9.4112-21.041,21.042-21.041c11.6309,0,21.041,9.4209,21.041,21.041v33.3711
				C587.1113,541.4537,577.7012,550.8638,566.0703,550.8638L566.0703,550.8638z"/>
		</g>
		<g>
			<path fill="#5065A1" d="M566.0703,250.6504c-11.6308,0-21.042-9.4214-21.042-21.0415v-33.3706
				c0-11.6201,9.4112-21.042,21.042-21.042c11.6309,0,21.041,9.4219,21.041,21.042v33.3706
				C587.1113,241.229,577.7012,250.6504,566.0703,250.6504L566.0703,250.6504z"/>
		</g>
		<g>
			<path fill="#5065A1" d="M432.6284,384.0513h-33.3711c-11.6303,0-21.0415-9.4214-21.0415-21.0415
				c0-11.6201,9.4112-21.0415,21.0415-21.0415h33.3711c11.6304,0,21.0415,9.4214,21.0415,21.0415
				C453.6699,374.6299,444.2588,384.0513,432.6284,384.0513L432.6284,384.0513z"/>
		</g>
		<g>
			<path fill="#5065A1" d="M732.8418,384.0513h-33.3711c-11.6309,0-21.041-9.4214-21.041-21.0415
				c0-11.6201,9.4101-21.0415,21.041-21.0415h33.3711c11.6309,0,21.041,9.4214,21.041,21.0415
				C753.8828,374.6299,744.4727,384.0513,732.8418,384.0513L732.8418,384.0513z"/>
		</g>
		<g>
			<path fill="#5065A1" d="M448.0806,502.0201c-5.3838,0-10.7671-2.0547-14.877-6.1641c-8.2192-8.2305-8.2192-21.5449,0-29.7646
				l23.6309-23.6104c8.2192-8.1987,21.5346-8.209,29.7539,0.0103c8.2197,8.2299,8.2197,21.5454,0,29.7651l-23.6304,23.6201
				C458.8481,499.9654,453.4644,502.0201,448.0806,502.0201L448.0806,502.0201z"/>
		</g>
		<g>
			<path fill="#5065A1" d="M660.3877,289.7339c-5.3838,0-10.7676-2.0547-14.877-6.1645c-8.2197-8.2193-8.2197-21.5347,0-29.7544
				l23.6309-23.6309c8.2197-8.2192,21.5342-8.2192,29.7539,0c8.2197,8.2198,8.2197,21.5352,0,29.7544l-23.6309,23.6309
				C671.1553,287.6792,665.7715,289.7339,660.3877,289.7339L660.3877,289.7339z"/>
		</g>
		<g>
			<path fill="#5065A1" d="M471.7114,289.7339c-5.3838,0-10.7676-2.0547-14.8769-6.1645l-23.6309-23.6309
				c-8.2192-8.2192-8.2192-21.5346,0-29.7544c8.2193-8.2192,21.5347-8.2192,29.7544,0l23.6304,23.6309
				c8.2197,8.2197,8.2197,21.5351,0,29.7544C482.479,287.6792,477.0952,289.7339,471.7114,289.7339L471.7114,289.7339z"/>
		</g>
		<g>
			<path fill="#5065A1" d="M684.0186,502.0201c-5.3839,0-10.7676-2.0547-14.877-6.1436l-23.6309-23.6201
				c-8.2197-8.2197-8.2197-21.5352,0-29.7651c8.2198-8.2193,21.5342-8.209,29.7539-0.0103l23.6309,23.6104
				c8.2197,8.2197,8.2197,21.5341,0,29.7646C694.7861,499.9654,689.4023,502.0201,684.0186,502.0201L684.0186,502.0201z"/>
		</g>
		<g>
			<path fill="#5065A1" d="M566.0703,450.793c-48.4121,0-87.7832-39.3813-87.7832-87.7832
				c0-48.3813,39.3711-87.7422,87.7832-87.7422c48.3711,0,87.7422,39.3609,87.7422,87.7422
				C653.8125,411.4117,614.4414,450.793,566.0703,450.793L566.0703,450.793z M566.0703,317.3511
				c-25.1924,0-45.7002,20.4868-45.7002,45.6587c0,25.2026,20.5078,45.6997,45.7002,45.6997
				c25.1719,0,45.6582-20.4971,45.6582-45.6997C611.7285,337.8379,591.2422,317.3511,566.0703,317.3511L566.0703,317.3511z"/>
		</g>
	</g>
</g>
</svg>
