<?xml version="1.0" encoding="utf-8"?>
<!-- Generator: Adobe Illustrator 17.1.0, SVG Export Plug-In . SVG Version: 6.00 Build 0)  -->
<!DOCTYPE svg PUBLIC "-//W3C//DTD SVG 1.1//EN" "http://www.w3.org/Graphics/SVG/1.1/DTD/svg11.dtd">
<svg version="1.1" id="hotel" xmlns="http://www.w3.org/2000/svg" xmlns:xlink="http://www.w3.org/1999/xlink" x="0px" y="0px"
	 viewBox="0 0 1010 1009.9585" enable-background="new 0 0 1010 1009.9585" xml:space="preserve">
<g id="hotel-hotel">
	<g id="hotel-hotel_1_">
		<g>
			<g>
				<path fill="#5065A1" d="M904.7344,885.8921l-15.6992-8.6709c-57.1016-31.5615-89.8545-79.4785-89.8545-131.4023
					s32.7529-99.8419,89.8545-131.4023l15.6777-8.4248l15.3701,8.3838C977.2461,645.977,1010,693.895,1010,745.8188
					s-32.7539,99.8409-89.834,131.4023L904.7344,885.8921L904.7344,885.8921z M904.5898,653.9907
					c-40.2519,23.6709-63.3281,56.959-63.3281,91.8281c0,34.8066,23.0137,68.0331,63.3496,91.8271
					c40.3555-23.835,63.3068-57.04,63.3068-91.8271C967.918,711.0102,944.9043,677.7642,904.5898,653.9907L904.5898,653.9907z"/>
			</g>
			<g>
				<path fill="#5065A1" d="M904.6523,1003.3423c-11.6308,0-21.041-9.4102-21.041-21.041V789.4829
					c0-11.6309,9.4102-21.041,21.041-21.041c11.6094,0,21.0411,9.4101,21.0411,21.041v192.8184
					C925.6934,993.9321,916.2617,1003.3423,904.6523,1003.3423L904.6523,1003.3423z"/>
			</g>
		</g>
		<g>
			<g>
				<path fill="#5065A1" d="M105.2861,885.8921l-15.5752-8.7119C32.7324,845.6597,0,797.7427,0,745.8188
					s32.7324-99.8419,89.8135-131.4023l15.4726-8.4248l15.4517,8.3018c57.3076,31.6835,90.0605,79.6015,90.0605,131.5253
					s-32.7529,99.8409-89.8344,131.4023L105.2861,885.8921L105.2861,885.8921z M105.3887,653.9702
					c-40.2735,23.7334-63.3072,57.0205-63.3072,91.8486c0,34.8066,22.9927,68.0527,63.3072,91.8477
					c40.3349-23.7949,63.3281-57.041,63.3281-91.8477C168.7168,711.0102,145.7031,677.7642,105.3887,653.9702L105.3887,653.9702z"/>
			</g>
			<g>
				<path fill="#5065A1" d="M105.3477,1003.3423c-11.6094,0-21.0411-9.4102-21.0411-21.041V789.4829
					c0-11.6309,9.4317-21.041,21.0411-21.041c11.6298,0,21.041,9.4101,21.041,21.041v192.8184
					C126.3887,993.9321,116.9775,1003.3423,105.3477,1003.3423L105.3477,1003.3423z"/>
			</g>
		</g>
		<g>
			<polygon fill="#5065A1" points="948.9531,1009.9585 61.0264,1009.9585 61.0264,967.8774 948.9531,967.8774 948.9531,1009.9585 
							"/>
		</g>
		<g>
			<g>
				<path fill="#5065A1" d="M711.0107,288.8589H299.0093c-11.6094,0-21.0405-9.4209-21.0405-21.041V141.3882
					c0-11.6196,9.4311-21.0405,21.0405-21.0405h412.0014c11.6094,0,21.0401,9.4209,21.0401,21.0405v126.4297
					C732.0508,279.438,722.6201,288.8589,711.0107,288.8589L711.0107,288.8589z M320.0503,246.7773h369.9194v-84.3481H320.0503
					V246.7773L320.0503,246.7773z"/>
			</g>
		</g>
		<g>
			<g>
				<path fill="#5065A1" d="M757.8184,985.3833c-11.6299,0-21.0411-9.4102-21.0411-21.041V290.9751H273.2427v673.3672
					c0,11.6308-9.4107,21.041-21.041,21.041c-11.6094,0-21.0406-9.4102-21.0406-21.041V269.9346
					c0-11.6197,9.4312-21.041,21.0406-21.041h505.6167c11.6093,0,21.041,9.4213,21.041,21.041v694.4077
					C778.8594,975.9731,769.4277,985.3833,757.8184,985.3833L757.8184,985.3833z"/>
			</g>
			<g>
				<g>
					<rect x="308.4204" y="357.5293" fill="#5065A1" width="45.9033" height="45.9033"/>
				</g>
				<g>
					<rect x="540.5059" y="357.5293" fill="#5065A1" width="45.9043" height="45.9033"/>
				</g>
				<g>
					<rect x="655.7373" y="357.5293" fill="#5065A1" width="45.9033" height="45.9033"/>
				</g>
				<g>
					<rect x="308.4204" y="450.1582" fill="#5065A1" width="45.9033" height="45.8623"/>
				</g>
				<g>
					<rect x="423.5693" y="450.1582" fill="#5065A1" width="45.9034" height="45.8623"/>
				</g>
				<g>
					<rect x="308.4204" y="542.7456" fill="#5065A1" width="45.9033" height="45.9033"/>
				</g>
				<g>
					<rect x="423.5693" y="542.7456" fill="#5065A1" width="45.9034" height="45.9033"/>
				</g>
				<g>
					<rect x="655.7373" y="542.7456" fill="#5065A1" width="45.9033" height="45.9033"/>
				</g>
				<g>
					<rect x="423.5693" y="635.2925" fill="#5065A1" width="45.9034" height="45.9853"/>
				</g>
				<g>
					<rect x="540.5059" y="635.2925" fill="#5065A1" width="45.9043" height="45.9853"/>
				</g>
				<g>
					<rect x="655.7373" y="635.2925" fill="#5065A1" width="45.9033" height="45.9853"/>
				</g>
				<g>
					<rect x="308.4204" y="727.9624" fill="#5065A1" width="45.9033" height="45.8623"/>
				</g>
				<g>
					<rect x="655.7373" y="727.9624" fill="#5065A1" width="45.9033" height="45.8623"/>
				</g>
			</g>
			<g>
				<path fill="#5065A1" d="M585.7109,1009.7944H424.3091c-11.6094,0-21.041-9.4111-21.041-21.041V751.1812
					c0-11.6299,9.4316-21.04,21.041-21.04h161.4018c11.6094,0,21.0411,9.4102,21.0411,21.04v237.5723
					C606.752,1000.3833,597.3203,1009.7944,585.7109,1009.7944L585.7109,1009.7944z M445.3501,967.7134h119.3198V772.2222H445.3501
					V967.7134L445.3501,967.7134z"/>
			</g>
			<g>
				<path fill="#5065A1" d="M505.0205,988.3423c-11.6099,0-21.041-9.4102-21.041-21.041v-194.627
					c0-11.6299,9.4311-21.041,21.041-21.041c11.6299,0,21.04,9.4111,21.04,21.041v194.627
					C526.0605,978.9321,516.6504,988.3423,505.0205,988.3423L505.0205,988.3423z"/>
			</g>
		</g>
		<g>
			<path fill="#5065A1" d="M605.0254,225.9829H404.9941c-11.6093,0-21.0405-9.4209-21.0405-21.0405
				c0-11.6197,9.4312-21.041,21.0405-21.041h200.0313c11.6094,0,21.041,9.4213,21.041,21.041
				C626.0664,216.562,616.6348,225.9829,605.0254,225.9829L605.0254,225.9829z"/>
		</g>
	</g>
	<g>
		<polygon fill="#5065A1" points="333.2827,0 345.2827,30.0815 375.3647,36.0815 351.3032,54.1226 363.3237,84.1631 
			333.2827,66.1426 303.2012,84.1631 315.2422,54.1226 291.2012,36.0815 321.2422,30.0815 		"/>
	</g>
	<g>
		<polygon fill="#5065A1" points="450.1172,0 462.1577,30.0815 492.1987,36.0815 468.1577,54.1226 480.1782,84.1631 
			450.1172,66.1426 420.0762,84.1631 432.0967,54.1226 408.0352,36.0815 438.1172,30.0815 		"/>
	</g>
	<g>
		<polygon fill="#5065A1" points="683.8467,0 695.8877,30.0815 725.9277,36.0815 701.8877,54.1226 713.8867,84.1631 
			683.8467,66.1426 653.8066,84.1631 665.8057,54.1226 641.7656,36.0815 671.8057,30.0815 		"/>
	</g>
	<g>
		<polygon fill="#5065A1" points="566.9717,0 579.0127,30.0815 609.0527,36.0815 585.0117,54.1226 597.0117,84.1631 
			566.9717,66.1426 536.9307,84.1631 548.9307,54.1226 524.8906,36.0815 554.9307,30.0815 		"/>
	</g>
</g>
</svg>
