<?xml version="1.0" encoding="utf-8"?>
<!-- Generator: Adobe Illustrator 17.1.0, SVG Export Plug-In . SVG Version: 6.00 Build 0)  -->
<!DOCTYPE svg PUBLIC "-//W3C//DTD SVG 1.1//EN" "http://www.w3.org/Graphics/SVG/1.1/DTD/svg11.dtd">
<svg version="1.1" id="map-planner" xmlns="http://www.w3.org/2000/svg" xmlns:xlink="http://www.w3.org/1999/xlink" x="0px"
	 y="0px" viewBox="0 0 1009.955 1010" enable-background="new 0 0 1009.955 1010" xml:space="preserve">
<g id="map-planner-map-planner">
	<g>
		<path fill="#5065A1" d="M922.7588,1010H87.1962C39.1152,1010,0,970.8623,0,922.7588V215.772
			c0-48.0811,39.1152-87.1963,87.1962-87.1963h212.1187v45.9067H87.1962c-22.7739,0-41.289,18.5156-41.289,41.2896v706.9868
			c0,22.7959,18.5151,41.334,41.289,41.334h835.5626c22.7734,0,41.289-18.5381,41.289-41.334V215.772
			c0-22.774-18.5156-41.2896-41.289-41.2896H710.6396v-45.9067h212.1192c48.081,0,87.1962,39.1152,87.1962,87.1963v706.9868
			C1009.955,970.8623,970.8398,1010,922.7588,1010L922.7588,1010z"/>
	</g>
	<g>
		<path fill="#5065A1" d="M858.4931,881.4238H151.4843c-12.6875,0-22.9536-10.2656-22.9536-22.9531V280.0376
			c0-12.6875,10.2661-22.9536,22.9536-22.9536h128.5308v45.9072H174.4379v532.5264H835.54V302.9912H729.9404V257.084h128.5527
			c12.6875,0,22.9532,10.2661,22.9532,22.9536v578.4331C881.4463,871.1582,871.1806,881.4238,858.4931,881.4238L858.4931,881.4238z"
			/>
	</g>
	<g>
		<polygon fill="#5065A1" points="169.7978,872.3008 133.1709,844.6406 399.8935,491.1694 436.5205,518.8301 169.7978,872.3008 		
			"/>
	</g>
	<g>
		<polygon fill="#5065A1" points="840.1796,872.3008 573.4345,518.8301 610.0615,491.1694 876.8066,844.6406 840.1796,872.3008 		
			"/>
	</g>
	<g>
		<g>
			<path fill="#5065A1" d="M504.9775,624.3398c-5.873,0-11.7456-2.2411-16.229-6.7246
				c-9.459-9.459-231.687-233.2783-231.687-376.1323C257.0615,90.3345,383.104,0,504.9775,0
				c121.873,0,247.916,90.3345,247.916,241.4829c0,142.854-222.2275,366.6733-231.6875,376.1323
				C516.7236,622.0986,510.8505,624.3398,504.9775,624.3398L504.9775,624.3398z M504.9775,45.9072
				c-99.3008,0-202.0088,73.1641-202.0088,195.5757c0,94.728,133.417,254.7749,202.0088,326.9761
				c68.5693-72.2461,202.0088-232.3379,202.0088-326.9761C706.9863,119.0713,604.2783,45.9072,504.9775,45.9072L504.9775,45.9072z"
				/>
		</g>
		<g>
			<path fill="#5065A1" d="M504.9775,335.1348c-48.0815,0-87.1963-39.1372-87.1963-87.2412s39.1148-87.2188,87.1963-87.2188
				c48.082,0,87.1963,39.1148,87.1963,87.2188S553.0595,335.1348,504.9775,335.1348L504.9775,335.1348z M504.9775,206.5815
				c-22.7744,0-41.2896,18.5376-41.2896,41.3121c0,22.7968,18.5152,41.3344,41.2896,41.3344
				c22.7744,0,41.2891-18.5376,41.2891-41.3344C546.2666,225.1191,527.7519,206.5815,504.9775,206.5815L504.9775,206.5815z"/>
		</g>
	</g>
	<g>
		<polygon fill="#5065A1" points="527.9306,881.4238 482.0239,881.4238 482.0239,739.1309 527.9306,739.1309 527.9306,881.4238 		
			"/>
	</g>
</g>
</svg>
