<?xml version="1.0" encoding="utf-8"?>
<!-- Generator: Adobe Illustrator 17.1.0, SVG Export Plug-In . SVG Version: 6.00 Build 0)  -->
<!DOCTYPE svg PUBLIC "-//W3C//DTD SVG 1.1//EN" "http://www.w3.org/Graphics/SVG/1.1/DTD/svg11.dtd">
<svg version="1.1" id="museums" xmlns="http://www.w3.org/2000/svg" xmlns:xlink="http://www.w3.org/1999/xlink" x="0px" y="0px"
	 viewBox="0 0 1010 897.0659" enable-background="new 0 0 1010 897.0659" xml:space="preserve">
<g id="museums-museums">
	<g>
		<path fill="#5065A1" d="M956.7178,897.0659H53.3027C23.9082,897.0659,0,873.1479,0,843.7632v-48.4121
			c0-27.7403,21.2983-50.5918,48.3916-53.0782v-27.5547c0-29.3847,23.9185-53.3027,53.3237-53.3027h27.3496V413.1274h-11.2397
			c-29.3843,0-53.2822-23.9184-53.2822-53.3232v-48.4121c0-29.3843,23.8979-53.2823,53.2822-53.2823h9.5552L492.979,3.7602
			c7.2334-5.0136,16.8189-5.0136,24.0317,0l365.6504,254.3496h9.5342c29.3848,0,53.2822,23.898,53.2822,53.2823v48.4121
			c0,29.4048-23.8974,53.3232-53.2822,53.3232h-11.2402v248.2881h27.3506c29.4052,0,53.3232,23.918,53.3232,53.3027v27.5547
			C988.7119,744.7593,1010,767.6108,1010,795.3511v48.4121C1010,873.1479,986.1016,897.0659,956.7178,897.0659L956.7178,897.0659z
			 M53.3027,784.1304c-6.185,0-11.2192,5.0351-11.2192,11.2207v48.4121c0,6.1855,5.0342,11.2187,11.2192,11.2187h903.4151
			c6.1845,0,11.1982-5.0332,11.1982-11.2187v-48.4121c0-6.1856-5.0137-11.2207-11.1982-11.2207h-16.1309
			c-11.6299,0-21.042-9.4102-21.042-21.0411v-48.3711c0-6.1855-5.0547-11.2187-11.2392-11.2187h-48.3916
			c-11.6309,0-21.042-9.4121-21.042-21.043V392.0859c0-11.6303,9.4111-21.0415,21.042-21.0415h32.2812
			c6.1855,0,11.1992-5.0346,11.1992-11.2402v-48.4121c0-6.1851-5.0136-11.1992-11.1992-11.1992h-16.1308
			c-4.295,0-8.4865-1.315-12-3.7603L505,46.6655L145.9971,296.4326c-3.5342,2.4453-7.7261,3.7603-12.021,3.7603h-16.1509
			c-6.1748,0-11.1992,5.0141-11.1992,11.1992v48.4121c0,6.2056,5.0244,11.2402,11.1992,11.2402h32.2817
			c11.6202,0,21.0415,9.4112,21.0415,21.0415v290.3706c0,11.6309-9.4213,21.043-21.0415,21.043h-48.3916
			c-6.1958,0-11.2402,5.0331-11.2402,11.2187v48.3711c0,11.6309-9.4214,21.0411-21.0415,21.0411H53.3027L53.3027,784.1304z"/>
	</g>
	<g>
		<path fill="#5065A1" d="M505.0103,240.582c-38.292,0-69.4541-31.1518-69.4541-69.4541c0-38.2817,31.1621-69.4126,69.4541-69.4126
			c38.2924,0,69.4438,31.1309,69.4438,69.4126C574.4541,209.4302,543.3027,240.582,505.0103,240.582L505.0103,240.582z
			 M505.0103,143.7983c-15.0928,0-27.3707,12.2676-27.3707,27.3296c0,15.0825,12.2779,27.3706,27.3707,27.3706
			c15.0825,0,27.3608-12.2881,27.3608-27.3706C532.3711,156.0659,520.0928,143.7983,505.0103,143.7983L505.0103,143.7983z"/>
	</g>
	<g>
		<polygon fill="#5065A1" points="845.8789,300.1929 133.9761,300.1929 133.9761,258.1098 845.8789,258.1098 845.8789,300.1929 		
			"/>
	</g>
	<g>
		<polygon fill="#5065A1" points="876.0645,300.1929 795.3711,300.1929 795.3711,258.1098 876.0645,258.1098 876.0645,300.1929 		
			"/>
	</g>
	<g>
		<polygon fill="#5065A1" points="931.752,784.1304 69.4336,784.1304 69.4336,742.0483 931.752,742.0483 931.752,784.1304 		"/>
	</g>
	<g>
		<polygon fill="#5065A1" points="940.5869,784.1304 892.1953,784.1304 892.1953,742.0483 940.5869,742.0483 940.5869,784.1304 		
			"/>
	</g>
	<g>
		<path fill="#5065A1" d="M295.2822,703.4995h-64.5224c-11.6202,0-21.0415-9.4121-21.0415-21.043V392.0859
			c0-11.6303,9.4213-21.0415,21.0415-21.0415h64.5224c11.6201,0,21.0415,9.4112,21.0415,21.0415v290.3706
			C316.3237,694.0874,306.9023,703.4995,295.2822,703.4995L295.2822,703.4995z M251.8013,661.4155h22.4389V413.1274h-22.4389
			V661.4155L251.8013,661.4155z"/>
	</g>
	<g>
		<path fill="#5065A1" d="M456.6084,703.4995h-64.5225c-11.6201,0-21.0415-9.4121-21.0415-21.043V392.0859
			c0-11.6303,9.4214-21.0415,21.0415-21.0415h64.5225c11.6201,0,21.0415,9.4112,21.0415,21.0415v290.3706
			C477.6499,694.0874,468.2285,703.4995,456.6084,703.4995L456.6084,703.4995z M413.1274,661.4155h22.439V413.1274h-22.439V661.4155
			L413.1274,661.4155z"/>
	</g>
	<g>
		<path fill="#5065A1" d="M617.9141,703.4995h-64.502c-11.6308,0-21.041-9.4121-21.041-21.043V392.0859
			c0-11.6303,9.4102-21.0415,21.041-21.0415h64.502c11.6093,0,21.041,9.4112,21.041,21.0415v290.3706
			C638.9551,694.0874,629.5234,703.4995,617.9141,703.4995L617.9141,703.4995z M574.4541,661.4155h22.4189V413.1274h-22.4189
			V661.4155L574.4541,661.4155z"/>
	</g>
	<g>
		<path fill="#5065A1" d="M779.2813,703.4995h-64.543c-11.6094,0-21.041-9.4121-21.041-21.043V392.0859
			c0-11.6303,9.4316-21.0415,21.041-21.0415h64.543c11.6308,0,21.0419,9.4112,21.0419,21.0415v290.3706
			C800.3232,694.0874,790.9121,703.4995,779.2813,703.4995L779.2813,703.4995z M735.7803,661.4155h22.4599V413.1274h-22.4599
			V661.4155L735.7803,661.4155z"/>
	</g>
</g>
</svg>
