<?xml version="1.0" encoding="utf-8"?>
<!-- Generator: Adobe Illustrator 17.1.0, SVG Export Plug-In . SVG Version: 6.00 Build 0)  -->
<!DOCTYPE svg PUBLIC "-//W3C//DTD SVG 1.1//EN" "http://www.w3.org/Graphics/SVG/1.1/DTD/svg11.dtd">
<svg version="1.1" id="online-booking" xmlns="http://www.w3.org/2000/svg" xmlns:xlink="http://www.w3.org/1999/xlink" x="0px"
	 y="0px" viewBox="0 0 1010 862.4454" enable-background="new 0 0 1010 862.4454" xml:space="preserve">
<g id="online-booking-online-booking">
	<g id="online-booking-screen">
		<g>
			<path fill="#5065A1" d="M935.9072,714.8907H74.0439C33.2197,714.8907,0,681.6709,0,640.8565V74.0337
				C0,33.2095,33.2197,0,74.0439,0h861.8633C976.7607,0,1010,33.2095,1010,74.0337v566.8228
				C1010,681.6709,976.7607,714.8907,935.9072,714.8907L935.9072,714.8907z M74.0439,40.3999
				c-18.5527,0-33.6435,15.0909-33.6435,33.6338v566.8228c0,18.543,15.0908,33.6337,33.6435,33.6337h861.8633
				c18.583,0,33.6924-15.0908,33.6924-33.6337V74.0337c0-18.5429-15.1094-33.6338-33.6924-33.6338H74.0439L74.0439,40.3999z"/>
		</g>
		<g>
			<path fill="#5065A1" d="M968.7324,145.7989H41.2388c-11.1558,0-20.2002-9.0445-20.2002-20.2002
				c0-11.1553,9.0444-20.1997,20.2002-20.1997h927.4935c11.1651,0,20.1992,9.0444,20.1992,20.1997
				C988.9316,136.7544,979.8975,145.7989,968.7324,145.7989L968.7324,145.7989z"/>
		</g>
		<g>
			<path fill="#5065A1" d="M968.7324,609.5118H41.2388c-11.1558,0-20.2002-9.0352-20.2002-20.2012
				c0-11.1641,9.0444-20.1992,20.2002-20.1992h927.4935c11.1651,0,20.1992,9.0351,20.1992,20.1992
				C988.9316,600.4766,979.8975,609.5118,968.7324,609.5118L968.7324,609.5118z"/>
		</g>
		<g>
			<path fill="#5065A1" d="M383.5439,862.4454c-11.1557,0-20.2001-9.0352-20.2001-20.2002V714.1016
				c0-11.166,9.0444-20.2002,20.2001-20.2002c11.1553,0,20.1998,9.0342,20.1998,20.2002v128.1436
				C403.7437,853.4102,394.6992,862.4454,383.5439,862.4454L383.5439,862.4454z"/>
		</g>
		<g>
			<path fill="#5065A1" d="M634.959,862.4454c-11.166,0-20.2002-9.0352-20.2002-20.2002V714.1016
				c0-11.166,9.0342-20.2002,20.2002-20.2002c11.165,0,20.1992,9.0342,20.1992,20.2002v128.1436
				C655.1582,853.4102,646.124,862.4454,634.959,862.4454L634.959,862.4454z"/>
		</g>
		<g>
			<path fill="#5065A1" d="M694.6914,862.4454H315.29c-11.1557,0-20.2002-9.0352-20.2002-20.2002
				c0-11.1651,9.0445-20.2002,20.2002-20.2002h379.4014c11.1641,0,20.1992,9.0351,20.1992,20.2002
				C714.8906,853.4102,705.8555,862.4454,694.6914,862.4454L694.6914,862.4454z"/>
		</g>
		<g>
			<line fill="none" x1="505" y1="72.6529" x2="505" y2="72.6529"/>
		</g>
	</g>
	<g>
		<g>
			<polygon fill="#5065A1" points="290.3652,509.4385 249.9653,509.4385 249.9653,441.6387 290.3652,441.6387 290.3652,509.4385 			
				"/>
		</g>
		<g>
			<polygon fill="#5065A1" points="290.3652,262.8169 249.9653,262.8169 249.9653,194.9771 290.3652,194.9771 290.3652,262.8169 			
				"/>
		</g>
		<g>
			<polygon fill="#5065A1" points="180.7549,372.4175 112.9546,372.4175 112.9546,332.0176 180.7549,332.0176 180.7549,372.4175 			
				"/>
		</g>
		<g>
			<polygon fill="#5065A1" points="427.3862,372.4175 359.6055,372.4175 359.6055,332.0176 427.3862,332.0176 427.3862,372.4175 			
				"/>
		</g>
		<g>
			<polygon fill="#5065A1" points="173.2979,477.7178 144.7241,449.1641 192.6694,401.1788 221.2437,429.733 173.2979,477.7178 			
				"/>
		</g>
		<g>
			<polygon fill="#5065A1" points="347.6611,303.2759 319.1069,274.7022 367.0918,226.7569 395.646,255.3306 347.6611,303.2759 			
				"/>
		</g>
		<g>
			<polygon fill="#5065A1" points="192.6792,303.2759 144.7241,255.3208 173.2881,226.7569 221.2437,274.712 192.6792,303.2759 			
				"/>
		</g>
		<g>
			<polygon fill="#5065A1" points="367.082,477.7178 319.1069,429.7432 347.6709,401.1788 395.646,449.1543 367.082,477.7178 			"/>
		</g>
		<g>
			<path fill="#5065A1" d="M270.1655,414.9283c-34.581,0-62.7109-28.1299-62.7109-62.7105
				c0-34.5908,28.1299-62.7305,62.7109-62.7305c34.5806,0,62.7202,28.1397,62.7202,62.7305
				C332.8857,386.7984,304.7461,414.9283,270.1655,414.9283L270.1655,414.9283z M270.1655,329.8873
				c-12.2998,0-22.311,10.0209-22.311,22.3305c0,12.2993,10.0112,22.3106,22.311,22.3106c12.3091,0,22.3203-10.0113,22.3203-22.3106
				C292.4858,339.9082,282.4746,329.8873,270.1655,329.8873L270.1655,329.8873z"/>
		</g>
	</g>
	<g>
		<g>
			<path fill="#5065A1" d="M599.332,449.3321c-5.5625,0-11.0859-2.2891-15.0898-6.7666c-7.418-8.335-6.668-21.1074,1.6562-28.5249
				L825.123,201.1319c8.3438-7.4273,21.1075-6.6577,28.5245,1.6572c7.4171,8.3345,6.6671,21.1074-1.6573,28.5244L612.7666,444.2227
				C608.9199,447.6446,604.1064,449.3321,599.332,449.3321L599.332,449.3321z"/>
		</g>
		<g>
			<path fill="#5065A1" d="M750.3594,455.6446c-11.166,0-20.2002-9.0449-20.2002-20.2012V291.3809
				c0-11.1553,9.0342-20.2002,20.2002-20.2002c11.165,0,20.1992,9.0449,20.1992,20.2002v144.0625
				C770.5586,446.5997,761.5244,455.6446,750.3594,455.6446L750.3594,455.6446z"/>
		</g>
		<g>
			<path fill="#5065A1" d="M750.3594,311.5811H617.8555c-11.1446,0-20.1992-9.0449-20.1992-20.2002s9.0546-20.2002,20.1992-20.2002
				h132.5039c11.165,0,20.1992,9.0449,20.1992,20.2002S761.5244,311.5811,750.3594,311.5811L750.3594,311.5811z"/>
		</g>
	</g>
	<g>
		<path fill="#5065A1" d="M880.377,541.001h-40.4005c-11.1446,0-20.1993-9.0547-20.1993-20.2002s9.0547-20.2002,20.1993-20.2002
			h40.4005c11.1454,0,20.2001,9.0547,20.2001,20.2002S891.5225,541.001,880.377,541.001L880.377,541.001z M738.9766,541.001
			h-40.3995c-11.1455,0-20.2001-9.0547-20.2001-20.2002s9.0546-20.2002,20.2001-20.2002h40.3995
			c11.1464,0,20.2002,9.0547,20.2002,20.2002S750.123,541.001,738.9766,541.001L738.9766,541.001z M597.5771,541.001h-40.4003
			c-11.1455,0-20.2003-9.0547-20.2003-20.2002s9.0547-20.2002,20.2003-20.2002h40.4003c11.1456,0,20.2002,9.0547,20.2002,20.2002
			S608.7227,541.001,597.5771,541.001L597.5771,541.001z"/>
	</g>
	<g>
		<path fill="#5065A1" d="M599.332,449.3321c-5.0488,0-10.1191-1.8848-14.0449-5.6817l-63.2236-61.1328
			c-8.0186-7.7524-8.2354-20.5351-0.4737-28.5639c7.7334-8.0289,20.5352-8.2456,28.5645-0.4737l63.2236,61.1328
			c8.0089,7.7525,8.2451,20.5357,0.4737,28.564C609.9063,447.2696,604.6191,449.3321,599.332,449.3321L599.332,449.3321z"/>
	</g>
</g>
</svg>
