<?xml version="1.0" encoding="utf-8"?>
<!-- Generator: Adobe Illustrator 17.1.0, SVG Export Plug-In . SVG Version: 6.00 Build 0)  -->
<!DOCTYPE svg PUBLIC "-//W3C//DTD SVG 1.1//EN" "http://www.w3.org/Graphics/SVG/1.1/DTD/svg11.dtd">
<svg version="1.1" id="outdoor-mountains" xmlns="http://www.w3.org/2000/svg" xmlns:xlink="http://www.w3.org/1999/xlink" x="0px"
	 y="0px" viewBox="0 0 1009.9929 1010" enable-background="new 0 0 1009.9929 1010" xml:space="preserve">
<g id="outdoor-mountains-outdoor-mountains">
	<g>
		<g>
			<path fill="#5065A1" d="M739.989,781.1328c-7.9727,0-15.5762-4.5615-19.1309-12.2461L399.7907,71.3643L89.2649,746.0781
				c-4.8594,10.5615-17.3941,15.1641-27.9043,10.3145c-10.562-4.8496-15.1753-17.3418-10.3155-27.9043L380.6809,12.2466
				C384.1125,4.7876,391.5715,0,399.7907,0c8.2193,0,15.6783,4.7876,19.1099,12.2466l340.1773,739.0502
				c4.8701,10.5625,0.247,23.0547-10.3155,27.9043C745.907,780.5166,742.9265,781.1328,739.989,781.1328L739.989,781.1328z"/>
		</g>
		<g>
			<g>
				<path fill="#5065A1" d="M336.6872,480.8096c-7.7265,0-15.1548-4.2534-18.8427-11.6304l-66.6382-133.2559
					c-5.1987-10.3974-0.9863-23.0346,9.4111-28.2334c10.4077-5.1782,23.0347-0.9863,28.2334,9.4112l66.6377,133.2558
					c5.1987,10.3975,0.9863,23.0347-9.4111,28.2334C343.0569,480.0903,339.841,480.8096,336.6872,480.8096L336.6872,480.8096z"/>
			</g>
			<g>
				<path fill="#5065A1" d="M336.6662,480.8096c-2.188,0-4.4174-0.3496-6.6059-1.0689
					c-11.0347-3.6572-17.0244-15.5547-13.3667-26.5893l63.1245-190.7705c3.6265-11.0342,15.5342-16.9932,26.5791-13.356
					c11.0342,3.6572,17.0244,15.5547,13.3667,26.5894l-63.1245,190.7705C353.7214,475.2202,345.4919,480.8096,336.6662,480.8096
					L336.6662,480.8096z"/>
			</g>
			<g>
				<path fill="#5065A1" d="M483.9363,480.8096c-3.8531,0-7.7471-1.0479-11.2403-3.2671
					c-9.8115-6.2266-12.7295-19.2129-6.5137-29.0352l66.6387-105.207c6.2051-9.8223,19.2324-12.7398,29.0342-6.5137
					c9.8018,6.2261,12.7197,19.2124,6.5137,29.0347l-66.6382,105.207C497.7239,477.3574,490.9021,480.8096,483.9363,480.8096
					L483.9363,480.8096z"/>
			</g>
			<g>
				<path fill="#5065A1" d="M483.967,480.8096c-8.0859,0-15.7915-4.6851-19.2641-12.5552l-84.1661-190.7705
					c-4.6845-10.6231,0.1236-23.0552,10.7574-27.7402c10.6543-4.6436,23.0654,0.144,27.7505,10.7675l84.1655,190.7705
					c4.685,10.6231-0.1231,23.0552-10.7569,27.7403C489.6897,480.2339,486.8025,480.8096,483.967,480.8096L483.967,480.8096z"/>
			</g>
		</g>
	</g>
	<g>
		<g>
			<path fill="#5065A1" d="M980.1158,783.4756c-7.9531,0-15.576-4.5205-19.1103-12.2471L752.8523,319.0327L651.4245,539.4023
				c-4.8486,10.5625-17.3828,15.1651-27.9043,10.3164c-10.5615-4.8496-15.164-17.3437-10.3144-27.8945l120.5361-261.9087
				c3.4307-7.4594,10.8897-12.247,19.1104-12.247c8.2187,0,15.6777,4.7876,19.1093,12.247l227.2637,493.7241
				c4.8496,10.5615,0.2471,23.0557-10.3144,27.9042C986.0749,782.8594,983.0749,783.4756,980.1158,783.4756L980.1158,783.4756z"/>
		</g>
		<g>
			<g>
				<path fill="#5065A1" d="M697.1247,676.9941c-2.1787,0-4.4179-0.3691-6.6162-1.0683
					c-11.0137-3.6582-17.0146-15.5762-13.3574-26.5899l55.7275-168.3828c3.6162-11.0342,15.4932-16.9931,26.5889-13.3564
					c11.0147,3.6577,17.0147,15.5552,13.3574,26.5898l-55.7275,168.3828C714.1804,671.4053,705.9597,676.9941,697.1247,676.9941
					L697.1247,676.9941z"/>
			</g>
			<g>
				<path fill="#5065A1" d="M827.0925,676.9941c-3.8418,0-7.7461-1.0683-11.2402-3.2871
					c-9.8223-6.206-12.7403-19.1924-6.5137-29.0146l58.8506-92.8779c6.2256-9.8223,19.2334-12.7403,29.0342-6.4942
					c9.8222,6.2061,12.7402,19.1924,6.5136,29.0147l-58.8496,92.8779C840.8806,673.542,834.0583,676.9941,827.0925,676.9941
					L827.0925,676.9941z"/>
			</g>
			<g>
				<path fill="#5065A1" d="M827.113,676.9941c-8.0752,0-15.7803-4.6855-19.2529-12.5752l-74.2617-168.3627
					c-4.6856-10.6236,0.1435-23.0552,10.7666-27.7403c10.624-4.664,23.0752,0.1441,27.7402,10.7676l74.2617,168.3618
					c4.6846,10.6445-0.1435,23.0557-10.7676,27.7402C832.8464,676.4189,829.9489,676.9941,827.113,676.9941L827.113,676.9941z"/>
			</g>
		</g>
	</g>
	<g>
		<path fill="#5065A1" d="M646.4109,230.4287c-2.3008,0-4.5411-0.2261-6.7393-0.4932c-2.7939,0.3287-4.7471,0.4932-6.7197,0.4932
			h-72.6582c-11.6094,0-21.041-9.4111-21.041-21.0415c0-11.6304,9.4316-21.0415,21.041-21.0415l77.2617-0.5547
			c1.418-0.1235,2.8359-0.1235,4.2539,0l2.7119,0.3286c0.1641,0,0.2881,0,0.4522,0c23.4248,0,40.9111-17.6303,40.9111-39.268
			c0-21.7808-17.7119-39.4937-39.4736-39.4937c-0.7598,0.0205-1.5196,0.1646-2.2598,0.2876
			c-0.9863,0.1235-3.4932,0.4111-4.4795,0.4111c-7.9727,0-15.3291-4.541-18.9043-11.6713c-1.459-2.918-2.2197-6.1441-2.2197-9.4112
			c0-0.5137,0.0215-1.0893,0.082-1.6645c-0.5547-25.0279-21.082-45.2266-46.2324-45.2266
			c-25.4805,0-46.2344,20.7329-46.2344,46.2334c0,11.6304-9.4219,21.0415-21.0415,21.0415
			c-11.6201,0-21.0415-9.4111-21.0415-21.0415C484.0798,39.6172,523.697,0,572.3972,0c41.7539,0,76.8496,29.1372,85.9941,68.1587
			c39.3086,5.8149,69.5762,39.7812,69.5762,80.6929C727.9675,193.832,691.3718,230.4287,646.4109,230.4287L646.4109,230.4287z"/>
	</g>
	<g>
		<g>
			<path fill="#5065A1" d="M519.115,916.3408c-28.7784,0-58.7578-11.7949-89.3443-35.1377
				c-26.7129-20.3427-51.2475-28.9726-72.977-25.8087c-24.3399,3.6582-37.5523,21.2061-37.6856,21.3701
				c-2.25,3.1651-23.5278,31.4795-64.3574,37.8917c-33.4629,5.2597-69.063-5.959-105.7622-33.2891
				c-27.3086-20.3418-52.2749-28.8496-74.1689-25.4385c-23.4869,3.6572-36.5347,20.6299-36.648,20.7949
				c-6.7705,9.4522-19.9214,11.6299-29.353,4.8907c-9.4624-6.7393-11.6509-19.8907-4.9009-29.3428
				c2.291-3.2051,23.5586-31.5215,64.3882-37.9326c33.4834-5.1779,69.0937,5.9178,105.8135,33.2881
				c27.2983,20.3027,52.2334,28.9316,74.1176,25.4394c23.4864-3.6582,36.5347-20.6309,36.6582-20.7949
				c0.9761-1.3565,23.5586-32.2207,65.6929-38.4668c33.4214-4.9317,68.6416,6.4111,104.7036,33.9453
				c26.4253,20.1797,50.7344,28.9326,72.3506,25.8916c24.4932-3.3701,37.8916-20.8779,38.4248-21.6172
				c0.9043-1.1094,64.7891-82.1924,169.9356-4.4385c72.3086,53.4258,109.7265,6.1641,111.289,4.1094
				c1.9317-2.3008,32.3018-37.6035,77.0977-39c28.3144-0.6992,55.2744,11.6719,79.7676,37.2334
				c8.0136,8.3838,7.7265,21.6992-0.6573,29.7539c-8.3839,8.0967-21.6992,7.7666-29.7539-0.6572
				c-15.9043-16.5625-32.4248-24.3301-48.083-24.2471c-25.8291,0.7803-45.3906,23.0967-45.5762,23.3018
				c0.0411,0.041-63.8642,81.125-169.0917,3.3281c-70.0078-51.7402-107.3242-9.041-111.372-3.9863
				c-0.4307,0.6582-23.0342,31.4804-65.1582,37.7676C529.3679,915.9297,524.2624,916.3408,519.115,916.3408L519.115,916.3408z"/>
		</g>
		<g>
			<path fill="#5065A1" d="M519.115,1010c-28.7784,0-58.7578-11.7539-89.3443-35.0967
				c-26.7129-20.3839-51.2475-28.9736-72.977-25.8086c-24.3399,3.6161-37.5523,21.1651-37.6856,21.3291
				c-2.25,3.1641-23.5278,31.5215-64.3574,37.8907c-33.4629,5.2607-69.063-5.959-105.7622-33.2872
				c-27.3086-20.3027-52.2749-28.8916-74.1689-25.4394c-23.4869,3.6992-36.5347,20.6309-36.648,20.7949
				c-6.7705,9.4522-19.9214,11.6719-29.353,4.8906c-9.4624-6.7402-11.6509-19.8906-4.9009-29.3437
				c2.291-3.2051,23.5586-31.5205,64.3882-37.9317c33.4834-5.1367,69.0937,5.959,105.8135,33.2891
				c27.2983,20.3418,52.2334,28.9317,74.1176,25.4785c23.4864-3.6982,36.5347-20.6709,36.6582-20.8359
				c0.9761-1.3555,23.5586-32.1777,65.6929-38.4658c33.4214-4.9317,68.6416,6.4521,104.7036,33.9872
				c26.4253,20.1367,50.7344,28.8906,72.3506,25.8906c24.4932-3.4111,37.8916-20.877,38.4248-21.6172
				c0.9043-1.1504,64.7891-82.1933,169.9356-4.4795c72.3086,53.4258,109.7685,6.1651,111.289,4.1514
				c1.9317-2.3428,32.3018-37.6445,77.0977-39.001c28.3144-0.5752,55.2744,11.6299,79.7676,37.2334
				c8.0136,8.3838,7.7265,21.6992-0.6573,29.7129c-8.3839,8.0957-21.6992,7.7676-29.7539-0.6172
				c-15.9043-16.6025-32.4248-24.3691-48.083-24.2871c-25.8291,0.8223-45.3906,23.0957-45.5762,23.3428
				c0,0-63.8846,81.124-169.0712,3.2881c-70.0694-51.7413-107.3448-9.042-111.3926-3.9454
				c-0.4307,0.6153-23.0342,31.4795-65.1582,37.7676C529.3679,1009.6299,524.2624,1010,519.115,1010L519.115,1010z"/>
		</g>
		<g>
			<polygon fill="#5065A1" points="1009.9929,783.4756 0.0031,783.4756 0.0031,741.3926 1009.9929,741.3926 1009.9929,783.4756 			
				"/>
		</g>
	</g>
</g>
</svg>
