<?xml version="1.0" encoding="utf-8"?>
<!-- Generator: Adobe Illustrator 17.1.0, SVG Export Plug-In . SVG Version: 6.00 Build 0)  -->
<!DOCTYPE svg PUBLIC "-//W3C//DTD SVG 1.1//EN" "http://www.w3.org/Graphics/SVG/1.1/DTD/svg11.dtd">
<svg version="1.1" id="palm-tree" xmlns="http://www.w3.org/2000/svg" xmlns:xlink="http://www.w3.org/1999/xlink" x="0px" y="0px"
	 viewBox="0 0 1008.735 1010.0005" enable-background="new 0 0 1008.735 1010.0005" xml:space="preserve">
<g id="palm-tree-palm-tree">
	<g>
		<g>
			<path fill="#5065A1" d="M705.8639,1010.0005H302.8492c-7.3212,0-14.2168-3.4932-18.5376-9.4043
				c-4.2988-5.9551-5.5302-13.5664-3.2915-20.5527l201.5191-625.4775c3.0669-9.4702,11.8657-15.8955,21.8286-15.8955l0,0
				c9.9629,0,18.7617,6.4253,21.8281,15.8955L727.692,980.0435c2.2403,6.9863,1.0078,14.5976-3.291,20.5527
				C720.0807,1006.5073,713.1852,1010.0005,705.8639,1010.0005L705.8639,1010.0005z M334.3273,964.1489h340.0581L504.3678,436.3511
				L334.3273,964.1489L334.3273,964.1489z"/>
		</g>
		<g>
			<path fill="#5065A1" d="M542.1588,883.5044H360.6783c-12.6718,0-22.9257-10.2539-22.9257-22.9258
				c0-12.6718,10.2539-22.9258,22.9257-22.9258h181.4805c12.6719,0,22.9258,10.254,22.9258,22.9258
				C565.0846,873.2505,554.8307,883.5044,542.1588,883.5044L542.1588,883.5044z"/>
		</g>
		<g>
			<path fill="#5065A1" d="M511.9127,747.4282H390.9254c-12.6719,0-22.9258-10.254-22.9258-22.9257
				c0-12.6719,10.2539-22.9258,22.9258-22.9258h120.9873c12.6719,0,22.9258,10.2539,22.9258,22.9258
				C534.8385,737.1743,524.5846,747.4282,511.9127,747.4282L511.9127,747.4282z"/>
		</g>
	</g>
	<g>
		<g>
			<path fill="#5065A1" d="M22.9259,634.0532c-4.1641,0-8.3286-1.1201-12-3.3593c-6.8061-4.209-10.9482-11.5967-10.9258-19.6115
				C0.2462,487.8447,68.4196,376.6636,177.8766,320.916c46.2544-23.5747,95.8452-35.5302,147.4058-35.5302
				c68.3071,0,136.4799,22.1196,191.9584,62.3071c6.4483,4.6792,10.0303,12.3808,9.4034,20.3511
				c-0.627,7.9477-5.3506,15.0224-12.4483,18.6274L33.3365,631.5454C30.0455,633.2466,26.486,634.0532,22.9259,634.0532
				L22.9259,634.0532z M325.2824,331.2373c-44.2398,0-86.8448,10.2764-126.5845,30.5381
				c-82.4121,41.978-137.5772,120.5171-150.1148,210.5747l408.6568-208.1123C416.7169,342.7896,371.0446,331.2373,325.2824,331.2373
				L325.2824,331.2373z"/>
		</g>
	</g>
	<g>
		<g>
			<path fill="#5065A1" d="M504.3678,384.522c-4.478,0-8.9106-1.2988-12.7617-3.8731L43.1652,80.4194
				c-6.627-4.4555-10.4781-12.0229-10.1421-19.9931c0.3359-7.9927,4.791-15.2241,11.7539-19.0972
				C93.4049,14.2837,148.5255,0,204.1608,0c64.4785,0,126.9648,19.0078,180.7197,54.9859
				c102.0688,68.2402,156.585,186.7421,142.2568,309.2744c-0.9179,7.9257-5.9111,14.7988-13.165,18.1572
				C510.9049,383.8276,507.6364,384.522,504.3678,384.522L504.3678,384.522z M102.3605,64.8818l381.1186,255.1387
				c-1.791-91.0088-47.2397-175.5478-124.0766-226.9292c-46.1875-30.8965-99.875-47.2397-155.2417-47.2397
				C169.3243,45.8516,134.734,52.3667,102.3605,64.8818L102.3605,64.8818z"/>
		</g>
	</g>
	<g>
		<g>
			<path fill="#5065A1" d="M985.8091,634.0532c-3.5596,0-7.1191-0.8066-10.4101-2.5078l-480.8599-244.874
				c-7.0972-3.605-11.8213-10.6797-12.4483-18.6274c-0.6264-7.9703,2.9556-15.6719,9.4034-20.3511
				c55.479-40.1875,123.6294-62.3071,191.936-62.3071c51.5605,0,101.1514,11.9555,147.3838,35.5527
				c109.4346,55.7026,177.6299,166.8838,177.9209,290.144c0.0224,7.9698-4.1192,15.4024-10.9258,19.5664
				C994.1373,632.9331,989.9733,634.0532,985.8091,634.0532L985.8091,634.0532z M551.4948,364.2378L960.153,572.3501
				C947.5475,482.27,892.3824,403.709,810.0153,361.7974c-39.7627-20.2837-82.3448-30.5601-126.585-30.5601
				C637.691,331.2373,592.0182,342.7896,551.4948,364.2378L551.4948,364.2378z"/>
		</g>
	</g>
	<g>
		<g>
			<path fill="#5065A1" d="M504.3678,384.522c-3.269,0-6.5376-0.6944-9.605-2.1045c-7.2534-3.3359-12.2461-10.2315-13.164-18.1572
				C467.2477,241.773,521.7643,123.271,623.8551,54.9859C677.5651,19.0078,740.0514,0,804.5298,0
				c55.6348,0,110.7783,14.2837,159.4063,41.3291c6.9843,3.8731,11.4404,11.1045,11.7754,19.0972
				c0.3359,7.9702-3.5137,15.5376-10.1407,19.9931L517.1295,380.6489C513.278,383.2232,508.8453,384.522,504.3678,384.522
				L504.3678,384.522z M804.5298,45.8516c-55.3672,0-109.0312,16.3432-155.1738,47.2397
				C572.4957,144.4951,527.025,229.0342,525.233,320.0205L906.3522,64.8818C873.9791,52.3667,839.3658,45.8516,804.5298,45.8516
				L804.5298,45.8516z"/>
		</g>
	</g>
</g>
</svg>
