<?xml version="1.0" encoding="utf-8"?>
<!-- Generator: Adobe Illustrator 17.1.0, SVG Export Plug-In . SVG Version: 6.00 Build 0)  -->
<!DOCTYPE svg PUBLIC "-//W3C//DTD SVG 1.1//EN" "http://www.w3.org/Graphics/SVG/1.1/DTD/svg11.dtd">
<svg version="1.1" id="passport" xmlns="http://www.w3.org/2000/svg" xmlns:xlink="http://www.w3.org/1999/xlink" x="0px" y="0px"
	 viewBox="0 0 709.5815 1010" enable-background="new 0 0 709.5815 1010" xml:space="preserve">
<g id="passport-passport">
	<g>
		<g>
			<path fill="#5065A1" d="M624.9624,1010H21.042C9.4214,1010,0,1000.5889,0,988.959V21.0415C0,9.4214,9.4214,0,21.042,0h603.9204
				c46.6445,0,84.6191,37.9634,84.6191,84.6187v840.7426C709.5815,972.0264,671.6069,1010,624.9624,1010L624.9624,1010z
				 M42.0835,967.916h582.8789c23.4668,0,42.5351-19.0889,42.5351-42.5547V84.6187c0-23.4561-19.0683-42.5352-42.5351-42.5352
				H42.0835V967.916L42.0835,967.916z"/>
		</g>
		<g>
			<polygon fill="#5065A1" points="605.1128,811.4805 104.4687,811.4805 104.4687,769.3975 605.1128,769.3975 605.1128,811.4805 			
				"/>
		</g>
		<g>
			<polygon fill="#5065A1" points="605.1128,876.4756 315.2759,876.4756 315.2759,834.3926 605.1128,834.3926 605.1128,876.4756 			
				"/>
		</g>
		<g>
			<polygon fill="#5065A1" points="271.3432,876.4756 104.4687,876.4756 104.4687,834.3926 271.3432,834.3926 271.3432,876.4756 			
				"/>
		</g>
	</g>
	<g>
		<g>
			<path fill="#5065A1" d="M354.7905,676.2305c-149.6445,0-271.3843-121.75-271.3843-271.4043
				c0-149.6241,121.7398-271.3433,271.3843-271.3433v42.0835c-126.4351,0-229.3008,102.8452-229.3008,229.2598
				c0,126.4345,102.8657,229.3213,229.3008,229.3213V676.2305L354.7905,676.2305z"/>
		</g>
		<g>
			<path fill="#5065A1" d="M354.7905,676.2305v-42.083c126.4141,0,229.2803-102.8868,229.2803-229.3213
				c0-126.4146-102.8662-229.2598-229.2803-229.2598v-42.0835c149.6348,0,271.3633,121.7192,271.3633,271.3433
				C626.1538,554.4805,504.4253,676.2305,354.7905,676.2305L354.7905,676.2305z"/>
		</g>
		<g>
			<path fill="#5065A1" d="M600.6323,425.8677H108.9072c-11.6201,0-21.0415-9.4214-21.0415-21.0415
				c0-11.6201,9.4214-21.042,21.0415-21.042h491.7251c11.6309,0,21.0421,9.4219,21.0421,21.042
				C621.6743,416.4463,612.2632,425.8677,600.6323,425.8677L600.6323,425.8677z"/>
		</g>
		<g>
			<path fill="#5065A1" d="M546.9604,286.0146H162.6211c-11.6202,0-21.042-9.4213-21.042-21.0415
				c0-11.6206,9.4218-21.0419,21.042-21.0419h384.3393c11.6299,0,21.041,9.4213,21.041,21.0419
				C568.0014,276.5933,558.5903,286.0146,546.9604,286.0146L546.9604,286.0146z"/>
		</g>
		<g>
			<polygon fill="#5065A1" points="563.5835,565.7822 145.9765,565.7822 145.9765,523.6992 563.5835,523.6992 563.5835,565.7822 			
				"/>
		</g>
		<g>
			<path fill="#5065A1" d="M356.6909,663.2852c-6.1641,0-12.2774-2.6915-16.4385-7.8907
				c-7.2637-9.0625-5.7944-22.3163,3.2774-29.5693c74.8584-59.919,117.1884-149.9629,113.2226-240.8696
				c-3.5556-82.1221-44.3027-155.0176-111.7431-199.9986c-9.668-6.4521-12.2774-19.5107-5.8355-29.1787
				c6.4419-9.6889,19.48-12.3188,29.1792-5.8359c78.7412,52.5117,126.291,137.5005,130.4414,233.1846
				c4.541,104.2631-43.6855,207.2724-128.9629,275.5351C365.9487,661.7852,361.3042,663.2852,356.6909,663.2852L356.6909,663.2852z"
				/>
		</g>
		<g>
			<path fill="#5065A1" d="M352.8076,662.915c-4.6133,0-9.2573-1.5-13.1406-4.623
				c-85.2046-68.1807-133.3599-171.0562-128.8189-275.1958c4.1612-95.5303,51.6592-180.3648,130.2984-232.7632
				c9.6679-6.4834,22.7368-3.8428,29.1792,5.8355c6.4511,9.6787,3.832,22.7373-5.836,29.1792
				c-67.3481,44.8779-108.0239,117.6196-111.5991,199.5874c-3.9556,90.7627,38.3125,180.6831,113.0776,240.52
				c9.0723,7.2539,10.542,20.5078,3.2784,29.5693C365.0952,660.2227,358.9721,662.915,352.8076,662.915L352.8076,662.915z"/>
		</g>
	</g>
</g>
</svg>
