<?xml version="1.0" encoding="utf-8"?>
<!-- Generator: Adobe Illustrator 17.1.0, SVG Export Plug-In . SVG Version: 6.00 Build 0)  -->
<!DOCTYPE svg PUBLIC "-//W3C//DTD SVG 1.1//EN" "http://www.w3.org/Graphics/SVG/1.1/DTD/svg11.dtd">
<svg version="1.1" id="plane-window" xmlns="http://www.w3.org/2000/svg" xmlns:xlink="http://www.w3.org/1999/xlink" x="0px"
	 y="0px" viewBox="0 0 843.1464 1010" enable-background="new 0 0 843.1464 1010" xml:space="preserve">
<g id="plane-window-plane-window">
	<g>
		<g>
			<path fill="#5065A1" d="M421.5732,1010C189.1079,1010,0,820.8926,0,588.4473V421.5732C0,189.1182,189.1079,0,421.5732,0
				C654.038,0,843.1464,189.1182,843.1464,421.5732v166.8741C843.1464,820.8926,654.038,1010,421.5732,1010L421.5732,1010z
				 M421.5732,42.0835c-209.2456,0-379.4897,170.2339-379.4897,379.4897v166.8741c0,209.2461,170.2441,379.4687,379.4897,379.4687
				c209.2461,0,379.4901-170.2226,379.4901-379.4687V421.5732C801.0634,212.3174,630.8193,42.0835,421.5732,42.0835
				L421.5732,42.0835z"/>
		</g>
		<g>
			<polygon fill="#5065A1" points="767.9599,242.3491 75.187,242.3491 75.187,200.2656 767.9599,200.2656 767.9599,242.3491 			"/>
		</g>
		<g>
			<path fill="#5065A1" d="M246.3559,893.2021c-2.8559,0-5.6094-0.288-8.3423-0.6572c-3.5757,0.4512-5.9384,0.6572-8.3427,0.6572
				h-90.126c-5.5684,0-10.9112-2.2197-14.8565-6.124c-40.768-40.6035-72.3305-88.0703-93.8657-141.0645
				c-3.5547-8.7538-0.8218-18.8028,6.6577-24.5762c4.1714-3.2266,8.5074-6.0625,12.9868-8.5273
				c4.6031-53.3848,49.522-95.4278,104.0782-95.4278c50.6108,0,92.9409,36.1856,102.4756,84.043
				c48.0009,5.3437,85.4609,46.1523,85.4609,95.5508C342.4819,850.0918,299.3505,893.2021,246.3559,893.2021L246.3559,893.2021z
				 M237.9931,850.2969c0.7188,0,1.438,0.041,2.1778,0.123l3.185,0.3701c0.9863,0.1436,1.9727,0.3291,3,0.3291
				c29.7954,0,54.043-24.248,54.043-54.0429c0-29.7949-24.2476-54.043-54.043-54.043c-1.1299,0-2.2192,0.2061-3.3081,0.3711
				l-2.5683,0.3281c-6.4317,0.7403-12.9459-1.541-17.4664-6.0615c-3.9453-3.9453-6.1645-9.3086-6.1645-14.8779
				c0-0.5957,0.041-1.2531,0.1025-1.9102c-0.5957-33.9053-28.3569-61.3164-62.4057-61.3164
				c-34.398,0-62.3853,28.0068-62.3853,62.4258c0.0615,0.4932,0.3701,2.5889,0.4111,3.1035
				c0.6163,9.4512-5.1577,18.1436-14.1167,21.2676c-0.4726,0.1641-0.9248,0.3281-1.3974,0.4922
				c17.7744,38.4883,41.6929,73.4609,71.3032,104.2636h81.3106c0.9863,0,1.9726-0.1855,2.9384-0.3291l3.2056-0.3701
				C236.5341,850.3379,237.2739,850.2969,237.9931,850.2969L237.9931,850.2969z"/>
		</g>
		<g>
			<path fill="#5065A1" d="M237.9931,501.0342H137.8598c-39.2065,0-71.0976-31.9014-71.0976-71.1187
				c0-24.9048,13.2539-47.7031,34.1313-60.4638c5.0547-34.316,34.6856-60.731,70.3579-60.731
				c31.8911,0,58.9536,21.1138,67.9536,50.1074c38.6519,0.6475,69.9063,32.2818,69.9063,71.0874
				C309.1113,469.1328,277.1997,501.0342,237.9931,501.0342L237.9931,501.0342z M142.2368,379.8491
				c0.103,0,0.2055,1.0484,0.2466,2.1475c0.3701,9.2265-5.3013,17.6103-14.0142,20.6821
				c-11.7329,4.1509-19.6235,15.0928-19.6235,27.2368c0,16.0074,13.0073,29.0352,29.0141,29.0352h100.1333
				c16.0069,0,29.0347-13.0278,29.0347-29.0352c0-15.9966-13.0278-29.0141-29.0347-29.0141h-16.665
				c-11.6304,0-21.0415-9.4214-21.0415-21.042c0-16.0171-13.0279-29.0552-29.0352-29.0552
				c-16.0073,0-29.0351,13.0381-29.0351,29.0552C142.2163,379.8491,142.2368,379.8491,142.2368,379.8491L142.2368,379.8491z"/>
		</g>
		<g>
			<path fill="#5065A1" d="M688.3545,885.8867l-315.7896-350.084c-3.4932-3.8847-5.4248-8.8984-5.4248-14.0966V404.8467
				c0-11.6201,9.4111-21.042,21.042-21.042h16.7056c7.9731,0,15.247,4.5005,18.8222,11.6308l29.7129,59.4366l375.0108,142.2675
				l-14.919,39.3702L430.8203,491.3042c-4.9522-1.8799-9.0005-5.5376-11.3638-10.2637l-10.2329-20.4765v53.0561l310.3652,344.0742
				L688.3545,885.8867L688.3545,885.8867z"/>
		</g>
		<g>
			<path fill="#5065A1" d="M614.0097,793.0693h-96.3926c-48.413,0-87.7832-39.3915-87.7832-87.8242
				c0-37.7275,24.2881-71.0771,60.4327-83.0361c7.8906-2.5899,16.6445-0.2881,22.2129,5.8965l117.1474,129.8261
				c5.5684,6.1855,6.9863,15.0624,3.6162,22.6445C629.8525,788.1582,622.332,793.0693,614.0097,793.0693L614.0097,793.0693z
				 M491.7666,667.9492c-12.2266,8.3438-19.8496,22.1524-19.8496,37.2959c0,25.2129,20.5078,45.7412,45.7001,45.7412h49.0694
				L491.7666,667.9492L491.7666,667.9492z"/>
		</g>
	</g>
</g>
</svg>
