<?xml version="1.0" encoding="utf-8"?>
<!-- Generator: Adobe Illustrator 17.1.0, SVG Export Plug-In . SVG Version: 6.00 Build 0)  -->
<!DOCTYPE svg PUBLIC "-//W3C//DTD SVG 1.1//EN" "http://www.w3.org/Graphics/SVG/1.1/DTD/svg11.dtd">
<svg version="1.1" id="plane" xmlns="http://www.w3.org/2000/svg" xmlns:xlink="http://www.w3.org/1999/xlink" x="0px" y="0px"
	 viewBox="0 0 1009.751 1010" enable-background="new 0 0 1009.751 1010" xml:space="preserve">
<g id="plane-plane">
	<g>
		<g>
			<polygon fill="#5065A1" points="407.667,1010 268.2818,731.2969 309.3418,710.7666 420.1734,932.4063 420.7783,931.8242 
				422.2354,680.2178 636.4575,466.0073 874.0552,828.6797 906.7329,796.002 765.8911,354.1338 809.6411,340.1929 
				958.9556,808.6875 866.6138,901.0742 629.0161,538.3896 468.0469,699.3584 466.5903,950.875 407.667,1010 			"/>
		</g>
		<g>
			<path fill="#5065A1" d="M633.7232,533.6602l-32.4541-32.4537L944.7896,157.708c25.4609-25.562,25.4609-67.1265-0.045-92.6323
				l32.4551-32.4536c43.3682,43.3799,43.4131,114.0361,0.0663,157.5171L633.7232,533.6602L633.7232,533.6602z"/>
		</g>
		<g>
			<polygon fill="#5065A1" points="278.5693,741.5176 0,602.2656 58.9458,543.3203 310.5972,541.7969 471.5884,380.8164 
				108.9043,143.1953 201.2451,50.7988 669.6958,200.2363 655.7544,243.9634 213.9307,103.0205 181.2525,135.7319 
				543.9819,373.3525 329.7378,587.5625 77.5039,589.6699 299.0991,700.457 278.5693,741.5176 			"/>
		</g>
		<g>
			<path fill="#5065A1" d="M521.77,395.5078l-32.4531-32.4536L819.7485,32.6665C840.7505,11.6211,868.7212,0.0112,898.4634,0
				c0,0,0.0215,0,0.0449,0c29.7188,0,57.668,11.5874,78.6914,32.6221l-32.4551,32.4536
				c-12.3711-12.3721-28.7773-19.1743-46.2597-19.1743l0,0c-17.4815,0.0112-33.9102,6.8247-46.2598,19.208L521.77,395.5078
				L521.77,395.5078z"/>
		</g>
	</g>
	<g>
		<polygon fill="#5065A1" points="241.0054,801.2695 208.5513,768.8154 339.3076,638.0586 371.7617,670.5137 241.0054,801.2695 		
			"/>
	</g>
	<g>
		<path fill="#5065A1" d="M899.1802,168.3989c-5.8721,0-11.7676-2.2417-16.25-6.7353l-34.6943-34.7398
			c-8.9424-8.9653-8.9424-23.5,0.0224-32.4536c8.9649-8.9429,23.5108-8.9653,32.4766,0.022l34.6943,34.7402
			c8.9424,8.9649,8.9424,23.4995-0.0224,32.4536C910.9243,166.1572,905.0523,168.3989,899.1802,168.3989L899.1802,168.3989z"/>
	</g>
	<g>
		<path fill="#5065A1" d="M489.8101,172.6348l-32.4541-32.4536l61.1425-61.1426c5.4903-5.4907,5.4903-14.4449-0.0224-19.9585
			c-5.4688-5.4912-14.4116-5.48-19.9253,0.0112l-87.3428,87.3203l-32.4536-32.4536l87.3428-87.3203
			c23.3989-23.3989,61.456-23.3989,84.8545,0c23.3769,23.4214,23.3769,61.4785,0,84.855L489.8101,172.6348L489.8101,172.6348z"/>
	</g>
	<g>
		<path fill="#5065A1" d="M895.8853,631.1113l-32.4532-32.4531l87.3204-87.3203c5.4902-5.5029,5.4902-14.4458,0-19.9483
			c-2.668-2.6669-6.1866-4.124-9.9297-4.124h-0.0215c-3.7891,0-7.3516,1.4683-10.0195,4.1465l-61.0977,61.0752l-32.4531-32.4541
			l61.0977-61.0747c11.3408-11.3521,26.4239-17.5942,42.4727-17.5942c0.0215,0,0.0449,0,0.0449,0
			c16.0469,0.0112,31.0859,6.2646,42.3818,17.5942c23.376,23.3765,23.376,61.4341-0.0224,84.8325L895.8853,631.1113
			L895.8853,631.1113z"/>
	</g>
	<g>
		<g>
			<polygon fill="#5065A1" points="75.5088,474.3335 43.0552,441.8799 198.8692,286.0659 231.3228,318.5195 75.5088,474.3335 			"/>
		</g>
		<g>
			<polygon fill="#5065A1" points="186.6094,466.6909 154.1558,434.2373 283.8359,304.5566 316.2901,337.0103 186.6094,466.6909 			
				"/>
		</g>
		<g>
			<polygon fill="#5065A1" points="575.6284,855.7324 543.1743,823.2793 672.856,693.5527 705.3091,726.0078 575.6284,855.7324 			
				"/>
		</g>
		<g>
			<polygon fill="#5065A1" points="567.9409,966.8555 535.4868,934.4014 691.3462,778.543 723.7993,810.9961 567.9409,966.8555 			
				"/>
		</g>
	</g>
</g>
</svg>
