<?xml version="1.0" encoding="utf-8"?>
<!-- Generator: Adobe Illustrator 17.1.0, SVG Export Plug-In . SVG Version: 6.00 Build 0)  -->
<!DOCTYPE svg PUBLIC "-//W3C//DTD SVG 1.1//EN" "http://www.w3.org/Graphics/SVG/1.1/DTD/svg11.dtd">
<svg version="1.1" id="plane-2" xmlns="http://www.w3.org/2000/svg" xmlns:xlink="http://www.w3.org/1999/xlink" x="0px" y="0px"
	 viewBox="0 0 1009.9998 1009.6516" enable-background="new 0 0 1009.9998 1009.6516" xml:space="preserve">
<g id="plane-2-plane-2">
	<g id="plane-2-outline">
		<g>
			<path fill="#5065A1" d="M466.5557,301.4782c-4.5811,0-9.1822-1.4892-13.0645-4.56L228.9741,118.7424
				c-5.7104-4.5293-8.6684-11.6983-7.8056-18.939c0.8627-7.2407,5.4023-13.5161,11.9961-16.5976L407.3965,1.9856
				c7.1894-3.3897,15.7139-2.3829,21.979,2.5878l224.5073,178.1553c9.1192,7.2202,10.6396,20.4488,3.4092,29.5488
				c-7.2305,9.0894-20.418,10.6402-29.5791,3.3995L413.3945,45.6052l-131.5879,61.3467l197.854,157.018
				c9.1001,7.2202,10.6202,20.4488,3.3897,29.5484C478.9009,298.7566,472.7588,301.4782,466.5557,301.4782L466.5557,301.4782z"/>
		</g>
		<g>
			<path fill="#5065A1" d="M578.8242,820.302c-3.9433,0-7.8878-1.1094-11.2979-3.2871c-6.0801-3.8614-9.7364-10.5586-9.7364-17.7481
				V508.6477L279.8345,638.2229c-8.73,4.1084-19.1446,1.7255-25.2246-5.792L4.9912,324.5461
				c-4.0874-5.0327-5.6279-11.6572-4.1699-17.9736c1.4585-6.3062,5.7314-11.5957,11.6059-14.3379l84.1788-39.2749
				c26.9502-12.5611,59.4052-10.1372,83.1513,6.3061l114.5181,78.314L816.3643,94.134
				c18.2003-8.4941,38.6181-12.9824,58.9951-12.9824c52.3799,0,98.6386,27.5874,120.7422,71.9873
				c16.0625,32.2397,18.2812,69.019,6.2441,103.5386c-12.0371,34.4067-36.5635,61.7065-69.0605,76.8452l-159.1954,74.2465v310.2359
				c0,8.1758-4.7656,15.6113-12.1601,19.0625l-174.2315,81.2617C584.8633,819.6438,581.8232,820.302,578.8242,820.302
				L578.8242,820.302z M578.8242,454.5935c3.9434,0,7.8467,1.1093,11.2979,3.2968c6.039,3.8619,9.7363,10.5479,9.7363,17.7373
				V766.257l132.1631-61.6445V394.3664c0-8.1758,4.7246-15.6118,12.1191-19.0625l171.3555-79.9057
				c22.1445-10.3121,38.8652-28.9942,47.123-52.586c8.299-23.7251,6.8194-48.8989-4.1503-70.9087
				c-14.7481-29.5796-47.3672-48.6831-83.1094-48.6831c-14.2559,0-28.5117,3.1226-41.2061,9.0381L301.1978,380.7678
				c-6.7583,3.1533-14.646,2.4853-20.7676-1.6944l-124.5215-85.144c-11.832-8.186-27.895-9.1411-41.5347-2.835l-59.7549,27.875
				l222.3194,274.1861l292.9707-136.5899C572.7441,455.2404,575.7842,454.5935,578.8242,454.5935L578.8242,454.5935z"/>
		</g>
		<g>
			<g>
				<polygon fill="#5065A1" points="406.6978,455.3327 388.9092,417.2082 432.457,396.9133 450.2456,435.0383 406.6978,455.3327 
									"/>
			</g>
			<g>
				<polygon fill="#5065A1" points="522.8389,401.1652 505.0498,363.0407 548.6289,342.7253 566.417,380.8498 522.8389,401.1652 
									"/>
			</g>
			<g>
				<polygon fill="#5065A1" points="639.0098,346.9978 621.2217,308.8733 664.7695,288.5578 682.5586,326.6823 639.0098,346.9978 
									"/>
			</g>
			<g>
				<polygon fill="#5065A1" points="755.1924,292.8098 737.4033,254.6853 780.9922,234.3698 798.7813,272.4943 755.1924,292.8098 
									"/>
			</g>
		</g>
		<g>
			<path fill="#5065A1" d="M470.376,688.6731c-7.9287,0-15.5088-4.4786-19.0825-12.1202
				c-4.9097-10.538-0.3497-23.0479,10.1674-27.9775l174.2627-81.2617c10.5577-4.9297,23.0479-0.3692,27.9776,10.1484
				c4.8886,10.5371,0.3281,23.0469-10.1885,27.9766L479.25,686.7004C476.374,688.0559,473.3545,688.6731,470.376,688.6731
				L470.376,688.6731z"/>
		</g>
	</g>
	<g>
		<g>
			<path fill="#5065A1" d="M324.1421,899.3039l-41.0005-9.4492c1.438-6.1836,2.1572-12.6328,2.1572-19.1445
				c0-46.752-38.351-84.795-85.4931-84.795c-31.3872,0-60.1866,16.9883-75.1817,44.3077l-36.8921-20.2334
				c22.3902-40.795,65.3213-66.1426,112.0738-66.1426c70.3335,0,127.5615,56.9199,127.5615,126.8633
				C327.3672,880.4055,326.2788,890.0188,324.1421,899.3039L324.1421,899.3039z"/>
		</g>
		<g>
			<path fill="#5065A1" d="M330.8594,1009.6516H99.2969C42.6846,1009.6516,0,964.5227,0,904.6848
				c0-59.877,42.6846-105.0069,99.2969-105.0069c26.0259,0,50.9834,9.4893,70.313,26.7041l-27.9776,31.4073
				c-11.6264-10.3526-26.6626-16.043-42.3354-16.043c-33.1538,0-57.2285,26.458-57.2285,62.9385
				c0,36.4414,24.0747,62.8984,57.2285,62.8984h231.5625c26.3545,0,47.7793-21.2402,47.7793-47.3691
				s-21.4248-47.4092-47.7793-47.4092c-5.1353,0-10.168,0.8214-14.9951,2.3828l-13.1055-39.9736
				c9.0381-2.9571,18.5078-4.4776,28.1006-4.4776c49.5459,0,89.8476,40.1377,89.8476,89.4776
				C420.707,969.5549,380.4053,1009.6516,330.8594,1009.6516L330.8594,1009.6516z"/>
		</g>
	</g>
</g>
</svg>
