<?xml version="1.0" encoding="utf-8"?>
<!-- Generator: Adobe Illustrator 17.1.0, SVG Export Plug-In . SVG Version: 6.00 Build 0)  -->
<!DOCTYPE svg PUBLIC "-//W3C//DTD SVG 1.1//EN" "http://www.w3.org/Graphics/SVG/1.1/DTD/svg11.dtd">
<svg version="1.1" id="plane-3" xmlns="http://www.w3.org/2000/svg" xmlns:xlink="http://www.w3.org/1999/xlink" x="0px" y="0px"
	 viewBox="0 0 1010.0023 841.6401" enable-background="new 0 0 1010.0023 841.6401" xml:space="preserve">
<g id="plane-3-plane-3">
	<g>
		<path fill="#5065A1" d="M555.5022,302.9902c-2.5313,0-5.0957-0.5669-7.5117-1.7749c-8.3184-4.1592-11.6875-14.2685-7.5293-22.5864
			L662.9436,33.6655H498.593l-130.0098,260.021c-4.1513,8.3013-14.2363,11.7041-22.5869,7.5288
			c-8.3174-4.1592-11.6875-14.2685-7.5283-22.5864L473.1301,9.3042C475.9826,3.6001,481.8098,0,488.1877,0h201.9942
			c5.8349,0,11.2597,3.0244,14.3173,7.9809c3.0577,4.9644,3.3536,11.1617,0.7393,16.3804L570.5764,293.6865
			C567.634,299.5879,561.6838,302.9902,555.5022,302.9902L555.5022,302.9902z"/>
	</g>
	<g>
		<path fill="#5065A1" d="M690.1819,841.6401H488.1877c-6.3203,0-12.1152-3.5508-14.9912-9.1728L323.0246,538.6499H134.6994
			c-36.2382,0-70.3564-14.5313-96.0742-40.8985c-25.8076-26.498-39.5176-61.1347-38.5801-97.5532
			c1.8897-72.1723,64.5606-130.8735,139.7002-130.8735h608.1836l75.8955-128.0952c14.4659-24.7808,41.9668-40.2329,71.7206-40.2329
			h97.627c5.1777,0,10.0762,2.392,13.2656,6.477c3.1885,4.085,4.3233,9.4107,3.0576,14.4409L908.4983,525.894
			c-1.8741,7.4951-8.5977,12.7559-16.3233,12.7559H562.8342l142.3389,278.497c2.6631,5.2276,2.416,11.4415-0.6406,16.4385
			C701.4748,838.5825,696.05,841.6401,690.1819,841.6401L690.1819,841.6401z M498.4866,807.9741h164.1933L520.3244,529.477
			c-2.663-5.2275-2.4248-11.4404,0.6329-16.4385c3.0498-4.997,8.5068-8.0546,14.3593-8.0546h343.7246l92.5801-370.3213H895.545
			c-18.0986,0-34.0605,8.8354-42.707,23.6299l-80.8437,136.4458c-3.0244,5.1123-8.5479,8.2519-14.4815,8.2519H139.7453
			c-56.0869,0-104.6543,44.9097-106.0517,98.0791c-0.6904,27.2544,9.6172,53.2525,29.039,73.1753
			c19.3311,19.8242,44.8848,30.7393,71.9668,30.7393h198.6231c6.3213,0,12.1152,3.5507,14.9922,9.1728L498.4866,807.9741
			L498.4866,807.9741z"/>
	</g>
	<g>
		<path fill="#5065A1" d="M690.1819,420.8198h-50.4991c-9.2871,0-16.833-7.5366-16.833-16.8325
			c0-9.2959,7.5459-16.833,16.833-16.833h50.4991c9.2871,0,16.832,7.5371,16.832,16.833
			C707.0139,413.2832,699.469,420.8198,690.1819,420.8198L690.1819,420.8198z"/>
	</g>
	<g>
		<path fill="#5065A1" d="M555.5188,420.8198h-50.4981c-9.2959,0-16.833-7.5366-16.833-16.8325
			c0-9.2959,7.5371-16.833,16.833-16.833h50.4981c9.2881,0,16.833,7.5371,16.833,16.833
			C572.3518,413.2832,564.8069,420.8198,555.5188,420.8198L555.5188,420.8198z"/>
	</g>
	<g>
		<path fill="#5065A1" d="M420.8567,420.8198h-50.4981c-9.2959,0-16.833-7.5366-16.833-16.8325
			c0-9.2959,7.5371-16.833,16.833-16.833h50.4981c9.2959,0,16.833,7.5371,16.833,16.833
			C437.6897,413.2832,430.1526,420.8198,420.8567,420.8198L420.8567,420.8198z"/>
	</g>
	<g>
		<path fill="#5065A1" d="M286.1946,420.8198h-50.4991c-9.2959,0-16.832-7.5366-16.832-16.8325
			c0-9.2959,7.5361-16.833,16.832-16.833h50.4991c9.2959,0,16.832,7.5371,16.832,16.833
			C303.0266,413.2832,295.4905,420.8198,286.1946,420.8198L286.1946,420.8198z"/>
	</g>
</g>
</svg>
