<?xml version="1.0" encoding="utf-8"?>
<!-- Generator: Adobe Illustrator 17.1.0, SVG Export Plug-In . SVG Version: 6.00 Build 0)  -->
<!DOCTYPE svg PUBLIC "-//W3C//DTD SVG 1.1//EN" "http://www.w3.org/Graphics/SVG/1.1/DTD/svg11.dtd">
<svg version="1.1" id="port" xmlns="http://www.w3.org/2000/svg" xmlns:xlink="http://www.w3.org/1999/xlink" x="0px" y="0px"
	 viewBox="0 0 1010 1010" enable-background="new 0 0 1010 1010" xml:space="preserve">
<g id="port-port">
	<g>
		<g>
			<path fill="#5065A1" d="M505,726.2461c-11.6201,0-21.0415-9.4121-21.0415-21.042V388.9214
				c0-11.6304,9.4214-21.0415,21.0415-21.0415s21.041,9.4111,21.041,21.0415v316.2827
				C526.041,716.834,516.6201,726.2461,505,726.2461L505,726.2461z"/>
		</g>
		<g>
			<path fill="#5065A1" d="M505,394.6133c-36.0317,0-65.3442-29.3018-65.3442-65.3028c0-36.0219,29.3125-65.3442,65.3442-65.3442
				c36.0215,0,65.3242,29.3223,65.3242,65.3442C570.3242,365.3115,541.0215,394.6133,505,394.6133L505,394.6133z M505,306.0493
				c-12.8223,0-23.2607,10.439-23.2607,23.2612c0,12.8013,10.4384,23.2198,23.2607,23.2198
				c12.8125,0,23.2402-10.4185,23.2402-23.2198C528.2402,316.4883,517.8125,306.0493,505,306.0493L505,306.0493z"/>
		</g>
		<g>
			<path fill="#5065A1" d="M560.3574,481.3486H449.6426c-11.6206,0-21.042-9.4111-21.042-21.0415
				c0-11.6303,9.4214-21.042,21.042-21.042h110.7148c11.6309,0,21.042,9.4117,21.042,21.042
				C581.3994,471.9375,571.9883,481.3486,560.3574,481.3486L560.3574,481.3486z"/>
		</g>
		<g>
			<path fill="#5065A1" d="M505,746.0332c-115.3901,0-209.2661-93.8848-209.2661-209.2656h42.0835
				c0,92.1816,75.0019,167.1836,167.1826,167.1836c92.2012,0,167.2031-75.002,167.2031-167.1836h42.084
				C714.2871,652.1484,620.4004,746.0332,505,746.0332L505,746.0332z"/>
		</g>
		<g>
			<path fill="#5065A1" d="M374.8457,557.8096H274.6924c-11.6201,0-21.0415-9.4113-21.0415-21.0421
				c0-11.6299,9.4214-21.041,21.0415-21.041h100.1533c11.6201,0,21.042,9.4111,21.042,21.041
				C395.8877,548.3984,386.4658,557.8096,374.8457,557.8096L374.8457,557.8096z"/>
		</g>
		<g>
			<path fill="#5065A1" d="M735.2871,557.8096h-99.8242c-11.6104,0-21.042-9.4113-21.042-21.0421
				c0-11.6299,9.4316-21.041,21.042-21.041h99.8242c11.6094,0,21.041,9.4111,21.041,21.041
				C756.3281,548.3984,746.8965,557.8096,735.2871,557.8096L735.2871,557.8096z"/>
		</g>
	</g>
	<g>
		<g>
			<path fill="#5065A1" d="M505,1010C226.5474,1010,0,783.4531,0,505C0,226.5474,226.5474,0,505,0c278.4531,0,505,226.5474,505,505
				C1010,783.4531,783.4531,1010,505,1010L505,1010z M505,42.0835C249.7466,42.0835,42.0835,249.7466,42.0835,505
				c0,255.2539,207.6631,462.916,462.9165,462.916c255.2539,0,462.916-207.6621,462.916-462.916
				C967.916,249.7466,760.2539,42.0835,505,42.0835L505,42.0835z"/>
		</g>
		<g>
			<path fill="#5065A1" d="M505,866.5713c-199.3926,0-361.6123-162.21-361.6123-361.5713
				c0-199.4028,162.2197-361.6123,361.6123-361.6123c199.3613,0,361.5713,162.2095,361.5713,361.6123
				C866.5713,704.3613,704.3613,866.5713,505,866.5713L505,866.5713z M505,185.4707
				c-176.1934,0-319.5293,143.3467-319.5293,319.5293c0,176.1621,143.3359,319.4883,319.5293,319.4883
				c176.1621,0,319.4883-143.3262,319.4883-319.4883C824.4883,328.8174,681.1621,185.4707,505,185.4707L505,185.4707z"/>
		</g>
		<g>
			<path fill="#5065A1" d="M505,936.7852c-17.1372,0-34.3672-1.0059-51.207-3c-11.5479-1.3555-19.7984-11.836-18.4317-23.3633
				c1.3662-11.5489,11.9795-19.8906,23.3633-18.4317c19.665,2.3223,39.9155,3.1231,59.8067,2.4865
				c11.497-0.9043,21.3603,8.6718,21.7714,20.2812c0.3907,11.6309-8.7129,21.3701-20.3125,21.7608
				C515.0078,936.7031,510.0137,936.7852,505,936.7852L505,936.7852z M581.8926,929.6143c-9.9043,0-18.7403-7.0284-20.6514-17.1163
				c-2.1572-11.4257,5.3223-22.4394,16.7471-24.5976c19.6035-3.7188,39.042-8.9795,57.7002-15.6367
				c10.9316-3.8428,22.9931,1.8087,26.8779,12.7812c3.9043,10.9521-1.8086,22.9727-12.7402,26.877
				c-20.7344,7.3564-42.2481,13.1924-63.9883,17.3222C584.5234,929.4902,583.1875,929.6143,581.8926,929.6143L581.8926,929.6143z
				 M394.4287,921.7441c-1.8701,0-3.771-0.2461-5.6509-0.7812c-21.3193-5.918-42.2993-13.5615-62.3545-22.7051
				c-10.5825-4.8301-15.247-17.3027-10.4282-27.8848c4.8184-10.582,17.3223-15.247,27.874-10.4179
				c18.0723,8.2402,36.9771,15.123,56.1895,20.4863c11.1992,3.1035,17.7436,14.7129,14.6309,25.9121
				C412.1001,915.6621,403.6445,921.7441,394.4287,921.7441L394.4287,921.7441z M700.334,887.4902
				c-7.4795,0-14.7129-3.9863-18.5352-11.0146c-5.5057-10.2334-1.7256-22.9932,8.5078-28.5205
				c17.4454-9.4531,34.3575-20.3643,50.2207-32.4473c9.2872-7.0058,22.4795-5.2187,29.5079,4.0488
				c7.0273,9.2461,5.2187,22.4395-4.0284,29.4865c-17.6103,13.3574-36.3291,25.4394-55.6865,35.8984
				C707.1563,886.668,703.7041,887.4902,700.334,887.4902L700.334,887.4902z M279.8809,869.7148
				c-3.9556,0-7.9624-1.1093-11.5279-3.4511c-18.4526-12.1035-36.1035-25.7266-52.4599-40.502
				c-8.6304-7.7871-9.3086-21.082-1.521-29.7129c7.7675-8.6308,21.0625-9.3291,29.7133-1.5205
				c14.7642,13.3155,30.6993,25.624,47.3643,36.5557c9.709,6.3701,12.4214,19.418,6.041,29.1387
				C293.4531,866.3652,286.7339,869.7148,279.8809,869.7148L279.8809,869.7148z M800.4053,811.4609
				c-5.2608,0-10.5205-1.9726-14.6104-5.9178c-8.3633-8.0762-8.5887-21.3916-0.5135-29.7549
				c13.8495-14.3223,26.6933-29.8154,38.1796-46.0694c6.6993-9.4531,19.8291-11.7539,29.3223-5.0351
				c9.4727,6.6992,11.7334,19.8301,5.0352,29.3232c-12.6993,18.001-26.9189,35.1581-42.2891,51.042
				C811.4199,809.3232,805.9121,811.4609,800.4053,811.4609L800.4053,811.4609z M186.5186,785.5078
				c-6.1026,0-12.1543-2.6504-16.3155-7.7471c-13.9214-17.0556-26.6513-35.3427-37.8296-54.3711
				c-5.8872-10.0283-2.5376-22.9111,7.4795-28.8095c10.0279-5.8965,22.9219-2.5059,28.8091,7.4804
				c10.0894,17.1778,21.5762,33.6993,34.1519,49.1104c7.3457,9.001,6,22.2549-3.0005,29.5898
				C195.9097,783.9453,191.1934,785.5078,186.5186,785.5078L186.5186,785.5078z M872.9619,708.7383
				c-3.1436,0-6.3496-0.6992-9.3496-2.2188c-10.418-5.1786-14.6514-17.8163-9.4521-28.2129
				c8.8359-17.7539,16.3974-36.412,22.3984-55.4199c3.5137-11.0762,15.3281-17.2607,26.4248-13.706
				c11.0557,3.4931,17.2197,15.3291,13.6846,26.4052c-6.6573,21.0822-15.041,41.7755-24.8633,61.502
				C888.1475,704.4648,880.709,708.7383,872.9619,708.7383L872.9619,708.7383z M122.9106,677.1553
				c-8.3837,0-16.3051-5.0342-19.5722-13.2949c-8.1372-20.5479-14.7129-41.878-19.562-63.3721
				c-2.5586-11.3223,4.5615-22.6026,15.9043-25.1504c11.3017-2.5274,22.5932,4.5615,25.1513,15.9043
				c4.3667,19.3769,10.3052,38.5898,17.6309,57.125c4.2739,10.8086-1.0171,23.0351-11.8257,27.3086
				C128.0996,676.6826,125.4795,677.1553,122.9106,677.1553L122.9106,677.1553z M910.9971,588.8789
				c-1.0684,0-2.1367-0.082-3.2256-0.2461c-11.4863-1.7676-19.377-12.4941-17.6104-23.9805
				c3.0205-19.583,4.541-39.6582,4.541-59.6523c0-18.0415-1.2529-36.186-3.6982-53.8989
				c-1.582-11.5069,6.4521-22.1304,17.959-23.7129c11.3633-1.7671,22.1309,6.4316,23.7334,17.9595
				c2.7119,19.6035,4.0889,39.6792,4.0889,59.6523c0,22.1309-1.6846,44.3437-5.0331,66.0225
				C930.1689,581.4404,921.1895,588.8789,910.9971,588.8789L910.9971,588.8789z M95.1704,554.543
				c-10.9624,0-20.2095-8.4873-20.9697-19.6035c-0.6782-9.8848-1.0274-19.8497-1.0274-29.9395c0-12.0825,0.5035-24.2886,1.5-36.2886
				c0.9659-11.5893,11.1783-20.4868,22.7061-19.2129c11.5893,0.9453,20.1992,11.1167,19.2334,22.7061
				c-0.9043,10.8291-1.3565,21.8638-1.3565,32.7954c0,9.1035,0.3086,18.123,0.9249,27.0625
				c0.8012,11.5898-7.9522,21.6367-19.5416,22.4395C96.1465,554.5215,95.6533,554.543,95.1704,554.543L95.1704,554.543z
				 M105.7017,429.2378c-1.6338,0-3.2984-0.1851-4.9522-0.5962c-11.3017-2.7124-18.2471-14.0757-15.5244-25.3774
				c5.1782-21.4527,12.0825-42.6792,20.5176-63.104c4.4487-10.7471,16.7368-15.8433,27.4834-11.4048
				c10.747,4.4384,15.8535,16.7265,11.415,27.4736c-7.6133,18.4111-13.8398,37.5625-18.5039,56.8984
				C123.8149,422.7646,115.1948,429.2378,105.7017,429.2378L105.7017,429.2378z M898.4219,407.6411
				c-9.041,0-17.4043-5.8769-20.1377-14.98c-5.7334-19.0688-12.9873-37.8296-21.5762-55.7685
				c-5.0137-10.4795-0.5957-23.0347,9.9043-28.0694c10.4385-4.9931,23.0352-0.6162,28.0488,9.9048
				c9.5147,19.8701,17.5694,40.6656,23.919,61.8096c3.3496,11.1372-2.959,22.8706-14.0762,26.2202
				C902.4697,407.3535,900.4355,407.6411,898.4219,407.6411L898.4219,407.6411z M153.6821,313.0151
				c-3.7192,0-7.4897-0.9863-10.9009-3.0615c-9.935-6.041-13.0996-18.9663-7.0585-28.9116
				c11.4355-18.8018,24.4326-36.9258,38.6518-53.8374c7.4902-8.8975,20.7437-10.0274,29.6514-2.5684
				c8.8979,7.4795,10.0381,20.7539,2.5688,29.6514c-12.8427,15.2676-24.5864,31.6245-34.9121,48.6177
				C167.7271,309.4194,160.792,313.0151,153.6821,313.0151L153.6821,313.0151z M844.2148,294.2749
				c-6.6992,0-13.3154-3.2056-17.3847-9.144c-11.2598-16.459-23.877-32.1582-37.459-46.6656
				c-7.9531-8.4863-7.5215-21.8017,0.9648-29.7334c8.4873-7.9321,21.8233-7.4799,29.7344,0.9654
				c15.0625,16.0693,29.0137,33.4326,41.4872,51.6386c6.5753,9.5962,4.1105,22.6856-5.4658,29.2613
				C852.4551,293.0835,848.3242,294.2749,844.2148,294.2749L844.2148,294.2749z M234.6436,216.7456
				c-5.8565,0-11.6822-2.4248-15.8433-7.1919c-7.6543-8.7334-6.7705-22.0278,1.9726-29.6929
				c16.6446-14.5483,34.4908-27.9047,53.0567-39.6787c9.8218-6.2265,22.8291-3.3086,29.0449,6.5137
				c6.2163,9.8018,3.3086,22.8086-6.5034,29.0352c-16.7573,10.6235-32.8569,22.665-47.8779,35.8159
				C244.4966,215.04,239.5547,216.7456,234.6436,216.7456L234.6436,216.7456z M758.1992,202.5464
				c-4.5625,0-9.124-1.4585-12.9872-4.4795c-15.6572-12.2881-32.4248-23.4663-49.7686-33.2061
				c-10.1503-5.6919-13.7461-18.5141-8.0547-28.645c5.6914-10.1304,18.4941-13.7261,28.6445-8.0547
				c19.2334,10.7881,37.7891,23.1787,55.1523,36.7818c9.1446,7.1714,10.7461,20.4048,3.5752,29.5488
				C770.6094,199.7725,764.4248,202.5464,758.1992,202.5464L758.1992,202.5464z M340.7456,149.4082
				c-8.1064,0-15.8325-4.7056-19.2949-12.6167c-4.6543-10.644,0.2051-23.0557,10.8598-27.6997
				c20.2505-8.856,41.3228-16.1714,62.6319-21.7607c11.312-2.9795,22.7471,3.7397,25.6958,15.0004
				c2.9487,11.2403-3.7705,22.7471-15.0108,25.7061c-19.2128,5.0347-38.2099,11.6304-56.4672,19.6035
				C346.417,148.8535,343.5605,149.4082,340.7456,149.4082L340.7456,149.4082z M648.5107,141.0244
				c-2.4453,0-4.9316-0.4316-7.3564-1.3354c-18.5762-6.9253-37.9326-12.4732-57.5156-16.5005
				c-11.3828-2.3428-18.7188-13.4595-16.377-24.8433c2.3428-11.3633,13.4395-18.6992,24.8438-16.3774
				c21.6992,4.4594,43.1513,10.603,63.7617,18.3091c10.8906,4.0478,16.418,16.1713,12.3701,27.062
				C665.0723,135.8052,657.0391,141.0244,648.5107,141.0244L648.5107,141.0244z M462.29,117.4346
				c-10.6645,0-19.7983-8.0547-20.9082-18.9043c-1.1919-11.5484,7.2227-21.8843,18.7813-23.0762
				c21.915-2.2397,44.3232-2.8354,66.208-1.7671c11.5889,0.5752,20.5478,10.4385,19.9727,22.0484
				c-0.5762,11.6098-10.5821,20.8569-22.0391,19.9936c-19.7876-0.9863-40.0586-0.4311-59.8467,1.603
				C463.7285,117.3936,462.999,117.4346,462.29,117.4346L462.29,117.4346z"/>
		</g>
	</g>
</g>
</svg>
