<?xml version="1.0" encoding="utf-8"?>
<!-- Generator: Adobe Illustrator 17.1.0, SVG Export Plug-In . SVG Version: 6.00 Build 0)  -->
<!DOCTYPE svg PUBLIC "-//W3C//DTD SVG 1.1//EN" "http://www.w3.org/Graphics/SVG/1.1/DTD/svg11.dtd">
<svg version="1.1" id="postcard" xmlns="http://www.w3.org/2000/svg" xmlns:xlink="http://www.w3.org/1999/xlink" x="0px" y="0px"
	 viewBox="0 0 1010 909.848" enable-background="new 0 0 1010 909.848" xml:space="preserve">
<g id="postcard-postcard">
	<g>
		<path fill="#5065A1" d="M988.959,909.848H21.0415C9.4111,909.848,0,900.437,0,888.8071V221.2886
			c0-11.6309,9.4111-21.042,21.0415-21.042H988.959c11.6299,0,21.041,9.4111,21.041,21.042v667.5185
			C1010,900.437,1000.5889,909.848,988.959,909.848L988.959,909.848z M42.0835,867.764H967.916V242.33H42.0835V867.764
			L42.0835,867.764z"/>
	</g>
	<g>
		<polygon fill="#5065A1" points="905.5107,726.2875 671.8535,726.2875 671.8535,684.2054 905.5107,684.2054 905.5107,726.2875 		
			"/>
	</g>
	<g>
		<path fill="#5065A1" d="M144.1479,241.6107l-10.8911-40.645L880.6055,0.7207c11.2402-3,22.7686,3.6372,25.7686,14.8769
			l53.6729,200.2452l-40.6446,10.8911L871.1738,46.811L144.1479,241.6107L144.1479,241.6107z"/>
	</g>
	<g>
		<polygon fill="#5065A1" points="71.0977,826.4008 21.0415,826.4008 21.0415,784.3168 71.0977,784.3168 71.0977,826.4008 		"/>
	</g>
	<g>
		<polygon fill="#5065A1" points="71.0977,742.973 21.0415,742.973 21.0415,700.8901 71.0977,700.8901 71.0977,742.973 		"/>
	</g>
	<g>
		<polygon fill="#5065A1" points="71.0977,659.5472 21.0415,659.5472 21.0415,617.4633 71.0977,617.4633 71.0977,659.5472 		"/>
	</g>
	<g>
		<polygon fill="#5065A1" points="71.0977,576.0991 21.0415,576.0991 21.0415,534.0161 71.0977,534.0161 71.0977,576.0991 		"/>
	</g>
	<g>
		<polygon fill="#5065A1" points="71.0977,492.6517 21.0415,492.6517 21.0415,450.5682 71.0977,450.5682 71.0977,492.6517 		"/>
	</g>
	<g>
		<polygon fill="#5065A1" points="71.0977,409.2046 21.0415,409.2046 21.0415,367.121 71.0977,367.121 71.0977,409.2046 		"/>
	</g>
	<g>
		<polygon fill="#5065A1" points="71.0977,325.7567 21.0415,325.7567 21.0415,283.6737 71.0977,283.6737 71.0977,325.7567 		"/>
	</g>
	<g>
		<polygon fill="#5065A1" points="526.041,788.6732 483.9585,788.6732 483.9585,321.4008 526.041,321.4008 526.041,788.6732 		"/>
	</g>
	<g>
		<polygon fill="#5065A1" points="905.5107,659.5472 705.2451,659.5472 705.2451,617.4633 905.5107,617.4633 905.5107,659.5472 		
			"/>
	</g>
	<g>
		<path fill="#5065A1" d="M905.5107,492.6517H771.9863c-11.6299,0-21.041-9.4111-21.041-21.042V338.1064
			c0-11.6303,9.4111-21.0415,21.041-21.0415h133.5244c11.6299,0,21.042,9.4112,21.042,21.0415v133.5034
			C926.5527,483.2406,917.1406,492.6517,905.5107,492.6517L905.5107,492.6517z M793.0283,450.5682h91.4406v-91.4199h-91.4406
			V450.5682L793.0283,450.5682z"/>
	</g>
	<g>
		<g>
			<path fill="#5065A1" d="M275.2471,629.4222c-11.6304,0-21.0415-9.4111-21.0415-21.041v-27.3711
				c0-11.6308,9.4111-21.041,21.0415-21.041c11.6303,0,21.042,9.4102,21.042,21.041v27.3711
				C296.2891,620.0112,286.8774,629.4222,275.2471,629.4222L275.2471,629.4222z"/>
		</g>
		<g>
			<path fill="#5065A1" d="M275.2471,383.2308c-11.6304,0-21.0415-9.4111-21.0415-21.0415v-27.3501
				c0-11.6303,9.4111-21.0415,21.0415-21.0415c11.6303,0,21.042,9.4112,21.042,21.0415v27.3501
				C296.2891,373.8197,286.8774,383.2308,275.2471,383.2308L275.2471,383.2308z"/>
		</g>
		<g>
			<path fill="#5065A1" d="M165.8267,492.6517h-27.3501c-11.6309,0-21.042-9.4111-21.042-21.042
				c0-11.6308,9.4111-21.0415,21.042-21.0415h27.3501c11.6303,0,21.0415,9.4107,21.0415,21.0415
				C186.8682,483.2406,177.457,492.6517,165.8267,492.6517L165.8267,492.6517z"/>
		</g>
		<g>
			<path fill="#5065A1" d="M412.0181,492.6517H384.668c-11.6304,0-21.0415-9.4111-21.0415-21.042
				c0-11.6308,9.4111-21.0415,21.0415-21.0415h27.3501c11.6303,0,21.0415,9.4107,21.0415,21.0415
				C433.0596,483.2406,423.6484,492.6517,412.0181,492.6517L412.0181,492.6517z"/>
		</g>
		<g>
			<path fill="#5065A1" d="M178.5459,589.3939c-5.3838,0-10.7466-2.0547-14.8564-6.1435
				c-8.2403-8.2198-8.2403-21.5352-0.0411-29.7539l19.3565-19.3985c8.2197-8.2597,21.5351-8.2187,29.7544-0.041
				c8.2397,8.2188,8.2397,21.5352,0.041,29.7538l-19.3565,19.3986C189.334,587.3392,183.9297,589.3939,178.5459,589.3939
				L178.5459,589.3939z"/>
		</g>
		<g>
			<path fill="#5065A1" d="M352.6123,415.307c-5.3838,0-10.7471-2.0547-14.8564-6.144c-8.2198-8.1988-8.2403-21.5142-0.0411-29.7539
				l19.336-19.398c8.2192-8.2397,21.5346-8.2192,29.7544-0.041c8.2192,8.1987,8.2397,21.5142,0.041,29.7544l-19.3364,19.3975
				C363.4004,413.2523,358.0166,415.307,352.6123,415.307L352.6123,415.307z"/>
		</g>
		<g>
			<path fill="#5065A1" d="M197.9028,415.307c-5.3838,0-10.7881-2.0547-14.8979-6.185l-19.3565-19.3975
				c-8.1992-8.2197-8.1992-21.5352,0.0411-29.7544c8.2192-8.1782,21.5346-8.2192,29.7543,0.041l19.3565,19.398
				c8.1987,8.2192,8.1987,21.5346-0.041,29.7539C208.6494,413.2523,203.2861,415.307,197.9028,415.307L197.9028,415.307z"/>
		</g>
		<g>
			<path fill="#5065A1" d="M371.9482,589.3939c-5.4038,0-10.7876-2.0547-14.8974-6.1844l-19.336-19.3986
				c-8.1992-8.2402-8.1787-21.5547,0.0411-29.7538c8.2397-8.2188,21.5551-8.1992,29.7539,0.041l19.3364,19.3985
				c8.1987,8.2392,8.1782,21.5547-0.041,29.7539C382.6953,587.3392,377.332,589.3939,371.9482,589.3939L371.9482,589.3939z"/>
		</g>
		<g>
			<path fill="#5065A1" d="M275.2471,547.3519c-41.7749,0-75.7622-33.9873-75.7622-75.7422
				c0-41.7749,33.9873-75.7622,75.7622-75.7622c41.7754,0,75.7627,33.9873,75.7627,75.7622
				C351.0098,513.3646,317.0225,547.3519,275.2471,547.3519L275.2471,547.3519z M275.2471,437.9311
				c-18.5757,0-33.6787,15.1031-33.6787,33.6787c0,18.5557,15.103,33.6582,33.6787,33.6582
				c18.5761,0,33.6792-15.1025,33.6792-33.6582C308.9263,453.0341,293.8232,437.9311,275.2471,437.9311L275.2471,437.9311z"/>
		</g>
	</g>
	<g>
		<polygon fill="#5065A1" points="387.4419,742.973 163.0728,742.973 163.0728,700.8901 387.4419,700.8901 387.4419,742.973 		"/>
	</g>
</g>
</svg>
