<?xml version="1.0" encoding="utf-8"?>
<!-- Generator: Adobe Illustrator 17.1.0, SVG Export Plug-In . SVG Version: 6.00 Build 0)  -->
<!DOCTYPE svg PUBLIC "-//W3C//DTD SVG 1.1//EN" "http://www.w3.org/Graphics/SVG/1.1/DTD/svg11.dtd">
<svg version="1.1" id="sailing" xmlns="http://www.w3.org/2000/svg" xmlns:xlink="http://www.w3.org/1999/xlink" x="0px" y="0px"
	 viewBox="0 0 1009.9951 1000.5283" enable-background="new 0 0 1009.9951 1000.5283" xml:space="preserve">
<g id="sailing-sailing">
	<g>
		<g>
			<path fill="#5065A1" d="M702.0084,760.8369c-3.2763,0-6.5947-0.7734-9.6875-2.4023
				c-10.1767-5.3525-14.1044-17.9512-8.7519-28.1475l92.1357-175.1533H459.2135c-1.6079,0-3.185-0.1836-4.7016-0.5293
				c-1.5162,0.3457-3.1036,0.5293-4.7217,0.5293H249.6135l89.6626,172.874c5.3023,10.2168,1.313,22.7949-8.9038,28.0869
				c-10.1968,5.3321-22.8052,1.3223-28.0967-8.915L196.8293,543.8789c-3.3481-6.4521-3.0937-14.1855,0.6919-20.4131
				c3.7754-6.208,10.5323-10.0136,17.8086-10.0136h213.6197V20.8198c0-8.9345,5.6987-16.872,14.1655-19.7417
				c8.4868-2.8091,17.8183-0.0205,23.2422,7.1031l286.289,375.1777c3.7442,4.9253,5.1289,11.2954,3.7246,17.3403
				c-1.4042,6.065-5.4345,11.1734-10.9912,13.9414l-197.8056,98.8116h262.6289c7.3066,0,14.084,3.8261,17.8486,10.0742
				c3.7647,6.248,4.0098,14.0019,0.6104,20.4745L720.4684,749.7041C716.7438,756.7861,709.4977,760.8369,702.0084,760.8369
				L702.0084,760.8369z M470.631,82.4878V505.29l233.5757-116.6801L470.631,82.4878L470.631,82.4878z"/>
		</g>
		<g>
			<g>
				<polygon fill="#5065A1" points="469.2473,338.4609 448.8542,302.1118 596.3787,219.3989 616.7722,255.7485 469.2473,338.4609 
									"/>
			</g>
			<g>
				<polygon fill="#5065A1" points="469.0237,415.4341 449.0779,378.8403 637.3278,276.2231 657.2731,312.8169 469.0237,415.4341 
									"/>
			</g>
		</g>
	</g>
	<g>
		<g>
			<path fill="#5065A1" d="M519.1207,813.1016c-28.7373,0-58.6962-11.7637-89.2553-35.0869
				c-26.7534-20.4141-51.3902-29.0235-73.1573-25.8692c-24.4433,3.6436-37.7231,21.2891-37.8554,21.4727
				c-0.8755,1.2206-22.7847,31.3221-64.2529,37.8144c-33.3882,5.211-68.9849-5.9629-105.65-33.2763
				c-71.6103-53.2627-107.4506-9.586-111.2973-4.417c-6.8589,9.1385-19.8438,11.1543-29.0635,4.4375
				c-9.2197-6.7365-11.3667-19.5587-4.7319-28.8399c0.916-1.2812,22.8252-31.3633,64.2832-37.8555
				c33.4595-5.2099,69.0254,5.9629,105.7007,33.2364c27.354,20.373,52.3774,29.0625,74.3071,25.5215
				c23.5884-3.6836,36.6953-20.7393,36.8174-20.9024c0.977-1.3633,23.5278-32.1367,65.5962-38.4043
				c33.3984-4.9258,68.5473,6.4307,104.5815,33.9473c26.7529,20.4141,51.3184,28.9824,73.1572,25.8682
				c24.4434-3.6436,37.713-21.2881,37.8555-21.4717c0.9971-1.3232,64.8027-82.1836,169.8613-4.5996
				c72.5157,53.6085,110.0869,6.1465,111.6133,4.1113c1.9131-2.3008,32.2383-37.5508,76.9326-38.9346
				c28.3096-0.6308,55.1748,11.6416,79.6397,37.1846c7.957,8.3027,7.6719,21.4922-0.6309,29.4697
				c-8.2842,7.9776-21.4922,7.6729-29.4707-0.6513c-15.9355-16.628-32.2998-25.1563-48.2558-24.3419
				c-25.9297,0.7939-45.549,23.1622-45.752,23.3848c0,0.0215-63.7852,80.9219-168.8447,3.3184
				c-72.4951-53.5879-110.0665-6.127-111.6133-4.1113c-0.5693,0.8144-23.1201,31.5869-65.1885,37.8554
				C529.3787,812.7148,524.2703,813.1016,519.1207,813.1016L519.1207,813.1016z"/>
		</g>
		<g>
			<path fill="#5065A1" d="M519.1207,906.8047c-28.7373,0-58.6962-11.7637-89.2553-35.0879
				c-26.7534-20.4131-51.3902-29.0029-73.1573-25.8682c-24.4433,3.6426-37.7231,21.2891-37.8554,21.4727
				c-0.8755,1.2207-22.7847,31.3018-64.2529,37.7939c-33.3882,5.1906-68.9849-5.9423-105.65-33.2558
				c-71.5493-53.2422-107.4609-9.586-111.2973-4.417c-6.8589,9.1387-19.8438,11.1738-29.0635,4.4375
				c-9.2197-6.7363-11.3667-19.5586-4.7319-28.8399c0.916-1.2822,22.8252-31.3632,64.2832-37.8554
				c33.4595-5.211,69.0254,5.963,105.7007,33.2354c71.5493,53.3036,107.4004,9.627,111.2568,4.4366
				c0.8447-1.1797,23.3955-31.9532,65.4639-38.2217c33.3984-4.9453,68.5473,6.4521,104.5815,33.9482
				c26.7529,20.4141,51.3184,28.9824,73.1572,25.8682c24.4434-3.6436,37.713-21.2891,37.8555-21.4717
				c0.9971-1.3232,64.8027-82.3057,169.8613-4.5801c70.1964,51.8789,107.6856,8.9961,111.7559,3.9278
				c1.7705-2.1368,32.0957-37.3868,76.79-38.7715c28.3096-0.4669,55.1748,11.6425,79.6397,37.1844
				c7.957,8.3038,7.6719,21.4922-0.6309,29.4707c-8.2842,7.9581-21.4922,7.6729-29.4707-0.6513
				c-15.9355-16.628-32.2998-25.1758-48.2558-24.3418c-25.9297,0.7939-45.549,23.1611-45.752,23.3847
				c0,0.0206-63.8262,80.9825-168.8447,3.2969c-72.4756-53.5469-110.0665-6.125-111.6133-4.0898
				c-0.5693,0.8135-23.1201,31.5859-65.1885,37.8554C529.3787,906.418,524.2703,906.8047,519.1207,906.8047L519.1207,906.8047z"/>
		</g>
		<g>
			<path fill="#5065A1" d="M519.1207,1000.5283c-28.7373,0-58.6962-11.7636-89.2553-35.088
				c-26.7534-20.414-51.3902-29.166-73.1573-25.868c-24.4433,3.6435-37.7231,21.2881-37.8554,21.451
				c-0.8755,1.2413-22.7847,31.3233-64.2529,37.8155c-33.3882,5.1895-68.9849-5.9434-105.65-33.2559
				c-71.5493-53.2422-107.4204-9.5859-111.2973-4.417c-6.8589,9.1377-19.8643,11.1328-29.0532,4.4365
				c-9.23-6.7363-11.377-19.538-4.7422-28.8398c0.916-1.2812,22.8252-31.3623,64.2832-37.8555
				c33.4595-5.25,69.0254,5.9434,105.7007,33.2559c71.5493,53.2637,107.4004,9.6074,111.2568,4.417
				c0.8447-1.1807,23.3955-31.9531,65.4741-38.2422c33.2559-4.9863,68.5269,6.4521,104.5811,33.9678
				c26.7431,20.414,51.3086,28.9824,73.1474,25.8691c24.4434-3.6641,37.713-21.2891,37.8555-21.4726
				c0.9971-1.3223,64.8027-82.2852,169.8613-4.5791c72.4356,53.5068,110.0469,6.1064,111.6133,4.0908
				c1.9131-2.2997,32.2383-37.5703,76.9326-38.9336c28.3096-1.2832,55.1748,11.6211,79.6397,37.1836
				c7.9775,8.3037,7.6719,21.5117-0.6524,29.4707c-8.3027,7.957-21.4922,7.6523-29.4492-0.6523
				c-15.9355-16.6484-32.2998-24.8701-48.2558-24.3419c-25.9297,0.795-45.549,23.1621-45.752,23.3858
				c0,0.04-63.7441,81.0439-168.8447,3.2969c-72.4756-53.5479-110.0665-6.126-111.6133-4.0909
				c-0.5693,0.8145-23.1201,31.5879-65.1885,37.8555C529.3787,1000.1416,524.2703,1000.5283,519.1207,1000.5283L519.1207,1000.5283z
				"/>
		</g>
	</g>
	<g>
		<path fill="#5065A1" d="M658.4138,674.2158c-29.7969,0-54.0156-24.2392-54.0156-54.0556
			c0-29.7764,24.2187-54.0157,54.0156-54.0157c29.7959,0,54.0156,24.2393,54.0156,54.0157
			C712.4293,649.9766,688.2097,674.2158,658.4138,674.2158L658.4138,674.2158z M658.4138,607.8262
			c-6.7978,0-12.334,5.5361-12.334,12.334c0,6.8173,5.5362,12.374,12.334,12.374c6.7969,0,12.334-5.5567,12.334-12.374
			C670.7477,613.3623,665.2106,607.8262,658.4138,607.8262L658.4138,607.8262z"/>
	</g>
</g>
</svg>
