<?xml version="1.0" encoding="utf-8"?>
<!-- Generator: Adobe Illustrator 17.1.0, SVG Export Plug-In . SVG Version: 6.00 Build 0)  -->
<!DOCTYPE svg PUBLIC "-//W3C//DTD SVG 1.1//EN" "http://www.w3.org/Graphics/SVG/1.1/DTD/svg11.dtd">
<svg version="1.1" id="scooter" xmlns="http://www.w3.org/2000/svg" xmlns:xlink="http://www.w3.org/1999/xlink" x="0px" y="0px"
	 viewBox="0 0 599.8926 1010" enable-background="new 0 0 599.8926 1010" xml:space="preserve">
<g id="scooter-scooter">
	<g>
		<path fill="#5065A1" d="M217.896,878.7363H37.4805c-11.6206,0-21.042-9.4121-21.042-21.0421V437.7651
			c0-125.9004,98.5918-224.5127,224.4619-224.5127v42.0835c-102.27,0-182.3784,80.1392-182.3784,182.4292v398.8872h159.374V878.7363
			L217.896,878.7363z"/>
	</g>
	<g>
		<path fill="#5065A1" d="M562.4121,878.7363H381.9756v-42.084h159.3945V437.7651c0-102.29-80.1181-182.4292-182.3672-182.4292
			v-42.0835c123.7637,0,224.4512,100.708,224.4512,224.5127v419.9292C583.4541,869.3242,574.0225,878.7363,562.4121,878.7363
			L562.4121,878.7363z"/>
	</g>
	<g>
		<path fill="#5065A1" d="M250.7427,558.8779c-11.6201,0-21.0415-9.4111-21.0415-21.0421V239.2461
			c0-11.6304,9.4214-21.0415,21.0415-21.0415c11.6206,0,21.042,9.4111,21.042,21.0415v298.5898
			C271.7847,549.4668,262.3633,558.8779,250.7427,558.8779L250.7427,558.8779z"/>
	</g>
	<g>
		<path fill="#5065A1" d="M349.1397,558.8779c-11.6309,0-21.042-9.4111-21.042-21.0421V239.2461
			c0-11.6304,9.4111-21.0415,21.042-21.0415c11.6308,0,21.041,9.4111,21.041,21.0415v298.5898
			C370.1807,549.4668,360.7705,558.8779,349.1397,558.8779L349.1397,558.8779z"/>
	</g>
	<g>
		<path fill="#5065A1" d="M190.0527,189.7451H21.0415C9.4214,189.7451,0,180.3335,0,168.7031v-65.6318
			c0-11.6304,9.4214-21.0415,21.0415-21.0415h169.0112c11.6202,0,21.042,9.4111,21.042,21.0415s-9.4218,21.0415-21.042,21.0415
			H42.083v23.5488h147.9697c11.6202,0,21.042,9.4112,21.042,21.0415C211.0947,180.3335,201.6729,189.7451,190.0527,189.7451
			L190.0527,189.7451z"/>
	</g>
	<g>
		<path fill="#5065A1" d="M578.8506,189.7451H409.8399c-11.6299,0-21.042-9.4116-21.042-21.042
			c0-11.6303,9.4121-21.0415,21.042-21.0415h147.9697v-23.5488H409.8399c-11.6299,0-21.042-9.4111-21.042-21.0415
			s9.4121-21.0415,21.042-21.0415h169.0107c11.6103,0,21.042,9.4111,21.042,21.0415v65.6318
			C599.8926,180.3335,590.4609,189.7451,578.8506,189.7451L578.8506,189.7451z"/>
	</g>
	<g>
		<path fill="#5065A1" d="M299.9258,1010c-57.7925,0-103.0713-45.2686-103.0713-103.0713V677.2373h42.0835v229.6914
			c0,34.1924,26.7847,60.9873,60.9878,60.9873c34.2139,0,61.0088-26.7949,61.0088-60.9873V677.2373h42.083v229.6914
			C403.0176,964.7314,357.7285,1010,299.9258,1010L299.9258,1010z"/>
	</g>
	<g>
		<path fill="#5065A1" d="M299.9258,271.7539c-74.9199,0-135.8667-60.9673-135.8667-135.8872S225.0059,0,299.9258,0
			c74.9404,0,135.8877,60.9468,135.8877,135.8667S374.8662,271.7539,299.9258,271.7539L299.9258,271.7539z M299.9258,42.0835
			c-51.7105,0-93.7832,42.0625-93.7832,93.7832s42.0727,93.8037,93.7832,93.8037c51.7207,0,93.8037-42.083,93.8037-93.8037
			S351.6465,42.0835,299.9258,42.0835L299.9258,42.0835z"/>
	</g>
	<g>
		<path fill="#5065A1" d="M299.9258,207.3345c-39.3916,0-71.4473-32.0557-71.4473-71.4678
			c0-39.3916,32.0557-71.4473,71.4473-71.4473s71.4473,32.0557,71.4473,71.4473
			C371.3731,175.2788,339.3174,207.3345,299.9258,207.3345L299.9258,207.3345z M299.9258,106.5029
			c-16.1924,0-29.3638,13.1714-29.3638,29.3638c0,16.2129,13.1714,29.3843,29.3638,29.3843
			c16.1924,0,29.3643-13.1714,29.3643-29.3843C329.2901,119.6743,316.1182,106.5029,299.9258,106.5029L299.9258,106.5029z"/>
	</g>
	<g>
		<path fill="#5065A1" d="M447.5674,698.2793h-295.293c-11.6201,0-21.0415-9.4111-21.0415-21.042
			c0-93.0029,75.6802-168.6621,168.6929-168.6621c93.0225,0,168.6826,75.6592,168.6826,168.6621
			C468.6084,688.8682,459.1973,698.2793,447.5674,698.2793L447.5674,698.2793z M175.063,656.1953h249.7974
			c-9.7598-60.6172-61.1309-105.5371-124.9346-105.5371C237.2837,550.6582,185.1109,596.3789,175.063,656.1953L175.063,656.1953z"/>
	</g>
</g>
</svg>
