<?xml version="1.0" encoding="utf-8"?>
<!-- Generator: Adobe Illustrator 17.1.0, SVG Export Plug-In . SVG Version: 6.00 Build 0)  -->
<!DOCTYPE svg PUBLIC "-//W3C//DTD SVG 1.1//EN" "http://www.w3.org/Graphics/SVG/1.1/DTD/svg11.dtd">
<svg version="1.1" id="sightseeing" xmlns="http://www.w3.org/2000/svg" xmlns:xlink="http://www.w3.org/1999/xlink" x="0px"
	 y="0px" viewBox="0 0 978.7661 1010" enable-background="new 0 0 978.7661 1010" xml:space="preserve">
<g id="sightseeing-sightseeing">
	<g>
		<path fill="#5065A1" d="M801.5972,338.7012H161.5527c-28.8296,0-52.2754-23.4458-52.2754-52.2549V130.3188
			c0-28.809,23.4458-52.2343,52.2754-52.2343h640.0444c7.3359,0,24.5146,0,169.1347,113.7768
			c5.0752,3.9864,8.0342,10.0894,8.0342,16.5415c0,6.4522-2.959,12.5552-8.0342,16.5415
			C826.1118,338.7012,808.9331,338.7012,801.5972,338.7012L801.5972,338.7012z M161.5527,120.1675
			c-5.6303,0-10.1923,4.562-10.1923,10.1513v156.1275c0,5.6094,4.562,10.1714,10.1923,10.1714h637.5581
			c14.6719-6.2056,71.3643-47.2823,124.3799-88.2149c-53.0156-40.9326-109.7079-82.0088-124.3799-88.2353H161.5527
			L161.5527,120.1675z"/>
	</g>
	<g>
		<path fill="#5065A1" d="M801.5972,666.5312H161.5527c-7.562,0-25.2544,0-154.4839-114.5576C2.5688,547.9873,0,542.2539,0,536.2344
			c0-6.0215,2.5688-11.7539,7.0688-15.7404c129.2295-114.5996,146.9219-114.5996,154.4839-114.5996h640.0444
			c28.8291,0,52.2754,23.4458,52.2754,52.2549v156.1279C853.8726,643.0859,830.4263,666.5312,801.5972,666.5312L801.5972,666.5312z
			 M164.3267,624.4482h637.2704c5.6299,0,10.1924-4.5615,10.1924-10.1709V458.1494c0-5.6098-4.5625-10.1714-10.1924-10.1714
			H164.3267c-14.2608,6.7808-64.8306,47.7749-111.3936,88.2564C99.5166,576.6934,150.0659,617.668,164.3267,624.4482
			L164.3267,624.4482z"/>
	</g>
	<g>
		<g>
			<path fill="#5065A1" d="M504.9595,1010h-46.8101c-28.8086,0-52.2549-23.4453-52.2549-52.2549V645.4902h42.0835v312.2549
				c0,5.6104,4.562,10.1709,10.1714,10.1709h46.8101c5.6299,0,10.1914-4.5605,10.1914-10.1709V645.4902h42.084v312.2549
				C557.2349,986.5547,533.7886,1010,504.9595,1010L504.9595,1010z"/>
		</g>
		<g>
			<polygon fill="#5065A1" points="557.2349,426.9155 515.1509,426.9155 515.1509,317.6592 557.2349,317.6592 557.2349,426.9155 			
				"/>
		</g>
		<g>
			<path fill="#5065A1" d="M557.2349,99.085h-42.084V52.2549c0-5.6099-4.5615-10.1714-10.1914-10.1714h-46.8101
				c-5.6094,0-10.1714,4.5615-10.1714,10.1714V99.085h-42.0835V52.2549C405.8945,23.4458,429.3408,0,458.1494,0h46.8101
				c28.8291,0,52.2754,23.4458,52.2754,52.2549V99.085L557.2349,99.085z"/>
		</g>
		<g>
			<polygon fill="#5065A1" points="447.978,426.9155 405.8945,426.9155 405.8945,317.6592 447.978,317.6592 447.978,426.9155 			"/>
		</g>
	</g>
	<g>
		<g>
			<polygon fill="#5065A1" points="457.5947,193.3203 243.9316,193.3203 243.9316,151.2368 457.5947,151.2368 457.5947,193.3203 			
				"/>
		</g>
		<g>
			<polygon fill="#5065A1" points="706.8276,264.5415 243.9316,264.5415 243.9316,222.458 706.8276,222.458 706.8276,264.5415 			
				"/>
		</g>
	</g>
	<g>
		<g>
			<polygon fill="#5065A1" points="706.8276,522.9805 493.1841,522.9805 493.1841,480.8965 706.8276,480.8965 706.8276,522.9805 			
				"/>
		</g>
		<g>
			<polygon fill="#5065A1" points="706.8276,594.2012 243.9316,594.2012 243.9316,552.1172 706.8276,552.1172 706.8276,594.2012 			
				"/>
		</g>
	</g>
</g>
</svg>
