<?xml version="1.0" encoding="utf-8"?>
<!-- Generator: Adobe Illustrator 17.1.0, SVG Export Plug-In . SVG Version: 6.00 Build 0)  -->
<!DOCTYPE svg PUBLIC "-//W3C//DTD SVG 1.1//EN" "http://www.w3.org/Graphics/SVG/1.1/DTD/svg11.dtd">
<svg version="1.1" id="summer-holidays" xmlns="http://www.w3.org/2000/svg" xmlns:xlink="http://www.w3.org/1999/xlink" x="0px"
	 y="0px" viewBox="0 0 1009.9999 916.9878" enable-background="new 0 0 1009.9999 916.9878" xml:space="preserve">
<g id="summer-holidays-summer-holidays">
	<g>
		<g id="summer-holidays-outline">
			<g>
				<path fill="#5065A1" d="M821.6154,545.8492h-41.6816c0-149.5562-126.3242-275.9009-275.8496-275.9009
					c-149.6074,0-275.9727,126.3447-275.9727,275.9009h-41.6806c0-172.1465,145.4555-317.5816,317.6533-317.5816
					C676.2004,228.2676,821.6154,373.7027,821.6154,545.8492L821.6154,545.8492z"/>
			</g>
			<g>
				<g>
					<path fill="#5065A1" d="M504.0432,178.6495c-11.5191,0-20.8404-9.3213-20.8404-20.8404V20.8404
						C483.2028,9.3213,492.524,0,504.0432,0c11.499,0,20.8398,9.3213,20.8398,20.8404v136.9687
						C524.8829,169.3282,515.5422,178.6495,504.0432,178.6495L504.0432,178.6495z"/>
				</g>
				<g>
					<path fill="#5065A1" d="M892.0529,441.1895c-9.3203,0-17.8281-6.3091-20.1894-15.793
						c-2.7871-11.1528,3.9892-22.4687,15.1621-25.2568l91.2988-22.835c11.1738-2.7675,22.4893,3.9688,25.2774,15.1621
						c2.789,11.1529-4.0088,22.4688-15.1621,25.2569l-91.2989,22.8349C895.4318,440.9859,893.7424,441.1895,892.0529,441.1895
						L892.0529,441.1895z"/>
				</g>
				<g>
					<path fill="#5065A1" d="M755.1456,258.5918c-5.333,0-10.665-2.0351-14.7353-6.1054c-8.1407-8.1406-8.1407-21.3286,0-29.4698
						l91.2578-91.2988c8.1211-8.1406,21.33-8.1406,29.4707,0c8.1406,8.1411,8.1406,21.3291,0,29.4697l-91.2578,91.2989
						C765.8303,256.5567,760.4777,258.5918,755.1456,258.5918L755.1456,258.5918z"/>
				</g>
				<g>
					<path fill="#5065A1" d="M116.0134,441.1895c-1.6895,0-3.3784-0.2036-5.0884-0.6309l-91.2783-22.8349
						c-11.1528-2.7881-17.9502-14.104-15.1621-25.2769c2.8086-11.1528,14.165-17.9096,25.2768-15.1421l91.2788,22.835
						c11.1729,2.7881,17.9502,14.104,15.1621,25.2773C133.8415,434.8804,125.3342,441.1895,116.0134,441.1895L116.0134,441.1895z"/>
				</g>
				<g>
					<path fill="#5065A1" d="M252.9616,258.5918c-5.3325,0-10.6645-2.0351-14.7348-6.1054l-91.2989-91.2989
						c-8.1411-8.1406-8.1411-21.3286,0-29.4697c8.1407-8.1406,21.3286-8.1406,29.4693,0l91.2988,91.2988
						c8.1411,8.1412,8.1411,21.3292,0,29.4698C263.6256,256.5567,258.2936,258.5918,252.9616,258.5918L252.9616,258.5918z"/>
				</g>
			</g>
			<g>
				<g>
					<polygon fill="#5065A1" points="1000.5079,566.69 7.5778,566.69 7.5778,525.0093 1000.5079,525.0093 1000.5079,566.69 					"/>
				</g>
			</g>
		</g>
	</g>
	<g>
		<path fill="#5065A1" d="M519.1241,760.2369c-28.7373,0-58.6953-11.7637-89.2636-35.0869
			c-26.4986-20.2295-50.8799-28.9405-72.5547-25.9688c-24.585,3.419-37.9971,20.963-38.5669,21.7363
			c-0.753,1.0576-22.6519,31.1377-64.1089,37.6094c-33.4585,5.2109-69.0132-5.9424-105.6875-33.2549
			c-71.5371-53.2002-107.438-9.5654-111.2842-4.3955c-6.8384,9.1172-19.8433,11.1524-29.063,4.4365
			c-9.2192-6.7568-11.3765-19.5791-4.7417-28.8593c0.9155-1.2618,22.835-31.3418,64.2915-37.8545
			c33.459-5.251,69.0137,5.9834,105.688,33.2558c27.3731,20.3926,52.3857,28.8985,74.3457,25.5206
			c23.5879-3.7042,36.6738-20.7589,36.7959-20.9219c0.9771-1.3428,23.5269-32.1153,65.5742-38.3838
			c33.357-4.9658,68.5454,6.4316,104.5884,33.9472c26.4985,20.1895,50.7988,28.9405,72.5757,25.9277
			c24.5644-3.418,37.9766-20.9619,38.5254-21.6943c0.8965-1.1806,64.6787-82.1406,169.7558-4.4365
			c72.4532,53.4844,110.043,6.1055,111.6104,4.1113c1.9131-2.3203,32.2372-37.5703,76.9307-38.9541
			c28.1259-0.6103,55.1933,11.6416,79.6777,37.2032c7.957,8.3036,7.6719,21.4912-0.6309,29.4287
			c-8.3047,8.0195-21.4922,7.6933-29.4707-0.6104c-15.955-16.6475-31.9521-25.0732-48.2949-24.3408
			c-25.9277,0.8145-45.5684,23.1602-45.751,23.3633c0.0205,0.041-63.7822,81.042-168.8388,3.2978
			c-70.1944-51.8974-107.7032-8.955-111.7539-3.9072c-0.4268,0.6094-22.9561,31.3828-65.0039,37.6914
			C529.4025,759.8296,524.2736,760.2369,519.1241,760.2369L519.1241,760.2369z"/>
	</g>
	<g>
		<path fill="#5065A1" d="M517.2922,916.9878c-25.6431,0-52.2637-10.4199-79.3726-31.0976
			c-22.6718-17.2998-43.3696-24.7481-61.6865-22.0215c-19.8433,2.9717-31.0366,17.463-31.1387,17.584
			c-2.0351,2.8496-21.166,28.289-57.7382,34.0293c-29.9175,4.7207-61.524-5.252-94.0464-29.4707
			c-23.2217-17.2578-44.3467-24.544-62.7451-21.6953c-19.4766,3.0537-30.1817,16.9746-30.2837,17.0957
			c-6.6958,9.3623-19.7207,11.5195-29.0625,4.8437c-9.3824-6.6748-11.5396-19.7002-4.8438-29.0625
			c2.0557-2.8896,21.166-28.3291,57.7388-34.0683c29.897-4.7217,61.5439,5.25,94.0869,29.4687
			c23.2217,17.2998,44.3877,24.627,62.7041,21.6953c19.477-3.0117,30.2026-16.9316,30.3042-17.0957
			c2.1367-2.9707,21.7764-29.0215,58.8779-34.5566c29.7749-4.3555,61.1172,5.6982,93.1104,30.1211
			c22.6924,17.2988,43.4516,24.707,61.7075,21.9795c19.8633-2.9717,31.0566-17.4209,31.1787-17.584
			c19.9443-26.1319,76.7676-59.9971,151.704-4.5996c59,43.5937,90.2402,8.1006,93.5977,3.9072
			c3.3379-3.9883,29.4697-33.5391,68.9121-34.7607c25.4394-0.7334,49.5156,10.3798,71.3535,33.2138
			c7.9579,8.3047,7.6728,21.4922-0.6504,29.4707c-8.3047,7.9365-21.5128,7.6524-29.4492-0.6523
			c-13.3311-13.9199-26.3164-20.1485-39.9922-20.3926c-21.044,0.6523-37.6914,19.2539-37.8546,19.416
			c-18.9678,24.8701-75.8115,58.6953-150.7061,3.2969c-61.0351-45.1406-92.1542-5.8203-93.4355-4.1113
			c-1.751,2.4834-21.3906,28.4931-58.5117,34.0293C526.4913,916.6617,521.9122,916.9878,517.2922,916.9878L517.2922,916.9878z"/>
	</g>
</g>
</svg>
