<?xml version="1.0" encoding="utf-8"?>
<!-- Generator: Adobe Illustrator 17.1.0, SVG Export Plug-In . SVG Version: 6.00 Build 0)  -->
<!DOCTYPE svg PUBLIC "-//W3C//DTD SVG 1.1//EN" "http://www.w3.org/Graphics/SVG/1.1/DTD/svg11.dtd">
<svg version="1.1" id="swimming-pool" xmlns="http://www.w3.org/2000/svg" xmlns:xlink="http://www.w3.org/1999/xlink" x="0px"
	 y="0px" viewBox="0 0 1009.993 1010" enable-background="new 0 0 1009.993 1010" xml:space="preserve">
<g id="swimming-pool-swimming-pool">
	<g>
		<g>
			<path fill="#5065A1" d="M414.0258,628.9941h-42.083V323.5532H90.9242V193.2358c0-46.0278,37.4595-83.4873,83.5083-83.4873
				c46.0284,0,83.4878,37.4595,83.4878,83.4873h-42.083c0-22.8291-18.5757-41.4047-41.4048-41.4047
				c-22.8496,0-41.4253,18.5756-41.4253,41.4047v88.2344h238.9356v-88.2344c0-46.0278,37.4595-83.4873,83.4878-83.4873
				c46.0483,0,83.5083,37.4595,83.5083,83.4873h-42.083c0-22.8291-18.5757-41.4047-41.4253-41.4047
				c-22.8291,0-41.4048,18.5756-41.4048,41.4047V628.9941L414.0258,628.9941z"/>
		</g>
		<g>
			<g>
				<path fill="#5065A1" d="M519.1303,814.9961c-28.7881,0-58.7681-11.7529-89.3648-35.0957
					c-26.4458-20.2197-50.8979-29.0146-72.3505-25.9316c-24.4937,3.4102-37.8706,20.877-38.4253,21.6163
					c-2.1368,3-23.4043,31.3564-64.2134,37.7265c-33.6172,5.2608-69.104-5.959-105.8032-33.2881
					c-27.2881-20.3017-52.1514-28.9316-74.1587-25.4394c-23.4868,3.6582-36.5347,20.6308-36.6582,20.7949
					c-6.7193,9.4941-19.8907,11.6719-29.3428,4.8906c-9.4522-6.7392-11.6509-19.8906-4.8906-29.3417
					c2.2807-3.2061,23.5483-31.5215,64.3779-37.9326c33.5962-5.2607,69.104,5.959,105.8032,33.2881
					c71.4053,53.1377,107.0772,9.6172,110.9195,4.4795c0.8427-1.1924,23.4252-32.0147,65.5698-38.3018
					c33.3906-4.9726,68.6518,6.4512,104.6933,33.9864c26.4458,20.1787,50.7129,28.9727,72.3916,25.8906
					c24.4737-3.4102,37.8291-20.877,38.3838-21.6162c0.8848-1.1514,64.7276-82.2344,169.9766-4.4795
					c72.2676,53.3848,109.7275,6.1641,111.2891,4.1504c1.9111-2.3008,32.2607-37.6446,77.0156-39.041
					c28.1709-0.5762,55.2744,11.6298,79.8086,37.2734c8.0351,8.3848,7.747,21.6992-0.6573,29.7539
					c-8.3632,8.0147-21.6787,7.7266-29.7539-0.6562c-15.8017-16.5215-31.9736-24.4942-47.8154-24.2891
					c-25.9121,0.6582-45.6992,23.1787-45.9053,23.3848l0,0c0.0616,0-63.8232,80.9189-168.9687,3.2871
					c-72.3301-53.4258-109.749-6.2051-111.3096-4.1505c-0.5547,0.7812-23.1172,31.6035-65.2412,37.8906
					C529.4037,814.627,524.2875,814.9961,519.1303,814.9961L519.1303,814.9961z"/>
			</g>
			<g>
				<path fill="#5065A1" d="M519.1303,717.4746c-28.7881,0-58.7681-11.7539-89.3648-35.0967
					c-26.6923-20.3839-51.227-29.1378-72.9668-25.8087c-24.3501,3.6162-37.5625,21.1651-37.6855,21.3291
					c-2.2603,3.1641-23.5278,31.5215-64.3369,37.8907c-33.6172,5.3017-69.104-5.959-105.8032-33.2881
					c-27.2881-20.3018-52.1514-28.8906-74.1587-25.4385c-23.4868,3.6992-36.5347,20.6309-36.6582,20.7949
					c-6.7398,9.4932-19.8907,11.6719-29.3428,4.8906c-9.4522-6.7402-11.6509-19.8906-4.8906-29.3437
					c2.2807-3.2051,23.5483-31.5205,64.3779-37.9316c33.5962-5.1368,69.104,5.9589,105.8032,33.288
					c71.3228,53.0967,107.0567,9.6573,110.9195,4.4795c0.8427-1.1913,23.4252-32.0135,65.5698-38.3017
					c33.3906-4.9727,68.6108,6.4521,104.6933,33.9873c26.4458,20.1777,50.7129,28.9726,72.3916,25.8906
					c24.4737-3.4111,37.8291-20.8769,38.3838-21.6172c0.8848-1.1504,64.7276-82.1933,169.9766-4.4795
					c70.0693,51.7823,107.3643,9.001,111.4121,3.9864c1.7881-2.1368,32.1377-37.4795,76.8926-38.836
					c28.1709-1.3564,55.2744,11.6299,79.7881,37.2334c8.0556,8.3838,7.7675,21.6992-0.6368,29.7129
					c-8.3632,8.0957-21.6992,7.7676-29.7334-0.6172c-15.9248-16.6435-32.6923-24.9863-48.1035-24.2871
					c-25.8291,0.8223-45.3711,23.0957-45.5556,23.3008c0.0205,0.041-63.8848,81.002-169.0508,3.3711
					c-72.3301-53.4258-109.749-6.2061-111.3096-4.1514c-0.5547,0.7803-23.1172,31.6035-65.2412,37.8916
					C529.4037,717.1045,524.2875,717.4746,519.1303,717.4746L519.1303,717.4746z"/>
			</g>
			<g>
				<path fill="#5065A1" d="M519.1303,912.5195c-28.7881,0-58.7681-11.7949-89.3648-35.1385
					c-26.6923-20.3418-51.227-29.1368-72.9668-25.8086c-24.3501,3.6172-37.5625,21.206-37.6855,21.3711
					c-2.2603,3.164-23.5278,31.4795-64.3369,37.8906c-33.6172,5.1367-69.0835-5.959-105.7827-33.2891
					c-27.3086-20.3008-52.1719-28.8906-74.1792-25.4375c-23.4868,3.6572-36.5347,20.6299-36.6582,20.7949
					c-6.7398,9.4512-19.8907,11.6709-29.3428,4.8897c-9.4522-6.7393-11.6509-19.8906-4.8906-29.3428
					c2.2807-3.2051,23.5483-31.5215,64.3779-37.9316c33.5962-5.1377,69.104,5.959,105.8032,33.2871
					c71.4053,53.0566,107.0772,9.5762,110.9195,4.4394c0.8427-1.1503,23.4252-32.0146,65.5698-38.3027
					c33.3906-4.9316,68.6108,6.4941,104.6933,33.9873c26.4458,20.1787,50.7129,28.9326,72.3916,25.8906
					c24.4737-3.3701,37.8291-20.8359,38.3838-21.6161c0.8848-1.1513,64.7071-82.1933,169.9961-4.4804
					c72.2276,53.4257,109.708,6.206,111.2696,4.1513c1.9111-2.3017,32.2607-37.6035,77.0156-39.001
					c28.1709-1.3964,55.2744,11.6309,79.7881,37.2344c8.0556,8.3828,7.7675,21.6983-0.6368,29.7539
					c-8.3632,8.0547-21.6992,7.7666-29.7334-0.6582c-15.9248-16.6035-32.6923-24.8633-48.1035-24.247
					c-25.8291,0.7802-45.3711,23.0556-45.5556,23.3017c0.0205,0.041-63.8643,81.084-169.0713,3.3291
					c-72.2891-53.3848-109.7285-6.206-111.2696-4.1514c-0.5742,0.8223-23.1367,31.6446-65.2607,37.9327
					C529.4037,912.1074,524.2875,912.5195,519.1303,912.5195L519.1303,912.5195z"/>
			</g>
			<g>
				<path fill="#5065A1" d="M519.1303,1010c-28.7881,0-58.7681-11.7539-89.3648-35.0967
					c-26.6923-20.3839-51.227-28.9736-72.9668-25.8086c-24.3501,3.6161-37.5625,21.1651-37.6855,21.3291
					c-2.2603,3.1641-23.5278,31.5215-64.3369,37.8907c-33.6172,5.2607-69.104-5.918-105.8032-33.2872
					c-71.3848-53.0976-107.1182-9.5761-110.94-4.4394c-6.9043,9.206-20.0141,11.2607-29.3432,4.4805
					c-9.3081-6.8223-11.4659-19.7676-4.7671-29.1387c2.2807-3.2051,23.5483-31.5205,64.3779-37.8906
					c33.4731-5.3008,69.104,5.9589,105.8032,33.248c71.2818,53.0957,107.0567,9.6152,110.9195,4.4785
					c0.8427-1.1914,23.4252-32.0136,65.5698-38.3017c33.3906-4.9317,68.6108,6.4521,104.6933,33.9872
					c26.7129,20.3419,51.2071,29.0957,72.9883,25.8087c24.3281-3.6582,37.541-21.2061,37.6641-21.3712
					c0.9863-1.3145,64.8711-82.3574,170.0996-4.6436c72.2676,53.4258,109.7275,6.2061,111.2891,4.1514
					c1.9111-2.3018,32.2607-37.6035,77.0156-39.001c28.1709-0.6572,55.2744,11.6299,79.7881,37.2334
					c8.0556,8.3838,7.7675,21.6992-0.6368,29.7129c-8.3632,8.0957-21.6992,7.7676-29.7334-0.6172
					c-15.8222-16.5195-31.9941-25.3144-47.8359-24.2871c-25.9121,0.6572-45.6992,23.1777-45.9053,23.4248l0,0
					c0.0205,0-63.7617,81.001-168.9892,3.2061c-70.0488-51.7002-107.3653-8.959-111.4131-3.9454
					c-0.4307,0.6153-22.9932,31.4795-65.1377,37.7676C529.4037,1009.6299,524.2875,1010,519.1303,1010L519.1303,1010z"/>
			</g>
		</g>
		<g>
			<polygon fill="#5065A1" points="391.0321,448.4253 114.8837,448.4253 114.8837,406.3423 391.0321,406.3423 391.0321,448.4253 			
				"/>
		</g>
		<g>
			<polygon fill="#5065A1" points="392.9843,573.3486 111.9657,573.3486 111.9657,531.2656 392.9843,531.2656 392.9843,573.3486 			
				"/>
		</g>
		<g>
			<polygon fill="#5065A1" points="133.0072,624.8018 90.9242,624.8018 90.9242,302.5117 133.0072,302.5117 133.0072,624.8018 			
				"/>
		</g>
	</g>
	<g>
		<g>
			<path fill="#5065A1" d="M736.5307,462.7476c-11.6299,0-21.041-9.4112-21.041-21.0415v-42.0625
				c0-11.6304,9.4111-21.0415,21.041-21.0415c11.6308,0,21.042,9.4111,21.042,21.0415v42.0625
				C757.5727,453.3364,748.1615,462.7476,736.5307,462.7476L736.5307,462.7476z"/>
		</g>
		<g>
			<path fill="#5065A1" d="M736.5307,84.1655c-11.6299,0-21.041-9.4111-21.041-21.041v-42.083
				C715.4897,9.4111,724.9008,0,736.5307,0c11.6308,0,21.042,9.4111,21.042,21.0415v42.083
				C757.5727,74.7544,748.1615,84.1655,736.5307,84.1655L736.5307,84.1655z"/>
		</g>
		<g>
			<path fill="#5065A1" d="M568.2406,252.415h-42.042c-11.6308,0-21.0415-9.4111-21.0415-21.0415
				c0-11.6303,9.4107-21.0415,21.0415-21.0415h42.042c11.6299,0,21.042,9.4112,21.042,21.0415
				C589.2826,243.0039,579.8705,252.415,568.2406,252.415L568.2406,252.415z"/>
		</g>
		<g>
			<path fill="#5065A1" d="M946.8627,252.415h-42.041c-11.6309,0-21.041-9.4111-21.041-21.0415
				c0-11.6303,9.4101-21.0415,21.041-21.0415h42.041c11.6309,0,21.0421,9.4112,21.0421,21.0415
				C967.9047,243.0039,958.4936,252.415,946.8627,252.415L946.8627,252.415z"/>
		</g>
		<g>
			<path fill="#5065A1" d="M587.8022,401.1846c-5.3828,0-10.7676-2.0547-14.877-6.1641c-8.2187-8.2197-8.2187-21.5347,0-29.7539
				l29.7754-29.7749c8.2188-8.2192,21.5342-8.2192,29.7539,0c8.2188,8.2197,8.2188,21.5347,0,29.7539l-29.7754,29.7749
				C598.5697,399.1299,593.186,401.1846,587.8022,401.1846L587.8022,401.1846z"/>
		</g>
		<g>
			<path fill="#5065A1" d="M855.4858,133.4404c-5.3848,0-10.7676-2.0547-14.877-6.1645c-8.2197-8.2193-8.2197-21.5347,0-29.7539
				l29.7734-29.7744c8.2198-8.2193,21.5352-8.2193,29.7539,0c8.2198,8.2192,8.2198,21.5346,0,29.7539l-29.7734,29.7744
				C866.2524,131.3857,860.8686,133.4404,855.4858,133.4404L855.4858,133.4404z"/>
		</g>
		<g>
			<path fill="#5065A1" d="M617.5776,133.4404c-5.3848,0-10.7676-2.0547-14.877-6.1645l-29.7754-29.7744
				c-8.2187-8.2193-8.2187-21.5347,0-29.7539c8.2197-8.2193,21.5352-8.2193,29.7539,0l29.7754,29.7744
				c8.2188,8.2192,8.2188,21.5346,0,29.7539C628.3442,131.3857,622.9604,133.4404,617.5776,133.4404L617.5776,133.4404z"/>
		</g>
		<g>
			<path fill="#5065A1" d="M885.2592,401.1846c-5.3828,0-10.7676-2.0547-14.877-6.1641l-29.7734-29.7749
				c-8.2197-8.2192-8.2197-21.5342,0-29.7539c8.2188-8.2192,21.5342-8.2192,29.7539,0l29.7734,29.7749
				c8.2198,8.2192,8.2198,21.5342,0,29.7539C896.0268,399.1299,890.644,401.1846,885.2592,401.1846L885.2592,401.1846z"/>
		</g>
		<g>
			<path fill="#5065A1" d="M736.5307,336.5605c-58.0078,0-105.1865-47.1792-105.1865-105.187S678.5229,126.187,736.5307,126.187
				s105.1875,47.1787,105.1875,105.1865S794.5385,336.5605,736.5307,336.5605L736.5307,336.5605z M736.5307,168.27
				c-34.7881,0-63.1035,28.3154-63.1035,63.1035c0,34.7886,28.3154,63.104,63.1035,63.104c34.789,0,63.1035-28.3154,63.1035-63.104
				C799.6342,196.5854,771.3197,168.27,736.5307,168.27L736.5307,168.27z"/>
		</g>
	</g>
</g>
</svg>
