<?xml version="1.0" encoding="utf-8"?>
<!-- Generator: Adobe Illustrator 17.1.0, SVG Export Plug-In . SVG Version: 6.00 Build 0)  -->
<!DOCTYPE svg PUBLIC "-//W3C//DTD SVG 1.1//EN" "http://www.w3.org/Graphics/SVG/1.1/DTD/svg11.dtd">
<svg version="1.1" id="taxi" xmlns="http://www.w3.org/2000/svg" xmlns:xlink="http://www.w3.org/1999/xlink" x="0px" y="0px"
	 viewBox="0 0 1010 898.4628" enable-background="new 0 0 1010 898.4628" xml:space="preserve">
<g id="taxi-taxi">
	<g>
		<path fill="#5065A1" d="M887.2842,757.5h-736.499C74.6836,757.5,0,683.3603,0,607.8037V488.3564
			c0-7.9326-0.0103-32.0762,203.7485-307.9302c17.0967-34.4599,52.4912-54.1762,97.4927-54.1762H736.5
			c45.5352,0,81.1865,20.1479,98.0977,55.3271C950.9844,366.205,1010,470.0781,1010,490.3076v117.4961
			C1010,681.3876,964.0947,757.5,887.2842,757.5L887.2842,757.5z M42.0835,490.3701v117.4336
			c0,52.2968,55.8711,107.6132,108.7017,107.6132h736.499c50.4678,0,80.6318-54.7001,80.6318-107.6132V491.9306
			c-6.7803-23.3115-90.9472-164.2641-169.6074-288.9936c-0.4922-0.7603-0.9238-1.5616-1.3145-2.3941
			c-12.9453-28.0278-43.4599-32.2094-60.4941-32.2094H301.2412c-16.9526,0-47.3335,4.1508-60.3408,31.9321
			c-0.5957,1.2637-1.3047,2.4658-2.1372,3.5859C148.124,326.5258,50.8267,465.7939,42.0835,490.3701L42.0835,490.3701z"/>
	</g>
	<g>
		<path fill="#5065A1" d="M915.3125,396.6274H115.729c-11.6201,0-21.0415-9.4219-21.0415-21.042
			c0-11.6201,9.4214-21.0415,21.0415-21.0415h799.5835c11.6309,0,21.041,9.4214,21.041,21.0415
			C936.3535,387.2055,926.9434,396.6274,915.3125,396.6274L915.3125,396.6274z"/>
	</g>
	<g>
		<path fill="#5065A1" d="M168.313,620.955c-34.8096,0-63.125-28.3154-63.125-63.125c0-34.8094,28.3154-63.125,63.125-63.125
			c34.8091,0,63.125,28.3155,63.125,63.125C231.438,592.6396,203.1221,620.955,168.313,620.955L168.313,620.955z M168.313,536.788
			c-11.5996,0-21.042,9.4317-21.042,21.042c0,11.6104,9.4424,21.0421,21.042,21.0421c11.5996,0,21.0415-9.4316,21.0415-21.0421
			C189.3545,546.2197,179.9126,536.788,168.313,536.788L168.313,536.788z"/>
	</g>
	<g>
		<path fill="#5065A1" d="M841.6875,620.955c-34.8096,0-63.125-28.3154-63.125-63.125c0-34.8094,28.3154-63.125,63.125-63.125
			c34.8086,0,63.125,28.3155,63.125,63.125C904.8125,592.6396,876.4961,620.955,841.6875,620.955L841.6875,620.955z
			 M841.6875,536.788c-11.6104,0-21.042,9.4317-21.042,21.042c0,11.6104,9.4316,21.0421,21.042,21.0421
			c11.6094,0,21.041-9.4316,21.041-21.0421C862.7285,546.2197,853.2969,536.788,841.6875,536.788L841.6875,536.788z"/>
	</g>
	<g>
		<path fill="#5065A1" d="M189.375,898.4628c-58.0083,0-105.2085-47.2001-105.2085-105.208V736.458H126.25v56.7968
			c0,34.8086,28.3159,63.125,63.125,63.125s63.125-28.3164,63.125-63.125V736.458h42.0835v56.7968
			C294.5835,851.2627,247.3833,898.4628,189.375,898.4628L189.375,898.4628z"/>
	</g>
	<g>
		<path fill="#5065A1" d="M820.625,898.4628c-58.0078,0-105.209-47.2001-105.209-105.208V736.458H757.5v56.7968
			c0,34.8086,28.3164,63.125,63.125,63.125s63.125-28.3164,63.125-63.125V736.458h42.084v56.7968
			C925.834,851.2627,878.6328,898.4628,820.625,898.4628L820.625,898.4628z"/>
	</g>
	<g>
		<polygon fill="#5065A1" points="673.334,628.0849 336.6665,628.0849 336.6665,586.0029 673.334,586.0029 673.334,628.0849 		"/>
	</g>
	<g>
		<polygon fill="#5065A1" points="673.334,543.9189 336.6665,543.9189 336.6665,501.8349 673.334,501.8349 673.334,543.9189 		"/>
	</g>
	<g>
		<g>
			<path fill="#5065A1" d="M715.416,168.3335H336.6665c-6.7602,0-13.1099-3.2466-17.0654-8.7437
				c-3.9556-5.4863-5.0342-12.5342-2.8975-18.9556l42.0835-126.25C361.6538,5.7949,369.688,0,378.75,0h294.584
				c9.0605,0,17.0957,5.7949,19.9726,14.3842l42.083,126.25c2.1377,6.4214,1.0479,13.4693-2.9179,18.9556
				C728.5264,165.0869,722.1777,168.3335,715.416,168.3335L715.416,168.3335z M365.856,126.25h320.3823L658.168,42.0835H393.915
				L365.856,126.25L365.856,126.25z"/>
		</g>
		<g>
			<g>
				<rect x="420.8335" y="42.0835" fill="#5065A1" width="42.083" height="42.0834"/>
			</g>
			<g>
				<rect x="462.9165" y="84.1669" fill="#5065A1" width="42.0835" height="42.0831"/>
			</g>
			<g>
				<rect x="505" y="42.0835" fill="#5065A1" width="42.084" height="42.0834"/>
			</g>
			<g>
				<rect x="589.166" y="42.0835" fill="#5065A1" width="42.084" height="42.0834"/>
			</g>
			<g>
				<rect x="547.084" y="84.1669" fill="#5065A1" width="42.082" height="42.0831"/>
			</g>
		</g>
	</g>
	<g>
		<g>
			<path fill="#5065A1" d="M273.8086,267.0278c-5.3833,0-10.7773-2.0547-14.8872-6.1646c-8.209-8.2192-8.209-21.5449,0.0103-29.7646
				l27.3296-27.3086c8.2193-8.1992,21.545-8.2095,29.7647,0.0102c8.209,8.2193,8.209,21.545-0.0103,29.7642l-27.3296,27.3091
				C284.5762,264.9731,279.1924,267.0278,273.8086,267.0278L273.8086,267.0278z"/>
		</g>
		<g>
			<path fill="#5065A1" d="M315.8921,327.1323c-5.3838,0-10.7676-2.0552-14.877-6.1646c-8.2197-8.2192-8.2197-21.5346,0-29.7544
				l87.4131-87.4131c8.2197-8.2197,21.5352-8.2197,29.7544,0c8.2193,8.2193,8.2193,21.5347,0,29.754l-87.4136,87.4135
				C326.6597,325.0771,321.2759,327.1323,315.8921,327.1323L315.8921,327.1323z"/>
		</g>
	</g>
</g>
</svg>
