<?xml version="1.0" encoding="utf-8"?>
<!-- Generator: Adobe Illustrator 17.1.0, SVG Export Plug-In . SVG Version: 6.00 Build 0)  -->
<!DOCTYPE svg PUBLIC "-//W3C//DTD SVG 1.1//EN" "http://www.w3.org/Graphics/SVG/1.1/DTD/svg11.dtd">
<svg version="1.1" id="tent" xmlns="http://www.w3.org/2000/svg" xmlns:xlink="http://www.w3.org/1999/xlink" x="0px" y="0px"
	 viewBox="0 0 1010 1010" enable-background="new 0 0 1010 1010" xml:space="preserve">
<g id="tent-tent">
	<g>
		<g>
			<path fill="#5065A1" d="M940.793,1010H66.5771c-28.809,0-52.2343-23.4463-52.2343-52.2754c0-3.8223,1.0273-7.5625,3-10.8301
				l468.3008-780.5956c7.6025-12.6787,28.4794-12.6787,36.083,0l468.3828,780.5956c1.9726,3.2676,3,7.0078,3,10.8301
				C993.1094,986.5537,969.6426,1010,940.793,1010L940.793,1010z M57.3511,961.998c1.623,3.4932,5.1367,5.918,9.226,5.918H940.793
				c4.1093,0,7.6639-2.4248,9.287-5.9385l-446.395-743.9482L57.3511,961.998L57.3511,961.998z"/>
		</g>
		<g>
			<path fill="#5065A1" d="M640.6611,997.6699l-136.976-301.3438L366.7495,997.6699l-38.3022-17.4248l156.0864-343.4892
				c3.4111-7.5,10.8906-12.3282,19.1514-12.3282c8.2602,0,15.7407,4.8087,19.1508,12.3282l156.127,343.4892L640.6611,997.6699
				L640.6611,997.6699z"/>
		</g>
		<g>
			<polygon fill="#5065A1" points="42.0835,999.3555 0,999.3555 0,815.3643 42.0835,815.3643 42.0835,999.3555 			"/>
		</g>
		<g>
			<polygon fill="#5065A1" points="1010,999.3555 967.916,999.3555 967.916,815.3643 1010,815.3643 1010,999.3555 			"/>
		</g>
		<g>
			<g>
				<path fill="#5065A1" d="M503.7056,158.8809c-4.2329,0-8.4248-1.2745-11.98-3.75c-5.6714-3.9248-9.062-10.3877-9.062-17.292
					V21.041c0-6.9043,3.3906-13.3662,9.062-17.291c5.6509-3.9355,12.8838-4.8291,19.3779-2.415l155.7363,58.3994
					c8.1993,3.082,13.6446,10.9316,13.6446,19.706c0,8.7744-5.4453,16.6241-13.6446,19.7061l-155.7363,58.3984
					C508.6992,158.4395,506.1914,158.8809,503.7056,158.8809L503.7056,158.8809z M524.7471,51.4014v56.0771l74.7763-28.0381
					L524.7471,51.4014L524.7471,51.4014z"/>
			</g>
			<g>
				<polygon fill="#5065A1" points="524.7471,191.5117 482.6636,191.5117 482.6636,0 524.7471,0 524.7471,191.5117 				"/>
			</g>
		</g>
	</g>
	<g>
		<path fill="#5065A1" d="M505,563.0693c-3.9248,0-7.8496-1.1093-11.3018-3.2881L336.2969,459.6289l22.6035-35.5078
			l145.9971,92.8994l143.0996-92.7969l22.8916,35.3028L516.4453,559.6797C512.9727,561.9395,508.9863,563.0693,505,563.0693
			L505,563.0693z"/>
	</g>
	<g>
		<path fill="#5065A1" d="M505,457.8613c-4.0479,0-8.0962-1.1611-11.6304-3.5136L374.147,375.2363l23.2612-35.0556l107.0371,71.0156
			l96.9063-70.502l24.7402,34.0284L517.3701,453.834C513.6914,456.5156,509.3564,457.8613,505,457.8613L505,457.8613z"/>
	</g>
</g>
</svg>
