<?xml version="1.0" encoding="utf-8"?>
<!-- Generator: Adobe Illustrator 17.1.0, SVG Export Plug-In . SVG Version: 6.00 Build 0)  -->
<!DOCTYPE svg PUBLIC "-//W3C//DTD SVG 1.1//EN" "http://www.w3.org/Graphics/SVG/1.1/DTD/svg11.dtd">
<svg version="1.1" id="thermos" xmlns="http://www.w3.org/2000/svg" xmlns:xlink="http://www.w3.org/1999/xlink" x="0px" y="0px"
	 viewBox="0 0 925.8325 1010" enable-background="new 0 0 925.8325 1010" xml:space="preserve">
<g id="thermos-thermos">
	<g>
		<path fill="#5065A1" d="M836.4478,823.4609c-11.6309,0-21.043-9.412-21.043-21.042c0-11.6298,9.4121-21.0419,21.043-21.0419
			c24.9248,0,47.3027-37.3165,47.3027-54.9463c0-1.9522-0.1035-3.3496-0.2266-4.294c-4.9726-0.9863-16.0273-0.9043-25.1924-0.9043
			l-7.624,0.0196c-11.6309,0-21.041-9.4102-21.041-21.0411c0-11.6308,9.4102-21.042,21.041-21.042l7.459-0.0205
			c24.8027-0.123,42.6592-0.1855,55.7285,12.8223c11.9376,11.8975,11.9376,28.8711,11.9376,34.46
			C925.8325,764.5898,887.4487,823.4609,836.4478,823.4609L836.4478,823.4609z"/>
	</g>
	<g>
		<path fill="#5065A1" d="M656.0317,978.1699c-107.1816,0-194.3891-114.5166-194.3891-255.2939c0-31.4805,0-54.2276,23.2192-54.2276
			h342.1328c23.3438,0,23.3438,24.5762,23.3438,53.0157C850.3384,863.0986,763.1714,978.1699,656.0317,978.1699L656.0317,978.1699z
			 M504.0747,710.7314c-0.2051,4.4795-0.3486,8.9385-0.3486,12.1446c0,117.5576,68.3232,213.2109,152.3056,213.2109
			c82.5225,0,152.2227-98.2012,152.2227-214.4228c0-2.877-0.1436-6.8633-0.3691-10.9327H504.0747L504.0747,710.7314z"/>
	</g>
	<g>
		<path fill="#5065A1" d="M846.5571,1010H507.9185c-11.6309,0-21.043-9.4111-21.043-21.041c0-11.6309,9.4121-21.043,21.043-21.043
			h338.6386c17.6924,0,27.7198-7.664,28.9317-10.8691c4.0693-10.8711,16.1933-16.3985,27.1035-12.2676
			c10.8711,4.0889,16.3769,16.2324,12.2676,27.1035C906.271,994.6914,878.8188,1010,846.5571,1010L846.5571,1010z"/>
	</g>
	<g>
		<path fill="#5065A1" d="M486.5063,148.9766c-11.6308,0-21.0419-9.4214-21.0419-21.0415V56.4058
			c0-9.6993-1.6846-12.1133-1.7056-12.1338c-0.1846-0.1133-3.3286-2.1885-18.5962-2.1885H267.418
			c-11.4864,0-14.1577,1.9624-14.1988,1.9829c-0.0825,0.1436-1.685,2.5171-2.1782,13.3154l0.0205,70.5533
			c0,11.6201-9.4111,21.0415-21.0415,21.0415c-11.6308,0-21.042-9.4214-21.042-21.0415V56.4058
			C210.1904,29.6206,217.9165,0,267.418,0h177.7446c29.0557,0,62.3848,6.4111,62.3848,56.4058v71.5293
			C507.5474,139.5552,498.1372,148.9766,486.5063,148.9766L486.5063,148.9766z"/>
	</g>
	<g>
		<path fill="#5065A1" d="M21.0415,732.1016C9.4111,732.1016,0,722.6914,0,711.0605V375.9351
			c0-54.2071,41.0967-92.0577,99.9477-92.0577h70.7281c11.6303,0,21.0415,9.4214,21.0415,21.042
			c0,11.6202-9.4112,21.0415-21.0415,21.0415H99.9477c-26.6923,0-57.8647,13.0894-57.8647,49.9742v335.1254
			C42.083,722.6914,32.6719,732.1016,21.0415,732.1016L21.0415,732.1016z"/>
	</g>
	<g>
		<path fill="#5065A1" d="M529.2876,325.6323c-11.6299,0-21.041-9.4219-21.041-21.042V154.9561H208.3208v128.5927
			c0,11.6201-9.4116,21.0415-21.042,21.0415c-11.6304,0-21.0415-9.4214-21.0415-21.0415V133.9146
			c0-11.6202,9.4111-21.0416,21.0415-21.0416h342.0088c11.6309,0,21.043,9.4214,21.043,21.0416v170.6757
			C550.3306,316.2104,540.9185,325.6323,529.2876,325.6323L529.2876,325.6323z"/>
	</g>
	<g>
		<path fill="#5065A1" d="M529.2876,1010H187.2788c-11.6304,0-21.0415-9.4111-21.0415-21.041V839.3242
			c0-11.6308,9.4111-21.042,21.0415-21.042c11.6304,0,21.042,9.4112,21.042,21.042V967.916h299.9258v-85.8515
			c0-11.6299,9.4111-21.0411,21.041-21.0411c11.6309,0,21.043,9.4112,21.043,21.0411V988.959
			C550.3306,1000.5889,540.9185,1010,529.2876,1010L529.2876,1010z"/>
	</g>
	<g>
		<path fill="#5065A1" d="M507.9185,881.7363H187.2788c-11.6304,0-21.0415-9.4111-21.0415-21.0421V304.9194
			c0-11.6206,9.4111-21.042,21.0415-21.042h342.0088c11.6309,0,21.043,9.4214,21.043,21.042v363.3999
			c0,11.6299-9.412,21.0421-21.043,21.0421c-11.6299,0-21.041-9.4121-21.041-21.0421V325.9609H208.3208v513.6914h299.5977
			c11.6298,0,21.041,9.4122,21.041,21.042C528.9595,872.3252,519.5483,881.7363,507.9185,881.7363L507.9185,881.7363z"/>
	</g>
	<g>
		<line fill="#FFAB00" x1="315.5015" y1="882.0645" x2="315.5015" y2="967.5674"/>
	</g>
	<g>
		<path fill="#5065A1" d="M315.5015,988.6094c-11.6304,0-21.0415-9.412-21.0415-21.042v-85.5029
			c0-11.6299,9.4111-21.0411,21.0415-21.0411c11.6303,0,21.042,9.4112,21.042,21.0411v85.5029
			C336.5435,979.1973,327.1318,988.6094,315.5015,988.6094L315.5015,988.6094z"/>
	</g>
	<g>
		<line fill="#FFAB00" x1="401.0244" y1="882.0645" x2="401.0244" y2="967.5674"/>
	</g>
	<g>
		<path fill="#5065A1" d="M401.0244,988.6094c-11.6304,0-21.0415-9.412-21.0415-21.042v-85.5029
			c0-11.6299,9.4111-21.0411,21.0415-21.0411s21.0415,9.4112,21.0415,21.0411v85.5029
			C422.0659,979.1973,412.6548,988.6094,401.0244,988.6094L401.0244,988.6094z"/>
	</g>
	<g>
		<g>
			<path fill="#5065A1" d="M735.8833,643.6816c-9.4121,0.0205-17.9805-6.3691-20.3848-15.9248
				c-2.8359-11.2607,4.0078-22.6855,15.2881-25.5214c0.8839-0.4307,7.5205-5.4864,7.6846-16.254
				c0,0.0206-0.0195,0.0206-0.0195,0.0206c-0.2051,0-1.3155-2.4454-5.1172-6.2461c-17.8565-17.8985-34.7266-40.049-24.5762-68.7461
				c6.5557-18.4107,22.7266-39.3702,62.4062-34.9834v0.1338c9.9249-0.8321,19.377,5.8359,21.8848,15.915
				c2.794,11.2808-4.0693,22.6963-15.3495,25.501c-4.2344,1.037-7.7676,0.6367-11.1582,0.2773
				c-13.6855-1.5-15.8848,0.9238-18.124,7.2324c-0.9864,2.7852-2.6709,7.5313,14.6924,24.9356
				c14.4248,14.4043,17.4453,27.4531,17.4453,35.8574c-0.1856,30.7813-20.5078,52.3984-39.5352,57.166
				C739.3149,643.4766,737.5884,643.6816,735.8833,643.6816L735.8833,643.6816z"/>
		</g>
		<g>
			<path fill="#5065A1" d="M632.6265,643.6816c-9.4113,0.0205-18.001-6.3691-20.3839-15.9248
				c-2.836-11.2607,4.0273-22.706,15.2881-25.5214c0.9033-0.4307,7.5615-5.4864,7.665-16.2334l-0.0215,0.0214
				c-0.1846,0-1.2324-2.4453-5.0342-6.2265c-17.9189-17.9395-34.8095-40.1114-24.5966-68.8282
				c6.5546-18.3798,22.83-39.3911,62.3652-34.9423v0.1235c9.8008-0.8218,19.3359,5.8359,21.8428,15.894
				c2.8348,11.2813-4.0275,22.7061-15.3087,25.5215c-4.1924,1.0684-7.7471,0.6786-11.1787,0.2881
				c-13.5411-1.5-15.8428,0.9043-18.0625,7.2324c-1.0059,2.8262-2.6913,7.5518,14.6523,24.9151
				c14.4043,14.3232,17.4238,27.4121,17.4238,35.8779c-0.082,30.7402-20.4248,52.3984-39.5136,57.166
				C636.0376,643.4766,634.3325,643.6816,632.6265,643.6816L632.6265,643.6816z"/>
		</g>
	</g>
</g>
</svg>
