<?xml version="1.0" encoding="utf-8"?>
<!-- Generator: Adobe Illustrator 17.1.0, SVG Export Plug-In . SVG Version: 6.00 Build 0)  -->
<!DOCTYPE svg PUBLIC "-//W3C//DTD SVG 1.1//EN" "http://www.w3.org/Graphics/SVG/1.1/DTD/svg11.dtd">
<svg version="1.1" id="ticket" xmlns="http://www.w3.org/2000/svg" xmlns:xlink="http://www.w3.org/1999/xlink" x="0px" y="0px"
	 viewBox="0 0 1010 1009.9604" enable-background="new 0 0 1010 1009.9604" xml:space="preserve">
<g id="ticket-ticket">
	<g>
		<path fill="#5065A1" d="M378.5332,1009.9604c-5.1685,0-10.3369-1.9726-14.2822-5.9179l-88.5723-88.5518
			c-5.7993-5.8008-7.5156-14.5195-4.3496-22.0937c1.4893-3.5508,3.916-6.5098,6.9243-8.6407
			c1.9824-1.6572,6.9536-6.0761,8.4722-7.5957c21.4629-21.4414,33.5156-50.164,33.9497-80.8584
			c0.4341-30.6943-10.919-59.2197-31.9771-80.2675c-20.3378-20.338-48.0932-31.5421-78.1464-31.5421
			c-31.4639,0-62.0498,12.5449-83.9268,34.4023c-1.3613,1.3613-4.6655,5.1289-6.2041,7.0029
			c-0.8286,1.2627-1.8247,2.4659-2.9688,3.5508c-7.9301,7.5362-20.4365,7.3975-28.1894-0.374L5.918,645.7485
			C2.1309,641.9614,0,636.8325,0,631.4673c0-5.3653,2.1309-10.4942,5.918-14.2823L617.2051,5.918
			c7.8906-7.8907,20.6738-7.8907,28.5644,0l82.6543,82.6543c3.7871,3.7876,5.918,8.9262,5.918,14.2822
			c0,5.3555-2.1309,10.4941-5.918,14.2817c-17.0644,17.0537-28.3086,46.4165-29.3535,76.6377
			c-1.1445,33.1504,9.291,62.4644,29.3535,82.5361c18.9571,18.9668,46.5938,29.4122,77.8008,29.4122
			c32.0557,0,63.2442-11.2735,81.3926-29.4122c7.8906-7.8906,20.6728-7.8906,28.5635,0l87.9013,87.9214
			c7.8907,7.8907,7.8907,20.6734,0,28.564l-611.2666,611.2471C388.8701,1007.9878,383.7017,1009.9604,378.5332,1009.9604
			L378.5332,1009.9604z M319.1069,901.7798l59.4263,59.416l582.7031-582.6826l-60.5996-60.6099
			c-25.3096,17.9019-59.2197,28.2188-94.412,28.2188l0,0c-42.0176,0-79.7734-14.647-106.3652-41.2481
			c-28.0713-28.0806-42.6885-68.0268-41.1504-112.4907c1.125-32.835,11.3828-64.4761,28.1308-88.2568l-55.3535-55.3624
			L48.7739,631.4673l54.189,54.1689c28.9585-26.4736,67.7808-41.5439,107.5889-41.5439c40.8437,0,78.7382,15.4062,106.7109,43.3789
			c28.8398,28.8398,44.4043,67.7012,43.8125,109.4228C360.5132,836.3071,345.6587,873.3345,319.1069,901.7798L319.1069,901.7798z"/>
	</g>
	<g>
		<g>
			<polygon fill="#5065A1" points="602.4297,715.4829 573.8652,686.9184 692.4023,568.3618 720.9668,596.9263 602.4297,715.4829 			
				"/>
		</g>
		<g>
			<polygon fill="#5065A1" points="749.9453,567.9282 721.3809,539.3638 797.7813,462.9629 826.3457,491.5268 749.9453,567.9282 			
				"/>
		</g>
		<g>
			<polygon fill="#5065A1" points="562.8975,675.9497 534.334,647.3862 758.2305,423.4307 786.7939,451.9946 562.8975,675.9497 			
				"/>
		</g>
	</g>
	<g>
		<path fill="#5065A1" d="M518.3945,554.8491c-40.6958,0-78.9555-15.8213-107.7265-44.6025
			c-28.791-28.7803-44.6416-67.0596-44.6314-107.7852c0.0098-40.706,15.8599-78.9853,44.6509-107.7861
			c28.8306-28.8203,67.1294-44.6904,107.8652-44.6904c40.6953,0,78.9649,15.8501,107.7266,44.6313
			c28.8008,28.7813,44.6406,67.0605,44.6211,107.7759c0,40.7158-15.8594,79.0049-44.6807,107.7959
			C597.4395,538.9888,559.1299,554.8491,518.3945,554.8491L518.3945,554.8491z M518.5527,290.3848
			c-29.9453,0-58.1049,11.6684-79.3012,32.8544c-21.1568,21.167-32.815,49.3067-32.815,79.232
			c-0.0097,29.935,11.6387,58.0552,32.7954,79.2119c21.1368,21.1372,49.2574,32.7764,79.1626,32.7764
			c29.9453,0,58.0948-11.6592,79.2618-32.8355c21.166-21.1763,32.8437-49.3164,32.8437-79.2417
			c0-29.915-11.6387-58.0454-32.7852-79.2021C576.5684,302.0332,548.458,290.3848,518.5527,290.3848L518.5527,290.3848z"/>
	</g>
	<g>
		<g>
			<path fill="#5065A1" d="M507.9199,594.8149c-0.3945,0-0.7988,0-1.1933-0.039c-11.1358-0.6309-19.6382-10.1993-18.9971-21.3438
				l21.0674-361.8349c0.6523-11.1358,10.1699-19.5889,21.3349-18.9971c11.1455,0.6514,19.6475,10.2085,19.0166,21.3442
				l-21.0683,361.855C527.4492,586.5298,518.5332,594.8149,507.9199,594.8149L507.9199,594.8149z"/>
		</g>
		<g>
			<path fill="#5065A1" d="M633.7754,479.02c-5.168,0-10.3369-1.9726-14.2822-5.918L504.2109,357.8003
				c-7.8906-7.8906-7.8906-20.6831,0-28.564c7.8907-7.8906,20.6739-7.8906,28.5645,0l115.2812,115.3018
				c7.8907,7.8906,7.8907,20.6831,0,28.5639C644.1113,477.0474,638.9434,479.02,633.7754,479.02L633.7754,479.02z"/>
		</g>
		<g>
			<path fill="#5065A1" d="M412.4824,469.729c-5.1679,0-10.3364-1.9727-14.2817-5.918c-7.8906-7.8906-7.8906-20.6733,0-28.5639
				l106.0102-106.0108c7.8907-7.8906,20.6739-7.8906,28.5645,0c7.8906,7.8906,7.8906,20.6734,0,28.564L426.7646,463.811
				C422.8193,467.7563,417.6509,469.729,412.4824,469.729L412.4824,469.729z"/>
		</g>
	</g>
	<g>
		<path fill="#5065A1" d="M484.0605,787.7017c-5.1684,0-10.3369-1.9727-14.2822-5.918l-42.8462-42.8457
			c-7.8906-7.8906-7.8906-20.6739,0-28.5645c7.8907-7.8906,20.6739-7.8906,28.5645,0l42.8457,42.8457
			c7.8901,7.8906,7.8901,20.6934,0,28.5645C494.397,785.729,489.229,787.7017,484.0605,787.7017L484.0605,787.7017z
			 M398.3682,702.0093c-5.1685,0-10.3365-1.9727-14.2818-5.918l-42.8462-42.8467c-7.8906-7.8906-7.8906-20.6933,0-28.5635
			c7.8907-7.8906,20.6734-7.8906,28.564,0l42.8462,42.8467c7.8906,7.8906,7.8906,20.6729,0,28.5635
			C408.7051,700.0366,403.5366,702.0093,398.3682,702.0093L398.3682,702.0093z M312.6763,616.2974
			c-5.1685,0-10.3369-1.9727-14.2823-5.918l-42.8559-42.8653c-7.8906-7.8906-7.8906-20.6738,0-28.5644s20.6733-7.8906,28.564,0
			l42.8559,42.8652c7.8906,7.8907,7.8906,20.674,0,28.5645C323.0127,614.3247,317.8442,616.2974,312.6763,616.2974
			L312.6763,616.2974z M226.9741,530.5854c-5.1684,0-10.3369-1.9726-14.2822-5.9082l-42.8462-42.8559
			c-7.8906-7.8906-7.8906-20.6831,0-28.564c7.8906-7.8906,20.6738-7.8906,28.5645,0l42.8457,42.856
			c7.8906,7.8906,7.8906,20.6831,0,28.5639C237.3105,528.6128,232.1426,530.5854,226.9741,530.5854L226.9741,530.5854z"/>
	</g>
</g>
</svg>
