<?xml version="1.0" encoding="utf-8"?>
<!-- Generator: Adobe Illustrator 17.1.0, SVG Export Plug-In . SVG Version: 6.00 Build 0)  -->
<!DOCTYPE svg PUBLIC "-//W3C//DTD SVG 1.1//EN" "http://www.w3.org/Graphics/SVG/1.1/DTD/svg11.dtd">
<svg version="1.1" id="weather" xmlns="http://www.w3.org/2000/svg" xmlns:xlink="http://www.w3.org/1999/xlink" x="0px" y="0px"
	 viewBox="0 0 1010 760.336" enable-background="new 0 0 1010 760.336" xml:space="preserve">
<g id="weather-weather">
	<g>
		<g>
			<path fill="#5065A1" d="M751.8496,507.7129l-40.9746-9.5351c4.1514-17.8975,6.2676-36.4727,6.2676-55.1934
				c0-135.0649-110.7149-244.938-246.7871-244.938c-90.4751,0-173.5733,48.9878-216.8692,127.8325l-36.9052-20.2607
				c50.7138-92.3042,147.9492-149.6548,253.7744-149.6548c159.292,0,288.8711,128.7568,288.8711,287.021
				C759.2266,464.9102,756.7402,486.6914,751.8496,507.7129L751.8496,507.7129z"/>
		</g>
		<g>
			<path fill="#5065A1" d="M799.7891,760.336H217.7729C93.6191,760.336,0,660.5723,0,528.3028
				c0-132.333,93.6191-232.1167,217.7729-232.1167c57.4947,0,112.7496,20.9799,155.5933,59.0771l-27.9458,31.439
				c-35.1382-31.2334-80.4678-48.4326-127.6475-48.4326c-101.7973,0-175.6894,79.913-175.6894,190.0332
				c0,110.0566,73.8921,189.9492,175.6894,189.9492h582.0162c83.7755,0,151.9355-67.6856,151.9355-150.8867
				c0-83.2217-68.1601-150.9297-151.9355-150.9297c-16.2754,0-32.2812,2.5488-47.6319,7.542l-13.0693-39.9873
				c19.5625-6.3907,39.9883-9.6377,60.7012-9.6377c106.9746,0,194.0185,86.5918,194.0185,193.0127
				C993.8076,673.7657,906.7637,760.336,799.7891,760.336L799.7891,760.336z"/>
		</g>
	</g>
	<g>
		<path fill="#5065A1" d="M880.3594,407.5586l-35.2207-23.0136c15.9258-24.3912,24.3506-52.7686,24.3506-82.0914
			c0-83.0161-67.543-150.559-150.579-150.559c-45.084,0-87.4141,19.9731-116.1612,54.7822l-32.4658-26.7949
			c36.7813-44.5288,90.9473-70.0703,148.627-70.0703c106.2353,0,192.662,86.4267,192.662,192.642
			C911.5723,339.9751,900.7852,376.3252,880.3594,407.5586L880.3594,407.5586z"/>
	</g>
	<g>
		<polygon fill="#5065A1" points="766.1309,62.4263 724.0469,62.4263 724.0469,0 766.1309,0 766.1309,62.4263 		"/>
	</g>
	<g>
		<polygon fill="#5065A1" points="571.207,141.271 527.0693,97.1328 556.8232,67.3789 600.9609,111.5171 571.207,141.271 		"/>
	</g>
	<g>
		<polygon fill="#5065A1" points="1010,301.8575 950.2031,301.8575 950.2031,259.7744 1010,259.7744 1010,301.8575 		"/>
	</g>
	<g>
		<polygon fill="#5065A1" points="909.8467,141.271 880.0918,111.5171 924.2305,67.3789 953.9844,97.1328 909.8467,141.271 		"/>
	</g>
</g>
</svg>
